<svg xmlns="http://www.w3.org/2000/svg" width="165" height="159" viewBox="0 0 165 159" fill="none">
  <path d="M28.6642 107.775C34.5198 103.91 40.4892 100.22 46.5644 96.7099C47.9334 95.916 47.1611 93.9758 45.9108 93.9454C46.2283 93.3356 46.149 92.5811 45.3383 92.2091L43.0848 91.1844C49.4795 83.6846 56.6222 76.8564 64.4021 70.8055C66.7714 68.961 69.2004 67.1944 71.6853 65.5088C73.8787 64.0211 76.0877 62.4984 78.5156 61.4247C79.5921 60.9497 80.8002 60.5151 82.0256 60.3191C79.1411 63.2208 76.8797 66.704 75.5972 70.6495C74.7721 73.1902 74.1618 76.1776 75.0594 78.7776C75.9318 81.2901 78.1752 82.8206 80.781 83.0395C87.4584 83.593 90.6597 77.0095 91.5559 71.4066C92.2557 67.0431 92.0672 61.5319 88.392 58.8321C91.9954 56.4362 96.1391 54.8055 100.281 54.0641C112.444 51.8874 124.799 56.7485 135.032 62.9511C136.639 63.9205 138.149 61.4254 136.537 60.4535C125.909 54.0122 113.467 49.3046 100.856 51.0333C95.3193 51.7906 89.816 54.0427 85.2794 57.4786C80.0898 56.3586 74.7938 59.9098 70.727 62.6496C59.3697 70.2922 49.1647 79.5031 40.3521 89.9486C37.634 88.7162 34.9184 87.4796 32.2045 86.2496C32.0559 86.1823 31.9072 86.1427 31.7659 86.1187C31.6694 84.6082 29.2833 84.0711 28.921 85.7613C27.4755 92.5798 26.6582 99.5101 26.5029 106.478C26.4795 107.504 27.7304 108.392 28.6618 107.779L28.6642 107.775ZM85.8585 60.7268C87.787 61.6446 88.72 63.6873 88.9558 65.7882C89.2414 68.3141 88.823 71.011 88.1624 73.445C87.4746 75.9795 86.143 78.788 83.511 79.7664C81.5464 80.4962 78.8434 80.2632 77.918 78.0972C76.9909 75.9246 77.8157 73.1444 78.5426 71.0341C79.9496 66.9467 82.5698 63.4683 85.8545 60.7244L85.8585 60.7268ZM31.2523 88.9919L38.4421 92.2582C37.7219 93.1483 37.0073 94.0474 36.305 94.9539C35.1593 96.4389 37.6643 97.9324 38.8026 96.4597C39.5762 95.4627 40.3662 94.4755 41.1643 93.4932C42.0558 93.8971 42.9409 94.3028 43.8325 94.7067C43.9109 94.7429 43.9901 94.7684 44.0652 94.7914C39.1483 97.6551 34.3008 100.636 29.5268 103.732C29.7613 98.785 30.3378 93.8597 31.2523 88.9919Z" fill="#F2464F"/>
</svg>