<svg xmlns="http://www.w3.org/2000/svg" width="178" height="179" viewBox="0 0 178 179" fill="none">
  <path d="M127.52 172.677L89 154.738L50.4797 172.677V64.347H127.52V172.677Z" fill="#F2464F"/>
  <path d="M127.52 174.067C127.381 174.067 127.103 174.067 126.964 173.928L89 156.267L51.175 173.928C50.7578 174.067 50.2016 174.067 49.7844 173.789C49.3672 173.511 49.0891 173.094 49.0891 172.677V64.347C49.0891 63.5127 49.6453 62.9564 50.4797 62.9564H127.381C128.216 62.9564 128.772 63.5127 128.772 64.347V172.677C128.772 173.094 128.494 173.65 128.077 173.789C127.937 173.928 127.659 174.067 127.52 174.067ZM89 153.347C89.1391 153.347 89.4172 153.347 89.5562 153.486L125.991 170.452V65.7377H51.8703V170.591L88.3047 153.625C88.5828 153.486 88.8609 153.347 89 153.347Z" fill="#110F0D"/>
  <path d="M50.4797 124.005C51.0359 124.005 51.7312 123.866 52.2875 123.727C53.6781 130.958 60.075 136.103 67.4453 136.103C70.5047 136.103 73.425 135.269 75.9281 133.461C78.8484 137.772 83.5765 140.275 88.7219 140.275C93.8672 140.275 98.7344 137.633 101.516 133.461C104.019 135.13 106.939 136.103 109.998 136.103C117.508 136.103 123.766 130.819 125.156 123.727C125.712 123.866 126.408 123.866 126.964 124.005V64.208H50.4797V124.005Z" fill="#1D2B5B"/>
  <path d="M95.2578 9.55645C97.3437 13.4502 102.489 14.4236 105.966 11.6424C110.416 8.16582 116.952 10.808 117.508 16.3705C117.632 17.3977 117.976 18.3862 118.515 19.2694C119.054 20.1525 119.776 20.9096 120.633 21.4896C121.49 22.0697 122.461 22.459 123.481 22.6315C124.502 22.8039 125.547 22.7554 126.547 22.4893C131.97 20.9596 136.977 25.9658 135.447 31.3893C134.195 35.7002 137.116 40.0111 141.566 40.4283C147.128 41.1236 149.909 47.6596 146.294 51.9705C143.512 55.4471 144.486 60.5924 148.38 62.6783C153.247 65.4596 153.247 72.4127 148.38 75.1939C144.486 77.2799 143.512 82.4252 146.294 85.9018C149.77 90.3518 147.128 96.8877 141.566 97.4439C140.538 97.5683 139.55 97.9117 138.667 98.4508C137.784 98.99 137.027 99.7123 136.446 100.569C135.866 101.426 135.477 102.397 135.305 103.418C135.132 104.438 135.181 105.483 135.447 106.483C136.977 111.906 131.97 116.913 126.547 115.383C122.236 114.131 117.925 117.052 117.508 121.502C116.812 127.064 110.277 129.846 105.966 126.23C102.489 123.449 97.3437 124.422 95.2578 128.316C92.4766 133.183 85.5234 133.183 82.7422 128.316C80.6562 124.422 75.5109 123.449 72.0344 126.23C67.5844 129.706 61.0484 127.064 60.4922 121.502C60.3678 120.475 60.0245 119.486 59.4853 118.603C58.9462 117.72 58.2238 116.963 57.3669 116.383C56.5101 115.803 55.5388 115.413 54.5186 115.241C53.4983 115.068 52.453 115.117 51.4531 115.383C46.0297 116.913 41.0234 111.906 42.5531 106.483C43.8047 102.172 40.8844 97.8611 36.4344 97.4439C30.8719 96.7486 28.0906 90.2127 31.7062 85.9018C34.4875 82.4252 33.5141 77.2799 29.6203 75.1939C24.7531 72.4127 24.7531 65.4596 29.6203 62.6783C33.5141 60.5924 34.4875 55.4471 31.7062 51.9705C28.2297 47.5205 30.8719 40.9846 36.4344 40.4283C37.4616 40.304 38.4501 39.9606 39.3332 39.4215C40.2163 38.8823 40.9735 38.1599 41.5535 37.3031C42.1335 36.4462 42.5229 35.4749 42.6953 34.4547C42.8678 33.4345 42.8193 32.3891 42.5531 31.3893C41.0234 25.9658 46.0297 20.9596 51.4531 22.4893C55.7641 23.7408 60.075 20.8205 60.4922 16.3705C61.1875 10.808 67.7234 8.02676 72.0344 11.6424C75.5109 14.4236 80.6562 13.4502 82.7422 9.55645C85.5234 4.5502 92.4766 4.5502 95.2578 9.55645Z" fill="#F4B544"/>
  <path d="M89 133.6C85.8016 133.6 83.0203 131.931 81.4906 129.15C80.5172 127.342 78.5703 126.23 76.4844 126.23C75.2328 126.23 73.9813 126.647 72.8688 127.481C71.3391 128.733 69.5312 129.289 67.5844 129.289C63.2734 129.289 59.5187 126.091 59.1016 121.641C58.8234 118.721 56.3203 116.495 53.4 116.495C52.8438 116.495 52.2875 116.635 51.7313 116.774C48.3938 117.747 44.6391 116.495 42.5531 113.714C40.8844 111.628 40.4672 108.847 41.1625 106.205C41.5797 104.536 41.3016 102.867 40.4672 101.477C39.4938 100.086 37.9641 99.1127 36.2953 98.9736C33.0969 98.5564 30.5938 96.6096 29.3422 93.6892C28.0906 90.7689 28.6469 87.5705 30.5938 85.0674C31.7063 83.6768 32.1234 82.008 31.7062 80.3392C31.4281 78.6705 30.3156 77.2799 28.7859 76.4455C26.0047 74.9158 24.3359 72.1346 24.3359 68.9361C24.3359 65.7377 26.0047 62.9564 28.7859 61.4268C30.3156 60.5924 31.2891 59.2018 31.7062 57.533C31.9844 55.8643 31.5672 54.1955 30.5938 52.8049C28.6469 50.3018 28.2297 47.1033 29.3422 44.183C30.5938 41.2627 33.0969 39.3158 36.2953 38.8986C37.9641 38.7596 39.4938 37.7861 40.4672 36.3955C41.4406 35.0049 41.7188 33.1971 41.1625 31.6674C40.4672 29.0252 40.8844 26.383 42.5531 24.158C44.6391 21.3768 48.3938 20.1252 51.7313 21.0986C52.2875 21.2377 52.8438 21.3768 53.4 21.3768C56.3203 21.3768 58.8234 19.1518 59.1016 16.2314C59.6578 11.9205 63.2734 8.58301 67.5844 8.58301C69.5312 8.58301 71.3391 9.27832 72.8688 10.3908C73.9813 11.3643 75.0938 11.7814 76.4844 11.7814C78.5703 11.7814 80.5172 10.6689 81.4906 8.86113C83.0203 6.07988 85.8016 4.41113 89 4.41113C92.1984 4.41113 94.9797 6.07988 96.5094 8.86113C97.4828 10.6689 99.4297 11.7814 101.516 11.7814C102.767 11.7814 104.019 11.3643 105.131 10.5299C106.661 9.27832 108.469 8.72207 110.416 8.72207C114.727 8.72207 118.481 11.9205 118.898 16.3705C119.177 19.2908 121.68 21.5158 124.6 21.5158C125.156 21.5158 125.713 21.3768 126.269 21.2377C129.606 20.2643 133.361 21.5158 135.447 24.2971C137.116 26.383 137.533 29.1643 136.838 31.8064C136.42 33.4752 136.698 35.1439 137.533 36.5346C138.506 37.9252 140.036 38.8986 141.705 39.0377C144.903 39.4549 147.406 41.4018 148.658 44.3221C149.909 47.2424 149.353 50.4408 147.406 52.9439C146.294 54.3346 145.877 56.0033 146.294 57.6721C146.572 59.3408 147.684 60.7314 149.214 61.5658C151.995 63.0955 153.664 65.8768 153.664 69.0752C153.664 72.2736 151.995 75.0549 149.214 76.5846C147.684 77.4189 146.711 78.8096 146.294 80.4783C146.016 82.1471 146.433 83.8158 147.406 85.2064C149.353 87.7096 149.77 90.908 148.658 93.8283C147.406 96.7486 144.903 98.6955 141.705 99.1127C140.036 99.2517 138.506 100.225 137.533 101.616C136.559 103.006 136.281 104.814 136.838 106.344C137.533 108.986 137.116 111.628 135.447 113.853C133.361 116.635 129.606 117.886 126.269 116.913C125.713 116.774 125.156 116.635 124.6 116.635C121.68 116.635 119.177 118.86 118.898 121.78C118.342 126.091 114.727 129.428 110.416 129.428C108.469 129.428 106.661 128.733 105.131 127.62C104.158 126.786 102.906 126.369 101.516 126.369C99.4297 126.369 97.4828 127.481 96.5094 129.289C94.9797 131.931 92.1984 133.6 89 133.6ZM76.4844 123.449C79.5438 123.449 82.4641 125.117 83.9938 127.899C84.9672 129.706 86.9141 130.819 89 130.819C91.0859 130.819 93.0328 129.706 94.0062 127.899C95.5359 125.117 98.3172 123.449 101.516 123.449C103.463 123.449 105.27 124.144 106.8 125.256C107.773 126.091 109.025 126.508 110.416 126.508C112.919 126.508 115.839 124.7 116.117 121.363C116.673 117.052 120.289 113.714 124.6 113.714C125.434 113.714 126.13 113.853 126.964 113.992C129.328 114.688 131.692 113.853 133.222 111.906C134.334 110.516 134.613 108.569 134.195 106.9C133.5 104.536 133.917 101.894 135.308 99.808C136.698 97.7221 138.923 96.3314 141.427 96.0533C143.512 95.7752 145.32 94.5236 146.155 92.5768C146.989 90.6299 146.711 88.4049 145.32 86.7361C143.791 84.7893 143.095 82.1471 143.652 79.783C144.208 77.2799 145.738 75.1939 147.963 73.9424C149.77 72.9689 150.883 71.0221 150.883 68.9361C150.883 66.8502 149.77 64.9033 147.963 63.9299C145.738 62.6783 144.208 60.5924 143.652 58.0893C143.095 55.5861 143.791 53.083 145.32 51.1361C146.711 49.4674 146.989 47.2424 146.155 45.2955C145.32 43.3486 143.652 41.958 141.427 41.8189C138.923 41.5408 136.698 40.1502 135.308 38.0643C133.917 35.9783 133.5 33.3361 134.195 30.9721C134.752 29.1643 134.334 27.3564 133.222 25.9658C131.831 24.0189 129.328 23.1846 126.964 23.8799C126.13 24.158 125.434 24.158 124.6 24.158C120.289 24.158 116.673 20.9596 116.117 16.5096C115.7 13.1721 112.919 11.3643 110.416 11.3643C109.164 11.3643 107.913 11.7814 106.8 12.6158C105.27 13.8674 103.463 14.4236 101.516 14.4236C98.4563 14.4236 95.5359 12.7549 94.0062 9.97363C93.0328 8.30488 91.0859 7.19238 89 7.19238C86.9141 7.19238 84.9672 8.30488 83.9938 10.1127C82.4641 12.8939 79.6828 14.5627 76.4844 14.5627C74.5375 14.5627 72.7297 13.8674 71.2 12.7549C70.2266 11.9205 68.975 11.5033 67.5844 11.5033C65.0812 11.5033 62.1609 13.3111 61.8828 16.6486C61.3266 20.9596 57.7109 24.2971 53.4 24.2971C52.5656 24.2971 51.8703 24.158 51.0359 24.0189C48.6719 23.3236 46.3078 24.158 44.7781 26.1049C43.6656 27.4955 43.3875 29.4424 43.8047 31.1111C44.5 33.4752 44.0828 36.1174 42.6922 38.2033C41.3016 40.2893 39.0766 41.6799 36.5734 41.958C34.4875 42.2361 32.6797 43.4877 31.8453 45.4346C31.0109 47.3814 31.2891 49.6064 32.6797 51.2752C34.2094 53.2221 34.9047 55.7252 34.3484 58.2283C33.7922 60.7314 32.2625 62.8174 30.0375 64.0689C28.2297 65.0424 27.1172 66.9893 27.1172 69.0752C27.1172 71.1611 28.2297 73.108 30.0375 74.0814C32.2625 75.333 33.7922 77.4189 34.3484 79.9221C34.9047 82.4252 34.2094 84.9283 32.6797 86.8752C31.2891 88.5439 31.0109 90.7689 31.8453 92.7158C32.6797 94.6627 34.3484 96.0533 36.5734 96.1924C39.0766 96.4705 41.3016 97.8611 42.6922 99.9471C44.0828 102.033 44.5 104.675 43.8047 107.039C43.2484 108.847 43.6656 110.655 44.7781 112.046C46.1688 113.992 48.6719 114.827 51.0359 114.131C51.8703 113.853 52.5656 113.853 53.4 113.853C57.7109 113.853 61.3266 117.052 61.8828 121.502C62.3 124.839 65.0812 126.647 67.5844 126.647C68.8359 126.647 70.0875 126.23 71.2 125.396C72.7297 124.005 74.5375 123.449 76.4844 123.449Z" fill="#110F0D"/>
  <path d="M89 133.6C85.8016 133.6 83.0203 131.931 81.4906 129.15C80.5172 127.342 78.5703 126.23 76.4844 126.23C75.2328 126.23 73.9813 126.647 72.8688 127.481C71.3391 128.733 69.5312 129.289 67.5844 129.289C63.2734 129.289 59.5187 126.091 59.1016 121.641C58.8234 118.721 56.3203 116.495 53.4 116.495C52.8438 116.495 52.2875 116.635 51.7313 116.774C48.3938 117.747 44.6391 116.495 42.5531 113.714C40.8844 111.628 40.4672 108.847 41.1625 106.205C41.5797 104.536 41.3016 102.867 40.4672 101.477C39.4938 100.086 37.9641 99.1127 36.2953 98.9736C33.0969 98.5564 30.5938 96.6096 29.3422 93.6892C28.0906 90.7689 28.6469 87.5705 30.5938 85.0674C31.7063 83.6768 32.1234 82.008 31.7062 80.3392C31.4281 78.6705 30.3156 77.2799 28.7859 76.4455C26.0047 74.9158 24.3359 72.1346 24.3359 68.9361C24.3359 65.7377 26.0047 62.9564 28.7859 61.4268C30.3156 60.5924 31.2891 59.2018 31.7062 57.533C31.9844 55.8643 31.5672 54.1955 30.5938 52.8049C28.6469 50.3018 28.2297 47.1033 29.3422 44.183C30.5938 41.2627 33.0969 39.3158 36.2953 38.8986C37.9641 38.7596 39.4938 37.7861 40.4672 36.3955C41.4406 35.0049 41.7188 33.1971 41.1625 31.6674C40.4672 29.0252 40.8844 26.383 42.5531 24.158C44.6391 21.3768 48.3938 20.1252 51.7313 21.0986C52.2875 21.2377 52.8438 21.3768 53.4 21.3768C56.3203 21.3768 58.8234 19.1518 59.1016 16.2314C59.6578 11.9205 63.2734 8.58301 67.5844 8.58301C69.5312 8.58301 71.3391 9.27832 72.8688 10.3908C73.9813 11.3643 75.0938 11.7814 76.4844 11.7814C78.5703 11.7814 80.5172 10.6689 81.4906 8.86113C83.0203 6.07988 85.8016 4.41113 89 4.41113C92.1984 4.41113 94.9797 6.07988 96.5094 8.86113C97.4828 10.6689 99.4297 11.7814 101.516 11.7814C102.767 11.7814 104.019 11.3643 105.131 10.5299C106.661 9.27832 108.469 8.72207 110.416 8.72207C114.727 8.72207 118.481 11.9205 118.898 16.3705C119.177 19.2908 121.68 21.5158 124.6 21.5158C125.156 21.5158 125.713 21.3768 126.269 21.2377C129.606 20.2643 133.361 21.5158 135.447 24.2971C137.116 26.383 137.533 29.1643 136.838 31.8064C136.42 33.4752 136.698 35.1439 137.533 36.5346C138.506 37.9252 140.036 38.8986 141.705 39.0377C144.903 39.4549 147.406 41.4018 148.658 44.3221C149.909 47.2424 149.353 50.4408 147.406 52.9439C146.294 54.3346 145.877 56.0033 146.294 57.6721C146.572 59.3408 147.684 60.7314 149.214 61.5658C151.995 63.0955 153.664 65.8768 153.664 69.0752C153.664 72.2736 151.995 75.0549 149.214 76.5846C147.684 77.4189 146.711 78.8096 146.294 80.4783C146.016 82.1471 146.433 83.8158 147.406 85.2064C149.353 87.7096 149.77 90.908 148.658 93.8283C147.406 96.7486 144.903 98.6955 141.705 99.1127C140.036 99.2517 138.506 100.225 137.533 101.616C136.559 103.006 136.281 104.814 136.838 106.344C137.533 108.986 137.116 111.628 135.447 113.853C133.361 116.635 129.606 117.886 126.269 116.913C125.713 116.774 125.156 116.635 124.6 116.635C121.68 116.635 119.177 118.86 118.898 121.78C118.342 126.091 114.727 129.428 110.416 129.428C108.469 129.428 106.661 128.733 105.131 127.62C104.158 126.786 102.906 126.369 101.516 126.369C99.4297 126.369 97.4828 127.481 96.5094 129.289C94.9797 131.931 92.1984 133.6 89 133.6ZM76.4844 123.449C79.5438 123.449 82.4641 125.117 83.9938 127.899C84.9672 129.706 86.9141 130.819 89 130.819C91.0859 130.819 93.0328 129.706 94.0062 127.899C95.5359 125.117 98.3172 123.449 101.516 123.449C103.463 123.449 105.27 124.144 106.8 125.256C107.773 126.091 109.025 126.508 110.416 126.508C112.919 126.508 115.839 124.7 116.117 121.363C116.673 117.052 120.289 113.714 124.6 113.714C125.434 113.714 126.13 113.853 126.964 113.992C129.328 114.688 131.692 113.853 133.222 111.906C134.334 110.516 134.613 108.569 134.195 106.9C133.5 104.536 133.917 101.894 135.308 99.808C136.698 97.7221 138.923 96.3314 141.427 96.0533C143.512 95.7752 145.32 94.5236 146.155 92.5768C146.989 90.6299 146.711 88.4049 145.32 86.7361C143.791 84.7893 143.095 82.1471 143.652 79.783C144.208 77.2799 145.738 75.1939 147.963 73.9424C149.77 72.9689 150.883 71.0221 150.883 68.9361C150.883 66.8502 149.77 64.9033 147.963 63.9299C145.738 62.6783 144.208 60.5924 143.652 58.0893C143.095 55.5861 143.791 53.083 145.32 51.1361C146.711 49.4674 146.989 47.2424 146.155 45.2955C145.32 43.3486 143.652 41.958 141.427 41.8189C138.923 41.5408 136.698 40.1502 135.308 38.0643C133.917 35.9783 133.5 33.3361 134.195 30.9721C134.752 29.1643 134.334 27.3564 133.222 25.9658C131.831 24.0189 129.328 23.1846 126.964 23.8799C126.13 24.158 125.434 24.158 124.6 24.158C120.289 24.158 116.673 20.9596 116.117 16.5096C115.7 13.1721 112.919 11.3643 110.416 11.3643C109.164 11.3643 107.913 11.7814 106.8 12.6158C105.27 13.8674 103.463 14.4236 101.516 14.4236C98.4563 14.4236 95.5359 12.7549 94.0062 9.97363C93.0328 8.30488 91.0859 7.19238 89 7.19238C86.9141 7.19238 84.9672 8.30488 83.9938 10.1127C82.4641 12.8939 79.6828 14.5627 76.4844 14.5627C74.5375 14.5627 72.7297 13.8674 71.2 12.7549C70.2266 11.9205 68.975 11.5033 67.5844 11.5033C65.0812 11.5033 62.1609 13.3111 61.8828 16.6486C61.3266 20.9596 57.7109 24.2971 53.4 24.2971C52.5656 24.2971 51.8703 24.158 51.0359 24.0189C48.6719 23.3236 46.3078 24.158 44.7781 26.1049C43.6656 27.4955 43.3875 29.4424 43.8047 31.1111C44.5 33.4752 44.0828 36.1174 42.6922 38.2033C41.3016 40.2893 39.0766 41.6799 36.5734 41.958C34.4875 42.2361 32.6797 43.4877 31.8453 45.4346C31.0109 47.3814 31.2891 49.6064 32.6797 51.2752C34.2094 53.2221 34.9047 55.7252 34.3484 58.2283C33.7922 60.7314 32.2625 62.8174 30.0375 64.0689C28.2297 65.0424 27.1172 66.9893 27.1172 69.0752C27.1172 71.1611 28.2297 73.108 30.0375 74.0814C32.2625 75.333 33.7922 77.4189 34.3484 79.9221C34.9047 82.4252 34.2094 84.9283 32.6797 86.8752C31.2891 88.5439 31.0109 90.7689 31.8453 92.7158C32.6797 94.6627 34.3484 96.0533 36.5734 96.1924C39.0766 96.4705 41.3016 97.8611 42.6922 99.9471C44.0828 102.033 44.5 104.675 43.8047 107.039C43.2484 108.847 43.6656 110.655 44.7781 112.046C46.1688 113.992 48.6719 114.827 51.0359 114.131C51.8703 113.853 52.5656 113.853 53.4 113.853C57.7109 113.853 61.3266 117.052 61.8828 121.502C62.3 124.839 65.0812 126.647 67.5844 126.647C68.8359 126.647 70.0875 126.23 71.2 125.396C72.7297 124.005 74.5375 123.449 76.4844 123.449Z" fill="#110F0D"/>
  <path d="M98.8868 91.7393H98.8706H98.7782H98.6854H98.5921H98.4984H98.4042H98.3097H98.2147H98.1192H98.0234H97.9272H97.8305H97.7335H97.6361H97.5383H97.4401H97.3415H97.2426H97.1433H97.0436H96.9436H96.8432H96.7424H96.6413H96.5399H96.4382H96.3361H96.2337H96.1309H96.0279H95.9245H95.8208H95.7169H95.6126H95.508H95.4032H95.298H95.1926H95.0869H94.981H94.8748H94.7683H94.6616H94.5546H94.4473H94.3399H94.2322H94.1242H94.0161H93.9077H93.7991H93.6903H93.5813H93.4721H93.3627H93.253H93.1432H93.0333H92.9231H92.8128H92.7023H92.5916H92.4808H92.3698H92.2587H92.1474H92.036H91.9244H91.8128H91.701H91.589H91.477H91.3648H91.2526H91.1402H91.0277H90.9152H90.8025H90.6898H90.577H90.4641H90.3511H90.2381H90.1251H90.0119H89.8987H89.7855H89.6722H89.5589H89.4456H89.3322H89.2189H89.1055H88.9921H88.8786H88.7652H88.6518H88.5384H88.425H88.3116H88.1982H88.0849H87.9716H87.8583H87.7451H87.6319H87.5187H87.4057H87.2926H87.1797H87.0668H86.954H86.8412H86.7285H86.616H86.5035H86.3911H86.2788H86.1667H86.0546H85.9426H85.8308H85.7191H85.6075H85.4961H85.3848H85.2737H85.1627H85.0518H84.9411H84.8306H84.7202H84.6101H84.5H84.3902H84.2806H84.1711H84.0619H83.9528H83.844H83.7354H83.627H83.5188H83.4108H83.3031H83.1956H83.0883H82.9813H82.8745H82.768H82.6617H82.5557H82.45H82.3446H82.2394H82.1345H82.0299H81.9256H81.8215H81.7178H81.6144H81.5113H81.4085H81.3061H81.2039H81.1021H81.0006H80.8995H80.7987H80.6983H80.5982H80.4984H80.3991H80.3001H80.2014H80.1032H80.0053H79.9078H79.8107H79.714H79.6177H79.5219H79.4264H79.3313H79.2367H79.1682C83.0193 89.6418 85.6328 85.5583 85.6328 80.8643V76.2861H92.3672V80.8643C92.3672 85.561 95.0404 89.6426 98.8868 91.7393Z" fill="#F4B544" stroke="#110F0D" stroke-width="1.5"/>
  <path d="M104.742 99.4893H73.2578C71.5318 99.4893 70.1328 98.09 70.1328 96.3643C70.1328 94.6383 71.5318 93.2393 73.2578 93.2393H73.2713H73.2853H73.2999H73.315H73.3308H73.347H73.3638H73.3812H73.3991H73.4176H73.4366H73.4562H73.4763H73.4969H73.5181H73.5398H73.5621H73.5848H73.6081H73.632H73.6563H73.6812H73.7066H73.7325H73.7589H73.7858H73.8133H73.8412H73.8697H73.8986H73.9281H73.958H73.9885H74.0194H74.0509H74.0828H74.1152H74.1481H74.1815H74.2154H74.2497H74.2846H74.3199H74.3556H74.3919H74.4286H74.4658H74.5034H74.5415H74.58H74.6191H74.6585H74.6985H74.7388H74.7796H74.8209H74.8626H74.9048H74.9473H74.9904H75.0338H75.0777H75.122H75.1668H75.212H75.2576H75.3036H75.35H75.3969H75.4441H75.4918H75.5399H75.5884H75.6373H75.6866H75.7363H75.7864H75.8369H75.8878H75.9391H75.9908H76.0429H76.0953H76.1481H76.2014H76.255H76.3089H76.3633H76.418H76.4731H76.5286H76.5844H76.6406H76.6971H76.754H76.8113H76.8689H76.9269H76.9852H77.0439H77.1029H77.1622H77.2219H77.282H77.3423H77.4031H77.4641H77.5255H77.5872H77.6492H77.7115H77.7742H77.8372H77.9005H77.9641H78.0281H78.0923H78.1568H78.2217H78.2869H78.3523H78.4181H78.4841H78.5505H78.6171H78.6841H78.7513H78.8188H78.8866H78.9547H79.023H79.0916H79.1605H79.2297H79.2991H79.3689H79.4388H79.5091H79.5796H79.6503H79.7214H79.7926H79.8642H79.9359H80.008H80.0802H80.1527H80.2255H80.2985H80.3717H80.4452H80.5189H80.5928H80.667H80.7413H80.8159H80.8908H80.9658H81.0411H81.1166H81.1922H81.2681H81.3442H81.4206H81.4971H81.5738H81.6507H81.7278H81.8051H81.8826H81.9603H82.0382H82.1163H82.1945H82.2729H82.3515H82.4303H82.5093H82.5884H82.6677H82.7472H82.8268H82.9066H82.9866H83.0667H83.147H83.2274H83.308H83.3887H83.4696H83.5507H83.6318H83.7131H83.7946H83.8762H83.9579H84.0398H84.1217H84.2039H84.2861H84.3685H84.451H84.5336H84.6163H84.6991H84.7821H84.8651H84.9483H85.0316H85.1149H85.1984H85.282H85.3657H85.4494H85.5333H85.6173H85.7013H85.7854H85.8696H85.9539H86.0383H86.1227H86.2073H86.2919H86.3765H86.4613H86.546H86.6309H86.7158H86.8008H86.8859H86.971H87.0561H87.1413H87.2265H87.3118H87.3972H87.4825H87.568H87.6534H87.7389H87.8244H87.91H87.9956H88.0812H88.1668H88.2524H88.3381H88.4238H88.5095H88.5952H88.6809H88.7667H88.8524H88.9381H89.0239H89.1096H89.1954H89.2811H89.3668H89.4525H89.5383H89.6239H89.7096H89.7953H89.8809H89.9665H90.0521H90.1377H90.2232H90.3087H90.3942H90.4796H90.565H90.6503H90.7356H90.8209H90.9061H90.9913H91.0764H91.1615H91.2465H91.3314H91.4163H91.5011H91.5859H91.6706H91.7552H91.8397H91.9242H92.0086H92.0929H92.1771H92.2613H92.3454H92.4293H92.5132H92.597H92.6807H92.7644H92.8479H92.9313H93.0146H93.0978H93.1809H93.2639H93.3468H93.4295H93.5122H93.5947H93.6771H93.7594H93.8415H93.9236H94.0055H94.0872H94.1689H94.2504H94.3317H94.413H94.494H94.575H94.6558H94.7364H94.8169H94.8972H94.9774H95.0574H95.1373H95.2169H95.2965H95.3758H95.455H95.534H95.6129H95.6916H95.77H95.8484H95.9265H96.0044H96.0822H96.1597H96.2371H96.3143H96.3913H96.4681H96.5447H96.621H96.6972H96.7732H96.8489H96.9245H96.9998H97.075H97.1499H97.2245H97.299H97.3732H97.4472H97.521H97.5946H97.6679H97.7409H97.8138H97.8864H97.9587H98.0308H98.1027H98.1743H98.2457H98.3168H98.3876H98.4582H98.5285H98.5986H98.6684H98.7379H98.8072H98.8762H98.9449H99.0134H99.0815H99.1494H99.217H99.2844H99.3514H99.4181H99.4846H99.5507H99.6166H99.6822H99.7474H99.8124H99.877H99.9414H100.005H100.069H100.133H100.196H100.258H100.321H100.383H100.445H100.506H100.567H100.628H100.689H100.749H100.809H100.868H100.927H100.986H101.045H101.103H101.16H101.218H101.275H101.332H101.388H101.444H101.499H101.555H101.609H101.664H101.718H101.772H101.825H101.878H101.931H101.983H102.035H102.086H102.137H102.188H102.238H102.288H102.337H102.386H102.435H102.483H102.531H102.578H102.625H102.672H102.718H102.764H102.809H102.854H102.899H102.943H102.986H103.029H103.072H103.114H103.156H103.198H103.239H103.279H103.319H103.359H103.398H103.437H103.475H103.513H103.55H103.587H103.623H103.659H103.695H103.73H103.764H103.798H103.832H103.865H103.898H103.93H103.961H103.992H104.023H104.053H104.083H104.112H104.141H104.169H104.196H104.223H104.25H104.276H104.302H104.327H104.351H104.375H104.399H104.422H104.444H104.466H104.487H104.508H104.528H104.548H104.567H104.586H104.604H104.622H104.639H104.655H104.671H104.686H104.701H104.715H104.729H104.742C106.468 93.2393 107.867 94.6383 107.867 96.3643C107.867 98.09 106.468 99.4893 104.742 99.4893Z" fill="#F4B544" stroke="black" stroke-width="1.5"/>
  <path d="M118.062 52.3018H115.156C110.523 52.3018 106.455 55.8249 105.977 60.3869V53.1291C106.609 50.1794 109.136 47.9893 112.25 47.9893H118.062C118.718 47.9893 119.25 48.521 119.25 49.1768V51.1143C119.25 51.77 118.718 52.3018 118.062 52.3018ZM62.8438 52.3018H59.9375C59.2817 52.3018 58.75 51.77 58.75 51.1143V49.1768C58.75 48.521 59.2817 47.9893 59.9375 47.9893H65.75C68.8637 47.9893 71.3913 50.1794 72.0234 53.1291V60.3869C71.5454 55.8249 67.4771 52.3018 62.8438 52.3018Z" fill="#F4B544" stroke="black" stroke-width="1.5"/>
  <path d="M71.8281 46.7393H106.172V61.9736C106.172 71.4574 98.4837 79.1455 89 79.1455C79.5163 79.1455 71.8281 71.4574 71.8281 61.9736V46.7393Z" fill="#1D2B5B" stroke="black" stroke-width="1.5"/>
  <path d="M70.5938 38.9893H107.406C108.062 38.9893 108.594 39.521 108.594 40.1768V42.1143C108.594 42.77 108.062 43.3018 107.406 43.3018H70.5938C69.938 43.3018 69.4062 42.77 69.4062 42.1143V40.1768C69.4062 39.521 69.938 38.9893 70.5938 38.9893Z" fill="#F4B544" stroke="black" stroke-width="1.5"/>
  <path d="M83.7048 63.481L84.2571 62.9736L84.2571 62.9735L84.2568 62.9732L84.2558 62.9721L84.2519 62.9679L84.2366 62.9513L84.1777 62.8872L83.9574 62.6483C83.7692 62.4444 83.504 62.1578 83.1958 61.8263C82.5799 61.164 81.79 60.3204 81.0993 59.6011L81.0992 59.6011C80.9696 59.4661 80.8807 59.3359 80.8308 59.2281C80.7877 59.1351 80.7844 59.0835 80.7847 59.068C80.7885 59.0636 80.7959 59.056 80.8087 59.0458C80.8628 59.003 81.0022 58.9244 81.3006 58.8685L81.3007 58.8685C82.2795 58.6851 83.4224 58.4655 84.3199 58.2918C84.7688 58.205 85.1566 58.1296 85.4322 58.0759L85.7551 58.0129L85.8415 57.996L85.8638 57.9916L85.8695 57.9905L85.8709 57.9902L85.8713 57.9902L85.8714 57.9901L85.7273 57.2541L85.8714 57.9901L86.2562 57.9148L86.414 57.5558L86.414 57.5558L86.414 57.5558L86.4141 57.5555L86.4146 57.5543L86.4168 57.5493L86.4261 57.5284L86.4626 57.4462C86.4946 57.3743 86.5418 57.2691 86.6015 57.1373C86.721 56.8736 86.8909 56.5038 87.0917 56.0804C87.4951 55.2295 88.0162 54.1778 88.502 53.3353L88.502 53.3352C88.7281 52.943 89.2719 52.943 89.498 53.3352L89.498 53.3353C89.9838 54.1778 90.5049 55.2295 90.9083 56.0804C91.1091 56.5038 91.279 56.8736 91.3985 57.1373C91.4582 57.2691 91.5054 57.3743 91.5374 57.4462L91.5739 57.5284L91.5832 57.5493L91.5854 57.5543L91.5859 57.5555L91.586 57.5558L91.586 57.5558L91.586 57.5558L91.7438 57.9148L92.1286 57.9901L92.2727 57.2541L92.1286 57.9901L92.1287 57.9902L92.1291 57.9902L92.1305 57.9905L92.1362 57.9916L92.1585 57.996L92.2449 58.0129L92.5678 58.0759C92.8434 58.1296 93.2312 58.205 93.6801 58.2918C94.5776 58.4655 95.7205 58.6851 96.6993 58.8685L96.6994 58.8685C96.9977 58.9243 97.1371 59.003 97.1911 59.0458C97.204 59.056 97.2114 59.0636 97.2152 59.068C97.2155 59.0836 97.2123 59.1351 97.1692 59.2282C97.1192 59.3359 97.0304 59.4662 96.9008 59.6011L96.9007 59.6011C96.21 60.3204 95.4201 61.164 94.8042 61.8263C94.496 62.1578 94.2308 62.4444 94.0426 62.6483L93.8223 62.8872L93.7634 62.9513L93.7481 62.9679L93.7442 62.9721L93.7432 62.9732L93.7429 62.9735L93.7429 62.9736L94.2952 63.481M83.7048 63.481L84.4489 63.5752L84.4489 63.5753L84.4488 63.5756L84.4487 63.5769L84.448 63.5821L84.4454 63.6026L84.4353 63.6822L84.3976 63.9809C84.3654 64.2365 84.3199 64.5975 84.267 65.0189C84.1611 65.8617 84.0255 66.946 83.9064 67.9124C83.8509 68.363 83.8863 68.5958 83.9209 68.6961C83.9224 68.7006 83.9238 68.7045 83.9251 68.7079C83.9363 68.7089 83.951 68.7095 83.9696 68.7092C84.0239 68.7082 84.0988 68.6994 84.1973 68.6766C84.398 68.6303 84.6425 68.5394 84.9256 68.4118C85.7888 68.0229 86.7253 67.5836 87.4475 67.2408C87.8083 67.0696 88.1149 66.9227 88.3312 66.8187C88.4393 66.7668 88.5249 66.7255 88.5833 66.6973L88.65 66.665L88.6671 66.6568L88.6714 66.6547L88.6724 66.6542L88.6726 66.6541L88.6727 66.654L89 67.3289M83.7048 63.481L84.2572 62.9736L84.4926 63.2299L84.4489 63.5752L83.7048 63.481ZM89 67.3289L89.3273 66.654L89.3273 66.6541L89.3276 66.6542L89.3286 66.6547L89.3329 66.6568L89.35 66.665L89.4167 66.6973C89.4751 66.7255 89.5607 66.7668 89.6688 66.8187C89.8851 66.9227 90.1917 67.0696 90.5525 67.2408C91.2747 67.5836 92.2112 68.0229 93.0743 68.4118C93.3575 68.5394 93.602 68.6303 93.8027 68.6766C93.9011 68.6994 93.9761 68.7082 94.0303 68.7092C94.0489 68.7095 94.0635 68.7089 94.0747 68.7079C94.0759 68.7045 94.0773 68.7006 94.0789 68.6962C94.1135 68.5958 94.1488 68.3631 94.0933 67.9124L94.0933 67.9123C93.9744 66.946 93.8388 65.8617 93.733 65.0188C93.6801 64.5974 93.6346 64.2365 93.6024 63.9809L93.5647 63.6822L93.5546 63.6026L93.552 63.5821L93.5513 63.5769L93.5512 63.5756L93.5511 63.5753L93.5511 63.5752L94.2952 63.481M89 67.3289L88.6727 66.654L89 66.4953L89.3273 66.654L89 67.3289ZM94.2952 63.481L93.5511 63.5752L93.5074 63.2299L93.7428 62.9736L94.2952 63.481Z" fill="#F4B544" stroke="black" stroke-width="1.5"/>
</svg>