<svg width="219" height="177" viewBox="0 0 219 177" fill="none" xmlns="http://www.w3.org/2000/svg">
<path d="M167.63 26.9366C167.46 27.2328 139.55 8.07968 138.3 10.2221C136.16 13.8849 194.4 55.1431 194.08 55.696C192.17 58.9638 112.51 2.04743 109.37 7.40834C105.98 13.1938 202.63 74.7405 202.63 74.7405C201.49 76.6854 86.7103 -1.64498 82.1903 6.08539C80.7503 8.55358 216.17 83.1521 210.54 92.7879C210.54 92.7879 63.7203 5.86819 62.3103 8.29688C58.3003 15.1486 214.31 107.587 213.61 108.782L45.2503 12.7989C38.0003 25.199 217.17 113.511 212.3 121.834C206.21 132.239 39.5003 17.5082 36.9503 21.8818C30.5403 32.8405 211.59 130.196 209.46 133.829C209.46 133.829 35.2503 17.4489 27.7603 30.2539C19.5703 44.2633 209.18 132.763 202.62 143.978C199.14 149.931 25.5603 22.4939 16.5403 37.9151C16.5403 37.9151 212.2 147.552 205.46 159.064C199.28 169.628 14.0003 41.647 10.3703 47.857C7.62027 52.5564 198.15 168.512 198.15 168.512C192.67 177.881 11.2603 49.6045 5.83026 58.8849C5.83026 58.8849 194.98 164.247 187.89 176.371C179.53 190.656 0.140259 69.35 0.140259 69.35C-4.47974 77.2482 186.26 169.657 177.97 183.834C176.85 185.74 -8.24974 77.6925 -8.24974 77.6925C-12.2897 84.6034 174.33 187.221 170.67 193.48C167.96 198.11 -6.67974 79.5781 -12.2997 89.1843C-14.4697 92.8866 169.38 194.477 163.89 203.856C157.48 214.815 -7.31973 106.264 -7.31973 106.264C-9.87973 110.648 147.51 206.236 146.56 207.865C146.56 207.865 -9.39974 109.739 -13.4497 116.66C-16.3897 121.685 133.64 214.045 133.58 214.144C133.31 214.598 -5.82974 134.678 -5.82974 134.678C-5.82974 134.678 122.51 208.299 116.92 217.856C110.74 228.43 -6.31974 143.08 -8.29974 146.476C-13.6197 155.569 102.37 223.483 102.37 223.483C98.1603 230.671 5.20026 160.614 1.92026 166.221C0.620258 168.453 76.7703 221.341 76.0803 222.506C74.5703 225.083 21.9003 191.061 21.6503 191.486" stroke="#DB3F29" stroke-width="10" stroke-linecap="round" stroke-linejoin="round"/>
<path d="M102.42 38.3396C102.42 38.3396 102.18 38.1816 102.17 38.2014C101.42 39.4947 71.3103 32.0112 70.3803 33.6106C70.3803 33.6303 69.2603 32.8405 69.2003 32.9392C68.7603 33.6895 50.4603 35.6049 50.4603 35.6049C50.4403 35.6443 49.4703 35.0322 49.4603 35.0322C49.0803 35.674 36.4403 40.7683 36.2703 41.0546C36.2303 41.1237 35.3303 40.4524 35.3003 40.5017C35.2803 40.5314 21.7203 45.9318 21.3503 46.5735C21.3303 46.6031 20.5403 46.0996 20.5403 46.1095L11.2103 53.9978C11.2103 53.9978 5.60028 50.72 5.57028 50.7793C5.40028 51.0656 3.45027 61.9256 2.92027 62.8339C2.89027 62.8833 -2.36972 59.7635 -2.38972 59.803C-2.47972 59.9609 -10.0897 69.2709 -10.2197 69.4881C-10.2497 69.5375 -11.0497 69.0142 -11.0497 69.0142C-11.1897 69.2512 -18.1597 78.3539 -18.5097 78.9462C-18.5197 78.966 -19.2397 78.4526 -19.2697 78.5118C-19.2697 78.5118 -23.7797 88.6413 -24.2597 89.4508C-24.2797 89.4903 -24.4997 89.2435 -24.5297 89.2929C-24.6397 89.4805 -26.7297 100.745 -27.0497 101.298C-27.0697 101.328 -32.6297 98.1191 -32.6297 98.1191C-32.7697 98.3561 -35.6597 109.601 -35.8397 109.907C-35.8397 109.907 -37.8297 108.703 -37.8597 108.752C-37.9997 108.989 -37.6697 122.061 -37.9797 122.594C-37.9997 122.633 -40.4097 121.211 -40.4097 121.211C-40.6197 121.567 -41.9797 132.881 -42.5097 133.789L-45.4797 132.091C-45.9097 132.822 -39.3597 149.053 -39.4697 149.24C-39.4997 149.299 -40.2597 148.737 -40.2897 148.776C-40.2897 148.776 -38.9997 161.838 -39.4497 162.598C-39.4897 162.657 -40.1697 162.164 -40.1797 162.183C-40.8597 163.339 -31.6597 178.631 -32.4397 179.964C-32.4397 179.964 -34.4897 178.779 -34.4997 178.789C-34.5597 178.888 -23.3897 197.113 -24.1297 198.387C-24.1297 198.387 -28.6897 195.77 -28.6997 195.78C-28.6997 195.78 1.51028 223.118 -0.239716 226.109C-0.259716 226.149 -1.76973 225.162 -1.79973 225.221M143.84 60.8692C143.84 60.8692 127.83 51.0853 127.54 51.579C125.27 55.459 168.88 83.9912 166.93 87.3183C166.9 87.3776 161.46 84.1689 161.45 84.1887C161.06 84.86 172.64 103.273 172.39 103.687C172.35 103.766 171.16 102.848 171.1 102.947C170.86 103.352 178.89 119.247 178.25 120.343C178.23 120.372 177.45 119.889 177.45 119.889C177.45 119.889 184.57 135.951 184.03 136.87C184.02 136.889 182.07 135.715 182.05 135.744L185.8 151.649C185.8 151.649 180.98 148.835 180.95 148.885C180.48 149.684 183.83 163.901 183.83 163.901C183.82 163.931 175.93 159.399 175.93 159.399C175.64 159.893 179.17 174.021 178.69 174.85L177.95 174.426C177.95 174.426 174.15 185.325 173.77 185.977C173.75 186.006 173 185.532 173 185.532C173 185.532 169.91 196.985 169.91 196.995C169.89 197.034 164.55 193.944 164.55 193.944C164.55 193.944 159.98 204.488 159.83 204.745C159.83 204.745 157.65 203.442 157.63 203.491C157.26 204.113 157.78 217.204 157.77 217.234C157.74 217.273 148.7 212.051 148.7 212.061C148.31 212.732 147.27 223.799 146.88 224.471C146.86 224.51 146.68 224.293 146.65 224.342C146.61 224.421 134.49 230.167 133.89 231.204C133.86 231.263 131.31 229.713 131.3 229.733C130.93 230.374 127.34 241.037 127.27 241.165C127.27 241.185 126.55 240.701 126.52 240.741C126.52 240.741 108.92 242.942 108.16 244.246C108.16 244.246 107.49 243.762 107.45 243.841C107.45 243.841 99.0603 252.953 99.0003 253.042C98.9803 253.082 94.3103 250.298 94.2803 250.347C93.9603 250.89 76.9203 252.499 76.3703 253.447L71.8803 250.88C71.3803 251.729 53.4003 253.585 53.4003 253.585C53.3603 253.654 51.1203 252.213 51.0903 252.262" stroke="#03081B" stroke-width="10" stroke-linecap="round" stroke-linejoin="round"/>
</svg>
