<svg xmlns="http://www.w3.org/2000/svg" width="69" height="70" viewBox="0 0 69 70" fill="none">
  <path d="M63.7549 22.7128C63.4072 22.3219 62.1377 22.0335 60.4343 21.8179C60.2302 21.7927 60.0417 21.696 59.9021 21.545C59.7625 21.3941 59.6808 21.1986 59.6715 20.9931C59.6419 20.2142 59.4802 19.2924 59.2699 19.1064C58.9195 18.7965 51.184 18.4838 50.8228 18.7965C50.6368 18.9636 50.4509 19.6967 50.3808 20.4137C50.359 20.6316 50.2554 20.8332 50.0909 20.9778C49.9263 21.1224 49.713 21.1991 49.494 21.1926C47.4429 21.1387 45.8419 21.1063 45.3055 21.0605C41.5833 20.729 40.5079 13.7401 38.9365 12.3331C37.3651 10.9261 23.1797 11.3385 21.6029 12.7455C20.3874 13.8344 17.6031 20.8665 14.9859 21.2627C10.881 21.8907 7.1911 21.8664 5.68712 23.958C4.31251 25.8663 2.4743 54.7708 6.01594 59.0213C8.49833 61.9861 61.0003 60.431 62.6391 58.989C66.523 55.5497 64.7522 23.834 63.7549 22.7128Z" fill="#110F0D"/>
  <path d="M27.9288 62.8702C21.6083 62.8702 16.1557 62.722 12.296 62.4282C6.69245 62.005 5.18308 61.3878 4.35831 60.3986C2.43925 58.0941 1.59292 51.4178 1.84628 40.5584C1.93792 36.6718 2.17241 32.7178 2.50933 29.4214C3.07265 23.8825 3.61441 23.1359 3.93515 22.6831C5.6871 20.2573 8.90261 19.8611 12.3041 19.4487C13.0534 19.3571 13.8296 19.2601 14.6113 19.1415C15.5277 18.7426 17.3551 15.5136 18.0478 14.2899C18.9966 12.6107 19.5221 11.7105 20.1636 11.1364C21.3442 10.0798 24.7241 9.47069 30.2117 9.32514C38.5672 9.10682 39.8798 10.2793 40.3731 10.7213C41.2733 11.5299 41.8124 12.8021 42.4916 14.4166C43.1708 16.0311 44.3433 18.8046 45.4942 18.907C45.8473 18.9393 46.982 18.9663 48.2946 19.0013H48.424C48.7232 17.7615 49.2002 17.3329 49.3862 17.1712C49.9711 16.651 50.2918 16.3626 55.1272 16.5486C59.8575 16.7292 60.1755 17.0122 60.7011 17.4812C60.9141 17.6725 61.4908 18.1846 61.7307 19.8207C63.701 20.1387 64.7279 20.5592 65.3667 21.2762C65.8249 21.791 66.4448 22.4944 66.9408 32.0574C67.2551 37.7272 67.2721 43.4095 66.992 49.081C66.7225 53.7493 66.1483 58.768 64.0676 60.6115C63.4962 61.1183 63.0434 61.5172 56.4587 61.9942C52.8227 62.2638 47.9065 62.4902 42.6102 62.6492C37.4514 62.7948 32.465 62.8702 27.9288 62.8702ZM7.54687 57.4311C9.49827 58.1292 18.5976 58.741 34.6914 58.5092C48.4617 58.3044 58.9492 57.6171 61.3534 57.1615C61.9895 55.9298 62.9544 51.31 62.8843 40.5584C62.8358 32.9765 62.3156 26.4566 61.9571 24.268C61.3664 24.1332 60.7691 24.0297 60.1674 23.958C59.4546 23.8706 58.7963 23.532 58.3107 23.0029C57.8251 22.4738 57.544 21.789 57.518 21.0713C57.518 21.0498 57.518 21.0255 57.518 21.0039C56.1353 20.8934 53.9089 20.8072 52.5047 20.8099C52.3848 21.5308 52.0089 22.1842 51.4459 22.6501C50.8829 23.116 50.1707 23.3632 49.4401 23.3462L48.1922 23.3138C46.4941 23.2707 45.5858 23.2464 45.1168 23.206C41.3811 22.8745 39.7262 18.9555 38.5214 16.0958C38.2454 15.3937 37.9277 14.7088 37.57 14.0446C36.7371 13.7967 34.1388 13.5352 30.2791 13.6403C26.379 13.7455 23.778 14.1498 22.9883 14.4489C22.7188 14.8317 22.1959 15.7427 21.8078 16.4273C20.0666 19.4999 18.0963 22.985 15.3175 23.4082C14.4603 23.5402 13.6383 23.6399 12.8405 23.7397C10.4955 24.0281 8.2773 24.303 7.5253 25.1197C7.05093 26.5401 6.30163 33.3188 6.15069 41.3455C5.94855 51.7547 6.90269 56.2586 7.54687 57.4311Z" fill="#110F0D"/>
  <path d="M63.7549 22.7128C63.4072 22.322 62.1377 22.0336 60.4343 21.8179C60.2302 21.7927 60.0417 21.696 59.9021 21.5451C59.7625 21.3941 59.6808 21.1986 59.6715 20.9932C59.6419 20.2142 59.4802 19.2924 59.2699 19.1065C58.9195 18.7965 51.184 18.4838 50.8228 18.7965C50.6368 18.9636 50.4509 19.6967 50.3808 20.4137C50.359 20.6317 50.2554 20.8333 50.0909 20.9778C49.9263 21.1224 49.713 21.1992 49.494 21.1926C47.4429 21.1387 45.8419 21.1064 45.3055 21.0606C41.5833 20.729 40.5079 13.7401 38.9365 12.3331C37.3651 10.9262 23.1797 11.3386 21.6029 12.7455C20.3874 13.8344 17.6031 20.8665 14.9859 21.2627C10.881 21.8907 7.1911 21.8665 5.68712 23.958C4.31251 25.8663 2.4743 54.7708 6.01594 59.0213C8.49833 61.9862 61.0003 60.431 62.6391 58.989C66.523 55.5498 64.7522 23.834 63.7549 22.7128Z" fill="#F2464F"/>
  <path d="M30.1255 24.2275C39.8906 24.7369 45.0117 30.858 45.1815 38.9655C45.3837 48.9031 38.8961 55.0134 29.9611 54.849C21.0261 54.6846 14.4091 47.4072 14.5762 39.4614C14.7434 31.5157 21.0369 23.7774 30.1255 24.2275Z" fill="#110F0D"/>
  <path d="M30.3061 57.0052H29.918C27.5479 56.974 25.2076 56.4723 23.033 55.5294C20.8584 54.5864 18.8927 53.2209 17.25 51.5122C14.1088 48.2751 12.3729 43.9287 12.42 39.4183C12.4735 36.9862 13.0116 34.5893 14.003 32.3678C14.9943 30.1463 16.4189 28.1449 18.1934 26.4808C19.8015 24.9751 21.6976 23.8103 23.7677 23.0567C25.8378 22.3031 28.039 21.9761 30.2387 22.0955C40.586 22.6346 47.1383 29.071 47.3405 38.9305C47.451 44.3642 45.7691 48.9786 42.4889 52.2777C39.4163 55.3314 35.1064 57.0052 30.3061 57.0052ZM29.3466 26.3838C26.2942 26.366 23.3523 27.5243 21.1312 29.6182C18.4146 32.1984 16.8326 35.7511 16.7325 39.4965C16.7063 42.8624 18.0101 46.1026 20.3604 48.5123C21.6116 49.8114 23.1084 50.8489 24.7639 51.5647C26.4195 52.2805 28.2007 52.6603 30.0042 52.682C33.8262 52.752 37.0875 51.5526 39.4243 49.2131C41.869 46.763 43.1169 43.2322 43.0307 38.9979C42.8743 31.5049 38.0039 26.7989 30.0177 26.3838C29.7895 26.3838 29.5658 26.3838 29.3466 26.3838Z" fill="#110F0D"/>
  <path d="M30.1255 24.2275C39.8906 24.7369 45.0117 30.858 45.1815 38.9655C45.3837 48.9031 38.8961 55.0134 29.9611 54.849C21.0261 54.6846 14.4091 47.4072 14.5762 39.4614C14.7434 31.5157 21.0369 23.7774 30.1255 24.2275Z" fill="#FFFFF2"/>
  <path d="M30.0689 27.877C37.508 28.2543 41.4162 32.9199 41.5428 39.1003C41.6965 46.6741 36.7506 51.3316 29.953 51.2049C23.1554 51.0782 18.0936 45.5313 18.2257 39.4776C18.3578 33.424 23.1393 27.5266 30.0689 27.877Z" fill="#110F0D"/>
  <path d="M37.0578 36.6502C37.7478 33.8768 33.7426 31.017 30.1444 31.017C26.7644 31.017 23.2309 33.4886 23.2309 36.0303C23.2309 38.9817 26.662 35.1328 30.0231 35.3053C34.0714 35.5101 36.4298 39.173 37.0578 36.6502Z" fill="#FFFFF2"/>
  <path d="M53.9278 26.0199C56.5288 26.0199 57.5315 27.8851 57.7013 29.5238C57.8711 31.1626 56.5557 33.2083 54.4265 33.2083C52.2972 33.2083 50.2514 31.831 50.3323 29.6128C50.3509 28.6653 50.7358 27.7618 51.4062 27.0919C52.0765 26.4221 52.9803 26.0379 53.9278 26.0199Z" fill="#FFFFF2"/>
</svg>