<svg width="364" height="286" viewBox="0 0 364 286" fill="none" xmlns="http://www.w3.org/2000/svg">
<path d="M99.8373 13.237H99.8231C97.7739 11.8236 97.3923 9.21996 98.9893 7.42221C100.572 5.62445 103.54 5.28969 105.589 6.6783C106.607 7.37261 107.243 8.33969 107.398 9.44314C107.554 10.5342 107.214 11.6252 106.451 12.4931C104.868 14.2909 101.901 14.6256 99.8514 13.237H99.8373ZM104.769 7.63299C103.3 6.64113 101.194 6.87668 100.063 8.1537C98.9328 9.43073 99.2013 11.2905 100.657 12.2824C102.113 13.2742 104.218 13.0386 105.349 11.7616C105.9 11.1417 106.14 10.373 106.027 9.59191C105.914 8.81082 105.462 8.11653 104.755 7.63299H104.769Z" fill="#261D2A"/>
<path d="M294.552 282.541H294.538C292.489 281.127 292.107 278.524 293.704 276.726C295.287 274.928 298.255 274.593 300.304 275.982C301.322 276.676 301.958 277.643 302.113 278.747C302.269 279.838 301.929 280.929 301.166 281.797C299.583 283.594 296.616 283.929 294.566 282.541H294.552ZM299.485 276.937C298.015 275.945 295.909 276.18 294.778 277.457C293.648 278.734 293.916 280.594 295.372 281.586C296.828 282.578 298.933 282.342 300.064 281.065C300.615 280.445 300.855 279.677 300.742 278.895C300.629 278.114 300.177 277.42 299.47 276.937H299.485Z" fill="#261D2A"/>
<path d="M322.308 110.328C322.308 110.328 321.051 101.959 330.237 104.674C339.408 107.377 336.427 115.039 332.922 112.423C329.417 109.807 335.988 100.918 343.012 104.873C350.036 108.828 348.467 116.515 343.479 117.085C338.49 117.655 346.489 108.146 352.778 114.01C359.052 119.887 345.344 130.587 339.748 126.657C334.137 122.714 338.532 116.366 339.875 120.234C341.217 124.103 337.599 127.909 327.65 127.76C317.715 127.611 322.238 114.196 325.714 118.102C329.191 122.007 323.425 126.409 316.415 121.809C309.406 117.209 317.404 107.7 322.322 110.34L322.308 110.328Z" fill="#FCFDFF"/>
<path d="M328.187 128.368C328.004 128.368 327.82 128.368 327.636 128.368C324.358 128.318 322.04 126.855 321.22 124.313C319.637 124.127 317.843 123.508 315.977 122.293C311.893 119.615 312.373 115.436 314.663 112.485C316.302 110.365 319.044 108.791 321.545 109.374C321.545 108.047 321.828 105.766 323.637 104.464C325.205 103.336 327.495 103.212 330.463 104.079C331.819 104.476 332.908 104.972 333.755 105.505C336.101 103.373 339.748 102.282 343.394 104.34C346.941 106.336 348.298 109.113 348.453 111.469C350.191 111.531 351.873 112.25 353.301 113.577C356.169 116.267 355.548 120.358 351.704 124.004C348.227 127.301 342.701 129.521 339.309 127.128C338.871 126.818 338.49 126.496 338.165 126.161C335.96 127.599 332.526 128.368 328.201 128.368H328.187ZM322.718 124.351C323.298 125.727 324.626 127.078 327.65 127.115C331.947 127.177 335.282 126.496 337.303 125.157C336.101 123.408 336.003 121.499 336.596 120.086C337.048 119.019 337.882 118.399 338.716 118.387C339.182 118.387 340.044 118.623 340.539 120.036C341.147 121.772 340.822 123.495 339.635 124.884C339.507 125.033 339.352 125.194 339.196 125.33C339.479 125.615 339.804 125.888 340.172 126.148C342.758 127.971 347.619 126.012 350.644 123.148C353.272 120.656 355.067 117.06 352.241 114.407C350.912 113.167 349.584 112.721 348.397 112.684C348.368 112.969 348.312 113.242 348.241 113.502C347.648 115.821 345.853 117.42 343.549 117.68C341.896 117.854 341.415 117.11 341.288 116.775C340.808 115.56 342.235 113.614 344.468 112.411C345.302 111.965 346.164 111.68 347.012 111.543C346.884 109.535 345.711 107.129 342.602 105.381C339.521 103.646 336.653 104.675 334.815 106.299C336.624 107.836 336.935 109.485 336.992 110.13C337.105 111.593 336.469 112.857 335.338 113.353C334.434 113.763 333.374 113.589 332.427 112.882C330.434 111.394 331.113 108.555 332.809 106.46C332.074 106.014 331.141 105.592 329.968 105.245C327.495 104.513 325.658 104.575 324.499 105.406C322.492 106.857 322.973 110.192 322.973 110.229C323.015 110.465 322.888 110.7 322.662 110.824C322.435 110.948 322.139 110.96 321.913 110.824C319.92 109.745 317.334 111.184 315.807 113.155C313.9 115.622 313.476 119.081 316.797 121.276C318.266 122.243 319.666 122.776 320.909 122.999C320.612 120.42 321.743 117.606 323.481 116.899C323.934 116.713 325.121 116.416 326.237 117.68C327.834 119.478 327.834 121.573 326.237 123.012C325.417 123.743 324.188 124.252 322.704 124.338L322.718 124.351ZM338.674 119.627C338.575 119.627 338.207 119.838 337.925 120.52C337.585 121.338 337.444 122.801 338.363 124.289C338.405 124.239 338.462 124.19 338.504 124.14C339.423 123.061 339.663 121.772 339.182 120.396C338.956 119.763 338.688 119.59 338.674 119.627ZM324.343 117.978C324.23 117.978 324.146 118.015 324.089 118.028C323.086 118.437 321.997 120.805 322.365 123.123C323.594 123.098 324.584 122.714 325.234 122.144C326.336 121.164 326.294 119.739 325.135 118.449C324.796 118.065 324.527 117.978 324.343 117.978ZM346.955 112.808C346.263 112.957 345.669 113.217 345.203 113.465C343.323 114.469 342.447 115.92 342.631 116.354C342.659 116.441 342.927 116.49 343.38 116.441C345.075 116.242 346.418 115.015 346.87 113.229C346.899 113.093 346.927 112.957 346.955 112.82V112.808ZM333.925 107.241C332.455 109.076 332.215 111.06 333.374 111.928C333.727 112.188 334.236 112.461 334.731 112.238C335.225 112.027 335.706 111.295 335.607 110.204C335.564 109.708 335.324 108.468 333.925 107.241Z" fill="#261D2A"/>
<path d="M42.884 154.392C42.884 154.392 41.6262 146.023 50.8122 148.738C59.9841 151.441 57.0022 159.103 53.4974 156.487C49.9926 153.871 56.5641 144.981 63.5879 148.937C70.6116 152.892 69.0429 160.579 64.0542 161.149C59.0655 161.719 67.0644 152.21 73.3533 158.074C79.6281 163.951 65.9197 174.651 60.3233 170.72C54.7128 166.778 59.1079 160.43 60.4505 164.298C61.7931 168.166 58.1752 171.973 48.226 171.824C38.291 171.675 42.8133 158.26 46.2899 162.166C49.7664 166.071 44.0005 170.472 36.9908 165.873C29.9812 161.273 37.9801 151.763 42.8981 154.404L42.884 154.392Z" fill="#FCFDFF"/>
<path d="M48.7771 172.431C48.5934 172.431 48.4097 172.431 48.2118 172.431C44.9331 172.382 42.6154 170.919 41.7958 168.377C40.2129 168.191 38.4181 167.571 36.5527 166.356C32.4826 163.678 32.9489 159.5 35.2384 156.549C36.8777 154.417 39.6194 152.854 42.1208 153.437C42.1208 152.111 42.4034 149.842 44.2124 148.527C45.7811 147.399 48.0705 147.263 51.0383 148.143C52.395 148.54 53.4832 149.036 54.3311 149.569C56.6771 147.436 60.3232 146.345 63.9694 148.403C67.5166 150.4 68.8733 153.177 69.0287 155.532C70.767 155.594 72.4488 156.314 73.8762 157.64C76.745 160.331 76.1232 164.422 72.2792 168.067C68.8026 171.365 63.2769 173.572 59.8852 171.192C59.4471 170.882 59.0655 170.559 58.7404 170.224C56.5358 171.663 53.1016 172.431 48.7913 172.431H48.7771ZM43.3079 168.414C43.8874 169.791 45.2158 171.142 48.2401 171.179C52.5081 171.229 55.8716 170.559 57.8925 169.22C56.6913 167.472 56.5923 165.563 57.1859 164.149C57.6381 163.083 58.4578 162.463 59.3057 162.451C59.7721 162.451 60.6341 162.686 61.1288 164.1C61.7365 165.835 61.4114 167.559 60.2243 168.947C60.0971 169.109 59.9417 169.257 59.7862 169.406C60.0689 169.679 60.3939 169.964 60.7614 170.224C63.3476 172.047 68.2091 170.088 71.2334 167.224C73.862 164.732 75.6568 161.136 72.8303 158.496C71.5019 157.256 70.1735 156.809 68.9863 156.772C68.9581 157.057 68.9016 157.33 68.8309 157.591C68.2374 159.909 66.4425 161.508 64.139 161.769C62.4855 161.942 62.005 161.198 61.8778 160.864C61.3973 159.649 62.8247 157.702 65.0576 156.512C65.8914 156.066 66.7535 155.78 67.6014 155.644C67.4742 153.623 66.3012 151.23 63.1921 149.482C60.1113 147.746 57.2424 148.775 55.4052 150.4C57.2141 151.937 57.5251 153.586 57.5816 154.231C57.6946 155.694 57.0587 156.958 55.9281 157.454C55.0236 157.851 53.9637 157.677 53.0168 156.983C51.0242 155.495 51.7025 152.656 53.3984 150.561C52.6635 150.114 51.7308 149.693 50.5578 149.346C48.0847 148.614 46.2475 148.676 45.0886 149.507C43.096 150.945 43.5623 154.305 43.5623 154.33C43.5906 154.565 43.4775 154.801 43.2514 154.925C43.0253 155.049 42.7285 155.061 42.5024 154.925C40.5097 153.846 37.9094 155.284 36.3972 157.256C34.4893 159.723 34.0654 163.182 37.3865 165.377C38.8562 166.344 40.2553 166.877 41.499 167.1C41.2022 164.521 42.3328 161.707 44.0711 161C44.5233 160.814 45.7104 160.517 46.8269 161.781C48.4238 163.579 48.4238 165.674 46.8269 167.112C46.0072 167.844 44.7777 168.352 43.2938 168.439L43.3079 168.414ZM59.2633 163.691C59.1644 163.691 58.797 163.901 58.5143 164.571C58.1752 165.389 58.0338 166.852 58.9524 168.34C58.9948 168.29 59.0513 168.241 59.0937 168.191C60.0123 167.112 60.2526 165.823 59.7721 164.447C59.546 163.802 59.2916 163.641 59.2633 163.678V163.691ZM44.9331 162.042C44.8201 162.042 44.7353 162.079 44.6788 162.091C43.6754 162.5 42.5872 164.868 42.9546 167.187C44.1841 167.162 45.1734 166.778 45.8235 166.207C46.9258 165.228 46.8834 163.802 45.7245 162.513C45.3854 162.128 45.1169 162.042 44.9331 162.042ZM67.5449 156.871C66.8524 157.02 66.2588 157.281 65.7925 157.529C63.9129 158.533 63.0367 159.983 63.2204 160.417C63.2486 160.504 63.5172 160.554 63.9694 160.504C65.6653 160.306 67.0078 159.078 67.4601 157.293C67.4883 157.157 67.5166 157.02 67.5449 156.884V156.871ZM54.5149 151.305C53.0451 153.14 52.8049 155.123 53.9496 155.991C54.3029 156.252 54.8116 156.524 55.3063 156.301C55.8009 156.09 56.2814 155.359 56.1825 154.268C56.1401 153.772 55.8998 152.532 54.5007 151.305H54.5149Z" fill="#261D2A"/>
<path d="M279.544 23.7508C279.205 23.7508 278.922 23.7136 278.696 23.6268C278.314 23.4781 278.046 23.2177 277.947 22.8705C277.283 20.7008 284.207 17.0557 287.218 15.5927C287.557 15.4315 287.995 15.5307 288.179 15.8407C288.362 16.1383 288.249 16.5226 287.896 16.6838C283.162 18.9775 279.077 21.7795 279.318 22.5482C280.053 22.8953 284.999 21.2216 290.044 18.8411C290.383 18.6799 290.821 18.7915 291.005 19.0891C291.189 19.3866 291.062 19.771 290.722 19.9321C288.687 20.8868 282.413 23.7384 279.558 23.7384L279.544 23.7508Z" fill="#261D2A"/>
<path d="M301.647 38.6039C301.647 38.6039 301.59 38.6039 301.562 38.6039C301.166 38.5791 300.813 38.4055 300.573 38.0955C299.244 36.397 301.633 29.206 302.396 27.0487C302.509 26.7263 302.905 26.5403 303.286 26.6395C303.654 26.7387 303.866 27.0858 303.753 27.4082C302.057 32.2187 301.138 36.7813 301.76 37.3889C302.58 37.3889 304.911 33.3346 306.579 28.834C306.706 28.5116 307.102 28.3257 307.469 28.4373C307.837 28.5489 308.049 28.896 307.922 29.2184C306.876 32.0576 304.191 38.5915 301.661 38.5915L301.647 38.6039Z" fill="#261D2A"/>
<path d="M306.763 26.4412C306.607 26.4412 306.452 26.3916 306.339 26.3172L287.317 13.4974C287.161 13.3858 287.062 13.2246 287.048 13.051C287.034 12.8775 287.105 12.7039 287.246 12.5799C287.769 12.0964 299.951 0.913086 308.402 0.913086C308.501 0.913086 308.6 0.913086 308.699 0.913086C310.691 0.975077 312.317 1.68177 313.546 2.99599C320.683 10.6705 307.879 25.5733 307.342 26.2056C307.229 26.342 307.059 26.4164 306.876 26.4412C306.847 26.4412 306.819 26.4412 306.777 26.4412H306.763ZM288.815 12.927L306.621 24.941C308.769 22.3002 318.196 9.96387 312.444 3.76472C311.469 2.72326 310.225 2.1901 308.642 2.14051C301.788 1.92974 291.316 10.7202 288.815 12.927Z" fill="#261D2A"/>
<path d="M292.659 7.757L311.511 20.7629L317.729 32.5164C317.729 32.5164 283.656 32.4296 279.657 4.70703L292.673 7.74463L292.659 7.757Z" fill="#BE607A"/>
<path d="M311.002 12.3568C310.847 12.3568 310.691 12.3072 310.55 12.2204C310.253 12.0096 310.211 11.6129 310.451 11.3525C312.953 8.68689 309.928 5.89727 309.801 5.77329C309.533 5.52533 309.533 5.14095 309.801 4.89298C310.084 4.65742 310.536 4.65742 310.805 4.89298C312.218 6.15761 314.168 9.3068 311.539 12.1212C311.398 12.27 311.2 12.3444 310.988 12.3444L311.002 12.3568Z" fill="#261D2A"/>
<path d="M296.531 5.10376L313.97 17.4029L311.497 20.7628L292.659 7.75698L296.531 5.10376Z" fill="#E8C01B"/>
<path d="M289.309 15.3695C288.518 15.3695 287.755 15.134 287.133 14.6752C286.426 14.1669 285.988 13.4354 285.889 12.6419C285.804 11.836 286.073 11.0549 286.652 10.435C287.854 9.14558 290.03 8.95963 291.5 10.0259C292.206 10.5342 292.644 11.2657 292.743 12.0592C292.828 12.8651 292.56 13.6462 291.98 14.2661C291.401 14.886 290.567 15.2703 289.663 15.3571C289.55 15.3571 289.436 15.3695 289.323 15.3695H289.309ZM289.309 10.5714C288.73 10.5714 288.136 10.7946 287.741 11.2161C287.401 11.5881 287.232 12.0468 287.288 12.518C287.345 12.9891 287.599 13.4106 288.023 13.7206C288.447 14.0181 288.97 14.1669 289.507 14.1173C290.044 14.0677 290.539 13.8446 290.878 13.4726C291.217 13.1007 291.387 12.6419 291.33 12.1708C291.274 11.6997 291.019 11.2781 290.595 10.9682C290.214 10.6954 289.762 10.559 289.309 10.559V10.5714Z" fill="#261D2A"/>
<path d="M297.139 23.4657C296.347 23.4657 295.584 23.2301 294.962 22.7714C293.492 21.7175 293.28 19.8082 294.496 18.5188C295.697 17.2293 297.873 17.0433 299.343 18.1096C300.05 18.6179 300.488 19.3495 300.587 20.1429C300.672 20.9488 300.403 21.7299 299.824 22.3498C299.244 22.9698 298.41 23.3541 297.506 23.4409C297.393 23.4409 297.28 23.4533 297.167 23.4533L297.139 23.4657ZM297.139 18.6675C296.559 18.6675 295.966 18.8907 295.57 19.3122C294.863 20.0685 294.99 21.1968 295.853 21.8167C296.276 22.1143 296.799 22.263 297.336 22.2134C297.873 22.1638 298.368 21.9407 298.707 21.5687C299.046 21.1968 299.216 20.7381 299.16 20.2669C299.103 19.7958 298.849 19.3743 298.425 19.0643C298.043 18.7915 297.591 18.6551 297.139 18.6551V18.6675Z" fill="#261D2A"/>
<path d="M306.989 28.8712C306.197 28.8712 305.434 28.6356 304.812 28.1769C303.343 27.123 303.145 25.2137 304.346 23.9243C305.547 22.6348 307.724 22.4489 309.193 23.5151C309.9 24.0235 310.338 24.7549 310.437 25.5484C310.522 26.3543 310.253 27.1354 309.674 27.7553C309.095 28.3753 308.261 28.7596 307.356 28.8464C307.243 28.8464 307.13 28.8588 307.017 28.8588L306.989 28.8712ZM306.989 24.073C306.409 24.073 305.816 24.2962 305.42 24.7178C304.713 25.4741 304.841 26.6023 305.703 27.2222C306.113 27.5198 306.65 27.6686 307.187 27.619C307.724 27.5694 308.218 27.3462 308.557 26.9742C308.897 26.6147 309.066 26.1436 309.01 25.6724C308.953 25.2013 308.699 24.7798 308.275 24.4698C307.893 24.197 307.441 24.0607 306.989 24.0607V24.073Z" fill="#261D2A"/>
<path d="M325.417 49.0061C325.417 49.0061 340.793 56.8418 342.009 68.9426C342.009 68.9426 332.045 68.4839 333.854 70.5172C335.663 72.5505 349.499 84.5273 350.912 82.0848C352.325 79.6547 363.815 64.8016 362.698 64.442C361.582 64.0825 351.887 65.2231 351.887 65.2231C351.887 65.2231 356.678 49.2045 336.879 38.48L325.417 49.0185V49.0061Z" fill="#FCFDFF"/>
<path d="M350.276 83.027C346.574 83.027 334.688 72.4389 333.317 70.8891C332.78 70.294 332.95 69.7981 333.091 69.5501C333.854 68.2731 338.207 68.1863 341.231 68.2731C339.536 57.0402 325.22 49.6012 325.078 49.5268C324.895 49.4276 324.767 49.2664 324.739 49.0805C324.711 48.8945 324.781 48.7085 324.923 48.5597L336.384 38.0212C336.61 37.8104 336.978 37.7732 337.26 37.922C354.601 47.3199 353.428 60.8961 352.778 64.4668C356.085 64.0948 361.921 63.4997 362.967 63.8344C363.165 63.8964 363.391 64.1072 363.462 64.2808C363.773 65.0991 362.289 67.43 355.533 76.7287C353.654 79.3199 352.029 81.5516 351.562 82.3451C351.336 82.7295 350.94 82.965 350.432 83.0022C350.389 83.0022 350.333 83.0022 350.29 83.0022L350.276 83.027ZM339.804 69.5129C337.02 69.5129 334.674 69.7608 334.335 70.1452C336.794 72.7984 348.566 82.3947 350.333 81.7872C350.799 80.9565 352.438 78.7 354.332 76.084C356.932 72.5133 361.102 66.7604 361.935 64.9875C360.338 64.9627 355.943 65.3718 351.986 65.843C351.76 65.8678 351.52 65.7934 351.364 65.6446C351.209 65.4958 351.152 65.2727 351.209 65.0743C351.209 65.0371 352.354 61.1068 351.11 55.9491C349.979 51.2874 346.616 44.6419 336.992 39.2734L326.534 48.8821C329.714 50.6674 341.627 58.032 342.715 68.8806C342.73 69.0541 342.659 69.2401 342.518 69.3641C342.376 69.4881 342.178 69.5749 341.966 69.5501C341.231 69.5129 340.497 69.5005 339.79 69.5005L339.804 69.5129Z" fill="#261D2A"/>
<path d="M356.565 147.944L353.838 147.771L356.862 146.233C357.201 146.06 357.314 145.688 357.116 145.39C356.918 145.093 356.48 144.994 356.155 145.167L352.071 147.25L352.481 143.258C352.509 142.911 352.226 142.613 351.845 142.588C351.463 142.564 351.124 142.812 351.082 143.146L350.728 146.667L348.524 144.25C348.284 143.989 347.831 143.94 347.534 144.151C347.224 144.361 347.181 144.758 347.421 145.018L349.683 147.498L345.174 147.201C344.779 147.176 344.44 147.436 344.411 147.771C344.383 148.106 344.666 148.403 345.061 148.428L349.174 148.701L345.796 150.412C345.457 150.585 345.344 150.957 345.542 151.255C345.669 151.441 345.867 151.54 346.093 151.565C346.234 151.565 346.376 151.552 346.503 151.478L350.417 149.482L350.008 153.499C349.979 153.846 350.262 154.144 350.644 154.168C351.025 154.193 351.364 153.945 351.407 153.61L351.788 149.817L354.134 152.395C354.261 152.532 354.445 152.606 354.629 152.631C354.799 152.643 354.982 152.606 355.124 152.495C355.434 152.284 355.477 151.887 355.237 151.627L352.778 148.936L356.438 149.172C356.834 149.197 357.173 148.936 357.201 148.602C357.229 148.267 356.947 147.969 356.551 147.944H356.565Z" fill="#261D2A"/>
<path d="M57.4967 262.121L54.7692 261.947L57.7935 260.41C58.1327 260.236 58.2457 259.864 58.0479 259.567C57.85 259.269 57.4119 259.17 57.0869 259.343L53.0026 261.426L53.4125 257.434C53.4407 257.087 53.1581 256.789 52.7765 256.765C52.3949 256.74 52.0558 256.988 52.0134 257.322L51.6601 260.844L49.4554 258.426C49.2152 258.166 48.7629 258.116 48.4662 258.327C48.1553 258.537 48.1129 258.934 48.3531 259.195L50.6143 261.674L46.0919 261.377C45.6962 261.352 45.3571 261.612 45.3288 261.947C45.3005 262.282 45.5832 262.579 45.9789 262.604L50.0914 262.877L46.7138 264.588C46.3746 264.761 46.2615 265.133 46.4594 265.431C46.5866 265.617 46.7844 265.716 47.0105 265.741C47.1519 265.741 47.2932 265.728 47.4204 265.654L51.335 263.658L50.9252 267.675C50.8969 268.022 51.1796 268.32 51.5612 268.345C51.9427 268.369 52.2819 268.121 52.3243 267.787L52.7059 263.993L55.0518 266.572C55.179 266.708 55.3628 266.782 55.5465 266.807C55.7161 266.82 55.8998 266.782 56.0411 266.671C56.352 266.46 56.3944 266.063 56.1542 265.803L53.6951 263.112L57.3554 263.348C57.7511 263.373 58.0903 263.112 58.1186 262.778C58.1468 262.443 57.8642 262.145 57.4685 262.121H57.4967Z" fill="#261D2A"/>
<path d="M332.71 31.1278C332.187 31.1278 331.692 30.8674 330.449 26.2924C325.813 25.4493 325.417 24.9658 325.276 24.8046C325.149 24.6434 325.092 24.3583 325.163 24.1847C325.248 23.9243 325.46 23.3169 330.788 21.5067C332.696 17.3037 333.36 17.2293 333.713 17.1797C333.982 17.1549 334.335 17.2913 334.49 17.4773C334.83 17.8864 335.126 18.9279 335.564 20.614C335.706 21.1348 335.875 21.7671 335.974 22.0522C336.257 22.1638 336.865 22.3622 337.359 22.5233C340.087 23.416 340.779 23.7136 340.907 24.2839C340.949 24.4947 340.822 24.8047 340.638 24.9534C340.073 25.3874 337.43 26.218 336.031 26.6272C333.713 31.0906 333.233 31.103 332.809 31.1154C332.78 31.1154 332.738 31.1154 332.71 31.1154V31.1278ZM327.085 24.2963C328.004 24.5443 329.7 24.9038 331.169 25.1518C331.438 25.2014 331.65 25.3873 331.72 25.6229C332.074 26.9743 332.554 28.4993 332.893 29.3796C333.416 28.5737 334.222 27.1479 334.872 25.8833C334.957 25.7221 335.098 25.6105 335.296 25.5485C336.568 25.1766 337.995 24.7054 338.886 24.3831C338.264 24.1475 337.416 23.8748 336.879 23.6888C335.338 23.1805 335.042 23.0689 334.844 22.8333C334.674 22.6225 334.561 22.2754 334.208 20.8992C334.066 20.3784 333.854 19.5726 333.671 18.9774C333.19 19.7461 332.526 21.0603 332.003 22.2134C331.932 22.3746 331.777 22.4985 331.593 22.5605C329.94 23.1185 328.074 23.8252 327.085 24.2963Z" fill="#261D2A"/>
<path d="M60.5776 15.6548C60.5776 15.6548 64.4357 4.13672 65.4815 5.55013C66.5273 6.95114 69.6929 14.6753 69.6929 14.6753C69.6929 14.6753 80.801 17.9608 80.5042 18.618C80.2074 19.2751 70.5409 22.7218 70.5409 22.7218C70.5409 22.7218 67.4177 32.7396 65.6511 31.7478C63.8987 30.7683 60.8602 22.7714 60.8602 22.7714C60.8602 22.7714 50.9252 21.9283 52.1548 19.9446C53.3843 17.9609 60.5776 15.6548 60.5776 15.6548Z" fill="#E8C01B"/>
<path d="M334.222 269.374C334.222 269.374 338.08 257.856 339.126 259.269C340.172 260.67 343.337 268.394 343.337 268.394C343.337 268.394 354.445 271.68 354.148 272.337C353.852 272.994 344.185 276.441 344.185 276.441C344.185 276.441 341.062 286.458 339.295 285.467C337.543 284.487 334.505 276.49 334.505 276.49C334.505 276.49 324.569 275.647 325.799 273.663C327.028 271.68 334.222 269.374 334.222 269.374Z" fill="#E8C01B"/>
<path d="M136.468 133.625C136.468 133.625 152.169 124.698 150.247 115.535C147.152 100.682 135.14 119.094 131.508 120.482C127.876 121.871 128.78 97.9298 109.589 94.5079C94.3539 91.7927 107.426 109.572 113.447 116.998C110.648 114.37 106.041 112.101 101.745 119.143C101.137 120.123 100.671 121.015 100.304 121.821C99.3567 121.908 98.1837 122.454 96.7281 123.644C88.9977 129.979 85.9734 136.513 98.5653 147.164C107.37 154.615 115.355 185.784 115.807 188.983C116.245 192.182 147.491 186.057 151.986 178.135C154.077 174.427 139.521 139.043 136.454 133.612L136.468 133.625Z" fill="#D37E3A"/>
<path d="M271.969 137.976C265.03 129.062 251.604 139.514 247.577 136.216C245.033 134.133 234.942 123.508 227.848 115.957C228.258 115.039 228.653 114.122 229.021 113.167C240.284 84.2669 226.604 75.9724 196.304 71.9182C196.304 71.9182 178.498 64.5908 167.743 88.2963C156.988 112.002 158.769 117.085 164.153 120.854C169.538 124.623 172.393 116.515 176.095 121.338C179.798 126.161 179.416 133.339 185.437 139.055C192.729 145.986 203.978 143.766 213.772 135.373C217.602 138.175 221.531 141.609 221.432 143.853C221.262 148.205 212.401 150.858 200.841 154.677C189.267 158.508 227.254 179.858 235.14 180.664C243.026 181.47 278.922 146.891 271.983 137.976H271.969Z" fill="#D37E3A"/>
<path d="M322.026 143.915C320.047 139.861 316.613 135.881 311.002 132.695C294.637 123.421 257.611 132.521 251.633 132.695C245.64 132.868 239.804 167.013 229.431 165.959C219.057 164.905 216.514 148.49 216.514 148.49C207.964 149.618 198.905 153.834 192.121 159.673C172.647 171.725 174.159 197.228 159.871 189.851C149.597 184.557 154.543 175.196 147.209 154.677C144.806 147.957 102.522 159.574 102.522 159.574C102.522 159.574 95.866 221.975 145.357 235.452C177.918 244.329 195.273 231.497 202.805 220.351C208.783 240.411 209.49 261.749 217.828 259.48C230.194 256.107 329.897 267.7 337.317 250.181C339.804 244.292 341.062 238.775 341.359 233.617C342.843 232.03 344.256 230.232 345.598 228.186C362.204 202.857 334.943 161.149 322.04 143.89L322.026 143.915Z" fill="#BE607A"/>
<path d="M178.95 108.22C178.667 108.22 178.399 108.171 178.116 108.084C174.64 106.906 172.124 97.8182 171.841 96.7891C171.757 96.4544 171.983 96.1196 172.364 96.0452C172.746 95.9584 173.127 96.1692 173.212 96.504C174.187 100.161 176.519 106.224 178.611 106.931C178.922 107.03 179.19 106.993 179.487 106.819C182.328 105.096 180.603 97.781 179.699 95.1029C179.586 94.7806 179.798 94.4334 180.179 94.3343C180.561 94.2351 180.943 94.421 181.056 94.7558C181.423 95.8344 184.49 105.319 180.293 107.848C179.854 108.109 179.402 108.245 178.936 108.245L178.95 108.22Z" fill="#261D2A"/>
<path d="M195.386 105.369C195.103 105.369 194.835 105.319 194.552 105.233C191.075 104.055 188.56 94.9667 188.277 93.9377C188.192 93.6029 188.419 93.2681 188.8 93.1938C189.182 93.107 189.563 93.3178 189.648 93.6525C190.623 97.31 192.955 103.373 195.047 104.079C195.358 104.179 195.626 104.141 195.923 103.968C198.763 102.245 197.039 94.9295 196.135 92.2515C196.022 91.9292 196.234 91.582 196.615 91.4828C196.997 91.3836 197.379 91.5696 197.492 91.9044C197.859 92.983 200.926 102.468 196.728 104.997C196.29 105.257 195.838 105.394 195.372 105.394L195.386 105.369Z" fill="#261D2A"/>
<path d="M186.016 123.619C186.016 123.619 185.14 114.965 193.04 118.114C200.94 121.263 202.24 133.029 192.39 134.269C182.54 135.509 186.016 123.619 186.016 123.619Z" fill="#C35041"/>
<path d="M193.563 129.397C193.252 129.397 192.899 129.372 192.531 129.298C184.617 127.81 183.161 117.879 183.105 117.457C183.062 117.122 183.331 116.812 183.727 116.763C184.122 116.713 184.462 116.961 184.518 117.308C184.518 117.408 185.917 126.793 192.842 128.083C193.817 128.256 194.538 128.12 195.075 127.636C197.477 125.454 195.838 117.408 194.99 114.494C194.891 114.159 195.117 113.824 195.499 113.738C195.881 113.651 196.262 113.849 196.361 114.184C196.686 115.325 199.47 125.417 196.092 128.492C195.612 128.938 194.806 129.397 193.577 129.397H193.563Z" fill="#261D2A"/>
<path d="M312.091 82.0104C311.511 80.597 308.006 81.2416 304.219 82.4195C311.667 73.5671 311.285 54.9945 299.061 66.5249C282.568 82.0724 295.33 42.8069 266.5 37.4261C246.234 33.6446 240.638 45.3114 239.097 52.5768C222.096 41.4803 197.548 41.5795 183.797 65.0867C183.797 65.0867 130.193 39.5957 152.735 98.4009C160.889 119.652 179.544 76.6047 187.839 75.0301C200.784 72.5752 201.873 92.3877 210.917 97.0495C219.962 101.711 214.111 85.3827 224.484 90.9867C234.857 96.5908 223.947 109.77 225.021 114.667C226.081 119.565 249.272 114.506 255.872 94.917C259.547 84.0065 257.3 73.4555 251.633 64.9131C259.985 55.7631 254.629 89.3873 278.823 101.835C303.47 114.531 313.405 85.2711 312.077 81.9979L312.091 82.0104Z" fill="#9F543D"/>
<path d="M220.64 108.679C220.471 108.679 220.315 108.667 220.146 108.642C218.506 108.357 217.234 106.745 216.358 103.856C215.397 100.707 215.68 98.3885 217.164 96.9379C219.142 95.0162 222.463 95.4749 222.605 95.4873C222.986 95.5369 223.255 95.8592 223.184 96.194C223.128 96.5288 222.746 96.7643 222.378 96.7023C222.35 96.7023 219.665 96.3428 218.195 97.7562C217.051 98.872 216.895 100.806 217.715 103.509C218.704 106.77 219.934 107.315 220.414 107.39C221.22 107.526 221.912 106.844 222.167 106.547C223.057 105.518 223.382 104.067 222.916 103.249C221.601 100.943 218.195 101.81 218.167 101.823C217.786 101.922 217.404 101.736 217.291 101.414C217.178 101.091 217.39 100.744 217.757 100.645C219.34 100.223 222.704 100.124 224.173 102.703C224.979 104.129 224.343 106.1 223.283 107.303C222.52 108.183 221.573 108.654 220.612 108.654L220.64 108.679Z" fill="#261D2A"/>
<path d="M203.597 142.254C203.286 142.254 203.003 142.08 202.918 141.807C202.805 141.473 203.031 141.138 203.399 141.039C215.779 137.964 219.453 123.793 219.482 123.644C219.566 123.309 219.934 123.098 220.329 123.173C220.711 123.247 220.951 123.582 220.866 123.904C220.711 124.512 216.98 138.943 203.78 142.229C203.71 142.241 203.653 142.254 203.583 142.254H203.597Z" fill="#261D2A"/>
<path d="M159.871 92.6729C159.575 92.6729 159.292 92.4993 159.193 92.239C156.776 85.5687 157.285 80.2746 160.705 76.4807C167.093 69.3765 181.225 70.1948 181.819 70.232C182.215 70.2568 182.497 70.5543 182.469 70.9015C182.441 71.2486 182.101 71.509 181.72 71.4718C181.579 71.4718 167.729 70.6659 161.807 77.2494C158.712 80.6961 158.274 85.6183 160.535 91.867C160.649 92.1894 160.451 92.5365 160.069 92.6481C159.998 92.6729 159.928 92.6729 159.857 92.6729H159.871Z" fill="#261D2A"/>
<path d="M224.244 82.0104C218.04 82.0104 211.313 79.4315 208.02 73.158C205.646 68.6202 202.947 66.1282 200.021 65.7562C196.7 65.3223 194.142 67.8391 194.114 67.8639C193.86 68.1243 193.407 68.1491 193.111 67.9135C192.814 67.6903 192.786 67.2936 193.04 67.0332C193.167 66.9092 196.135 64.008 200.205 64.5164C203.639 64.9627 206.692 67.6903 209.278 72.6248C212.882 79.4935 220.965 81.5268 227.396 80.5102C233.656 79.5183 240.609 75.3401 241.33 66.6116C241.358 66.2645 241.683 66.0041 242.093 66.0413C242.489 66.0661 242.772 66.3637 242.743 66.7109C242.093 74.4846 236.172 80.3862 227.65 81.7376C226.548 81.9112 225.389 82.0104 224.23 82.0104H224.244Z" fill="#261D2A"/>
<path d="M221.488 66.7357C216.613 66.7357 211.652 63.7106 206.762 57.7222C206.536 57.4494 206.607 57.0526 206.932 56.8543C207.243 56.6559 207.695 56.7179 207.921 57.003C212.797 62.9666 217.616 65.8059 222.251 65.4711C229.275 64.9504 233.67 57.1642 233.713 57.0898C233.882 56.7799 234.306 56.6559 234.66 56.8047C235.013 56.9535 235.154 57.3254 234.985 57.6354C234.787 57.9825 230.208 66.1282 222.379 66.7109C222.082 66.7357 221.785 66.7481 221.502 66.7481L221.488 66.7357Z" fill="#261D2A"/>
<path d="M235.762 99.3556C235.493 99.3556 235.239 99.2193 235.112 98.9961C234.956 98.6862 235.112 98.3142 235.465 98.1778C244.934 94.3839 250.106 90.1437 250.841 85.5935C251.604 80.8326 247.068 77.3486 247.025 77.3114C246.729 77.0883 246.7 76.6915 246.955 76.4312C247.209 76.1708 247.661 76.146 247.958 76.3692C248.17 76.5304 253.131 80.3366 252.254 85.7547C251.449 90.7512 246.008 95.3138 236.059 99.2937C235.96 99.3309 235.861 99.3433 235.762 99.3433V99.3556Z" fill="#261D2A"/>
<path d="M288.687 82.6055C287.317 82.6055 286.073 82.3699 284.928 81.8988C279.826 79.8035 277.848 73.4555 275.756 66.7233C273.976 60.9952 272.138 55.0688 268.28 51.5353C265.171 48.6837 262.189 47.4439 259.419 47.8406C254.911 48.4853 252.311 53.2711 252.283 53.3206C252.113 53.6306 251.703 53.767 251.35 53.6182C250.997 53.4695 250.841 53.1099 251.011 52.7999C251.124 52.5768 253.95 47.3819 259.193 46.6256C262.458 46.1544 265.864 47.5182 269.312 50.6922C273.41 54.4489 275.304 60.5241 277.127 66.4009C279.134 72.8356 281.014 78.9232 285.536 80.7705C287.981 81.7748 291.09 81.4896 295.033 79.9026C295.386 79.7538 295.81 79.9026 295.966 80.2126C296.121 80.5225 295.966 80.8945 295.612 81.0309C293.012 82.0723 290.722 82.5931 288.687 82.5931V82.6055Z" fill="#261D2A"/>
<path d="M283.487 95.4626C281.438 95.4626 279.643 95.103 278.074 94.3963C271.983 91.6315 270.287 83.8949 268.492 75.6997C267.814 72.5877 267.107 69.3641 266.146 66.2769C264.479 60.9457 262.161 57.9329 259.25 57.3129C255.646 56.5442 252.184 59.8174 252.141 59.8546C251.873 60.115 251.435 60.1274 251.138 59.8918C250.855 59.6562 250.827 59.2719 251.096 59.0115C251.265 58.8504 255.152 55.1681 259.575 56.0979C263.023 56.8294 265.694 60.1398 267.503 65.9422C268.478 69.079 269.185 72.3149 269.877 75.4517C271.602 83.337 273.241 90.7884 278.71 93.2804C282.413 94.9666 287.741 94.3715 295.005 91.4703C295.358 91.3339 295.782 91.4703 295.937 91.7803C296.093 92.0902 295.937 92.4622 295.584 92.5986C290.822 94.4955 286.808 95.4377 283.459 95.4377L283.487 95.4626Z" fill="#261D2A"/>
<path d="M253.357 129.57C253.357 129.57 268.662 134.368 261.935 163.331C254.092 197.079 232.116 164.571 229.431 165.972C226.746 167.373 219.92 195.294 209.942 182.499C199.965 169.704 203.498 146.853 213.037 146.258C222.577 145.663 226.463 166.158 230.575 161.979C234.688 157.801 242.404 127.252 253.357 129.583V129.57Z" fill="#EEEBD5"/>
<path d="M228.328 215.652C228.328 215.652 187.458 207.642 188.178 240.114C188.532 256.219 204.77 222.396 204.77 222.396C204.77 222.396 190.171 230.17 198.65 244.775C203.074 252.4 210.946 230.059 210.946 230.059C210.946 230.059 202.989 240.374 204.77 245.854C206.55 251.334 220.527 237.212 222.124 237.795C223.721 238.378 244.072 242.742 248.467 236.791C252.862 230.84 228.328 215.652 228.328 215.652Z" fill="#D37E3A"/>
<path d="M122.972 137.728C122.675 137.728 122.392 137.567 122.308 137.307C118.308 126.669 129.925 121.536 130.052 121.487C130.405 121.338 130.829 121.462 130.999 121.772C131.169 122.082 131.027 122.454 130.674 122.602C130.236 122.788 120.046 127.326 123.65 136.922C123.777 137.245 123.565 137.592 123.198 137.704C123.127 137.728 123.057 137.741 122.972 137.741V137.728Z" fill="#261D2A"/>
<path d="M105.787 143.233C102.268 143.233 96.1911 136.303 94.2691 133.997C94.0429 133.724 94.1136 133.327 94.4245 133.129C94.7354 132.93 95.1877 132.992 95.4138 133.265C99.4132 138.051 104.642 142.675 106.055 141.944C106.14 141.907 106.239 141.82 106.296 141.597C106.762 139.712 103.003 133.984 100.516 130.81C100.289 130.525 100.374 130.141 100.699 129.955C101.024 129.756 101.462 129.831 101.674 130.103C103.427 132.31 108.726 138.113 112.132 138.51C112.754 138.584 113.249 138.46 113.673 138.15C114.026 137.89 114.224 137.53 114.238 137.047C114.351 134.567 110.267 130.041 107.214 127.103C106.282 126.272 105.504 125.553 104.967 125.045C104.713 124.797 104.713 124.413 104.995 124.177C105.278 123.941 105.702 123.941 105.985 124.177C106.098 124.276 106.96 125.02 108.133 126.136C112.895 130.351 118.054 133.997 119.396 133.377C119.693 133.24 119.891 132.558 119.552 131.033C117.644 122.478 112.132 118.114 112.076 118.077C111.779 117.854 111.751 117.457 112.019 117.197C112.274 116.936 112.726 116.912 113.023 117.147C113.263 117.333 118.944 121.809 120.951 130.798C121.12 131.529 121.615 133.786 120.046 134.48C118.647 135.1 116.132 133.885 113.503 132.087C114.803 133.885 115.736 135.683 115.68 137.084C115.637 137.914 115.284 138.596 114.605 139.092C113.871 139.625 112.98 139.848 111.963 139.725C110.083 139.501 107.935 138.1 105.999 136.464C107.158 138.522 108.006 140.592 107.695 141.845C107.568 142.353 107.257 142.75 106.79 142.998C106.494 143.146 106.168 143.221 105.815 143.221L105.787 143.233Z" fill="#261D2A"/>
<path d="M128.851 147.04C128.483 147.04 128.187 146.792 128.144 146.482C128.116 146.147 128.399 145.837 128.78 145.812C128.837 145.812 133.854 145.366 136.228 142.551C137.401 141.15 137.74 139.365 137.231 137.245C137.147 136.91 137.401 136.575 137.783 136.513C138.164 136.451 138.546 136.662 138.616 136.997C139.21 139.477 138.786 141.597 137.359 143.295C134.603 146.556 129.134 147.027 128.907 147.04C128.879 147.04 128.865 147.04 128.837 147.04H128.851Z" fill="#261D2A"/>
<path d="M211.893 217.71C211.893 217.71 252.028 211.176 255.477 218.181C258.939 225.186 261.327 238.564 258.939 239.457C256.551 240.349 233.614 239.705 233.614 239.705L211.893 217.722V217.71Z" fill="#D37E3A"/>
<path d="M233.572 240.572C229.911 240.572 225.898 240.002 221.828 238.366C221.474 238.217 221.319 237.857 221.474 237.547C221.63 237.237 222.054 237.101 222.407 237.237C235.409 242.457 247.972 236.32 248.1 236.258C248.439 236.084 248.877 236.196 249.061 236.493C249.258 236.791 249.131 237.163 248.792 237.336C248.693 237.386 242.164 240.572 233.557 240.572H233.572Z" fill="#261D2A"/>
<path d="M247.845 211.102C247.845 211.102 263.786 204.952 265.864 209.081C267.941 213.209 273.312 224.479 270.655 225.186C267.998 225.88 266.401 226.934 266.401 226.934C266.401 226.934 274.908 229.377 275.446 230.319C275.983 231.261 277.579 237.882 277.834 239.94C278.102 241.998 265.03 245.879 259.914 243.907C254.798 241.936 251.378 212.193 247.845 211.114V211.102Z" fill="#EEEBD5"/>
<path d="M99.6252 154.144C99.6252 154.144 140.892 144.758 145.075 146.407C149.258 148.069 152.197 158.744 152.367 160.355C152.551 161.967 133.727 169.158 131.183 166.939C128.639 164.72 126.039 157.962 125.996 158.657C125.954 159.351 124.894 165.786 123.028 167.36C121.163 168.923 102.946 171.03 100.855 169.629C98.7632 168.228 96.8977 156.165 99.6252 154.144Z" fill="#EEEBD5"/>
<path d="M269.566 211.164C269.199 211.164 268.888 210.916 268.86 210.593C268.832 210.246 269.114 209.949 269.51 209.924C269.835 209.899 302.113 207.357 305.138 197.625C308.204 187.78 284.236 161.806 283.996 161.533C283.755 161.273 283.798 160.876 284.095 160.665C284.405 160.454 284.843 160.492 285.084 160.752C286.087 161.843 309.745 187.495 306.494 197.947C303.216 208.51 270.994 211.052 269.623 211.151C269.609 211.151 269.581 211.151 269.566 211.151V211.164Z" fill="#261D2A"/>
<path d="M296.022 245.023C288.334 245.023 282.639 244.565 282.017 244.515C281.636 244.478 281.339 244.18 281.381 243.833C281.424 243.498 281.749 243.25 282.144 243.275C282.554 243.312 323.1 246.548 336.794 235.402C337.077 235.167 337.529 235.179 337.797 235.439C338.066 235.687 338.052 236.084 337.755 236.32C328.753 243.647 309.377 245.023 296.008 245.023H296.022Z" fill="#261D2A"/>
<path d="M200.544 214.586C200.417 214.586 200.304 214.561 200.191 214.499C200.078 214.437 188.404 208.238 195.782 195.257C202.622 183.205 194.185 176.473 194.1 176.411C193.803 176.188 193.775 175.791 194.043 175.531C194.298 175.271 194.75 175.246 195.047 175.481C195.146 175.556 204.388 182.92 197.053 195.815C190.256 207.779 200.799 213.383 200.912 213.433C201.251 213.606 201.364 213.99 201.166 214.276C201.039 214.474 200.799 214.586 200.558 214.586H200.544Z" fill="#261D2A"/>
<path d="M305.236 146.878C304.926 146.878 304.643 146.692 304.558 146.42C303.781 143.828 301.35 143.791 301.251 143.791C300.87 143.791 300.544 143.518 300.544 143.171C300.544 142.837 300.855 142.551 301.237 142.551H301.265C302.523 142.551 305.081 143.295 305.915 146.11C306.014 146.444 305.788 146.779 305.406 146.866C305.349 146.878 305.293 146.891 305.222 146.891L305.236 146.878Z" fill="#FCFDFF"/>
<path d="M304.897 152.383C304.586 152.383 304.304 152.197 304.219 151.925C303.442 149.333 301.011 149.296 300.912 149.296C300.53 149.296 300.205 149.023 300.205 148.676C300.205 148.342 300.516 148.056 300.898 148.056C302.17 148.019 304.742 148.775 305.59 151.615C305.689 151.949 305.463 152.284 305.081 152.371C305.024 152.383 304.968 152.396 304.897 152.396V152.383Z" fill="#FCFDFF"/>
<path d="M312.416 152.52C312.105 152.52 311.822 152.334 311.737 152.061C310.96 149.47 308.529 149.433 308.43 149.433C308.049 149.433 307.724 149.16 307.724 148.813C307.724 148.478 308.035 148.193 308.416 148.193H308.444C309.702 148.193 312.26 148.937 313.094 151.751C313.193 152.086 312.967 152.421 312.585 152.507C312.529 152.52 312.472 152.532 312.401 152.532L312.416 152.52Z" fill="#FCFDFF"/>
<path d="M313.009 158.459C312.698 158.459 312.416 158.273 312.331 158C311.554 155.409 309.123 155.371 309.024 155.371C308.642 155.371 308.317 155.099 308.317 154.752C308.317 154.417 308.628 154.132 309.01 154.132H309.038C310.296 154.132 312.854 154.875 313.688 157.69C313.786 158.025 313.56 158.359 313.179 158.446C313.122 158.459 313.066 158.471 312.995 158.471L313.009 158.459Z" fill="#FCFDFF"/>
<path d="M305.604 158.211C305.293 158.211 305.01 158.025 304.926 157.752C304.148 155.161 301.717 155.123 301.619 155.123C301.237 155.123 300.912 154.851 300.912 154.503C300.912 154.169 301.223 153.884 301.604 153.884H301.633C302.89 153.884 305.448 154.627 306.282 157.442C306.381 157.777 306.155 158.111 305.773 158.198C305.717 158.211 305.66 158.223 305.59 158.223L305.604 158.211Z" fill="#FCFDFF"/>
<path d="M320.231 159.215C319.92 159.215 319.637 159.029 319.552 158.756C318.775 156.165 316.344 156.128 316.245 156.128C315.864 156.128 315.539 155.855 315.539 155.508C315.539 155.173 315.85 154.888 316.231 154.888H316.26C317.517 154.888 320.075 155.619 320.909 158.446C321.008 158.781 320.782 159.116 320.4 159.202C320.344 159.215 320.287 159.227 320.217 159.227L320.231 159.215Z" fill="#FCFDFF"/>
<path d="M318.648 164.807C318.252 164.807 317.941 164.521 317.941 164.187C317.941 161.347 315.737 160.752 315.638 160.727C315.27 160.628 315.044 160.294 315.157 159.959C315.256 159.636 315.638 159.438 316.02 159.525C317.178 159.798 319.369 161.124 319.355 164.187C319.355 164.534 319.044 164.807 318.648 164.807Z" fill="#FCFDFF"/>
<path d="M204.826 242.345C204.826 242.345 204.699 242.345 204.642 242.32C204.261 242.234 204.035 241.899 204.148 241.564C206.833 232.687 215.722 226.674 216.104 226.426C216.415 226.215 216.853 226.277 217.093 226.55C217.333 226.823 217.263 227.207 216.952 227.418C216.867 227.48 208.062 233.431 205.505 241.886C205.42 242.159 205.137 242.345 204.826 242.345Z" fill="#261D2A"/>
<path d="M197.011 239.692C197.011 239.692 196.969 239.692 196.955 239.692C196.559 239.667 196.276 239.37 196.305 239.023C197.266 228.174 207.837 222.334 208.289 222.086C208.614 221.913 209.052 222 209.264 222.285C209.476 222.57 209.363 222.954 209.038 223.14C208.939 223.202 198.636 228.918 197.718 239.122C197.69 239.444 197.379 239.692 197.011 239.692Z" fill="#261D2A"/>
<path d="M46.9823 190.582C46.9823 190.582 161.779 171.551 163.843 175.097C165.906 178.643 188.715 256.256 188.715 256.256C188.715 256.256 229.091 252.115 231.155 256.256C233.218 260.397 231.155 273.49 231.155 273.49L76.646 279.181L46.9823 190.582Z" fill="#403955"/>
<path d="M85.0548 265.543C84.6873 265.543 84.3764 265.282 84.3482 264.96C84.3199 264.613 84.6308 264.328 85.0124 264.303L182.61 259.579C182.992 259.542 183.331 259.827 183.359 260.162C183.387 260.509 183.077 260.794 182.695 260.819L85.0972 265.543C85.0972 265.543 85.0689 265.543 85.0548 265.543Z" fill="#FCFDFF"/>
<path d="M66.0751 206.043C66.0751 206.043 99.0599 190.868 100.12 191.339C101.18 191.81 108.105 202.77 108.105 202.77C108.105 202.77 77.2396 219.334 75.6568 217.946C74.0598 216.545 66.0751 206.043 66.0751 206.043Z" fill="#C35041"/>
<path d="M133.444 239.023C133.444 239.023 170.456 235.39 171.248 236.159C172.039 236.927 173.961 249.35 173.961 249.35C173.961 249.35 138.348 254.967 137.443 253.157C136.539 251.347 133.444 239.023 133.444 239.023Z" fill="#E8C01B"/>
<path d="M122.986 236.084C122.986 236.084 98.4664 224.355 104.091 217.028C109.716 209.713 116.188 219.979 116.188 219.979C116.188 219.979 114.803 209.279 122.986 211.362C135.705 214.61 122.986 236.072 122.986 236.072V236.084Z" fill="#EEEBD5"/>
<path d="M145.612 189.454C145.612 189.454 128.413 203.762 132.624 205.163C136.836 206.564 161.793 216.011 162.486 213.507C163.178 211.002 147.802 187.582 145.612 189.467V189.454Z" fill="#76ADA2"/>
<path d="M87.0899 244.788C87.0899 244.788 80.264 235.241 83.1752 234.634C87.0899 233.815 94.2691 237.076 94.2691 237.076C94.2691 237.076 100.855 229.476 102.211 231.67C103.568 233.865 102.211 239.705 102.211 239.705C102.211 239.705 114.747 243.436 113.687 245.309C112.627 247.181 102.211 248.049 102.211 248.049C102.211 248.049 102.508 258.153 100.911 258.376C99.3144 258.6 93.195 252.14 93.195 252.14C93.195 252.14 80.4194 256.145 79.8965 253.715C79.3736 251.285 87.0757 244.788 87.0757 244.788H87.0899Z" fill="#A27297"/>
<path d="M53.8506 64.2686C53.8506 64.2686 95.7812 21.7424 102.508 25.0899C109.235 28.4251 119.128 44.9396 119.128 44.9396L140.722 28.0035C140.722 28.0035 126.66 20.1802 130.434 19.3247C136.652 17.9237 163.97 13.5719 163.97 16.3987C163.97 20.6885 162.401 42.3607 162.401 42.3607L151.943 34.897C151.943 34.897 120.329 71.5464 116.301 66.9466C112.274 62.3468 99.5969 45.3487 99.5969 45.3487C99.5969 45.3487 71.0213 81.961 66.4283 78.6382C61.8353 75.3031 53.8364 64.281 53.8364 64.281L53.8506 64.2686Z" fill="#76ADA2"/>
<path d="M175.869 34.0911C175.7 34.0911 175.53 34.0415 175.389 33.9299C174.668 33.3472 174.046 32.6281 173.551 31.785C173.368 31.4751 173.509 31.1031 173.848 30.9543C174.187 30.8056 174.625 30.9171 174.795 31.2147C175.219 31.9214 175.742 32.5289 176.335 33.0125C176.618 33.248 176.646 33.6324 176.378 33.8927C176.237 34.0291 176.053 34.0911 175.855 34.0911H175.869ZM204.077 31.7478C203.017 31.7478 202.141 31.2767 201.548 30.4088C201.35 30.1113 201.463 29.7393 201.788 29.5533C202.127 29.3798 202.551 29.4789 202.763 29.7641C203.102 30.26 203.526 30.508 204.077 30.508C204.19 30.508 204.289 30.508 204.402 30.4832C204.784 30.4212 205.151 30.6568 205.208 30.9915C205.264 31.3263 205.01 31.6487 204.628 31.6983C204.431 31.7231 204.247 31.7478 204.063 31.7354L204.077 31.7478ZM207.003 30.5824C206.805 30.5824 206.621 30.5204 206.48 30.384C206.211 30.136 206.239 29.7393 206.522 29.5037C207.116 29.0326 207.554 28.4251 207.822 27.6936C207.949 27.3712 208.345 27.1976 208.713 27.2968C209.08 27.4084 209.292 27.7556 209.165 28.0779C208.826 29.0078 208.246 29.7889 207.483 30.4088C207.342 30.5204 207.172 30.57 207.003 30.57V30.5824ZM173.212 29.8013C172.887 29.8013 172.605 29.6153 172.52 29.3302C172.294 28.5367 172.152 27.6812 172.082 26.7761C172.053 26.429 172.35 26.1438 172.746 26.119C173.127 26.0818 173.467 26.3546 173.495 26.7017C173.551 27.5324 173.693 28.3259 173.891 29.045C173.989 29.3798 173.749 29.7145 173.368 29.7889C173.311 29.7889 173.255 29.8013 173.198 29.8013H173.212ZM201.434 28.3383C201.067 28.3383 200.756 28.0903 200.728 27.768C200.7 27.5076 200.7 27.2224 200.7 26.9373C200.7 26.3793 200.742 25.7842 200.827 25.1643C200.869 24.8296 201.222 24.5816 201.618 24.6312C202 24.6684 202.282 24.9784 202.226 25.3255C202.141 25.8834 202.113 26.429 202.099 26.9497C202.099 27.1976 202.099 27.4456 202.127 27.6812C202.155 28.0283 201.858 28.3135 201.477 28.3507C201.463 28.3507 201.449 28.3507 201.42 28.3507L201.434 28.3383ZM208.854 26.0694C208.472 26.0694 208.161 25.8091 208.147 25.4619C208.119 24.7428 207.992 23.9617 207.766 23.1434C207.667 22.8086 207.907 22.4739 208.289 22.3995C208.67 22.3127 209.052 22.5235 209.137 22.8583C209.391 23.7633 209.532 24.6312 209.561 25.4371C209.561 25.7842 209.264 26.0694 208.868 26.0694H208.84H208.854ZM172.802 24.8792C172.802 24.8792 172.774 24.8792 172.76 24.8792C172.364 24.8544 172.082 24.5568 172.096 24.2221C172.152 23.3914 172.28 22.5483 172.449 21.6928C172.52 21.3581 172.887 21.1349 173.269 21.1969C173.65 21.2589 173.905 21.5812 173.834 21.916C173.664 22.7219 173.551 23.5277 173.495 24.3088C173.467 24.6312 173.156 24.8916 172.788 24.8916L172.802 24.8792ZM237.161 24.8792C236.412 24.8792 235.705 24.6684 235.084 24.2469C234.773 24.0361 234.716 23.6517 234.942 23.379C235.168 23.1062 235.621 23.0566 235.931 23.255C236.483 23.6145 237.076 23.7385 237.797 23.5526L237.938 23.5154C238.306 23.3914 238.716 23.5649 238.843 23.8873C238.97 24.2097 238.786 24.5692 238.419 24.6808L238.193 24.7428C237.839 24.8296 237.486 24.8792 237.161 24.8792ZM202.07 23.4286C202.07 23.4286 201.957 23.4286 201.887 23.4038C201.505 23.317 201.279 22.9822 201.378 22.6475C201.618 21.8416 201.915 21.0233 202.282 20.2174C202.424 19.8951 202.834 19.7463 203.201 19.8578C203.568 19.9818 203.752 20.3414 203.611 20.6637C203.272 21.42 202.989 22.2011 202.763 22.9574C202.678 23.2302 202.395 23.4162 202.085 23.4162L202.07 23.4286ZM240.214 23.0814C240.101 23.0814 239.987 23.0566 239.889 23.007C239.535 22.8459 239.408 22.4739 239.592 22.1763C239.931 21.606 240.143 20.8621 240.214 20.0314C240.242 19.6843 240.581 19.4363 240.963 19.4611C241.358 19.4859 241.641 19.7834 241.613 20.1182C241.528 21.1225 241.273 22.0028 240.835 22.7467C240.708 22.9574 240.468 23.0814 240.214 23.0814ZM233.911 22.3499C233.628 22.3499 233.359 22.2011 233.246 21.9532C232.907 21.1845 232.681 20.3166 232.582 19.3743C232.554 19.0272 232.837 18.7296 233.218 18.7048C233.614 18.68 233.953 18.928 233.981 19.2628C234.066 20.0934 234.264 20.8497 234.561 21.5068C234.702 21.8292 234.518 22.1887 234.165 22.3127C234.08 22.3375 233.995 22.3499 233.911 22.3499ZM207.582 21.2589C207.299 21.2589 207.031 21.1101 206.932 20.8745C206.607 20.1554 206.211 19.4239 205.759 18.6924C205.575 18.3948 205.702 18.0105 206.042 17.8493C206.381 17.6882 206.819 17.7998 207.003 18.0973C207.469 18.866 207.893 19.6471 208.232 20.4034C208.373 20.7257 208.204 21.0853 207.836 21.2093C207.752 21.2341 207.667 21.2589 207.568 21.2589H207.582ZM173.806 19.9943C173.806 19.9943 173.679 19.9942 173.608 19.9694C173.226 19.8702 173.014 19.5355 173.127 19.2007C173.396 18.3948 173.721 17.5766 174.074 16.7955C174.216 16.4731 174.625 16.3243 174.993 16.4483C175.36 16.5723 175.53 16.9442 175.389 17.2542C175.049 17.9981 174.739 18.7668 174.484 19.5355C174.399 19.8082 174.117 19.9818 173.806 19.9818V19.9943ZM269.948 19.2379C269.948 19.2379 269.849 19.2379 269.793 19.2255C269.411 19.1511 269.171 18.8164 269.256 18.4817C269.256 18.4817 269.468 17.6385 269.468 16.3987V16.1632C269.468 15.816 269.764 15.5433 270.16 15.5309C270.584 15.5556 270.867 15.7912 270.881 16.1384V16.3987C270.881 17.7749 270.64 18.7172 270.64 18.7544C270.57 19.0396 270.273 19.2379 269.948 19.2379ZM204.091 18.804C203.978 18.804 203.879 18.7792 203.766 18.742C203.413 18.5808 203.286 18.2089 203.455 17.9113C203.724 17.465 203.992 17.0186 204.289 16.5723C203.795 15.9152 203.243 15.2829 202.678 14.663C202.438 14.4026 202.48 14.0059 202.791 13.7951C203.088 13.5843 203.54 13.6215 203.78 13.8819C204.261 14.4026 204.727 14.9481 205.165 15.4937C205.377 15.3945 205.66 15.3945 205.886 15.5184C206.211 15.7044 206.31 16.0888 206.098 16.3739C205.604 17.0434 205.137 17.7501 204.713 18.4692C204.586 18.68 204.346 18.804 204.077 18.804H204.091ZM240.736 18.2213C240.397 18.2213 240.101 18.0105 240.044 17.713C239.889 16.9567 239.634 16.2004 239.309 15.4441C239.168 15.1217 239.352 14.7622 239.705 14.6382C240.072 14.5142 240.482 14.6754 240.623 14.9853C240.991 15.8036 241.259 16.6467 241.443 17.4774C241.514 17.8121 241.259 18.1345 240.878 18.1965C240.835 18.1965 240.793 18.1965 240.751 18.1965L240.736 18.2213ZM233.331 17.465C233.331 17.465 233.275 17.465 233.246 17.465C232.865 17.4278 232.582 17.1178 232.625 16.7831C232.738 15.9276 232.95 15.0721 233.246 14.2538C233.359 13.9315 233.769 13.7455 234.137 13.8447C234.504 13.9438 234.716 14.291 234.603 14.6258C234.335 15.3821 234.137 16.1508 234.038 16.9319C233.995 17.2418 233.684 17.4774 233.331 17.4774V17.465ZM175.911 15.4069C175.798 15.4069 175.685 15.3821 175.572 15.3325C175.233 15.1713 175.106 14.7994 175.29 14.4894C175.756 13.7207 176.265 12.9892 176.816 12.3197C177.042 12.0345 177.48 11.9725 177.805 12.1709C178.13 12.3693 178.201 12.7536 177.975 13.0388C177.466 13.6711 176.986 14.3654 176.547 15.0845C176.42 15.2953 176.18 15.4069 175.926 15.4069H175.911ZM207.158 14.6506C207.003 14.6506 206.847 14.601 206.706 14.5142C206.409 14.3034 206.353 13.9066 206.607 13.6463C207.215 12.9892 207.879 12.3569 208.571 11.7618C208.854 11.5262 209.292 11.5262 209.575 11.7618C209.843 12.0097 209.843 12.3941 209.575 12.642C208.925 13.1999 208.303 13.7951 207.723 14.415C207.582 14.5638 207.384 14.6382 207.172 14.6382L207.158 14.6506ZM269.821 14.3034C269.496 14.3034 269.213 14.105 269.128 13.8199C268.93 13.0388 268.634 12.2949 268.252 11.613C268.083 11.303 268.224 10.9311 268.577 10.7823C268.93 10.6335 269.354 10.7575 269.524 11.0675C269.948 11.8361 270.287 12.6668 270.499 13.5471C270.584 13.8819 270.344 14.2166 269.962 14.291C269.906 14.291 269.863 14.3034 269.807 14.3034H269.821ZM238.687 13.6215C238.447 13.6215 238.221 13.5223 238.08 13.324C237.599 12.6544 237.062 12.0097 236.469 11.427C236.44 11.4022 236.412 11.365 236.384 11.3278C236.115 11.675 235.861 12.0469 235.621 12.4189C235.437 12.7164 234.999 12.828 234.66 12.6668C234.32 12.5057 234.193 12.1337 234.377 11.8238C234.843 11.0675 235.394 10.3359 236.03 9.66644C236.271 9.40607 236.723 9.35647 237.02 9.57964C237.302 9.77801 237.359 10.1376 237.161 10.3979C237.288 10.4227 237.415 10.4848 237.5 10.5839C238.15 11.2163 238.744 11.9229 239.267 12.6544C239.465 12.952 239.366 13.3239 239.041 13.5099C238.928 13.5719 238.8 13.5967 238.673 13.5967L238.687 13.6215ZM201.35 13.0264C201.166 13.0264 200.982 12.9644 200.841 12.8404C200.191 12.2577 199.513 11.6998 198.82 11.1914C198.523 10.9683 198.481 10.5839 198.735 10.3235C198.99 10.0632 199.428 10.026 199.724 10.2492C200.445 10.7823 201.166 11.365 201.844 11.9849C202.113 12.2329 202.113 12.6173 201.844 12.8652C201.703 12.9768 201.533 13.0388 201.35 13.0388V13.0264ZM179.162 11.365C178.992 11.365 178.809 11.3154 178.681 11.2039C178.399 10.9683 178.385 10.5839 178.653 10.3235C179.346 9.67883 180.081 9.09612 180.83 8.58779C181.14 8.37702 181.579 8.43902 181.819 8.71178C182.059 8.98454 181.988 9.36887 181.677 9.57964C180.985 10.0384 180.307 10.5715 179.671 11.179C179.529 11.303 179.346 11.3774 179.148 11.3774L179.162 11.365ZM211.2 11.2039C210.988 11.2039 210.776 11.1171 210.635 10.9559C210.394 10.6831 210.451 10.2987 210.762 10.088C211.525 9.56725 212.345 9.09612 213.178 8.66218C213.518 8.4886 213.942 8.58778 214.139 8.88534C214.337 9.1829 214.224 9.55488 213.885 9.72845C213.094 10.1252 212.331 10.5839 211.61 11.0675C211.483 11.1542 211.327 11.1914 211.186 11.1914L211.2 11.2039ZM234.928 9.96402C234.773 9.96402 234.631 9.92682 234.504 9.84003C233.798 9.3689 233.02 8.94734 232.229 8.58779C231.876 8.43901 231.734 8.06705 231.918 7.75709C232.087 7.44713 232.511 7.32318 232.865 7.48436C233.741 7.86871 234.589 8.32743 235.366 8.86056C235.677 9.07133 235.734 9.45569 235.493 9.72845C235.352 9.88963 235.14 9.9764 234.928 9.9764V9.96402ZM267.362 9.90201C267.164 9.90201 266.966 9.82763 266.825 9.67885C266.259 9.10853 265.609 8.57541 264.875 8.10428C264.564 7.9059 264.493 7.52154 264.719 7.23638C264.945 6.96362 265.383 6.88921 265.708 7.09998C266.528 7.62071 267.277 8.21586 267.913 8.87297C268.167 9.13333 268.125 9.53005 267.828 9.74082C267.701 9.84001 267.531 9.8896 267.376 9.8896L267.362 9.90201ZM197.025 9.86482C196.898 9.86482 196.757 9.82764 196.644 9.76565C195.852 9.30691 195.061 8.92255 194.269 8.58779C193.916 8.43901 193.761 8.06705 193.93 7.75709C194.1 7.44713 194.524 7.31076 194.877 7.45954C195.725 7.80669 196.573 8.22825 197.421 8.71178C197.746 8.89776 197.831 9.28211 197.619 9.56727C197.477 9.75324 197.251 9.85241 197.025 9.85241V9.86482ZM238.588 8.95972C238.391 8.95972 238.179 8.88534 238.037 8.73656C237.783 8.4762 237.825 8.07948 238.136 7.86871C238.885 7.32318 239.705 6.83962 240.567 6.40568C240.906 6.2321 241.344 6.34369 241.528 6.64125C241.726 6.93881 241.599 7.32318 241.259 7.48436C240.468 7.88111 239.719 8.32743 239.041 8.82336C238.913 8.92255 238.744 8.97214 238.588 8.97214V8.95972ZM216.076 8.72419C215.793 8.72419 215.539 8.57538 215.426 8.33981C215.27 8.02985 215.44 7.65791 215.807 7.53393C216.697 7.21157 217.63 6.92643 218.563 6.70326C218.93 6.61647 219.326 6.80242 219.425 7.13717C219.524 7.47193 219.312 7.80671 218.93 7.9059C218.054 8.11667 217.178 8.377 216.344 8.68696C216.259 8.72416 216.16 8.73656 216.076 8.73656V8.72419ZM183.656 8.41423C183.388 8.41423 183.133 8.29022 183.02 8.06705C182.85 7.75709 183.006 7.38516 183.359 7.23638C184.221 6.87683 185.112 6.60406 186.016 6.41809L186.186 6.38089C186.567 6.3189 186.949 6.51728 187.02 6.85204C187.09 7.18679 186.864 7.52154 186.482 7.58353L186.341 7.60831C185.536 7.76949 184.73 8.01745 183.967 8.33981C183.868 8.377 183.769 8.40182 183.656 8.40182V8.41423ZM191.909 7.79432C191.909 7.79432 191.782 7.79429 191.726 7.7695C190.835 7.55873 189.945 7.43473 189.097 7.40994C188.701 7.39754 188.404 7.09999 188.419 6.76524C188.433 6.41809 188.772 6.17011 189.153 6.17011C190.114 6.2073 191.104 6.3437 192.093 6.57927C192.475 6.66606 192.687 7.01319 192.588 7.33555C192.503 7.60831 192.22 7.79432 191.909 7.79432ZM229.897 7.7695C229.897 7.7695 229.77 7.76951 229.699 7.74472C228.851 7.53394 227.961 7.37277 227.042 7.28598C226.661 7.24879 226.378 6.93881 226.42 6.60405C226.463 6.2693 226.816 6.03373 227.198 6.05853C228.187 6.15771 229.162 6.33129 230.081 6.56686C230.462 6.66605 230.674 7.0008 230.561 7.33555C230.476 7.60831 230.194 7.78191 229.883 7.78191L229.897 7.7695ZM221.502 7.40994C221.163 7.40994 220.852 7.18679 220.81 6.88923C220.753 6.55447 221.008 6.23211 221.403 6.18252C222.379 6.04613 223.354 5.97174 224.301 5.94695C224.668 5.94695 225.021 6.20734 225.021 6.55449C225.021 6.90164 224.725 7.18678 224.329 7.18678C223.439 7.21157 222.52 7.28595 221.601 7.40994C221.559 7.40994 221.531 7.40994 221.488 7.40994H221.502ZM262.839 7.01322C262.741 7.01322 262.642 7.00081 262.543 6.96362C261.765 6.65366 260.903 6.3809 259.985 6.15773C259.603 6.07095 259.391 5.7238 259.49 5.38904C259.589 5.05429 259.985 4.86831 260.366 4.9551C261.356 5.19066 262.274 5.4882 263.122 5.82295C263.475 5.95934 263.631 6.33129 263.475 6.64125C263.362 6.86442 263.094 7.00081 262.825 7.00081L262.839 7.01322ZM243.478 6.52967C243.195 6.52967 242.927 6.3809 242.814 6.12054C242.673 5.79818 242.87 5.43861 243.238 5.32703C244.128 5.04187 245.075 4.80629 246.036 4.62032C246.418 4.54593 246.799 4.7567 246.87 5.09146C246.955 5.42621 246.714 5.76096 246.333 5.82295C245.428 5.99653 244.538 6.21971 243.718 6.49247C243.634 6.51727 243.563 6.52967 243.478 6.52967ZM257.427 5.66181C257.427 5.66181 257.356 5.66181 257.314 5.66181C256.452 5.55022 255.519 5.46341 254.572 5.40142C254.176 5.37662 253.894 5.09146 253.908 4.74431C253.936 4.39716 254.247 4.12439 254.657 4.16159C255.66 4.21118 256.621 4.31037 257.526 4.43435C257.907 4.48394 258.176 4.80631 258.119 5.14106C258.063 5.45102 257.766 5.66181 257.427 5.66181ZM248.976 5.46343C248.622 5.46343 248.311 5.22785 248.269 4.90549C248.227 4.57074 248.509 4.26079 248.905 4.2236C249.668 4.16161 250.46 4.11201 251.293 4.09961H251.788C252.17 4.09961 252.495 4.37237 252.495 4.71952C252.495 5.06668 252.184 5.33944 251.802 5.33944H251.322C250.53 5.36424 249.781 5.40144 249.046 5.46343C249.018 5.46343 249.004 5.46343 248.976 5.46343Z" fill="#261D2A"/>
<path d="M69.269 57.9825C69.0994 57.9825 68.9157 57.9329 68.7885 57.8089C68.5059 57.5733 68.4917 57.1766 68.7602 56.9286L89.5347 37.5501C89.8033 37.3021 90.2555 37.2897 90.5381 37.5253C90.8208 37.7608 90.8349 38.1576 90.5664 38.4055L69.7919 57.7841C69.6506 57.9081 69.4669 57.9825 69.2831 57.9825H69.269Z" fill="#FCFDFF"/>
<path d="M139.62 21.3826C139.28 21.3826 138.97 21.1594 138.927 20.8494C138.871 20.5147 139.139 20.1923 139.521 20.1427L155.815 17.9978C156.197 17.9482 156.564 18.1838 156.621 18.5186C156.677 18.8533 156.409 19.1756 156.027 19.2252L139.733 21.3701C139.733 21.3701 139.662 21.3701 139.634 21.3701L139.62 21.3826Z" fill="#FCFDFF"/>
<path d="M126.251 47.7788C126.081 47.7788 125.897 47.7167 125.756 47.6052C125.473 47.3696 125.459 46.9729 125.742 46.7249L139.097 34.5497C139.365 34.3018 139.818 34.3018 140.1 34.5373C140.383 34.7729 140.397 35.1697 140.114 35.4176L126.759 47.5927C126.618 47.7167 126.434 47.7788 126.251 47.7788Z" fill="#FCFDFF"/>
<path d="M75.6144 86.2507C74.3849 86.9946 73.5511 88.1104 73.2684 89.3874C72.9858 90.6769 73.3108 91.9787 74.1447 93.0573C74.9926 94.136 76.2645 94.8675 77.7201 95.1154C77.8191 95.1278 77.918 95.1154 78.0027 95.1402L77.918 105.034C77.4516 105.17 76.9994 105.356 76.5754 105.604C75.8123 106.063 75.2328 106.671 74.823 107.34L64.2944 104.427C64.3085 104.179 64.2944 103.943 64.2803 103.695C64.1955 102.889 63.8704 102.108 63.3334 101.414C62.4854 100.335 61.2135 99.6036 59.7579 99.3556C58.2881 99.1077 56.8043 99.3804 55.5748 100.124C54.3452 100.868 53.5114 101.984 53.2288 103.274C52.9461 104.563 53.2712 105.865 54.105 106.943C54.5996 107.576 55.2356 108.059 55.9705 108.431L52.5787 119.602C52.2961 119.515 52.0134 119.429 51.7166 119.379C50.2469 119.131 48.763 119.404 47.5335 120.148C46.3039 120.892 45.4701 122.007 45.1875 123.284C44.919 124.574 45.2299 125.876 46.0637 126.954C47.802 129.186 51.2926 129.769 53.8365 128.244C55.066 127.5 55.8998 126.384 56.1824 125.107C56.2814 124.636 56.3097 124.177 56.2531 123.718C56.1683 122.912 55.8433 122.131 55.3062 121.437C54.9105 120.941 54.4301 120.52 53.8789 120.185L57.313 108.902C57.4544 108.94 57.5674 108.977 57.7087 109.002C59.1785 109.249 60.6624 108.977 61.8919 108.233C62.9377 107.601 63.6726 106.695 64.04 105.654L74.3283 108.506C73.975 109.807 74.2012 111.233 75.1198 112.423C75.9677 113.502 77.2396 114.234 78.6953 114.482C80.165 114.73 81.6489 114.457 82.8784 113.713C84.6167 112.671 85.4787 110.898 85.2809 109.175C85.1961 108.382 84.8852 107.601 84.334 106.894C83.4861 105.815 82.2142 105.084 80.7586 104.836C80.2781 104.761 79.7976 104.749 79.3312 104.786L79.416 95.1526C80.2922 95.0659 81.1543 94.8055 81.9033 94.3591C83.1328 93.6152 83.9666 92.4994 84.2493 91.21C84.3482 90.7389 84.3764 90.2801 84.3199 89.8213C84.2351 89.0155 83.9101 88.2344 83.3731 87.5401C82.5251 86.4614 81.2532 85.7299 79.7976 85.4819C78.3278 85.234 76.8439 85.5068 75.6144 86.2507ZM54.7833 124.896C54.5714 125.863 53.9496 126.694 53.031 127.239C51.1231 128.38 48.5227 127.946 47.2225 126.285C46.8268 125.764 46.5866 125.181 46.5159 124.574C46.4735 124.227 46.5018 123.88 46.5725 123.532C46.7845 122.565 47.4063 121.735 48.3249 121.189C49.2435 120.631 50.3599 120.433 51.4622 120.619C51.7308 120.668 51.9852 120.73 52.2254 120.817C52.6918 120.978 53.1016 121.214 53.4832 121.511C53.7234 121.71 53.9495 121.908 54.1474 122.156C54.7833 122.962 55.0095 123.941 54.7975 124.896H54.7833ZM57.9631 107.799C57.8642 107.786 57.7653 107.749 57.6664 107.725C57.2 107.613 56.7477 107.439 56.3662 107.204C55.9563 106.956 55.5889 106.646 55.2921 106.262C54.8964 105.741 54.6562 105.158 54.5855 104.551C54.5431 104.203 54.5572 103.856 54.642 103.509C54.854 102.542 55.4759 101.711 56.3945 101.166C57.3131 100.608 58.4295 100.41 59.5177 100.595C60.62 100.781 61.5669 101.327 62.1887 102.133C62.6409 102.716 62.8812 103.373 62.9094 104.055C62.9094 104.327 62.9094 104.6 62.8529 104.885C62.8246 105.034 62.7681 105.17 62.7116 105.307C62.429 106.088 61.8778 106.77 61.1005 107.241C60.1819 107.799 59.0654 107.997 57.9631 107.811V107.799ZM80.5183 106.063C81.6206 106.249 82.5675 106.795 83.1893 107.601C84.4895 109.274 83.9948 111.556 82.1011 112.696C81.1825 113.254 80.0661 113.453 78.9779 113.267C77.8756 113.081 76.9287 112.535 76.3069 111.729C75.8971 111.208 75.6709 110.613 75.6003 110.031C75.5579 109.646 75.6002 109.262 75.6992 108.89C75.7981 108.481 75.996 108.096 76.2504 107.737C76.5471 107.315 76.9146 106.931 77.4092 106.633C77.5788 106.534 77.7625 106.46 77.9463 106.373C78.3985 106.187 78.8649 106.063 79.3595 106.026C79.7552 105.989 80.1367 105.989 80.5324 106.051L80.5183 106.063ZM82.8784 90.9868C82.6664 91.9539 82.0446 92.7846 81.126 93.3301C80.6173 93.64 80.0378 93.826 79.4443 93.9128C78.9779 93.9748 78.5115 93.9872 78.031 93.9128H78.0027C76.9004 93.7268 75.9536 93.1813 75.3318 92.3754C74.9361 91.8547 74.6958 91.272 74.6251 90.6645C74.5827 90.3173 74.5968 89.9702 74.6816 89.623C74.8936 88.6559 75.5155 87.8252 76.4341 87.2797C77.3527 86.7218 78.4691 86.5234 79.5573 86.7094C80.6596 86.8954 81.6065 87.4409 82.2283 88.2468C82.8643 89.0527 83.0904 90.0321 82.8784 90.9992V90.9868Z" fill="#261D2A"/>
<path d="M37.1538 135.229C38.8967 132.982 38.2329 129.921 35.6712 128.392C33.1096 126.863 29.6201 127.445 27.8773 129.692C26.1344 131.94 26.7982 135.001 29.3598 136.53C31.9215 138.059 35.411 137.477 37.1538 135.229Z" fill="#76ADA2"/>
<path d="M20.2764 131.604C20.0864 131.604 19.8964 131.578 19.7064 131.534C18.6464 131.262 18.0464 130.288 18.3564 129.358C18.4564 129.06 20.8964 122.006 27.3364 119.997C31.0864 118.831 35.2464 119.611 39.7064 122.305C40.6164 122.857 40.8464 123.945 40.2164 124.744C39.5864 125.542 38.3464 125.744 37.4364 125.191C34.0864 123.173 31.1464 122.542 28.6764 123.296C24.1564 124.691 22.2064 130.288 22.1864 130.35C21.9264 131.113 21.1264 131.604 20.2664 131.604H20.2764Z" fill="#E8C01B"/>
<path d="M11.0164 125.56C10.8264 125.56 10.6364 125.533 10.4564 125.489C9.39644 125.217 8.78644 124.244 9.09644 123.314C11.5364 116.006 15.6664 111.365 21.3764 109.531C30.4164 106.61 39.8164 111.944 40.2164 112.172C41.1364 112.707 41.3964 113.795 40.7864 114.602C40.1764 115.409 38.9364 115.637 38.0164 115.102C37.8964 115.032 29.8464 110.523 22.7364 112.83C18.2864 114.269 14.9964 118.129 12.9364 124.305C12.6764 125.068 11.8864 125.568 11.0164 125.568V125.56Z" fill="#BE607A"/>
<path d="M2.50644 120.664C2.33644 120.664 2.15644 120.647 1.98644 120.603C0.916438 120.348 0.286438 119.392 0.566438 118.453C3.06644 110.268 7.75644 104.592 14.5164 101.583C25.6364 96.6349 38.1664 100.802 38.6864 100.986C39.7164 101.337 40.2264 102.355 39.8264 103.259C39.4264 104.162 38.2664 104.61 37.2364 104.259C37.1164 104.215 25.7964 100.486 16.2964 104.724C10.6064 107.268 6.61644 112.189 4.42644 119.357C4.18644 120.138 3.37644 120.655 2.49644 120.655L2.50644 120.664Z" fill="#A27297"/>
</svg>
