<svg xmlns="http://www.w3.org/2000/svg" width="190" height="160" viewBox="0 0 190 160" fill="none">
  <path d="M133.941 24.5037C131.442 24.776 129.057 24.385 126.589 24.5177C123.961 24.6573 121.432 26.0119 119.207 27.2059C117.501 28.1276 115.893 29.1052 114.217 30.0059C115.847 28.0089 117.478 26.0189 119.108 24.0219C121.584 20.9915 125.5 21.5711 127.237 23.8194C128.288 22.7372 129.332 21.6549 130.383 20.5726C132.981 17.8913 137.948 19.7137 138.74 22.7721C139.235 22.3182 139.723 21.8643 140.218 21.4105C141.749 20 144.286 19.6998 146.16 20.7052C146.633 20.9566 147.082 21.3267 147.455 21.7526C143.098 23.1491 138.443 24.0149 133.941 24.5037ZM111.033 31.5211C109.265 32.2403 107.483 32.9316 105.692 33.5879C106.18 32.9805 106.668 32.366 107.14 31.7446C108.854 29.4822 111.726 29.196 113.783 30.2294C112.899 30.6902 111.993 31.1301 111.033 31.5211Z" fill="#F4B544"/>
  <path d="M0.111542 155.698C1.26189 152.095 2.73982 148.59 3.61592 144.924C4.39297 143.611 5.21573 142.319 6.15277 141.083C6.78508 140.246 6.52608 139.436 5.90138 138.919C6.37717 137.797 6.81918 136.663 7.22694 135.518C8.46109 135.113 9.90092 135.127 10.9903 135.567C11.4169 135.742 11.7979 135.951 12.1331 136.189C13.3367 135.274 14.8299 134.827 16.5135 135.246C17.1382 135.4 17.7401 135.7 18.281 136.098C19.3627 133.975 20.4598 131.853 21.572 129.737C25.1277 122.001 29.029 114.402 33.266 106.96C34.4011 104.97 37.2884 104.272 39.4596 105.117C40.747 103.301 42.0421 101.5 43.3525 99.6982C42.1336 98.4274 41.6308 96.584 42.743 94.6429C44.7466 91.1447 46.8111 87.6674 48.9214 84.218C48.3805 83.6106 48.03 82.8704 47.9843 82.0255C47.0244 80.9572 46.7197 79.5188 46.994 77.9757C47.0702 77.5637 47.1387 77.1587 47.2149 76.7468C44.6247 76.237 42.3697 73.7164 43.1315 71.07C43.4134 70.0855 43.7029 69.1079 43.9848 68.1234C44.6247 64.1085 45.6836 60.2192 47.3596 56.4347C48.3424 54.2282 50.5441 52.6572 53.2485 53.2646C54.3989 50.8836 55.5645 48.5096 56.7529 46.1425L57.0957 45.1789C56.2348 44.0896 55.9834 42.6722 56.2577 41.2757C56.5929 39.5789 56.9205 37.8822 57.2405 36.1855C55.4045 35.2079 54.0789 33.0713 54.8712 31.1092C55.6635 29.1471 56.4634 27.192 57.2557 25.2299C57.149 25.181 57.0424 25.1322 56.9357 25.0763C54.8331 23.9451 54.2313 21.8853 54.7874 19.9232C53.9875 18.5616 54.1094 16.9347 54.8331 15.4754C55.3816 14.3582 55.9377 13.241 56.4863 12.1238C56.5472 11.4954 56.7605 10.839 57.1795 10.1687L58.4213 8.19263C58.4975 8.06695 58.5889 7.96221 58.6803 7.84351C62.5732 10.846 67.5479 13.1293 70.3514 17.0674C70.4885 17.2629 70.618 17.4584 70.7475 17.6609C70.5495 18.1567 70.3438 18.6524 70.1457 19.1482C70.6104 19.0853 71.0903 19.0923 71.5703 19.1621C73.8177 23.9591 73.3225 29.8803 72.4007 34.8309C71.9588 37.1909 75.8974 38.1964 76.3393 35.8293C77.3982 30.1596 77.8858 23.7357 75.5622 18.2404C75.6156 18.1706 75.6613 18.0938 75.7146 18.024C76.3614 17.0953 77.3383 16.3997 78.48 16.0549C78.5409 16.1108 78.6019 16.1736 78.6552 16.2295C79.0895 17.1023 79.5161 17.9821 79.9122 18.8758C79.897 18.9457 79.8818 19.0085 79.8741 19.0783C79.5923 22.0808 79.8741 25.0484 80.1941 28.0369L80.0798 28.2464C79.996 28.386 79.9122 28.5326 79.8208 28.6723C79.0818 29.8384 79.8589 30.9416 80.9102 31.3256C80.9559 31.4862 81.0321 31.6329 81.1235 31.7655C80.5598 31.9191 80.0951 32.3241 79.9351 33.0363C79.7903 33.7137 79.6304 34.356 79.5313 35.0403C79.2799 36.7929 81.8625 37.3096 83.0205 36.367C84.1251 35.4663 85.1459 34.4887 86.1592 33.5042C88.6198 32.4987 91.7205 33.4064 92.8099 35.5431C93.3431 34.9286 93.8764 34.3211 94.4097 33.7067C95.9638 31.9191 98.6302 32.0797 100.558 33.2179C101.197 33.134 101.849 33.1726 102.472 33.3312C103.095 33.4899 103.675 33.7651 104.176 34.1396C103.14 34.5097 102.104 34.8658 101.06 35.2079C94.4554 37.3515 87.6295 38.8458 80.5979 38.8947C77.962 38.9156 77.9696 42.6582 80.5979 42.6443C88.1094 42.5884 95.4534 41.0173 102.5 38.7061C105.494 37.7216 108.442 36.6184 111.36 35.4593C114.377 34.2653 117.013 32.8897 119.786 31.2768C121.82 30.0967 124.479 28.3302 126.97 28.2603C129.316 28.1975 131.564 28.5117 133.925 28.2603C139.669 27.6459 145.436 26.4798 150.845 24.5666C154.792 23.1771 160.406 19.211 163.926 23.1142C164.116 23.3307 164.33 23.4773 164.543 23.582C161.221 26.382 157.877 29.1541 154.517 31.9192L145.132 42.1136C143.974 43.3704 142.359 43.6707 140.858 43.3495L137.94 45.8143C137.384 46.2821 136.79 46.6033 136.188 46.8058L123.283 57.1888C124.342 58.1733 124.951 59.5559 124.639 61.0781C125.515 61.0292 126.421 61.2037 127.29 61.6646C129.804 63.0122 130.109 65.5748 129.05 67.8162C127.922 70.2112 126.833 72.6201 125.766 75.043C125.911 74.9383 126.048 74.8336 126.193 74.7288C130.17 71.852 135.129 74.5263 134.39 79.1069C134.161 80.5173 133.963 81.9348 133.781 83.3522C133.948 83.4081 134.116 83.4639 134.276 83.5338C134.999 82.8495 135.716 82.1652 136.439 81.4739C139.41 78.646 144.088 80.8036 144.758 83.9597C146.191 85.7402 145.863 88.1352 144.278 89.7971C141.97 92.213 139.662 94.6289 137.346 97.0449C136.988 97.415 136.607 97.7082 136.203 97.9247L131.114 103.05C129.24 104.942 126.185 104.621 124.334 103.106C123.306 104.223 122.285 105.347 121.256 106.464C120.098 107.728 118.605 108.063 117.203 107.798L116.701 108.343C115.139 110.032 112.031 109.983 110.256 108.692C108.473 107.393 107.955 105.375 108.717 103.483C107.955 103.539 107.17 103.434 106.431 103.134C104.93 104.642 103.422 106.15 101.921 107.658C99.8567 109.725 96.9313 109.222 95.141 107.63C94.5239 107.609 93.9221 107.47 93.3584 107.232C91.8728 109.02 90.4025 110.821 88.955 112.637C87.5152 114.445 85.2145 115.437 82.83 114.473C81.9234 114.103 81.0702 113.426 80.4988 112.602C76.964 116.317 73.4901 120.08 70.0924 123.907C69.1706 124.947 67.6393 125.317 66.1918 125.17C63.2207 130.156 60.3563 135.19 57.5757 140.267C58.3375 141.279 58.6651 142.529 58.2156 143.793C57.6595 145.371 57.0424 146.928 56.3796 148.471C57.2176 149.693 57.4462 151.271 56.4939 152.905C56.4634 152.961 56.4253 153.01 56.3948 153.065C53.2866 152.144 49.9117 151.906 46.674 151.885C43.1011 151.864 39.3529 152.102 35.8638 152.968C32.9308 153.289 29.9901 153.589 27.0419 153.617C25.8687 153.624 25.2211 154.35 25.0916 155.16C22.4938 154.993 19.9036 154.888 17.3058 154.888C12.2397 154.434 7.17361 153.924 2.06943 154.225C0.827652 154.301 0.187714 155.069 0.111542 155.893H0.0201263C0.0505981 155.831 0.0734558 155.768 0.0963135 155.698H0.111542ZM106.05 68.8496C105.624 68.3748 105.311 67.8231 105.136 67.2366H105.121C105.029 67.5159 104.923 67.7882 104.793 68.0605C104.557 68.5423 104.329 69.0241 104.1 69.4989C104.725 69.1289 105.388 68.9194 106.058 68.8496H106.05ZM106.721 52.5873C107.467 52.0357 108.237 51.5051 109.014 50.9814C110.941 49.1938 114.087 49.6058 115.885 51.2188L125.621 43.3844C124.608 43.0004 123.725 42.358 123.176 41.534C121.797 42.9585 120.418 44.3759 119.047 45.8004C117.554 47.3365 114.834 47.4552 113.013 46.4078C112.274 47.3156 111.528 48.2233 110.789 49.131C109.25 51.0093 106.713 52.0008 104.313 50.8557C104.268 50.9604 104.23 51.0721 104.176 51.1769C103.986 51.5958 103.788 52.0218 103.597 52.4407C104.61 52.1265 105.715 52.2173 106.728 52.5873H106.721ZM166.828 20.4539C162.981 16.1876 157.763 17.7237 153.07 19.609C154.868 17.8913 157.435 16.83 159.66 15.622C163.545 13.5273 167.872 17.2769 166.973 20.6285C166.927 20.5656 166.882 20.5098 166.828 20.4469V20.4539Z" fill="#F4B544"/>
  <path d="M48.7538 156.005C54.1018 143.234 61.3315 131.224 70.3591 120.318C70.5648 120.073 70.8009 119.892 71.0523 119.766C70.6562 118.816 70.9838 117.671 72.3703 117.441C75.8518 116.861 79.3333 116.289 82.8072 115.709C82.2435 114.746 82.4872 113.356 83.9728 112.979C85.4279 112.616 86.8829 112.253 88.3304 111.89C85.3441 107.658 84.5365 102.345 86.1821 97.5967C85.1612 97.7154 84.1328 97.8341 83.1119 97.9388C81.3521 98.1204 80.796 96.4865 81.3978 95.3064C81.3597 95.2436 81.3217 95.1807 81.2836 95.1109C79.2114 91.0401 78.1144 86.7459 78.0915 82.2422C78.0915 81.516 78.4572 81.0132 78.9753 80.72C78.9067 80.5105 78.8686 80.2941 78.8686 80.0706C78.023 80.8317 76.4155 81.0202 75.5318 79.8472C72.5302 75.8462 70.9457 71.1959 70.8238 66.343C70.8009 65.3236 71.517 64.7301 72.3626 64.5765C70.7933 64.1715 69.9477 62.0278 71.776 61.1969C79.1733 57.8244 86.982 55.2269 95.0573 53.593C98.0893 52.9785 101.159 52.4967 104.237 52.1406C104.085 51.2888 104.481 50.3531 105.639 50.0459C116.617 47.1202 127.29 43.3497 137.803 39.2509C142.488 37.4285 147.234 35.6619 151.76 33.5253C155.508 31.7517 159.279 29.6291 161.884 26.5149C163.035 25.1393 164.977 22.4929 164.436 20.6356C163.994 19.1413 161.915 18.897 160.49 18.8551C158.273 18.7922 156.148 19.288 153.992 19.7069C140.241 22.3882 126.675 25.8109 113.364 29.9572C101.434 33.6757 89.7259 37.9689 78.2896 42.819C77.1012 43.3217 75.9889 42.7631 75.4709 41.9601C74.8538 41.5621 74.4424 40.8779 74.6329 40.019C76.8117 29.9782 77.543 17.6541 68.3174 10.2177C66.3747 8.65364 63.457 6.83819 60.7525 7.42472C57.949 8.0322 56.3492 10.5948 55.7092 12.9758C54.2542 18.4222 55.374 24.8949 56.8444 30.2365C58.4213 35.9692 61.3391 41.7995 58.269 47.5531C57.111 49.7177 53.5914 47.8254 54.7417 45.6609C56.372 42.6095 55.3817 39.1462 54.4142 36.046C53.4085 32.834 52.3801 29.671 51.8316 26.3612C50.8793 20.6496 49.8966 13.0875 53.6066 7.97634C55.1303 5.86762 57.4767 4.15691 60.2345 3.69607C63.3275 3.17936 66.3824 4.34544 68.904 5.92348C73.7872 8.98181 77.0859 13.7439 78.7619 18.883C80.8265 25.2231 80.3313 31.9263 79.1048 38.3781C100.885 29.3428 123.603 22.2416 146.907 17.3049C151.683 16.2925 157.024 14.6237 161.983 15.2242C166.615 15.7897 169.502 19.0296 168.207 23.3378C165.503 32.3313 154.685 36.5627 146.252 39.9422C135.594 44.2155 124.837 48.3003 113.783 51.6309C115.474 51.7356 117.142 52.001 118.75 52.5177C124.745 54.4588 129.271 59.8284 129.537 65.7006C129.682 68.9475 127.389 70.5954 124.243 71.4402C119.984 72.5854 115.657 73.5559 111.368 74.6103C101.617 77.0053 91.8653 79.4003 82.1216 81.8023C82.152 81.9349 82.1673 82.0746 82.1673 82.2282C82.1825 86.0406 83.0358 89.7414 84.7956 93.2047C84.9251 93.463 84.9936 93.7144 85.0013 93.9588C86.0983 93.8331 87.1877 93.7004 88.2771 93.5608L88.5209 93.2326C88.8865 92.7648 89.3665 92.5134 89.8693 92.4366C88.6732 90.684 87.4696 88.9244 86.2735 87.1718C84.8717 85.119 88.4066 83.2407 89.8007 85.2795L93.4194 90.5793C94.0441 91.494 93.686 92.3738 92.9699 92.8905C106.94 90.7396 120.608 87.1826 133.727 82.2841C133.906 82.2131 134.097 82.1683 134.291 82.1514C134.409 82.0566 134.536 81.9724 134.672 81.9C138.862 79.7145 133.925 74.8826 131.952 73.0951C130.078 71.3984 132.965 68.752 134.84 70.4487C137.255 72.6343 139.776 75.0851 140.188 78.311C140.355 79.6377 140.165 80.9644 139.616 82.1444C144.416 85.0142 149.672 89.7484 145.962 95.3064C142.519 100.473 135.274 103.259 129.553 105.689C127.183 106.695 125.103 103.469 127.488 102.457C132.127 100.487 137.011 98.4974 140.751 95.2226C142.443 93.7423 143.829 91.885 142.656 89.7414C141.605 87.8282 139.433 86.5154 137.536 85.3773C137.331 85.2586 137.171 85.1189 137.034 84.9723C136.935 85.0282 136.836 85.091 136.729 85.1469C136.34 85.3494 135.959 85.4262 135.601 85.3983C135.396 85.6077 135.129 85.7823 134.801 85.908C120.654 91.1798 105.913 94.8665 90.8444 96.9822C88.5056 101.381 88.9018 106.848 92.3757 110.745C92.4061 110.78 92.429 110.815 92.4595 110.842C93.4879 110.584 94.5164 110.326 95.5448 110.074C94.4935 108.329 94.204 106.29 94.8821 104.307C95.6744 102.017 99.6206 102.994 98.8207 105.305C98.3941 106.534 98.5617 107.847 99.5063 108.845C99.5673 108.908 99.6206 108.978 99.6739 109.048C107.01 107.212 114.339 105.382 121.675 103.546C122.11 103.392 122.551 103.239 122.986 103.078C123.389 102.931 123.755 102.91 124.075 102.973C126.322 102.785 127.168 106.052 124.768 106.653C124.098 106.821 123.427 106.988 122.765 107.156C112.107 110.968 101.152 114.04 89.9836 116.331C90.2959 117.252 89.9455 118.307 88.6123 118.523L74.1986 120.911C74.2977 121.309 74.2062 121.749 73.8406 122.203C65.0415 132.83 57.8652 144.533 52.6467 156.99C51.7097 159.217 47.7559 158.254 48.7081 155.991L48.7538 156.005ZM102.424 72.9555C106.241 72.0198 110.05 71.0841 113.867 70.1415C115.573 69.7226 117.287 69.3036 118.994 68.8777C120.677 68.4657 122.605 68.2004 124.205 67.551C126.856 66.4687 124.875 62.5306 123.763 60.8408C122.315 58.6343 120.053 56.8678 117.371 56.0508C114.049 55.0384 110.461 55.2897 107.033 55.6039C103.506 55.9251 99.9939 56.4418 96.5276 57.1331C88.6656 58.6972 81.0626 61.148 73.8558 64.4368C73.6958 64.5136 73.5358 64.5625 73.3759 64.5974C74.191 64.772 74.8995 65.3585 74.93 66.35C75.0366 70.5744 76.4765 74.4846 79.0819 77.9619C79.3028 78.2621 79.4171 78.5554 79.44 78.8417C79.6685 78.6392 79.958 78.4786 80.3389 78.3878C87.7057 76.5794 95.0649 74.7709 102.432 72.9555H102.424Z" fill="#212B50"/>
  <path d="M49.1728 47.3994C50.1936 45.1859 53.7209 47.0922 52.7 49.2917C45.6836 64.4576 43.0097 81.0969 44.7161 97.4779C44.9675 99.8798 40.8766 99.8589 40.6252 97.4779C38.8425 80.3917 41.8593 63.1798 49.1652 47.3994H49.1728ZM0.60672 145.79C15.287 132.425 27.4457 116.917 36.6256 99.9217C37.7912 97.7572 41.3184 99.6564 40.1528 101.814C30.8281 119.082 18.4029 134.869 3.49403 148.443C1.62758 150.147 -1.26735 147.493 0.60672 145.797V145.79ZM79.2571 66.3778C80.1255 64.1155 84.0718 65.093 83.1957 67.3763C82.5024 69.1848 83.0052 70.9444 84.5822 72.2152C86.5629 73.8072 83.668 76.4466 81.6949 74.8615C79.1123 72.7878 78.122 69.3524 79.2571 66.3778ZM165.099 5.0715C167.285 3.54233 169.464 2.01317 171.651 0.490981C172.534 -0.130461 173.929 0.372278 174.447 1.1613C175.071 2.1179 174.584 3.1164 173.715 3.72388C171.529 5.25304 169.35 6.78221 167.164 8.30439C166.28 8.92584 164.886 8.4231 164.368 7.63407C163.743 6.67747 164.231 5.67898 165.099 5.0715ZM174.934 10.6784C177.312 9.89892 179.762 9.3216 182.255 8.95377C183.352 8.79317 184.442 9.21212 184.769 10.2595C185.051 11.1533 184.426 12.4031 183.345 12.5637C180.846 12.9338 178.408 13.5064 176.024 14.2884C173.54 15.0984 172.473 11.4814 174.934 10.6784ZM177.73 22.0809H187.847C190.475 22.0809 190.483 25.8305 187.847 25.8305H177.73C175.102 25.8305 175.094 22.0809 177.73 22.0809ZM36.0161 156.892C37.4331 149.155 41.1813 142.012 46.735 136.056C48.4491 134.22 51.3287 136.88 49.6223 138.703C44.5181 144.177 41.2498 150.789 39.9548 157.883C39.5205 160.257 35.5819 159.252 36.0161 156.885V156.892Z" fill="#212B50"/>
</svg>