<?xml version="1.0" encoding="UTF-8"?>
<svg version="1.1" xmlns="http://www.w3.org/2000/svg" width="134" height="31">
<path d="M0 0 C6.09534117 2.88210297 11.62961655 5.91383868 17 10 C13.92486954 13.37368681 10.71481144 15.50901962 6.75 17.75 C5.13351562 18.67039062 5.13351562 18.67039062 3.484375 19.609375 C2.66453125 20.06828125 1.8446875 20.5271875 1 21 C0 20 0 20 -0.11352539 18.05053711 C-0.10567017 16.8015564 -0.10567017 16.8015564 -0.09765625 15.52734375 C-0.09443359 14.62822266 -0.09121094 13.72910156 -0.08789062 12.80273438 C-0.07951172 11.85720703 -0.07113281 10.91167969 -0.0625 9.9375 C-0.05798828 8.98810547 -0.05347656 8.03871094 -0.04882812 7.06054688 C-0.0370011 4.70696935 -0.02052025 2.35351523 0 0 Z " fill="#FD8F65" transform="translate(0,10)"/>
<path d="M0 0 C0.66 0.33 1.32 0.66 2 1 C2 7.6 2 14.2 2 21 C-4.11785388 18.06678238 -9.60335051 15.10614635 -15 11 C-12.05740921 7.85519325 -8.99939466 5.50769874 -5.375 3.1875 C-4.41335937 2.56230469 -3.45171875 1.93710937 -2.4609375 1.29296875 C-1.64882813 0.86628906 -0.83671875 0.43960937 0 0 Z " fill="#6596FD" transform="translate(26,0)"/>
<path d="M0 0 C0.99 0 1.98 0 3 0 C3 2.64 3 5.28 3 8 C5.31 8 7.62 8 10 8 C10 5.36 10 2.72 10 0 C11.32 0 12.64 0 14 0 C14 6.27 14 12.54 14 19 C12.68 19 11.36 19 10 19 C10 16.69 10 14.38 10 12 C7.69 12 5.38 12 3 12 C3 14.31 3 16.62 3 19 C1.68 19 0.36 19 -1 19 C-1.02683987 16.02077407 -1.04676037 13.04178705 -1.0625 10.0625 C-1.07087891 9.21236328 -1.07925781 8.36222656 -1.08789062 7.48632812 C-1.09111328 6.67744141 -1.09433594 5.86855469 -1.09765625 5.03515625 C-1.10289307 4.2862915 -1.10812988 3.53742676 -1.11352539 2.76586914 C-1 1 -1 1 0 0 Z " fill="#FFFFFF" transform="translate(39,5)"/>
<path d="M0 0 C1.84809221 3.08015368 1.61560718 5.37942383 1.125 8.875 C-1 11.375 -1 11.375 -3.875 12.875 C-7.1875 12.625 -7.1875 12.625 -9.875 11.875 C-9.875 13.855 -9.875 15.835 -9.875 17.875 C-11.195 17.875 -12.515 17.875 -13.875 17.875 C-13.875 11.605 -13.875 5.335 -13.875 -1.125 C-4.48369565 -2.69021739 -4.48369565 -2.69021739 0 0 Z M-7.875 1.875 C-8.535 2.535 -9.195 3.195 -9.875 3.875 C-9.5564823 5.98320797 -9.5564823 5.98320797 -8.875 7.875 C-7.21885343 8.25718767 -5.55042976 8.58895102 -3.875 8.875 C-2.57866379 7.80854885 -2.57866379 7.80854885 -2.8125 5.3125 C-2.833125 4.508125 -2.85375 3.70375 -2.875 2.875 C-5.27219432 2.19541397 -5.27219432 2.19541397 -7.875 1.875 Z " fill="#FFFFFF" transform="translate(101.875,12.125)"/>
<path d="M0 0 C1.9375 1.625 1.9375 1.625 3 4 C2.93375803 7.77579201 2.78061285 10.07482922 0.3125 13 C-2.77979844 14.33721014 -4.78776145 13.80305964 -8 13 C-8 14.98 -8 16.96 -8 19 C-9.32 19 -10.64 19 -12 19 C-12 12.73 -12 6.46 -12 0 C-4.3902439 -1.26829268 -4.3902439 -1.26829268 0 0 Z M-7 3 C-8.29633621 4.06645115 -8.29633621 4.06645115 -8.0625 6.5625 C-8.041875 7.366875 -8.02125 8.17125 -8 9 C-5.60280568 9.67958603 -5.60280568 9.67958603 -3 10 C-2.34 9.34 -1.68 8.68 -1 8 C-1.3185177 5.89179203 -1.3185177 5.89179203 -2 4 C-3.65614657 3.61781233 -5.32457024 3.28604898 -7 3 Z " fill="#FFFFFF" transform="translate(84,11)"/>
<path d="M0 0 C0 4.29 0 8.58 0 13 C-9.0625 14.45 -9.0625 14.45 -13.125 12.5 C-15 10 -15 10 -15.625 6.5 C-15 3 -15 3 -13.125 0.5 C-8.45561927 -1.74130275 -5.07141106 -0.81142577 0 0 Z M-10 3 C-11.29633621 4.06645115 -11.29633621 4.06645115 -11.0625 6.5625 C-11.041875 7.366875 -11.02125 8.17125 -11 9 C-8.60280568 9.67958603 -8.60280568 9.67958603 -6 10 C-5.34 9.34 -4.68 8.68 -4 8 C-4.3185177 5.89179203 -4.3185177 5.89179203 -5 4 C-6.65614657 3.61781233 -8.32457024 3.28604898 -10 3 Z " fill="#FFFFFF" transform="translate(70,11)"/>
<path d="M0 0 C4.255 1.48 4.255 1.48 5.875 4 C6.0625 6.6875 6.0625 6.6875 5.875 9 C1.42 9.495 1.42 9.495 -3.125 10 C-0.815 10 1.495 10 3.875 10 C3.875 11.32 3.875 12.64 3.875 14 C-0.1930976 14.95719944 -2.30399254 15.43670609 -6.0625 13.4375 C-8.125 11 -8.125 11 -8.75 8.0625 C-7.72001394 3.01556831 -5.32693461 0 0 0 Z M-3.125 4 C-3.455 4.66 -3.785 5.32 -4.125 6 C-2.145 6 -0.165 6 1.875 6 C1.545 5.34 1.215 4.68 0.875 4 C-0.445 4 -1.765 4 -3.125 4 Z " fill="#FFFFFF" transform="translate(112.125,10)"/>
<path d="M0 0 C1.95798203 2.94024726 2.22743168 5.26732278 2.125 8.75 C2.10695312 9.54921875 2.08890625 10.3484375 2.0703125 11.171875 C2.03550781 12.07679687 2.03550781 12.07679687 2 13 C0.68 13 -0.64 13 -2 13 C-2.33 10.03 -2.66 7.06 -3 4 C-3.99 4 -4.98 4 -6 4 C-6.33 6.97 -6.66 9.94 -7 13 C-8.32 13 -9.64 13 -11 13 C-11 8.71 -11 4.42 -11 0 C-6.51400366 -0.89719927 -4.27293618 -1.23440379 0 0 Z " fill="#FFFFFF" transform="translate(131,11)"/>
<path d="M0 0 C1.2065625 0.0309375 1.2065625 0.0309375 2.4375 0.0625 C3.0975 1.3825 3.7575 2.7025 4.4375 4.0625 C3.4475 5.5475 3.4475 5.5475 2.4375 7.0625 C-0.125 7.3125 -0.125 7.3125 -2.5625 7.0625 C-3.5625 6.0625 -3.5625 6.0625 -3.6875 3.5625 C-3.51717518 0.15600356 -3.41884482 0.08338646 0 0 Z " fill="#6593FD" transform="translate(24.5625,23.9375)"/>
<path d="M0 0 C1.2065625 0.0309375 1.2065625 0.0309375 2.4375 0.0625 C3.0975 1.3825 3.7575 2.7025 4.4375 4.0625 C3.4475 5.5475 3.4475 5.5475 2.4375 7.0625 C-0.125 7.3125 -0.125 7.3125 -2.5625 7.0625 C-3.5625 6.0625 -3.5625 6.0625 -3.6875 3.5625 C-3.51717518 0.15600356 -3.41884482 0.08338646 0 0 Z " fill="#FD8C65" transform="translate(3.5625,-0.0625)"/>
<path d="M0 0 C1.65 0 3.3 0 5 0 C5 0.66 5 1.32 5 2 C3.02 2.99 1.04 3.98 -1 5 C-0.67 3.35 -0.34 1.7 0 0 Z " fill="#FEA86B" transform="translate(1,0)"/>
<path d="M0 0 C1.2065625 0.0309375 1.2065625 0.0309375 2.4375 0.0625 C0.7875 1.7125 -0.8625 3.3625 -2.5625 5.0625 C-3.125 3.125 -3.125 3.125 -3.5625 1.0625 C-2.5625 0.0625 -2.5625 0.0625 0 0 Z " fill="#6BAAFE" transform="translate(24.5625,23.9375)"/>
</svg>
