<svg xmlns="http://www.w3.org/2000/svg" width="215" height="19" viewBox="0 0 215 19" fill="none">
  <path d="M1.27949 1.20809C71.2874 -3.38782 143.443 8.8563 214.011 2.95654C214.73 2.89659 214.795 4.1255 214.081 4.22042C143.893 13.4472 71.782 0.958315 1.35941 2.45698C0.645047 2.48696 0.560125 1.25805 1.27949 1.20809Z" fill="#F4B544"/>
  <path d="M109.898 15.7601C132.703 15.6352 156.197 15.9449 179.027 16.1897C179.791 16.1897 179.876 16.949 179.122 17.014C156.252 18.9822 132.843 18.6575 109.853 16.5843C109.094 16.5194 109.134 15.7651 109.898 15.7601Z" fill="#F4B544"/>
  <path d="M103.953 15.7951C100.72 15.8559 97.4862 15.6471 94.287 15.1707C93.083 14.9909 93.2329 14.1216 94.4718 14.0967C97.704 14.036 100.936 14.2449 104.133 14.7211C105.337 14.9009 105.192 15.7702 103.953 15.7951Z" fill="#F4B544"/>
</svg>