<svg width="445" height="373" viewBox="0 0 445 373" fill="none" xmlns="http://www.w3.org/2000/svg">
<path d="M321.67 320.488C318.848 324.502 315.591 329.447 315.809 330.654C315.853 330.872 315.969 331.177 316.318 331.41C316.478 331.512 316.667 331.599 316.9 331.657C317.961 331.948 319.692 331.788 321.001 331.614C317.86 338.521 318.805 339.278 319.154 339.539C319.227 339.598 319.387 339.67 319.474 339.699C322.048 340.383 348.458 328.676 351.207 326.553C351.512 326.32 351.817 326.015 351.817 325.593C351.817 325.535 351.817 325.476 351.788 325.418C351.774 325.346 351.745 325.273 351.716 325.215C351.716 325.2 351.701 325.186 351.686 325.157C351.657 325.113 351.628 325.069 351.599 325.04C351.585 325.011 351.556 324.997 351.526 324.967C349.185 322.611 328.389 313.537 321.772 311.762C320.215 311.341 318.674 311.035 318.339 312.082C317.67 314.177 320.579 318.859 321.641 320.474L321.67 320.488ZM346.553 323.659C339.092 322.219 325.306 320.139 322.95 319.79C321.466 317.551 319.663 314.235 319.706 312.839C319.968 312.839 320.463 312.926 321.423 313.173C327.123 314.7 340.008 320.357 346.553 323.644V323.659ZM322.848 331.148C322.935 331.046 323.008 330.915 323.022 330.77C323.531 329.694 324.069 328.603 324.607 327.542C337.871 327.338 344.604 327.062 348.051 326.756C341.361 330.217 323.299 337.78 320.157 338.26C320.23 337.198 321.379 334.289 322.862 331.134L322.848 331.148ZM317.278 330.276C317.583 329.229 320.361 324.895 322.92 321.259C325.829 321.695 340.925 323.979 347.658 325.36C342.35 325.724 331.472 326 324.157 326.102C323.895 326.102 323.648 326.262 323.517 326.494C322.833 327.818 322.252 328.981 321.743 330.043C319.794 330.377 317.889 330.508 317.263 330.29L317.278 330.276Z" fill="#261D2A"/>
<path d="M95.207 50.7892C94.4653 49.9603 93.1855 50.8765 91.9348 51.88C86.5976 56.1701 71.2257 72.8509 70.0331 75.9631C70.0331 75.9922 70.0041 76.0213 70.0041 76.0503C69.9895 76.094 69.975 76.1376 69.975 76.1958C69.975 76.2103 69.975 76.2394 69.975 76.2539C69.975 76.3267 69.975 76.3994 69.9895 76.4721C69.9895 76.5303 70.0186 76.5884 70.0331 76.6321C70.2077 77.0247 70.6003 77.1701 70.9784 77.2719C74.3524 78.1154 103.235 78.1882 105.314 76.5157C105.387 76.4575 105.503 76.3267 105.547 76.2394C105.765 75.8467 106.318 74.7851 100.661 69.7242C101.94 69.3606 103.584 68.7934 104.442 68.1099C104.631 67.9645 104.776 67.8045 104.878 67.6445C105.096 67.2809 105.082 66.961 105.038 66.7429C104.747 65.5503 99.788 62.3363 95.5706 59.8059C95.8905 57.9007 96.6758 52.4326 95.207 50.7892ZM92.851 53.0143C93.6218 52.389 94.0581 52.1272 94.2908 52.0109C94.887 53.2761 94.5816 57.0282 94.1163 59.675C92.0948 60.9548 80.315 68.4008 74.0761 72.7346C78.7298 67.0773 88.2409 56.7082 92.851 53.0143ZM104.136 75.4686C101.068 76.2976 81.4784 76.6611 73.9743 76.1812C77.2464 75.0614 83.5145 72.6182 95.7305 67.4409C96.6467 68.1826 97.592 68.9679 98.4792 69.7533C98.5519 69.8696 98.6682 69.9714 98.7846 70.0296C101.402 72.3273 103.642 74.5233 104.122 75.4686H104.136ZM99.3517 68.5753C98.4646 67.8045 97.4611 66.9755 96.3123 66.0448C96.1087 65.8703 95.8178 65.8412 95.5706 65.943C88.8372 68.7934 78.7735 72.9236 73.7707 74.7415C79.3697 70.7713 92.2693 62.5836 94.7562 61.0129C98.5664 63.3107 102.842 66.1611 103.555 66.9901C103.075 67.4409 101.271 68.0954 99.3663 68.5753H99.3517Z" fill="#261D2A"/>
<path d="M405.873 41.0601C393.163 24.6556 373.384 30.371 368.861 31.9562L370.243 38.6896C409.945 22.0524 409.713 71.3966 409.713 71.3966L412.025 72.6328C414.468 64.9687 415.37 53.3198 405.873 41.0746V41.0601Z" fill="#E8C01B"/>
<path d="M418.424 32.058C432.647 49.6405 426.364 69.1571 422.191 78.0428L425.885 80.0061C425.885 80.0061 442.842 51.4438 421.289 26.6044C399.736 1.76508 366.186 13.7339 366.186 13.7339L366.011 18.1695C375.93 16.2062 402.979 12.9922 418.409 32.0726L418.424 32.058Z" fill="#BE607A"/>
<path d="M418.424 32.0581C402.994 12.9777 375.944 16.1917 366.026 18.155L367.465 25.1502C375.667 22.7942 394.748 19.4348 409.233 33.3815C423.761 47.3863 420.62 66.074 417.653 75.6142L422.205 78.0283C426.379 69.1426 432.661 49.6405 418.438 32.0435L418.424 32.0581Z" fill="#A27297"/>
<path d="M409.233 33.3816C394.748 19.435 375.668 22.7944 367.465 25.1503L368.862 31.9564C373.384 30.3712 393.163 24.6704 405.873 41.0603C415.37 53.3055 414.483 64.9544 412.025 72.6185L417.653 75.6144C420.634 66.0742 423.761 47.372 409.233 33.3816Z" fill="#D37E3A"/>
<path d="M422.19 78.7556C422.089 78.7556 421.987 78.741 421.885 78.6974C421.521 78.5229 421.362 78.1011 421.521 77.7375C421.652 77.4467 434.886 47.75 414.454 28.8732C393.963 9.92378 366.506 18.7659 366.244 18.8531C365.866 18.984 365.444 18.7804 365.328 18.3878C365.197 18.0097 365.4 17.6025 365.793 17.4716C366.069 17.3698 394.326 8.25134 415.457 27.7971C436.661 47.4155 422.99 78.0284 422.859 78.3484C422.743 78.6101 422.467 78.7701 422.205 78.7701L422.19 78.7556Z" fill="#261D2A"/>
<path d="M417.653 76.3413C417.653 76.3413 417.508 76.3413 417.449 76.3122C417.071 76.1959 416.853 75.7887 416.955 75.4106C417.028 75.1488 424.648 48.9715 408.738 33.905C393.657 19.6384 371.872 24.6848 367.669 25.8482C367.291 25.95 366.884 25.7319 366.782 25.3392C366.68 24.9466 366.898 24.5539 367.291 24.4521C371.639 23.2596 394.108 18.0532 409.756 32.8579C426.335 48.5352 418.453 75.556 418.366 75.8323C418.264 76.1523 417.988 76.3559 417.668 76.3559L417.653 76.3413Z" fill="#261D2A"/>
<path d="M412.025 73.3455C412.025 73.3455 411.894 73.3455 411.821 73.3164C411.429 73.2 411.211 72.8074 411.327 72.4147C411.385 72.2257 416.46 53.5525 403.75 39.6495C391.054 25.7755 369.298 32.567 369.094 32.6398C368.716 32.7561 368.309 32.5525 368.178 32.1744C368.062 31.7963 368.265 31.3891 368.643 31.2582C368.876 31.1855 374.373 29.4403 381.601 29.4403H381.645C391.287 29.4403 399.3 32.6398 404.826 38.6751C418.104 53.1889 412.781 72.6183 412.738 72.8219C412.65 73.1419 412.359 73.3455 412.039 73.3455H412.025Z" fill="#261D2A"/>
<path d="M351.643 15.2463C351.643 15.2463 350.508 3.53919 360.528 7.55304C370.549 11.5669 367.029 22.1687 363.263 18.4312C359.496 14.6791 366.986 2.44847 374.592 8.1493C382.197 13.8501 380.249 24.5247 374.751 25.1936C369.254 25.8626 378.344 12.803 385.062 21.1507C391.781 29.4984 376.395 44.0849 370.345 38.4568C364.295 32.8287 369.312 24.0738 370.679 29.5129C372.046 34.952 367.945 40.1583 357.009 39.693C346.073 39.2276 351.454 20.6272 355.162 26.168C358.871 31.7089 352.384 37.7006 344.808 31.1126C337.231 24.5247 346.32 11.4505 351.643 15.2608V15.2463Z" fill="#FCFDFF"/>
<path d="M373.704 40.4493C372.279 40.4493 370.956 40.013 369.836 38.9659C369.371 38.5296 368.949 38.0643 368.6 37.5989C366.564 39.2277 363.03 40.6529 356.965 40.3911C353.344 40.2457 350.857 38.137 350.058 34.5739C348.298 34.2831 346.335 33.3669 344.328 31.6217C339.761 27.6515 340.706 21.1944 343.92 17.1369C346.029 14.461 348.691 13.3267 350.887 14.0393C350.901 12.1633 351.279 8.71658 353.577 6.98597C355.322 5.67711 357.751 5.64802 360.805 6.86963C362.245 7.45135 363.423 8.16395 364.382 8.94927C366.855 6.2152 370.898 4.4555 375.028 7.55315C378.722 10.3163 380.249 14.1847 380.321 17.6023C382.256 17.7187 384.088 18.7512 385.63 20.6709C389.585 25.5719 386.575 32.2762 382.125 36.4209C379.652 38.7187 376.511 40.4347 373.719 40.4347L373.704 40.4493ZM369.676 36.5954C369.996 37.0462 370.389 37.4825 370.839 37.9043C373.428 40.3184 377.995 38.2824 381.121 35.3593C385.106 31.6508 387.855 25.7609 384.481 21.5871C383.041 19.7983 381.558 19.1584 380.249 19.0712C380.191 19.6383 380.089 20.1764 379.958 20.6854C379.158 23.6522 377.238 25.6009 374.824 25.8918C373.064 26.1099 372.555 25.121 372.41 24.6847C371.857 22.9541 373.879 19.9437 376.584 18.504C377.34 18.0968 378.111 17.8205 378.867 17.6896C378.824 14.6646 377.456 11.1889 374.141 8.71658C369.967 5.58985 366.535 8.71658 365.415 9.95273C367.087 11.7706 367.771 13.8502 367.785 15.5954C367.8 17.5878 367 19.2166 365.72 19.7547C365.153 19.9874 364.004 20.2055 362.724 18.9403C360.63 16.8752 361.445 12.9777 363.452 10.0836C362.637 9.4001 361.576 8.76021 360.238 8.22212C357.678 7.20412 355.729 7.17503 354.42 8.14941C351.89 10.04 352.341 15.1155 352.341 15.1591C352.37 15.4354 352.224 15.7117 351.977 15.8572C351.73 16.0026 351.425 15.9881 351.192 15.8135C349.243 14.4174 346.684 15.9153 345.026 18.0241C342.713 20.9472 340.866 26.6917 345.258 30.5165C346.873 31.9126 348.414 32.7124 349.796 33.0324C349.49 29.3385 350.901 25.3101 352.893 24.5102C353.373 24.3212 354.624 24.0594 355.729 25.7173C357.518 28.3932 357.3 31.4327 355.191 33.2942C354.275 34.094 353.024 34.6176 351.555 34.6612C352.123 36.6827 353.548 38.7769 357.009 38.9223C361.765 39.1259 365.517 38.2242 367.8 36.3482C366.36 33.6868 366.418 30.8073 367.291 28.844C367.829 27.6224 368.643 26.9534 369.501 27.0262C370.112 27.0843 370.927 27.5061 371.363 29.2803C372.003 31.8544 371.494 34.3267 369.938 36.2609C369.851 36.3627 369.763 36.4645 369.676 36.5663V36.5954ZM369.385 28.495C369.312 28.495 368.963 28.7131 368.643 29.4257C368.062 30.7201 367.844 33.0033 368.905 35.2575C370.127 33.6868 370.505 31.7526 369.981 29.6439C369.72 28.6113 369.4 28.4804 369.4 28.4804L369.385 28.495ZM351.308 33.2214C352.515 33.2214 353.533 32.8433 354.246 32.2034C355.787 30.8509 355.904 28.5677 354.537 26.5317C353.955 25.6737 353.577 25.8191 353.446 25.8773C352.268 26.3426 350.901 29.8039 351.294 33.2214H351.308ZM378.78 19.1875C378.198 19.3184 377.675 19.5511 377.267 19.7692C374.853 21.0635 373.559 23.4777 373.806 24.2339C373.893 24.4957 374.373 24.4666 374.664 24.4375C376.482 24.2194 377.936 22.6778 378.576 20.2928C378.678 19.9437 378.751 19.5656 378.794 19.1875H378.78ZM364.528 11.0871C362.841 13.603 362.448 16.5843 363.757 17.8786C364.106 18.2277 364.644 18.6058 365.153 18.3876C365.749 18.1404 366.346 17.0933 366.331 15.5809C366.331 14.8392 366.128 12.934 364.528 11.0871Z" fill="#261D2A"/>
<path d="M408.738 56.8392C408.738 56.8392 407.095 45.2048 417.275 48.7097C427.455 52.2145 424.401 62.9909 420.474 59.4278C416.548 55.8794 423.499 43.2852 431.353 48.5933C439.206 53.9161 437.708 64.6633 432.24 65.6086C426.772 66.5393 435.279 53.0435 442.376 61.0566C449.459 69.0698 434.712 84.3981 428.429 79.0754C422.147 73.7526 426.772 64.7506 428.371 70.1169C429.971 75.4832 426.103 80.8787 415.152 80.9659C404.215 81.0532 408.782 62.2055 412.723 67.5428C416.664 72.8946 410.454 79.2062 402.601 72.9964C394.748 66.7866 403.256 53.2907 408.753 56.8246L408.738 56.8392Z" fill="#FCFDFF"/>
<path d="M415.079 81.7077C411.502 81.7077 408.942 79.7298 407.997 76.2395C406.237 76.0359 404.23 75.2215 402.15 73.5782C397.38 69.797 398.006 63.4563 401.089 59.137C403.081 56.3448 405.684 55.0795 407.924 55.6758C407.866 53.8143 408.084 50.324 410.309 48.4916C411.996 47.11 414.425 46.95 417.522 48.0117C419.035 48.5352 420.242 49.1896 421.187 49.9022C423.529 47.0518 427.484 45.1031 431.76 47.9971C435.556 50.5712 437.272 54.3669 437.49 57.7845C439.424 57.8136 441.3 58.7589 442.914 60.5768C447.074 65.2741 444.369 72.1239 440.093 76.4868C436.515 80.137 431.367 82.5366 427.95 79.628C427.455 79.2063 427.033 78.77 426.655 78.3192C424.168 80.4715 420.184 81.6495 415.152 81.6931H415.079V81.7077ZM409.509 76.2686C410.149 78.2465 411.647 80.2534 415.065 80.2534H415.123C419.878 80.2243 423.601 79.119 425.783 77.1412C424.227 74.5671 424.154 71.6876 424.939 69.6807C425.434 68.4154 426.19 67.7319 427.077 67.761C427.688 67.7901 428.517 68.1827 429.04 69.9279C429.797 72.4584 429.404 74.9597 427.92 76.9667C427.833 77.083 427.746 77.1848 427.659 77.3012C428.008 77.7375 428.4 78.1447 428.866 78.5519C431.556 80.8351 436.021 78.5664 439.031 75.4978C442.856 71.6003 445.343 65.5795 441.794 61.5657C440.282 59.8496 438.77 59.297 437.461 59.2679C437.432 59.8205 437.359 60.3441 437.243 60.8531C436.588 63.878 434.756 65.9431 432.327 66.3503C430.582 66.6557 430.015 65.6959 429.869 65.2596C429.229 63.5435 431.134 60.4459 433.767 58.8607C434.508 58.4099 435.265 58.1045 436.006 57.9445C435.832 54.9196 434.319 51.5165 430.902 49.2187C426.626 46.3247 423.339 49.5532 422.249 50.8621C424.43 53.029 424.794 55.4286 424.837 56.3593C424.954 58.3662 424.212 60.0532 422.961 60.6495C422.409 60.9113 421.274 61.1876 419.936 59.9805C417.755 58.0172 418.409 54.0761 420.285 51.0948C419.442 50.4549 418.366 49.8732 416.999 49.3932C414.396 48.5061 412.447 48.5788 411.182 49.6114C408.724 51.6329 409.407 56.6793 409.407 56.7229C409.451 56.9992 409.32 57.2901 409.073 57.4355C408.84 57.5809 408.52 57.5809 408.288 57.4355C406.266 56.1412 403.779 57.77 402.209 59.966C400.042 63.0054 398.442 68.8226 402.979 72.4147C404.652 73.7381 406.237 74.4507 407.633 74.7125C407.168 71.0332 408.389 66.932 410.353 66.0449C410.833 65.8268 412.054 65.5068 413.232 67.1066C415.137 69.6807 415.05 72.7347 413.029 74.698C412.156 75.5415 410.92 76.1232 409.451 76.2541L409.509 76.2686ZM427.033 69.2153C426.961 69.2153 426.612 69.448 426.306 70.2333C425.797 71.5567 425.695 73.8254 426.83 76.0068C427.993 74.378 428.27 72.4293 427.659 70.3496C427.397 69.448 427.092 69.2298 427.033 69.2153ZM411.225 67.3392C411.123 67.3392 411.051 67.3683 411.007 67.3974C409.844 67.921 408.637 71.4404 409.16 74.8434C410.367 74.7852 411.371 74.3489 412.069 73.68C413.552 72.2548 413.567 69.9715 412.112 67.9937C411.72 67.4556 411.414 67.3392 411.225 67.3392ZM436.006 59.4715C435.425 59.6315 434.93 59.8787 434.523 60.1259C432.152 61.5366 430.96 64.0235 431.251 64.7651C431.338 65.0124 431.833 64.9687 432.109 64.9251C433.927 64.6197 435.323 62.9764 435.846 60.5477C435.919 60.1987 435.977 59.8496 436.006 59.4715ZM421.434 52.0837C419.864 54.6869 419.602 57.6827 420.954 58.9043C421.318 59.2388 421.871 59.5879 422.38 59.3406C422.976 59.0643 423.514 57.9736 423.427 56.4466C423.383 55.7049 423.107 53.8434 421.434 52.0692V52.0837Z" fill="#261D2A"/>
<path d="M85.7686 105.224L82.9619 105.02L86.074 103.217C86.4231 103.013 86.5394 102.577 86.3358 102.228C86.1322 101.879 85.6814 101.762 85.3469 101.966L81.144 104.409L81.5657 99.7263C81.5948 99.3191 81.304 98.9701 80.9113 98.941C80.5186 98.9119 80.1696 99.2027 80.126 99.5954L79.7624 103.726L77.4937 100.89C77.2465 100.584 76.7811 100.526 76.4757 100.773C76.1558 101.021 76.1121 101.486 76.3594 101.791L78.6862 104.7L74.047 104.351C73.6398 104.322 73.2908 104.627 73.2617 105.02C73.2326 105.413 73.5235 105.762 73.9307 105.791L78.1627 106.111L74.6869 108.118C74.3379 108.321 74.2215 108.757 74.4251 109.106C74.556 109.325 74.7596 109.441 74.9923 109.47C75.1377 109.47 75.2832 109.456 75.4141 109.368L79.4425 107.027L79.0207 111.739C78.9916 112.146 79.2825 112.495 79.6751 112.524C80.0678 112.553 80.4168 112.262 80.4605 111.87L80.8531 107.42L83.2673 110.444C83.3981 110.604 83.5872 110.692 83.7763 110.721C83.9508 110.735 84.1398 110.692 84.2853 110.561C84.6052 110.314 84.6488 109.848 84.4016 109.543L81.8711 106.387L85.6378 106.663C86.045 106.692 86.394 106.387 86.4231 105.994C86.4522 105.602 86.1613 105.253 85.7541 105.224H85.7686Z" fill="#261D2A"/>
<path d="M408.287 182.418H408.273C406.237 180.527 406.091 177.342 407.967 175.292C409.829 173.256 413.014 173.11 415.05 174.972C416.053 175.888 416.635 177.138 416.693 178.476C416.751 179.814 416.286 181.109 415.37 182.083C413.508 184.119 410.323 184.265 408.273 182.403L408.287 182.418ZM414.09 176.062C412.621 174.724 410.367 174.826 409.044 176.28C407.706 177.735 407.807 180.003 409.262 181.327L408.782 181.879L409.276 181.341C410.731 182.665 412.985 182.563 414.308 181.109C414.948 180.411 415.282 179.494 415.239 178.535C415.195 177.575 414.788 176.702 414.09 176.048V176.062Z" fill="#261D2A"/>
<path d="M183.57 23.1576H183.555C181.519 21.267 181.374 18.0821 183.25 16.0315C185.111 13.9955 188.296 13.8501 190.332 15.7116C191.336 16.6278 191.918 17.8785 191.976 19.2164C192.034 20.5544 191.568 21.8487 190.652 22.8231C188.791 24.8591 185.606 25.0045 183.555 23.143L183.57 23.1576ZM189.372 16.8023C187.904 15.4644 185.649 15.5662 184.326 17.0204C182.988 18.4747 183.09 20.7434 184.544 22.0669L184.064 22.6195L184.559 22.0814C186.013 23.4048 188.267 23.303 189.605 21.8487C190.245 21.1506 190.58 20.2344 190.536 19.2746C190.492 18.3148 190.085 17.4422 189.387 16.7878L189.372 16.8023Z" fill="#261D2A"/>
<path d="M407.081 120.741C406.542 120.741 406.019 120.436 404.754 115.069C399.984 114.08 399.576 113.513 399.431 113.324C399.3 113.135 399.242 112.8 399.315 112.597C399.402 112.291 399.62 111.579 405.103 109.456C407.066 104.526 407.75 104.438 408.113 104.38C408.375 104.351 408.753 104.511 408.913 104.729C409.262 105.209 409.553 106.431 410.018 108.409C410.164 109.019 410.338 109.761 410.44 110.096C410.731 110.226 411.356 110.459 411.88 110.663C414.672 111.71 415.399 112.059 415.515 112.728C415.559 112.975 415.428 113.339 415.239 113.513C414.657 114.022 411.938 114.996 410.498 115.476C408.113 120.712 407.619 120.726 407.182 120.741C407.153 120.741 407.11 120.741 407.081 120.741ZM401.292 112.728C402.238 113.019 403.983 113.44 405.495 113.731C405.772 113.789 405.99 114.008 406.063 114.284C406.426 115.869 406.921 117.658 407.27 118.69C407.808 117.745 408.637 116.073 409.306 114.589C409.393 114.4 409.538 114.269 409.742 114.197C411.051 113.76 412.52 113.208 413.436 112.83C412.796 112.553 411.938 112.233 411.371 112.015C409.771 111.419 409.48 111.288 409.277 111.012C409.102 110.764 409 110.357 408.622 108.743C408.477 108.132 408.259 107.187 408.069 106.489C407.575 107.391 406.892 108.932 406.353 110.285C406.281 110.474 406.121 110.619 405.932 110.692C404.23 111.346 402.31 112.175 401.292 112.728Z" fill="#261D2A"/>
<path d="M421.056 158.698C420.882 158.698 420.722 158.654 420.562 158.553C420.009 158.233 418.438 155.979 416.708 153.143C412.912 153.812 409.727 154.161 409.233 153.564C409.014 153.303 408.942 152.866 409.247 152.474C409.916 151.63 411.516 149.638 413.436 147.369C411.734 144.082 410.498 141.087 410.818 140.098C410.978 139.618 411.4 139.356 411.909 139.414C412.854 139.53 415.617 140.665 418.337 141.857C420.896 139.167 423.267 137.015 424.445 136.927C424.881 136.898 425.172 137.058 425.346 137.204C425.521 137.364 425.608 137.582 425.579 137.814C425.375 139.88 425.099 142.352 424.779 144.853C431.352 148.082 431.469 148.722 431.542 149.085C431.6 149.405 431.396 149.812 431.105 149.958C431.033 149.987 427.76 150.816 423.746 151.703C423.092 155.339 422.321 158.145 421.507 158.567C421.361 158.64 421.216 158.684 421.056 158.684V158.698ZM418.177 152.866C419.34 154.801 420.387 156.371 420.983 157.011C421.347 156.269 421.769 154.452 422.205 152.052C420.882 152.343 419.5 152.619 418.177 152.866ZM414.177 148.751C413.145 149.972 412.098 151.238 411.094 152.488C412.156 152.416 413.886 152.168 415.908 151.819C415.326 150.83 414.73 149.783 414.177 148.751ZM415.181 147.573C415.879 148.896 416.65 150.263 417.391 151.543C419.035 151.238 420.794 150.903 422.467 150.554C422.714 149.071 422.961 147.427 423.194 145.711C421.725 144.999 420.183 144.271 418.715 143.603C417.609 144.81 416.402 146.148 415.195 147.573H415.181ZM424.575 146.395C424.401 147.704 424.212 148.998 424.008 150.234C426.277 149.754 428.255 149.303 429.433 148.983C428.444 148.358 426.655 147.413 424.59 146.38L424.575 146.395ZM412.228 140.97C412.403 141.945 413.29 143.922 414.439 146.177C415.355 145.115 416.315 144.024 417.289 142.977C415.093 142.017 413.217 141.247 412.228 140.97ZM419.733 142.497C420.692 142.934 421.609 143.355 422.379 143.719C422.728 143.879 423.063 144.039 423.383 144.199C423.616 142.366 423.834 140.461 424.037 138.585C423.165 139.094 421.609 140.534 419.747 142.497H419.733Z" fill="#261D2A"/>
<path d="M95.9341 19.5221C95.9341 19.5221 99.9043 6.01166 100.981 7.66956C102.057 9.31291 105.314 18.3732 105.314 18.3732C105.314 18.3732 116.745 22.227 116.44 22.9978C116.134 23.7686 106.187 27.8115 106.187 27.8115C106.187 27.8115 102.973 39.5622 101.155 38.3988C99.3517 37.2499 96.225 27.8697 96.225 27.8697C96.225 27.8697 86.0013 26.8808 87.2665 24.5539C88.5318 22.227 95.9341 19.5221 95.9341 19.5221Z" fill="#E8C01B"/>
<path d="M391.389 310.134C391.389 310.134 395.359 296.623 396.435 298.281C397.511 299.925 400.769 308.985 400.769 308.985C400.769 308.985 412.2 312.839 411.894 313.61C411.589 314.38 401.641 318.423 401.641 318.423C401.641 318.423 398.427 330.174 396.609 329.011C394.806 327.862 391.679 318.481 391.679 318.481C391.679 318.481 381.456 317.492 382.721 315.166C383.986 312.839 391.389 310.134 391.389 310.134Z" fill="#E8C01B"/>
<path d="M104.602 126.587L240.346 97.676L383.681 102.141C389.891 109.529 396.857 294.718 396.857 294.718C396.857 294.718 131.797 311.501 122.664 310.599C113.531 309.698 104.602 126.573 104.602 126.573V126.587Z" fill="#EEEBD5"/>
<path d="M101.81 92.9203C101.81 92.9203 378.678 64.2271 380.787 71.6004C382.896 78.9591 383.681 102.155 383.681 102.155L104.602 126.587L101.81 92.9203Z" fill="#403955"/>
<path d="M128.219 147.224C128.219 147.224 357.445 119.039 362.943 131.735C368.44 144.446 371.087 270.17 371.087 270.17L141.134 287.694C138.429 269.937 128.219 147.224 128.219 147.224Z" fill="#E8C01B"/>
<path d="M240.768 140.81C240.768 140.81 226.37 259.582 228.595 258.913C230.82 258.259 253.1 258.783 253.1 258.783C253.1 258.783 269.155 138.76 267.483 138.542C265.81 138.323 240.768 140.81 240.768 140.81Z" fill="#403955"/>
<path d="M207.871 158.175C207.871 158.175 148.681 197.95 152.041 200.655C155.4 203.345 208.351 247.119 208.351 247.119C208.351 247.119 223.476 227.254 221.236 224.592C218.997 221.931 180.443 198.749 180.443 198.749L216.539 178.171L207.886 158.175H207.871Z" fill="#403955"/>
<path d="M287.086 249.097C287.086 249.097 346.276 209.322 342.917 206.617C339.557 203.926 286.607 160.152 286.607 160.152C286.607 160.152 271.482 180.018 273.721 182.679C275.961 185.341 314.514 208.522 314.514 208.522L278.419 229.1L287.072 249.097H287.086Z" fill="#403955"/>
<path d="M334.904 87.9175C334.729 88.2083 334.366 88.3538 334.031 88.2374C331.079 87.1758 329.625 89.2118 329.567 89.2991C329.334 89.6336 328.883 89.7063 328.563 89.4881C328.229 89.27 328.127 88.8046 328.374 88.4847C329.087 87.4085 331.297 85.707 334.54 86.8704C334.918 87.0013 335.107 87.423 334.977 87.8011C334.962 87.8448 334.947 87.8884 334.918 87.9175H334.904Z" fill="#FCFDFF"/>
<path d="M340.023 91.8731C339.848 92.1639 339.485 92.3093 339.15 92.193C336.198 91.1314 334.744 93.1674 334.686 93.2546C334.453 93.5891 334.002 93.6764 333.682 93.4437C333.348 93.2255 333.261 92.7747 333.493 92.4402C334.206 91.364 336.416 89.6625 339.659 90.826C340.038 90.9568 340.227 91.3786 340.096 91.7567C340.081 91.8003 340.067 91.844 340.038 91.8731H340.023Z" fill="#FCFDFF"/>
<path d="M344.546 85.576C344.371 85.8669 344.008 86.0123 343.673 85.896C340.692 84.8198 339.223 86.9285 339.208 86.9576C338.99 87.2921 338.54 87.3794 338.205 87.1612C337.871 86.9431 337.769 86.4777 338.001 86.1578C338.714 85.0816 340.925 83.3801 344.168 84.5435C344.546 84.6744 344.735 85.0961 344.604 85.4742C344.589 85.5179 344.575 85.5615 344.546 85.5906V85.576Z" fill="#FCFDFF"/>
<path d="M350.625 89.0228C350.45 89.3137 350.087 89.4591 349.752 89.3428C346.756 88.2666 345.302 90.3753 345.287 90.4044C345.069 90.7389 344.619 90.8261 344.284 90.608C343.95 90.3899 343.848 89.9245 344.08 89.6045C344.793 88.5284 347.004 86.8268 350.247 87.9903C350.625 88.1212 350.814 88.5429 350.683 88.921C350.668 88.9646 350.654 89.0083 350.625 89.0374V89.0228Z" fill="#FCFDFF"/>
<path d="M346.073 95.1307C345.898 95.4216 345.535 95.567 345.2 95.4507C342.248 94.3891 340.794 96.4251 340.735 96.5123C340.503 96.8468 340.052 96.9195 339.732 96.7014C339.397 96.4832 339.31 96.0033 339.543 95.6979C340.255 94.6217 342.466 92.9202 345.709 94.0836C346.087 94.2145 346.276 94.6363 346.145 95.0144C346.131 95.058 346.116 95.1017 346.087 95.1307H346.073Z" fill="#FCFDFF"/>
<path d="M355.569 83.3801C355.395 83.671 355.031 83.8164 354.697 83.7001C351.745 82.6384 350.29 84.6745 350.232 84.7617C349.999 85.0962 349.549 85.1835 349.229 84.9508C348.894 84.7326 348.807 84.2818 349.04 83.9473C349.752 82.8711 351.963 81.1696 355.206 82.333C355.584 82.4639 355.773 82.8857 355.642 83.2638C355.628 83.3074 355.613 83.351 355.584 83.3801H355.569Z" fill="#FCFDFF"/>
<path d="M360.048 88.4409C360.048 88.4409 360.034 88.47 360.019 88.4845C359.787 88.819 359.336 88.8917 359.001 88.6736C356.253 86.783 354.391 88.2664 354.319 88.3245C354.013 88.5718 353.548 88.5427 353.301 88.2373C353.039 87.9319 353.082 87.481 353.388 87.2193C354.333 86.4194 356.893 85.445 359.845 87.481C360.165 87.6992 360.252 88.1209 360.063 88.4409H360.048Z" fill="#FCFDFF"/>
<path d="M152.259 98.5483C152.084 98.8392 151.721 98.9846 151.386 98.8683C148.434 97.8067 146.98 99.8427 146.922 99.9299C146.689 100.264 146.238 100.337 145.918 100.119C145.584 99.9008 145.482 99.4355 145.729 99.1155C146.442 98.0393 148.652 96.3378 151.895 97.5013C152.273 97.6321 152.463 98.0539 152.332 98.432C152.317 98.4756 152.303 98.5193 152.273 98.5483H152.259Z" fill="#FCFDFF"/>
<path d="M157.378 102.504C157.204 102.795 156.84 102.94 156.506 102.824C153.553 101.762 152.099 103.798 152.041 103.885C151.808 104.22 151.357 104.307 151.037 104.074C150.703 103.856 150.616 103.405 150.848 103.071C151.561 101.995 153.772 100.293 157.015 101.457C157.393 101.588 157.582 102.009 157.451 102.387C157.436 102.431 157.422 102.475 157.393 102.504H157.378Z" fill="#FCFDFF"/>
<path d="M161.886 96.2068C161.712 96.4976 161.348 96.6431 161.014 96.5267C158.033 95.4505 156.564 97.5593 156.549 97.5883C156.331 97.9228 155.88 98.0101 155.546 97.792C155.211 97.5738 155.109 97.1084 155.342 96.7885C156.055 95.7123 158.265 94.0108 161.508 95.1742C161.886 95.3051 162.075 95.7269 161.945 96.105C161.93 96.1486 161.915 96.1922 161.886 96.2213V96.2068Z" fill="#FCFDFF"/>
<path d="M167.98 99.6536C167.805 99.9444 167.442 100.09 167.107 99.9735C164.111 98.8973 162.657 101.006 162.643 101.035C162.424 101.37 161.974 101.457 161.639 101.239C161.305 101.021 161.203 100.555 161.436 100.235C162.148 99.1591 164.359 97.4576 167.602 98.621C167.98 98.7519 168.169 99.1736 168.038 99.5518C168.023 99.5954 168.009 99.639 167.98 99.6681V99.6536Z" fill="#FCFDFF"/>
<path d="M163.428 105.776C163.253 106.067 162.89 106.212 162.555 106.096C159.603 105.034 158.149 107.07 158.091 107.158C157.858 107.492 157.407 107.565 157.087 107.347C156.753 107.129 156.665 106.649 156.898 106.343C157.611 105.267 159.821 103.566 163.064 104.729C163.442 104.86 163.631 105.282 163.501 105.66C163.486 105.703 163.472 105.747 163.442 105.776H163.428Z" fill="#FCFDFF"/>
<path d="M172.91 94.0254C172.735 94.3163 172.372 94.4617 172.037 94.3453C169.085 93.2837 167.631 95.3197 167.573 95.407C167.34 95.7415 166.889 95.8287 166.569 95.596C166.235 95.3779 166.147 94.9271 166.38 94.5926C167.093 93.5164 169.303 91.8149 172.546 92.9783C172.924 93.1092 173.114 93.5309 172.983 93.9091C172.968 93.9527 172.954 93.9963 172.924 94.0254H172.91Z" fill="#FCFDFF"/>
<path d="M177.404 99.0863C177.404 99.0863 177.389 99.1154 177.375 99.1299C177.142 99.4644 176.691 99.5371 176.357 99.3189C173.608 97.4284 171.746 98.9117 171.674 98.9699C171.368 99.2172 170.903 99.1881 170.656 98.8827C170.394 98.5773 170.438 98.1264 170.743 97.8647C171.688 97.0648 174.248 96.0904 177.2 98.1264C177.52 98.3446 177.607 98.7663 177.418 99.0863H177.404Z" fill="#FCFDFF"/>
<path d="M143.301 133.699C143.301 133.699 159.225 132.884 159.981 136.287C160.738 139.69 151.052 149.056 151.052 149.056C151.052 149.056 165.479 159.367 162.672 162.319C159.865 165.257 147.547 169.3 147.547 169.3C147.547 169.3 152.128 179.989 149.801 181.051C147.474 182.112 136.218 180.367 136.218 180.367C136.218 180.367 136.858 195.71 135.04 196.103C133.222 196.495 118.81 186.781 118.81 186.781C118.81 186.781 104.733 200 103.947 199.04C102.478 197.251 97.0685 183.814 97.0685 183.814C97.0685 183.814 82.7728 184.555 82.0892 183.901C80.7222 182.607 87.921 166.697 87.921 166.697C87.921 166.697 68.2444 160.051 70.0768 156.924C71.9092 153.797 84.4452 147.835 84.4452 147.835L75.1377 134.397L90.1024 131.517C90.1024 131.517 91.5567 109.485 94.3635 111.201C97.1703 112.917 107.35 121.352 107.35 121.352C107.35 121.352 117.181 106.256 119.028 108.278C120.875 110.299 125.849 122.283 125.849 122.283C125.849 122.283 142.69 112.961 144.435 114.197L143.301 133.713V133.699Z" fill="#D37E3A"/>
<path d="M91.8621 164.413C91.8621 164.413 96.9522 150.947 98.1592 151.441C99.3663 151.921 113.284 160.08 113.284 160.08C113.284 160.08 122.271 131.648 122.591 132.361C122.897 133.088 134.706 137.654 134.706 137.654C134.706 137.654 121.573 176.28 118.316 174.593L91.8621 164.413Z" fill="#FCFDFF"/>
<path d="M417.333 220.069C417.333 220.069 433.258 219.255 434.014 222.658C434.77 226.061 425.085 235.427 425.085 235.427C425.085 235.427 439.511 245.738 436.704 248.69C433.898 251.627 421.58 255.67 421.58 255.67C421.58 255.67 426.161 266.359 423.834 267.421C421.507 268.483 410.251 266.738 410.251 266.738C410.251 266.738 410.891 282.08 409.073 282.473C407.255 282.866 392.843 273.151 392.843 273.151C392.843 273.151 378.765 286.371 377.98 285.411C376.511 283.622 371.101 270.184 371.101 270.184C371.101 270.184 356.805 270.926 356.122 270.272C354.755 268.977 361.954 253.067 361.954 253.067C361.954 253.067 342.277 246.421 344.109 243.294C345.942 240.168 358.478 234.205 358.478 234.205L349.185 220.767L364.15 217.888C364.15 217.888 365.604 195.855 368.411 197.571C371.218 199.287 381.398 207.722 381.398 207.722C381.398 207.722 391.229 192.627 393.076 194.648C394.923 196.684 399.896 208.653 399.896 208.653C399.896 208.653 416.737 199.331 418.482 200.567L417.348 220.084L417.333 220.069Z" fill="#BE607A"/>
<path d="M411.676 230.904L401.932 219.502L391.36 230.497C386.299 225.188 381.921 220.68 380.889 219.909L369.371 229.522L381.151 241.127L371.669 250.988C371.669 250.988 381.5 260.295 381.616 260.295C381.66 260.295 385.95 256.223 391.287 251.118L400.478 260.179C400.478 260.179 409.902 250.449 409.902 250.348C409.902 250.304 406.223 246.334 401.482 241.273C406.615 236.27 410.92 231.965 411.676 230.933V230.904Z" fill="#FCFDFF"/>
<path d="M220.858 345.022C220 345.022 219.127 344.964 218.255 344.833C217.862 344.775 217.586 344.411 217.644 344.004C217.702 343.612 218.066 343.35 218.473 343.393C219.273 343.51 220.073 343.568 220.858 343.568H221.251C221.629 343.626 221.978 343.873 221.992 344.281C221.992 344.688 221.687 345.008 221.28 345.022H220.858ZM250.308 345.022H249.944C249.537 345.022 249.217 344.688 249.231 344.281C249.231 343.873 249.508 343.539 249.973 343.568H250.322C251.151 343.568 251.98 343.524 252.78 343.437C253.187 343.393 253.536 343.684 253.58 344.077C253.623 344.47 253.347 344.833 252.94 344.877C252.082 344.979 251.195 345.022 250.308 345.022ZM247.05 344.804C247.05 344.804 246.992 344.804 246.963 344.804C245.959 344.673 244.956 344.484 244.025 344.237C243.632 344.135 243.4 343.742 243.501 343.35C243.603 342.957 243.996 342.724 244.389 342.826C245.276 343.059 246.192 343.233 247.152 343.364C247.544 343.422 247.835 343.786 247.777 344.179C247.733 344.542 247.413 344.819 247.05 344.819V344.804ZM224.145 344.688C223.81 344.688 223.505 344.455 223.432 344.106C223.345 343.713 223.607 343.335 223.999 343.248C224.901 343.059 225.788 342.797 226.661 342.463C227.039 342.317 227.461 342.506 227.606 342.87C227.751 343.248 227.562 343.67 227.199 343.815C226.253 344.179 225.279 344.47 224.29 344.673C224.247 344.673 224.188 344.673 224.145 344.673V344.688ZM255.703 344.324C255.383 344.324 255.092 344.106 255.005 343.786C254.903 343.393 255.136 343.001 255.514 342.899C256.416 342.652 257.303 342.346 258.132 341.968C258.495 341.808 258.931 341.968 259.091 342.332C259.251 342.695 259.091 343.132 258.728 343.292C257.826 343.699 256.866 344.048 255.877 344.31C255.819 344.324 255.747 344.339 255.688 344.339L255.703 344.324ZM215.535 344.193C215.535 344.193 215.39 344.193 215.332 344.164C214.328 343.859 213.368 343.495 212.51 343.059C212.147 342.884 212.001 342.448 212.176 342.085C212.35 341.721 212.787 341.576 213.15 341.75C213.936 342.143 214.808 342.477 215.739 342.768C216.117 342.884 216.335 343.292 216.219 343.67C216.117 343.99 215.841 344.193 215.521 344.193H215.535ZM241.465 343.306C241.364 343.306 241.276 343.292 241.175 343.248C240.244 342.841 239.342 342.375 238.499 341.837C238.164 341.619 238.062 341.168 238.28 340.834C238.499 340.499 238.949 340.398 239.284 340.616C240.055 341.11 240.884 341.546 241.742 341.91C242.105 342.07 242.28 342.492 242.12 342.87C242.003 343.146 241.727 343.306 241.451 343.306H241.465ZM229.555 342.594C229.307 342.594 229.06 342.463 228.929 342.23C228.726 341.881 228.842 341.445 229.191 341.241C229.976 340.776 230.747 340.238 231.489 339.641C231.794 339.394 232.26 339.438 232.507 339.743C232.754 340.049 232.711 340.514 232.391 340.761C231.605 341.401 230.762 341.983 229.918 342.477C229.802 342.55 229.671 342.579 229.555 342.579V342.594ZM260.982 341.939C260.749 341.939 260.517 341.823 260.386 341.619C260.153 341.285 260.24 340.834 260.575 340.616C261.331 340.092 262.058 339.51 262.727 338.856C263.018 338.58 263.483 338.58 263.76 338.856C264.036 339.147 264.036 339.598 263.76 339.889C263.033 340.601 262.247 341.241 261.418 341.808C261.287 341.895 261.157 341.939 261.011 341.939H260.982ZM210.402 341.576C210.242 341.576 210.082 341.517 209.936 341.416C209.122 340.747 208.409 339.976 207.842 339.132C207.609 338.798 207.697 338.347 208.031 338.129C208.366 337.896 208.816 337.983 209.049 338.318C209.544 339.045 210.154 339.714 210.867 340.296C211.172 340.557 211.216 341.008 210.969 341.314C210.823 341.488 210.62 341.576 210.402 341.576ZM236.594 340.179C236.419 340.179 236.244 340.121 236.099 339.99C235.619 339.554 235.154 339.089 234.732 338.594C234.688 338.638 234.645 338.681 234.601 338.725C234.325 339.016 233.859 339.03 233.569 338.754C233.278 338.478 233.263 338.012 233.539 337.722C233.656 337.591 233.772 337.46 233.889 337.329C233.889 337.096 233.976 336.878 234.165 336.733C234.281 336.645 234.398 336.602 234.528 336.587C234.805 336.253 235.067 335.904 235.328 335.555C235.561 335.235 236.012 335.162 236.346 335.395C236.666 335.627 236.739 336.078 236.506 336.413C236.244 336.776 235.968 337.125 235.692 337.474C236.128 337.983 236.594 338.463 237.073 338.914C237.364 339.19 237.393 339.641 237.117 339.947C236.972 340.107 236.783 340.179 236.579 340.179H236.594ZM283.96 339.874C283.262 339.874 282.535 339.83 281.822 339.758C281.429 339.714 281.139 339.35 281.182 338.958C281.226 338.565 281.575 338.274 281.982 338.318C282.651 338.391 283.305 338.434 283.96 338.42C284.236 338.42 284.498 338.42 284.76 338.391C285.152 338.362 285.501 338.667 285.531 339.074C285.56 339.481 285.254 339.816 284.847 339.845C284.556 339.859 284.265 339.874 283.96 339.874ZM287.668 339.409C287.348 339.409 287.058 339.19 286.97 338.871C286.868 338.478 287.101 338.085 287.494 337.983C288.381 337.751 289.239 337.416 290.053 337.009C290.417 336.82 290.853 336.965 291.028 337.314C291.217 337.678 291.071 338.114 290.722 338.289C289.821 338.754 288.861 339.132 287.872 339.38C287.814 339.394 287.741 339.409 287.683 339.409H287.668ZM279.044 339.249C279.044 339.249 278.928 339.249 278.87 339.234C278.535 339.161 278.215 339.06 277.866 338.972C277.227 338.798 276.616 338.609 276.019 338.405C275.641 338.274 275.423 337.867 275.554 337.489C275.685 337.111 276.092 336.893 276.47 337.024C277.052 337.213 277.648 337.402 278.259 337.576C278.579 337.663 278.884 337.751 279.204 337.823C279.597 337.925 279.83 338.303 279.742 338.696C279.655 339.031 279.364 339.249 279.03 339.249H279.044ZM265.141 337.896C264.996 337.896 264.85 337.853 264.72 337.765C264.4 337.533 264.327 337.082 264.56 336.747C265.112 335.991 265.592 335.191 265.999 334.362C266.174 334.013 266.596 333.868 266.959 334.028C266.465 333.693 265.985 333.344 265.534 332.981C265.214 332.733 265.156 332.283 265.403 331.963C265.65 331.643 266.101 331.585 266.421 331.832C266.639 331.992 266.843 332.166 267.076 332.326C266.988 332.166 266.959 331.963 267.017 331.774C267.279 330.857 267.468 329.956 267.555 329.054C267.599 328.647 267.963 328.371 268.355 328.4C268.748 328.443 269.053 328.792 269.01 329.199C268.922 330.188 268.719 331.192 268.428 332.181C268.326 332.544 267.963 332.762 267.614 332.69C267.992 332.952 268.37 333.199 268.763 333.446C269.097 333.664 269.213 334.115 268.995 334.449C268.777 334.784 268.341 334.9 267.992 334.682C267.715 334.508 267.439 334.333 267.177 334.159C267.395 334.377 267.468 334.711 267.323 335.002C266.872 335.904 266.348 336.776 265.767 337.591C265.621 337.78 265.403 337.896 265.17 337.896H265.141ZM273.533 337.431C273.445 337.431 273.344 337.416 273.256 337.373C272.326 336.994 271.424 336.573 270.566 336.136C270.202 335.962 270.057 335.511 270.246 335.162C270.435 334.798 270.871 334.668 271.22 334.842C272.049 335.264 272.922 335.657 273.809 336.02C274.187 336.18 274.362 336.602 274.202 336.965C274.085 337.242 273.809 337.416 273.533 337.416V337.431ZM207.188 336.835C206.882 336.835 206.591 336.645 206.49 336.34C206.184 335.409 205.981 334.391 205.908 333.33C205.879 332.922 206.17 332.573 206.577 332.544C206.999 332.515 207.333 332.806 207.362 333.213C207.435 334.159 207.609 335.06 207.886 335.889C208.017 336.267 207.798 336.675 207.42 336.805C207.348 336.835 207.275 336.835 207.188 336.835ZM292.802 336.747C292.598 336.747 292.395 336.66 292.249 336.485C291.988 336.18 292.031 335.715 292.337 335.467C293.02 334.9 293.675 334.231 294.271 333.49C294.518 333.184 294.983 333.126 295.289 333.388C295.594 333.635 295.652 334.1 295.391 334.406C294.736 335.22 294.024 335.947 293.267 336.587C293.136 336.704 292.962 336.762 292.802 336.762V336.747ZM233.074 335.598C232.812 335.598 232.565 335.453 232.434 335.206C231.954 334.304 231.562 333.373 231.242 332.413C231.111 332.035 231.329 331.628 231.707 331.497C232.085 331.366 232.492 331.585 232.623 331.963C232.914 332.835 233.278 333.708 233.714 334.522C233.903 334.871 233.772 335.322 233.409 335.511C233.307 335.569 233.19 335.598 233.074 335.598ZM237.51 334.26C237.393 334.26 237.277 334.231 237.161 334.173C236.812 333.984 236.681 333.533 236.87 333.184C237.335 332.341 237.713 331.483 238.033 330.639C238.179 330.261 238.586 330.072 238.964 330.203C239.342 330.334 239.531 330.756 239.4 331.134C239.066 332.05 238.644 332.966 238.15 333.882C238.019 334.13 237.771 334.26 237.51 334.26ZM296.467 332.268C296.35 332.268 296.22 332.239 296.103 332.166C295.754 331.963 295.638 331.526 295.841 331.177C296.292 330.392 296.714 329.534 297.078 328.647C297.238 328.283 297.659 328.094 298.023 328.254C298.401 328.414 298.576 328.836 298.416 329.199C298.023 330.145 297.572 331.061 297.092 331.904C296.961 332.137 296.714 332.268 296.467 332.268ZM263.803 331.192C263.614 331.192 263.425 331.119 263.28 330.974C262.538 330.217 261.869 329.447 261.331 328.661C261.098 328.327 261.186 327.876 261.506 327.643C261.84 327.411 262.291 327.498 262.524 327.818C263.018 328.53 263.629 329.243 264.327 329.941C264.603 330.232 264.603 330.683 264.327 330.974C264.181 331.119 263.992 331.177 263.818 331.177L263.803 331.192ZM206.679 331.076C206.679 331.076 206.635 331.076 206.606 331.076C206.213 331.032 205.908 330.683 205.952 330.276C206.039 329.316 206.213 328.327 206.446 327.309C206.533 326.916 206.926 326.669 207.319 326.771C207.711 326.858 207.958 327.251 207.857 327.643C207.639 328.589 207.479 329.519 207.391 330.421C207.362 330.799 207.042 331.076 206.664 331.076H206.679ZM231.285 330.087C230.922 330.087 230.616 329.825 230.573 329.461C230.471 328.734 230.413 328.007 230.413 327.309C230.413 327.003 230.413 326.698 230.442 326.407C230.471 326 230.82 325.709 231.213 325.724C231.62 325.753 231.911 326.102 231.896 326.494C231.882 326.756 231.867 327.033 231.867 327.294C231.867 327.934 231.911 328.589 232.012 329.243C232.071 329.636 231.794 330.014 231.387 330.072C231.358 330.072 231.314 330.072 231.285 330.072V330.087ZM239.488 328.792C239.488 328.792 239.4 328.792 239.371 328.792C238.979 328.72 238.702 328.356 238.775 327.949C238.877 327.323 238.935 326.727 238.935 326.175C238.935 325.855 238.92 325.564 238.891 325.258C238.848 324.866 239.124 324.502 239.531 324.444C239.924 324.4 240.287 324.691 240.331 325.084C240.375 325.433 240.389 325.796 240.389 326.16C240.389 326.8 240.331 327.483 240.215 328.181C240.157 328.53 239.851 328.792 239.502 328.792H239.488ZM268.224 326.931C267.875 326.931 267.555 326.669 267.512 326.305C267.366 325.346 267.09 324.517 266.697 323.819C266.494 323.47 266.61 323.033 266.959 322.83C267.308 322.626 267.744 322.742 267.948 323.091C268.443 323.935 268.777 324.953 268.952 326.087C269.01 326.48 268.733 326.858 268.341 326.916C268.312 326.916 268.268 326.916 268.239 326.916L268.224 326.931ZM298.706 326.887C298.706 326.887 298.576 326.887 298.503 326.858C298.11 326.742 297.892 326.349 298.008 325.956C298.474 324.342 298.619 323.222 298.619 323.208C298.677 322.815 299.026 322.539 299.434 322.582C299.826 322.641 300.117 323.004 300.059 323.397C300.059 323.44 299.899 324.633 299.404 326.364C299.317 326.684 299.026 326.887 298.706 326.887ZM260.546 326.407C260.255 326.407 259.964 326.218 259.862 325.927C259.571 325.142 259.426 324.386 259.426 323.702C259.426 323.324 259.47 322.961 259.557 322.626C259.659 322.233 260.066 322.015 260.458 322.117C260.851 322.219 261.069 322.626 260.967 323.004C260.909 323.208 260.88 323.44 260.88 323.688C260.88 324.197 260.997 324.778 261.229 325.404C261.36 325.782 261.171 326.204 260.793 326.335C260.706 326.364 260.633 326.378 260.546 326.378V326.407ZM207.958 325.404C207.886 325.404 207.798 325.404 207.726 325.36C207.348 325.229 207.144 324.808 207.275 324.429C207.595 323.484 207.973 322.553 208.38 321.666C208.555 321.303 208.976 321.143 209.34 321.303C209.704 321.477 209.864 321.899 209.704 322.262C209.311 323.121 208.947 324.008 208.642 324.895C208.54 325.2 208.249 325.389 207.958 325.389V325.404ZM231.736 324.342C231.649 324.342 231.562 324.328 231.474 324.298C231.096 324.153 230.907 323.731 231.053 323.353C231.503 322.175 232.187 321.259 233.016 320.706C233.35 320.474 233.801 320.575 234.019 320.91C234.238 321.244 234.15 321.695 233.816 321.913C233.234 322.306 232.74 322.99 232.391 323.877C232.274 324.168 231.998 324.342 231.707 324.342H231.736ZM238.6 323.193C238.382 323.193 238.164 323.091 238.019 322.902C237.626 322.364 237.088 321.972 236.419 321.724C236.288 321.681 236.157 321.637 236.026 321.593C235.634 321.492 235.401 321.099 235.517 320.706C235.619 320.314 236.012 320.081 236.404 320.183C236.579 320.226 236.753 320.285 236.928 320.357C237.844 320.692 238.615 321.259 239.182 322.03C239.415 322.35 239.357 322.801 239.037 323.048C238.906 323.15 238.76 323.193 238.6 323.193ZM265.214 322.233C265.112 322.233 265.01 322.219 264.909 322.175C264.69 322.073 264.472 322.001 264.225 321.943C263.556 321.783 262.96 321.739 262.465 321.812C262.058 321.855 261.695 321.593 261.651 321.186C261.593 320.794 261.869 320.416 262.276 320.372C262.931 320.285 263.731 320.328 264.574 320.517C264.909 320.59 265.229 320.706 265.534 320.837C265.898 320.997 266.058 321.434 265.898 321.797C265.781 322.059 265.505 322.219 265.229 322.219L265.214 322.233Z" fill="#261D2A"/>
<path d="M147.096 68.4153C146.558 68.4153 146.049 68.2554 145.584 67.9354C145.249 67.7027 145.177 67.2519 145.395 66.9174C145.627 66.5829 146.078 66.5102 146.413 66.7284C146.82 67.0047 147.242 67.0192 147.765 66.8011C147.954 66.7138 148.129 66.612 148.289 66.5102C148.623 66.2775 149.074 66.3648 149.307 66.6993C149.539 67.0338 149.452 67.4846 149.118 67.7173C148.885 67.8773 148.638 68.0227 148.361 68.139C147.94 68.3281 147.518 68.4299 147.111 68.4299L147.096 68.4153ZM144.435 65.6667C144.129 65.6667 143.853 65.4777 143.751 65.1723C143.46 64.3142 143.228 63.3108 143.082 62.191C143.039 61.7983 143.315 61.4347 143.708 61.3766C144.115 61.3329 144.464 61.6092 144.522 62.0019C144.653 63.0199 144.857 63.9361 145.118 64.6924C145.249 65.0705 145.046 65.4922 144.668 65.6231C144.595 65.6522 144.508 65.6667 144.435 65.6667ZM150.237 65.4631C150.237 65.4631 150.136 65.4631 150.078 65.4486C149.685 65.3613 149.438 64.9687 149.525 64.576C149.598 64.2561 149.627 63.8925 149.627 63.5144C149.627 63.0345 149.569 62.5255 149.467 61.9874C149.379 61.5947 149.641 61.2166 150.034 61.1293C150.427 61.0566 150.805 61.3038 150.892 61.6965C151.023 62.3364 151.081 62.9327 151.081 63.5144C151.081 63.9943 151.037 64.4597 150.936 64.8814C150.863 65.2159 150.557 65.4486 150.223 65.4486L150.237 65.4631ZM110.084 60.9112C109.779 60.9112 109.503 60.7221 109.401 60.4167C109.386 60.3586 108.965 59.1369 108.863 57.3627C108.834 56.9555 109.139 56.621 109.546 56.5919C109.954 56.5919 110.288 56.8682 110.317 57.2755C110.419 58.8315 110.782 59.9368 110.782 59.9368C110.913 60.3149 110.71 60.7367 110.332 60.8676C110.259 60.8966 110.172 60.9112 110.099 60.9112H110.084ZM143.635 59.8932C143.228 59.8932 142.908 59.6023 142.908 59.2097V59.1224C142.908 58.1917 142.951 57.2173 143.039 56.2284C143.082 55.8357 143.431 55.5448 143.824 55.5739C144.217 55.6176 144.522 55.9666 144.478 56.3592C144.391 57.3045 144.348 58.2353 144.348 59.1224C144.348 59.5296 144.028 59.8932 143.62 59.8932H143.635ZM149.263 59.8205C148.987 59.8205 148.725 59.6605 148.594 59.3987C148.231 58.5843 147.78 57.7699 147.242 56.941C147.024 56.6065 147.125 56.1556 147.46 55.9375C147.794 55.7194 148.245 55.8212 148.463 56.1556C149.03 57.0282 149.525 57.9299 149.918 58.8025C150.078 59.166 149.918 59.6023 149.554 59.7623C149.452 59.8059 149.35 59.8205 149.249 59.8205H149.263ZM190.725 57.639C190.071 57.639 189.489 57.4936 189.009 57.1882C188.66 56.9846 188.558 56.5338 188.776 56.1847C188.994 55.8357 189.431 55.7339 189.78 55.952C190.027 56.112 190.347 56.1847 190.74 56.1847H190.943C191.307 56.1556 191.641 56.0829 191.918 55.952C192.281 55.7921 192.717 55.952 192.877 56.3156C193.037 56.6792 192.877 57.1155 192.514 57.2755C192.078 57.4791 191.583 57.5954 191.045 57.6245C190.943 57.6245 190.841 57.6245 190.754 57.6245L190.725 57.639ZM234.456 55.5885C234.063 55.5885 233.729 55.2685 233.729 54.8613C233.729 54.4832 233.699 53.4361 233.554 52.0254C233.51 51.6328 233.801 51.2692 234.194 51.2256C234.601 51.1965 234.95 51.4728 234.994 51.8655C235.139 53.2907 235.168 54.3523 235.168 54.8613C235.168 55.2685 234.848 55.5885 234.441 55.5885H234.456ZM109.75 55.1667C109.75 55.1667 109.663 55.1667 109.619 55.1667C109.226 55.094 108.965 54.7159 109.037 54.3232C109.226 53.2761 109.561 52.2872 110.026 51.371C110.201 51.0074 110.652 50.862 111.001 51.0511C111.364 51.2256 111.495 51.6764 111.321 52.0254C110.928 52.8108 110.637 53.6688 110.463 54.5705C110.404 54.9195 110.099 55.1667 109.75 55.1667ZM193.91 55.1376C193.91 55.1376 193.794 55.1376 193.735 55.1231C193.343 55.0213 193.11 54.6286 193.197 54.236C193.285 53.8724 193.328 53.4652 193.328 53.0144C193.328 52.5926 193.285 52.1272 193.212 51.6473C193.139 51.2547 193.416 50.8766 193.808 50.8038C194.201 50.7457 194.579 51.0074 194.652 51.4001C194.753 51.9673 194.797 52.5054 194.797 53.0144C194.797 53.5815 194.739 54.1051 194.623 54.585C194.535 54.9195 194.244 55.1376 193.925 55.1376H193.91ZM146.136 54.9486C145.933 54.9486 145.715 54.8613 145.584 54.6868C145.337 54.3814 145.06 54.0905 144.798 53.7851C144.653 54.0469 144.348 54.1923 144.042 54.1342C143.65 54.0615 143.388 53.6833 143.46 53.2907C143.504 53.0435 143.548 52.7962 143.606 52.549C143.373 52.2727 143.388 51.8509 143.65 51.5892C143.708 51.531 143.78 51.4728 143.853 51.4437C143.94 51.0947 144.028 50.7457 144.115 50.3966C144.217 50.004 144.609 49.7858 145.002 49.8731C145.395 49.9749 145.627 50.3676 145.526 50.7602C145.409 51.1965 145.307 51.6328 145.206 52.0691C145.744 52.6072 146.253 53.1743 146.733 53.7415C146.994 54.0469 146.951 54.5123 146.645 54.7595C146.515 54.8759 146.34 54.934 146.18 54.934L146.136 54.9486ZM188.253 54.6868C187.86 54.6868 187.54 54.4396 187.526 54.0469V53.8579C187.526 53.0144 187.671 52.04 187.962 50.9784C188.064 50.5857 188.471 50.3675 188.849 50.4694C189.242 50.5712 189.46 50.9784 189.358 51.3565C189.096 52.3018 188.965 53.1453 188.965 53.8724C188.965 54.2796 188.66 54.6868 188.253 54.6868C188.253 54.6868 188.238 54.6868 188.224 54.6868H188.253ZM141.963 50.9202C141.803 50.9202 141.643 50.8766 141.512 50.7602C140.77 50.1785 139.985 49.6404 139.185 49.1459C138.85 48.9278 138.734 48.4915 138.952 48.1425C139.17 47.808 139.607 47.6917 139.956 47.9098C140.799 48.4333 141.614 49.0005 142.399 49.6113C142.719 49.8585 142.777 50.3094 142.53 50.6293C142.384 50.8184 142.166 50.9056 141.948 50.9056L141.963 50.9202ZM112.368 50.0621C112.193 50.0621 112.004 49.9894 111.859 49.8585C111.568 49.5822 111.553 49.1169 111.844 48.826C112.528 48.1134 113.342 47.4735 114.258 46.9063C114.593 46.6882 115.044 46.8045 115.262 47.139C115.465 47.4881 115.364 47.9243 115.029 48.1425C114.229 48.6369 113.502 49.2041 112.906 49.8295C112.76 49.9749 112.571 50.0476 112.382 50.0476L112.368 50.0621ZM233.874 49.8004C233.54 49.8004 233.234 49.5531 233.161 49.2041C232.987 48.2588 232.754 47.3281 232.507 46.4264C232.391 46.0338 232.623 45.6411 233.001 45.5248C233.394 45.4084 233.787 45.6411 233.903 46.0192C234.165 46.95 234.398 47.9243 234.587 48.9133C234.659 49.3059 234.398 49.684 234.005 49.7713C233.961 49.7713 233.918 49.7713 233.874 49.7713V49.8004ZM193.154 49.4659C192.863 49.4659 192.587 49.2914 192.485 49.0151C192.179 48.2588 191.801 47.4735 191.365 46.7027C190.987 47.3862 190.652 48.0698 190.347 48.7387C190.187 49.1023 189.765 49.2768 189.387 49.1169C189.024 48.9569 188.849 48.5206 189.009 48.157C189.402 47.2844 189.852 46.3828 190.361 45.4957C190.565 45.1466 191.001 45.0303 191.35 45.2339C191.452 45.2921 191.539 45.3793 191.598 45.4666C191.932 45.3502 192.296 45.4666 192.485 45.7865C193.008 46.6882 193.459 47.6044 193.823 48.4915C193.968 48.8696 193.794 49.2914 193.416 49.4368C193.328 49.4659 193.241 49.495 193.139 49.495L193.154 49.4659ZM145.671 48.5351C145.584 48.5351 145.511 48.5351 145.424 48.4915C145.046 48.3606 144.842 47.9389 144.987 47.5608C145.322 46.6155 145.715 45.6847 146.122 44.8121C146.296 44.4486 146.733 44.2886 147.082 44.4631C147.445 44.6376 147.605 45.0594 147.431 45.423C147.038 46.2664 146.674 47.1536 146.355 48.0552C146.253 48.3461 145.962 48.5351 145.671 48.5351ZM137.033 47.8516C136.931 47.8516 136.814 47.8225 136.713 47.7789C135.869 47.3717 134.982 47.0081 134.109 46.7027C133.731 46.5718 133.528 46.1501 133.659 45.772C133.789 45.3939 134.211 45.1903 134.589 45.3212C135.52 45.6411 136.451 46.0338 137.352 46.4555C137.716 46.63 137.861 47.0663 137.687 47.4299C137.556 47.6916 137.294 47.8371 137.033 47.8371V47.8516ZM117.24 46.979C116.949 46.979 116.672 46.8045 116.556 46.5137C116.411 46.1356 116.6 45.7138 116.978 45.5684C117.865 45.2339 118.825 44.943 119.857 44.6958C120.25 44.6085 120.643 44.8412 120.73 45.2339C120.817 45.6266 120.584 46.0192 120.192 46.1065C119.232 46.3246 118.33 46.6009 117.501 46.9209C117.414 46.95 117.327 46.9645 117.24 46.9645V46.979ZM131.55 45.9465C131.55 45.9465 131.448 45.9465 131.39 45.932C130.474 45.7284 129.528 45.5829 128.612 45.4957C128.219 45.452 127.914 45.103 127.958 44.6958C128.001 44.3031 128.336 43.9977 128.758 44.0414C129.746 44.1286 130.735 44.2886 131.71 44.5067C132.102 44.594 132.35 44.9867 132.262 45.3793C132.19 45.7138 131.884 45.9465 131.55 45.9465ZM122.882 45.6266C122.519 45.6266 122.213 45.3648 122.155 44.9867C122.097 44.594 122.388 44.2304 122.78 44.1723C123.217 44.1141 123.668 44.0705 124.133 44.0268C124.671 43.9832 125.209 43.9396 125.747 43.925C126.14 43.925 126.489 44.2304 126.489 44.6376C126.489 45.0448 126.183 45.3793 125.776 45.3793C125.267 45.3793 124.773 45.4229 124.249 45.4666C123.798 45.5102 123.362 45.5538 122.94 45.612C122.911 45.612 122.882 45.612 122.853 45.612L122.882 45.6266ZM190.245 44.4195C190.027 44.4195 189.809 44.3177 189.663 44.1286C189.096 43.3869 188.485 42.6598 187.831 41.9763C187.555 41.6854 187.569 41.22 187.86 40.9437C188.151 40.6674 188.616 40.682 188.893 40.9728C189.591 41.7 190.231 42.4707 190.827 43.2415C191.074 43.5615 191.001 44.0123 190.681 44.2595C190.551 44.3613 190.391 44.4049 190.245 44.4049V44.4195ZM232.26 44.1868C231.969 44.1868 231.693 44.0123 231.591 43.736C231.227 42.8343 230.835 41.9763 230.398 41.1764C230.209 40.8274 230.34 40.3765 230.689 40.1875C231.038 39.9984 231.489 40.1293 231.678 40.4783C232.143 41.3218 232.565 42.238 232.943 43.1833C233.089 43.5615 232.914 43.9832 232.536 44.1286C232.449 44.1577 232.362 44.1868 232.26 44.1868ZM192.557 44.085C192.412 44.085 192.267 44.0414 192.136 43.9541C191.801 43.7214 191.729 43.2706 191.961 42.9361C192.528 42.1362 193.139 41.3364 193.779 40.5801C194.041 40.2747 194.492 40.2311 194.797 40.4929C195.102 40.7547 195.146 41.2055 194.884 41.5109C194.274 42.238 193.692 42.9943 193.139 43.7651C192.994 43.9687 192.776 44.0705 192.543 44.0705L192.557 44.085ZM148.129 43.2415C147.998 43.2415 147.867 43.2124 147.751 43.1397C147.402 42.9361 147.3 42.4853 147.503 42.1362C148.027 41.2637 148.594 40.4347 149.176 39.6639C149.423 39.344 149.874 39.2858 150.194 39.5331C150.514 39.7803 150.572 40.2311 150.325 40.5511C149.758 41.2782 149.234 42.0635 148.74 42.8925C148.609 43.1252 148.361 43.2415 148.114 43.2415H148.129ZM186.246 40.1875C186.071 40.1875 185.911 40.1293 185.78 40.013C185.068 39.4022 184.312 38.8205 183.541 38.2824C183.206 38.0497 183.134 37.5988 183.352 37.2644C183.584 36.9299 184.035 36.8572 184.37 37.0753C185.184 37.6425 185.984 38.2533 186.726 38.8932C187.031 39.1549 187.06 39.6203 186.813 39.9257C186.668 40.1002 186.464 40.1875 186.26 40.1875H186.246ZM196.31 39.6203C196.12 39.6203 195.931 39.5476 195.801 39.4022C195.51 39.1113 195.51 38.6605 195.801 38.3696C196.513 37.657 197.24 36.988 197.997 36.3627C198.302 36.1009 198.767 36.1446 199.015 36.45C199.276 36.7554 199.233 37.2207 198.927 37.468C198.215 38.0642 197.502 38.7041 196.833 39.3876C196.688 39.5331 196.499 39.6058 196.324 39.6058L196.31 39.6203ZM229.467 39.0677C229.249 39.0677 229.031 38.9659 228.886 38.7768C228.319 38.0206 227.708 37.308 227.068 36.6681C226.777 36.3918 226.777 35.9264 227.068 35.6355C227.344 35.3447 227.81 35.3447 228.1 35.6355C228.799 36.3336 229.467 37.0898 230.064 37.9188C230.296 38.2387 230.238 38.7041 229.904 38.9368C229.773 39.0386 229.627 39.0822 229.467 39.0822V39.0677ZM151.677 38.6314C151.488 38.6314 151.299 38.5587 151.168 38.4133C150.877 38.1224 150.877 37.6716 151.168 37.3807C151.895 36.6536 152.652 35.9991 153.437 35.4029C153.757 35.1556 154.208 35.2283 154.455 35.5483C154.702 35.8682 154.629 36.3191 154.31 36.5663C153.582 37.1044 152.87 37.7297 152.201 38.3987C152.055 38.5441 151.866 38.6169 151.692 38.6169L151.677 38.6314ZM181.476 36.8717C181.359 36.8717 181.229 36.8426 181.127 36.7844C180.312 36.3336 179.454 35.9119 178.582 35.5337C178.218 35.3738 178.044 34.952 178.204 34.5739C178.364 34.2103 178.785 34.0358 179.163 34.1958C180.08 34.5885 180.967 35.0393 181.839 35.5192C182.188 35.7083 182.319 36.1591 182.116 36.5081C181.985 36.7408 181.738 36.8862 181.476 36.8862V36.8717ZM200.774 35.8973C200.542 35.8973 200.309 35.781 200.178 35.5774C199.945 35.2429 200.033 34.7921 200.367 34.5739C201.196 34.0067 202.054 33.4832 202.912 33.0324C203.261 32.8433 203.712 32.9742 203.901 33.3378C204.09 33.6868 203.959 34.1376 203.596 34.3267C202.781 34.763 201.967 35.2574 201.181 35.7955C201.051 35.8828 200.92 35.9264 200.774 35.9264V35.8973ZM156.331 35.1702C156.069 35.1702 155.822 35.0247 155.691 34.7775C155.502 34.4285 155.633 33.9777 155.996 33.7886C156.884 33.3232 157.814 32.916 158.76 32.5961C159.138 32.4652 159.56 32.6688 159.69 33.0469C159.821 33.425 159.618 33.8468 159.24 33.9777C158.352 34.2831 157.494 34.6466 156.68 35.0829C156.578 35.1411 156.462 35.1702 156.346 35.1702H156.331ZM225.352 34.9957C225.206 34.9957 225.061 34.952 224.93 34.8648C224.174 34.3412 223.374 33.8613 222.53 33.4686C222.167 33.2941 222.007 32.8578 222.181 32.4943C222.356 32.1307 222.792 31.9707 223.156 32.1452C224.072 32.5815 224.945 33.0905 225.759 33.6723C226.094 33.9049 226.166 34.3558 225.934 34.6903C225.788 34.8939 225.57 34.9957 225.337 34.9957H225.352ZM176.153 34.5448C176.08 34.5448 176.008 34.5448 175.935 34.5157C175.033 34.2249 174.117 33.9777 173.201 33.7595C172.808 33.6723 172.561 33.2796 172.648 32.8869C172.735 32.4943 173.128 32.247 173.521 32.3343C174.481 32.5524 175.455 32.8142 176.386 33.1196C176.764 33.236 176.982 33.6577 176.851 34.0358C176.749 34.3412 176.473 34.5448 176.153 34.5448ZM161.799 33.2941C161.45 33.2941 161.145 33.0469 161.087 32.6979C161.014 32.3052 161.276 31.9271 161.668 31.8544C162.628 31.6799 163.632 31.5781 164.65 31.5199C165.057 31.5199 165.391 31.8108 165.406 32.218C165.42 32.6252 165.115 32.9596 164.708 32.9742C163.748 33.0178 162.817 33.1196 161.915 33.2796C161.872 33.2796 161.828 33.2796 161.785 33.2796L161.799 33.2941ZM170.481 33.265C170.481 33.265 170.423 33.265 170.379 33.265C169.449 33.1342 168.503 33.0469 167.544 33.0033C167.136 32.9887 166.831 32.6397 166.86 32.247C166.875 31.8398 167.195 31.5344 167.616 31.5635C168.605 31.6072 169.609 31.709 170.569 31.8398C170.961 31.898 171.252 32.2616 171.194 32.6542C171.15 33.0178 170.83 33.2796 170.467 33.2796L170.481 33.265ZM205.893 33.1632C205.603 33.1632 205.326 32.9887 205.21 32.6979C205.064 32.3198 205.253 31.898 205.617 31.7526C206.548 31.389 207.522 31.0691 208.467 30.8364C208.86 30.7346 209.253 30.9673 209.355 31.3599C209.456 31.7526 209.224 32.1452 208.831 32.247C207.929 32.4797 207.028 32.7706 206.155 33.1051C206.068 33.1342 205.981 33.1487 205.893 33.1487V33.1632ZM220.145 32.5088C220.145 32.5088 220.015 32.5088 219.942 32.4797C219.069 32.218 218.153 32.0144 217.208 31.8835C216.815 31.8253 216.539 31.4472 216.597 31.0545C216.655 30.6619 217.033 30.3855 217.426 30.4437C218.429 30.5891 219.418 30.8073 220.349 31.0836C220.727 31.2 220.96 31.6072 220.844 31.9853C220.756 32.3052 220.465 32.5088 220.145 32.5088ZM211.521 31.7526C211.158 31.7526 210.838 31.4763 210.794 31.1127C210.751 30.72 211.042 30.3565 211.434 30.3128C212.423 30.1965 213.427 30.1529 214.445 30.1819C214.852 30.1819 215.157 30.531 215.157 30.9236C215.157 31.3308 214.837 31.6362 214.416 31.6362H213.892C213.136 31.6362 212.365 31.6799 211.609 31.7526C211.58 31.7526 211.551 31.7526 211.521 31.7526Z" fill="#261D2A"/>
<path d="M97.5193 263.742C97.7811 262.229 97.4175 260.702 96.5304 259.452C95.6433 258.201 94.3199 257.372 92.7928 257.11C91.2804 256.848 89.7534 257.197 88.5027 258.099C88.4154 258.157 88.3572 258.23 88.2845 258.288L79.9805 250.173C80.1987 249.708 80.3732 249.228 80.4604 248.719C80.6204 247.774 80.5186 246.857 80.2423 246.014L90.2187 240.575C90.4223 240.778 90.6259 240.982 90.8441 241.157C91.6003 241.753 92.4874 242.146 93.4473 242.305C94.9597 242.567 96.4868 242.218 97.7374 241.317C98.9881 240.429 99.8171 239.106 100.079 237.579C100.341 236.067 99.9771 234.54 99.0899 233.289C98.2028 232.038 96.8794 231.209 95.3524 230.947C94.4798 230.802 93.5927 230.875 92.7638 231.122L85.7395 219.517C86.0158 219.386 86.2921 219.24 86.5394 219.051C87.7901 218.164 88.619 216.841 88.8808 215.314C89.1426 213.801 88.779 212.274 87.8919 211.024C87.0048 209.773 85.6813 208.944 84.1543 208.682C81.0276 208.159 78.0463 210.267 77.5228 213.394C77.261 214.907 77.6246 216.434 78.5117 217.684C78.8316 218.135 79.2097 218.542 79.6315 218.877C80.3732 219.473 81.2748 219.866 82.2347 220.026C82.9327 220.142 83.6308 220.113 84.3143 219.982L91.4113 231.704C91.2949 231.776 91.164 231.835 91.0331 231.922C89.7825 232.809 88.9535 234.132 88.6917 235.659C88.4736 236.954 88.7208 238.233 89.3316 239.353L79.5879 244.676C78.7444 243.353 77.3773 242.364 75.7049 242.073C74.1924 241.811 72.6654 242.175 71.4147 243.062C70.164 243.949 69.3351 245.272 69.0733 246.799C68.7097 248.937 69.5968 251.017 71.182 252.282C71.9092 252.864 72.7963 253.271 73.7852 253.431C75.2977 253.693 76.8247 253.329 78.0754 252.442C78.4826 252.151 78.8316 251.802 79.137 251.424L87.2229 259.321C86.6703 260.048 86.2776 260.891 86.1176 261.822C85.8559 263.335 86.2194 264.862 87.1066 266.112C87.4265 266.563 87.8046 266.97 88.2264 267.305C88.9826 267.901 89.8697 268.294 90.8295 268.454C92.342 268.715 93.869 268.352 95.1197 267.465C96.3704 266.578 97.1994 265.254 97.4611 263.727L97.5193 263.742ZM79.7187 216.87C79.0498 215.939 78.788 214.79 78.977 213.656C79.3697 211.314 81.5948 209.729 83.9362 210.122C84.6633 210.238 85.3178 210.544 85.8849 210.98C86.2049 211.227 86.4812 211.533 86.7284 211.867C87.3974 212.798 87.6592 213.947 87.4701 215.081C87.2811 216.215 86.6557 217.204 85.725 217.873C85.4923 218.033 85.2596 218.164 85.0124 218.281C84.547 218.499 84.038 218.615 83.529 218.644C83.1945 218.673 82.86 218.659 82.511 218.6C81.3766 218.411 80.3877 217.786 79.7187 216.855V216.87ZM91.9057 233.129C91.993 233.071 92.0948 233.027 92.182 232.969C92.6038 232.707 93.0692 232.518 93.5491 232.416C94.0581 232.314 94.5816 232.3 95.1052 232.387C95.8323 232.504 96.4868 232.809 97.0539 233.245C97.3739 233.492 97.6502 233.798 97.8974 234.132C98.5664 235.063 98.8282 236.212 98.6391 237.346C98.4501 238.481 97.8247 239.47 96.894 240.139C95.9632 240.808 94.8143 241.069 93.68 240.88C92.8656 240.749 92.1384 240.386 91.5422 239.848C91.2949 239.63 91.0768 239.397 90.8877 239.135C90.7859 238.99 90.7132 238.844 90.6259 238.684C90.1606 237.841 89.9861 236.881 90.146 235.921C90.3351 234.787 90.9604 233.798 91.8912 233.129H91.9057ZM77.2755 251.264C76.3448 251.933 75.1959 252.195 74.0615 252.006C71.7201 251.613 70.1349 249.388 70.5276 247.046C70.7167 245.912 71.342 244.923 72.2727 244.254C73.2035 243.585 74.3524 243.323 75.4867 243.513C76.2284 243.643 76.8829 243.949 77.4355 244.371C77.7845 244.647 78.0754 244.996 78.3226 245.374C78.5989 245.781 78.788 246.232 78.9043 246.712C79.0498 247.279 79.1079 247.861 79.0061 248.457C78.977 248.661 78.9043 248.864 78.8462 249.068C78.6862 249.562 78.439 249.999 78.1336 250.406C77.8863 250.726 77.61 251.017 77.261 251.249L77.2755 251.264ZM88.3427 265.269C87.6737 264.338 87.412 263.189 87.601 262.055C87.7028 261.429 87.9646 260.848 88.3136 260.339C88.5899 259.946 88.9244 259.583 89.3171 259.292C89.3171 259.292 89.3316 259.277 89.3462 259.263C90.2769 258.594 91.4258 258.332 92.5602 258.521C93.2873 258.637 93.9417 258.943 94.5089 259.379C94.8289 259.626 95.1052 259.932 95.3524 260.266C96.0214 261.197 96.2832 262.346 96.0941 263.48C95.905 264.614 95.2797 265.603 94.3489 266.272C93.4182 266.941 92.2693 267.203 91.1349 267.014C90.0006 266.825 89.0117 266.2 88.3427 265.269Z" fill="#261D2A"/>
<path d="M380.132 334.741L377.326 334.537L380.438 332.734C380.787 332.53 380.903 332.094 380.7 331.745C380.496 331.396 380.045 331.279 379.711 331.483L375.508 333.926L375.93 329.243C375.959 328.836 375.668 328.487 375.275 328.458C374.882 328.429 374.533 328.72 374.49 329.112L374.126 333.243L371.858 330.407C371.61 330.101 371.145 330.043 370.84 330.29C370.52 330.538 370.476 331.003 370.723 331.308L373.05 334.217L368.411 333.868C368.004 333.839 367.655 334.144 367.626 334.537C367.596 334.93 367.887 335.279 368.295 335.308L372.527 335.628L369.051 337.635C368.702 337.838 368.585 338.274 368.789 338.623C368.92 338.842 369.123 338.958 369.356 338.987C369.502 338.987 369.647 338.972 369.778 338.885L373.806 336.544L373.385 341.256C373.355 341.663 373.646 342.012 374.039 342.041C374.432 342.07 374.781 341.779 374.824 341.387L375.217 336.936L377.631 339.961C377.762 340.121 377.951 340.209 378.14 340.238C378.315 340.252 378.504 340.209 378.649 340.078C378.969 339.831 379.013 339.365 378.765 339.06L376.235 335.904L380.002 336.18C380.409 336.209 380.758 335.904 380.787 335.511C380.816 335.119 380.525 334.77 380.118 334.726L380.132 334.741Z" fill="#261D2A"/>
<path d="M247.885 45.0898C247.885 45.0898 281.691 6.00928 287.114 9.08559C292.538 12.1505 300.513 27.327 300.513 27.327L317.923 11.7631C317.923 11.7631 306.586 4.57367 309.628 3.7875C314.641 2.50001 336.666 -1.49921 336.666 1.09856C336.666 5.0408 335.401 24.9571 335.401 24.9571L326.969 18.098C326.969 18.098 301.482 51.778 298.234 47.5509C294.987 43.3238 284.767 27.703 284.767 27.703C284.767 27.703 261.729 61.3487 258.026 58.2952C254.323 55.2303 247.874 45.1012 247.874 45.1012L247.885 45.0898Z" fill="#76ADA2"/>
<path d="M94.3159 275.895C94.3159 275.895 126.708 236.803 171.588 281.295C216.468 325.788 154.407 354.044 154.407 354.044C154.407 354.044 159.819 369.642 154.407 369.551C148.995 369.449 137.339 364.481 137.339 364.481C137.339 364.481 109.378 382.301 88.5051 364.47C67.6318 346.639 58.494 321.276 94.3159 275.906V275.895Z" fill="#A27297"/>
<path d="M126.651 301.542C126.651 301.542 120.43 271.132 129.853 274.869C139.276 278.607 143.366 287.892 140.392 298.284C140.392 298.284 152.276 297.326 155.238 302.26C158.212 307.193 150.043 309.655 150.043 309.655C150.043 309.655 158.588 310.406 157.836 314.93C157.095 319.453 148.926 323.167 148.926 323.167C148.926 323.167 161.266 327.383 157.882 331.029C154.498 334.675 135.242 351.014 124.635 338.766C124.635 338.766 114.403 343.596 112.546 339.882C110.689 336.168 106.234 306.464 106.234 306.464L126.651 301.542Z" fill="#EEEBD5"/>
<path d="M89.1431 306.088C89.1431 306.088 115.645 298.625 115.087 301.542C114.528 304.459 123.666 346.935 123.666 346.935L98.0416 352.13L89.1317 306.088H89.1431Z" fill="#403955"/>
<path d="M116.613 341.796C116.488 341.796 116.363 341.751 116.26 341.671C109.094 335.883 105.801 307.718 105.664 306.521C105.63 306.214 105.858 305.929 106.165 305.895C106.484 305.86 106.758 306.088 106.792 306.396C106.826 306.681 110.165 335.29 116.967 340.782C117.206 340.976 117.251 341.34 117.058 341.58C116.944 341.716 116.784 341.796 116.613 341.796Z" fill="#FCFDFF"/>
<path d="M141.349 310.76C141.144 310.76 140.95 310.657 140.848 310.463C140.7 310.19 140.802 309.848 141.076 309.689C141.224 309.609 144.813 307.683 150.191 309.108C150.498 309.187 150.681 309.495 150.59 309.803C150.51 310.11 150.191 310.292 149.895 310.213C144.984 308.914 141.657 310.668 141.623 310.691C141.532 310.737 141.44 310.76 141.349 310.76Z" fill="#261D2A"/>
<path d="M143.491 324.58C143.218 324.58 142.967 324.375 142.933 324.102C142.887 323.794 143.092 323.498 143.412 323.452C147.434 322.826 152.367 322.336 153.085 323.555C153.244 323.828 153.153 324.17 152.88 324.33C152.606 324.489 152.264 324.398 152.105 324.125C151.558 323.703 147.251 323.999 143.594 324.569C143.56 324.569 143.537 324.569 143.503 324.569L143.491 324.58Z" fill="#261D2A"/>
<path d="M170.438 294.455C170.198 294.455 169.982 294.307 169.902 294.068C165.253 280.544 145.713 273.901 145.508 273.833C145.212 273.73 145.052 273.411 145.143 273.115C145.246 272.819 145.565 272.659 145.861 272.75C146.682 273.024 166.142 279.643 170.962 293.692C171.064 293.988 170.905 294.307 170.608 294.41C170.551 294.433 170.483 294.444 170.426 294.444L170.438 294.455Z" fill="#FCFDFF"/>
<path d="M176.169 308.823C175.861 308.823 175.61 308.583 175.599 308.264C175.474 303.718 173.172 299.115 173.149 299.07C173.013 298.785 173.126 298.443 173.4 298.306C173.685 298.158 174.027 298.283 174.163 298.557C174.266 298.751 176.59 303.445 176.727 308.23C176.727 308.549 176.488 308.811 176.169 308.811H176.157L176.169 308.823Z" fill="#FCFDFF"/>
<path d="M47.7479 222.546C47.7479 222.546 47.41 228.799 45.755 229.396C44.092 230.011 29.7675 228.791 29.62 227.614C29.4462 226.447 30.3087 218.826 30.3087 218.826L47.7559 222.528L47.7479 222.546Z" fill="#FCFDFF"/>
<path d="M29.3985 218.455C29.47 218.289 29.5782 218.14 29.7338 218.032C29.958 217.867 30.2505 217.796 30.5242 217.871L47.9529 221.565C48.4346 221.663 48.7654 222.112 48.7485 222.607C48.6162 225.192 48.0849 229.615 46.1057 230.355C44.2846 231.033 31.3975 229.975 29.3148 228.727C28.8125 228.423 28.6475 228.046 28.6139 227.77C28.4271 226.532 29.1553 220.032 29.2978 218.739C29.3191 218.639 29.3404 218.539 29.3801 218.447L29.3985 218.455ZM46.6981 223.36L31.196 220.06C30.8681 222.998 30.6164 226.013 30.5981 227.119C32.8317 228.016 44.0472 228.9 45.4148 228.463C45.9 228.148 46.4608 225.835 46.6797 223.352L46.6981 223.36Z" fill="#261D2A"/>
<path d="M55.4767 203.713C55.4767 203.713 68.2926 207.165 65.0818 223.928C62.8995 235.37 58.2047 222.404 52.4397 221.643C46.6747 220.882 55.4767 203.713 55.4767 203.713Z" fill="#C35041"/>
<path d="M26.1843 200.537C26.1843 200.537 13.0714 202.635 14.4998 219.63C15.4796 231.235 21.4981 218.848 27.3099 218.69C33.1217 218.532 26.1843 200.537 26.1843 200.537Z" fill="#C35041"/>
<path d="M53.3094 224.792C53.3094 224.792 28.4472 223.396 24.8412 221.579C21.2352 219.762 27.4977 184.375 41.4699 183.019C60.5174 181.187 55.6627 223.994 53.291 224.784L53.3094 224.792Z" fill="#FCFDFF"/>
<path d="M27.8246 195.872C30.8502 188.856 35.3565 182.61 41.4037 182.007C48.4702 181.32 53.3463 186.218 55.4805 196.158C57.4792 205.45 56.717 224.689 53.6496 225.725C53.5258 225.759 53.402 225.793 53.2756 225.782C50.7164 225.639 28.0949 224.314 24.4153 222.465C21.8455 221.182 23.0725 213.019 23.7123 209.561C24.4426 205.639 25.8181 200.576 27.843 195.88L27.8246 195.872ZM52.9223 223.664C54.3279 220.405 56.6439 199.892 51.0768 189.607C48.8295 185.45 45.716 183.605 41.5888 184.009C36.532 184.493 31.6497 190.446 28.2122 200.342C24.7269 210.348 24.2662 219.671 25.3488 220.706C27.7712 221.925 42.9698 223.194 52.8826 223.756C52.8985 223.719 52.9064 223.701 52.9223 223.664Z" fill="#261D2A"/>
<path d="M28.2012 194.746C28.2012 194.746 54.0038 198.317 55.6804 197.467C57.3491 196.636 51.674 179.36 44.0254 178.966C34.0784 178.433 28.7393 193.143 28.2012 194.746Z" fill="#C35041"/>
<path d="M32.4533 207.827C32.2191 212.421 35.7466 216.345 40.3331 216.597C44.9275 216.831 48.851 213.304 49.1036 208.717C49.3378 204.123 45.8103 200.199 41.2238 199.947C36.6294 199.713 32.7059 203.24 32.4533 207.827Z" fill="#FCFDFF"/>
<path d="M32.2052 204.553C32.7293 203.338 33.5112 202.234 34.5376 201.322C36.3925 199.654 38.788 198.809 41.2839 198.946C43.7799 199.084 46.0604 200.176 47.7283 202.031C49.3962 203.886 50.2413 206.282 50.1041 208.778C49.9668 211.274 48.8741 213.554 47.0192 215.222C45.1643 216.89 42.7689 217.735 40.2729 217.598C37.7769 217.46 35.4964 216.368 33.8285 214.513C32.1606 212.658 31.3154 210.262 31.4527 207.767C31.5053 206.632 31.7684 205.566 32.2052 204.553ZM47.5261 211.16C47.8675 210.368 48.0617 209.513 48.111 208.639C48.2155 206.675 47.5615 204.798 46.2402 203.355C44.9269 201.893 43.1356 201.033 41.1715 200.929C39.2074 200.824 37.3231 201.497 35.8877 202.8C34.4259 204.113 33.5661 205.904 33.4616 207.868C33.3572 209.833 34.0112 211.709 35.3325 213.152C36.6458 214.614 38.4371 215.474 40.4012 215.578C42.3654 215.683 44.2496 215.01 45.685 213.707C46.4792 212.98 47.1131 212.118 47.5261 211.16Z" fill="#261D2A"/>
<path d="M34.2961 231.356C34.2961 231.356 28.834 229.437 25.633 237.164C22.4321 244.89 33.0039 260.281 35.1228 259.47C37.2418 258.658 50.1086 252.37 49.4475 243.066C48.7681 233.753 45.1347 232.405 34.2961 231.356Z" fill="#C35041"/>
<path d="M36.2053 233.664C36.2053 233.664 33.4005 232.673 31.7484 236.656C30.1043 240.621 35.5292 248.551 36.6282 248.13C37.7272 247.708 44.3359 244.487 44.0018 239.691C43.6676 234.895 41.7786 234.211 36.2053 233.664Z" fill="#E8C01B"/>
<path d="M41.0781 203.881C41.0781 203.881 36.7417 202.491 35.8071 207.089L41.0781 203.881Z" fill="#FCFDFF"/>
<path d="M35.2418 205.513C35.6627 204.537 36.2858 203.801 37.1295 203.313C39.0516 202.199 41.2909 202.88 41.383 202.92C41.9224 203.087 42.2056 203.646 42.0385 204.186C41.8345 204.709 41.3125 205.008 40.773 204.841C40.773 204.841 39.2652 204.387 38.1262 205.054C37.4565 205.442 36.9966 206.204 36.7783 207.268C36.6743 207.812 36.1285 208.167 35.5916 208.044C35.0468 207.94 34.6925 207.395 34.8148 206.858C34.9213 206.358 35.0487 205.91 35.2313 205.487L35.2418 205.513Z" fill="#261D2A"/>
<path d="M34.7427 188.591C36.863 183.674 42.0995 181.761 42.3367 181.667C42.8558 181.476 43.4372 181.748 43.6203 182.286C43.8114 182.805 43.5388 183.386 43.0196 183.578C42.9669 183.598 37.8121 185.525 36.298 190.201C36.1309 190.74 35.572 191.023 35.0325 190.856C34.4931 190.689 34.21 190.13 34.3771 189.591C34.4832 189.243 34.5998 188.922 34.7427 188.591Z" fill="#261D2A"/>
</svg>
