<svg width="802" height="284" viewBox="0 0 802 284" fill="none" xmlns="http://www.w3.org/2000/svg">
<mask id="mask0_64_105" style="mask-type:luminance" maskUnits="userSpaceOnUse" x="421" y="66" width="381" height="156">
<path d="M421.54 66.7935H801.85V221.289H421.54V66.7935Z" fill="white"/>
</mask>
<g mask="url(#mask0_64_105)">
<mask id="mask1_64_105" style="mask-type:luminance" maskUnits="userSpaceOnUse" x="421" y="66" width="381" height="156">
<path d="M438.42 66.7935H784.97C789.454 66.7935 793.744 68.5782 796.909 71.7432C800.074 74.9082 801.85 79.1985 801.85 83.6735V204.409C801.85 208.884 800.074 213.184 796.909 216.349C793.744 219.514 789.454 221.289 784.97 221.289H438.42C433.945 221.289 429.655 219.514 426.49 216.349C423.325 213.184 421.54 208.884 421.54 204.409V83.6735C421.54 79.1985 423.325 74.9082 426.49 71.7432C429.655 68.5782 433.945 66.7935 438.42 66.7935Z" fill="white"/>
</mask>
<g mask="url(#mask1_64_105)">
<path d="M421.54 66.7935H801.85V221.289H421.54V66.7935Z" fill="#FFFFF2"/>
</g>
</g>
<mask id="mask2_64_105" style="mask-type:luminance" maskUnits="userSpaceOnUse" x="421" y="66" width="381" height="156">
<path d="M421.558 66.7935H802V221.659H421.558V66.7935Z" fill="white"/>
</mask>
<g mask="url(#mask2_64_105)">
<mask id="mask3_64_105" style="mask-type:luminance" maskUnits="userSpaceOnUse" x="421" y="66" width="381" height="156">
<path d="M438.438 66.7935H784.953C789.428 66.7935 793.727 68.5782 796.892 71.7432C800.057 74.9082 801.833 79.1985 801.833 83.6735V204.392C801.833 208.876 800.057 213.166 796.892 216.331C793.727 219.496 789.428 221.272 784.953 221.272H438.438C433.963 221.272 429.664 219.496 426.499 216.331C423.334 213.166 421.558 208.876 421.558 204.392V83.6735C421.558 79.1985 423.334 74.9082 426.499 71.7432C429.664 68.5782 433.963 66.7935 438.438 66.7935Z" fill="white"/>
</mask>
<g mask="url(#mask3_64_105)">
<path d="M438.43 66.7935H784.787C789.26 66.7935 793.557 68.5782 796.72 71.7432C799.884 74.9082 801.659 79.1985 801.659 83.6735V204.392C801.659 208.876 799.884 213.166 796.72 216.331C793.557 219.496 789.26 221.272 784.787 221.272H438.43C433.957 221.272 429.66 219.496 426.497 216.331C423.333 213.166 421.558 208.876 421.558 204.392V83.6735C421.558 79.1985 423.333 74.9082 426.497 71.7432C429.66 68.5782 433.957 66.7935 438.43 66.7935Z" stroke="#110F0D" stroke-width="10"/>
</g>
</g>
<mask id="mask4_64_105" style="mask-type:luminance" maskUnits="userSpaceOnUse" x="0" y="72" width="326" height="156">
<path d="M0.955688 72.6135H325.008V227.109H0.955688V72.6135Z" fill="white"/>
</mask>
<g mask="url(#mask4_64_105)">
<mask id="mask5_64_105" style="mask-type:luminance" maskUnits="userSpaceOnUse" x="0" y="72" width="326" height="156">
<path d="M22.8997 72.6135H303.064C315.179 72.6135 325.008 82.4338 325.008 94.5575V205.165C325.008 217.28 315.179 227.109 303.064 227.109H22.8997C10.776 227.109 0.955688 217.28 0.955688 205.165V94.5575C0.955688 82.4338 10.776 72.6135 22.8997 72.6135Z" fill="white"/>
</mask>
<g mask="url(#mask5_64_105)">
<path d="M0.955688 72.6135H325.008V227.109H0.955688V72.6135Z" fill="#1D2B5B"/>
</g>
</g>
<mask id="mask6_64_105" style="mask-type:luminance" maskUnits="userSpaceOnUse" x="402" y="91" width="12" height="10">
<path d="M402.629 91.12H413.883V100.123H402.629V91.12Z" fill="white"/>
</mask>
<g mask="url(#mask6_64_105)">
<mask id="mask7_64_105" style="mask-type:luminance" maskUnits="userSpaceOnUse" x="312" y="91" width="101" height="76">
<path d="M312.734 107.851L402.471 91.8497L412.836 150.015L323.1 166.016L312.734 107.851Z" fill="white"/>
</mask>
<g mask="url(#mask7_64_105)">
<mask id="mask8_64_105" style="mask-type:luminance" maskUnits="userSpaceOnUse" x="308" y="61" width="142" height="105">
<path d="M308.444 83.8317L434.745 61.3075L449.26 142.736L322.968 165.26L308.444 83.8317Z" fill="white"/>
</mask>
<g mask="url(#mask8_64_105)">
<path d="M410.489 99.8501C410.146 99.9117 409.786 99.8414 409.478 99.6391L405.434 96.9841C404.836 96.5796 404.634 95.7884 404.977 95.1554L421.408 64.4373C421.76 63.7691 422.586 63.5054 423.255 63.8483L435.739 70.0464C436.126 70.2398 436.407 70.6091 436.486 71.0399C436.565 71.4706 436.442 71.9102 436.143 72.2355L411.272 99.4194C411.061 99.6479 410.788 99.7974 410.489 99.8501ZM408.036 95.3488L410.023 96.6588L432.837 71.7168L423.228 66.9429L408.036 95.3488Z" fill="black"/>
</g>
</g>
</g>
<path d="M76.3156 115.955H51.6902V181.242H76.3156C95.5254 181.242 109.425 167.527 109.425 148.598C109.425 129.661 95.5254 115.955 76.3156 115.955ZM76.0343 168.186H65.7744V129.098H76.0343C87.2261 129.098 94.9628 137.028 94.9628 148.598C94.9628 159.975 87.2261 168.186 76.0343 168.186Z" fill="#FFFFF2"/>
<path d="M131.434 168.186V154.752H154.099V141.978H131.434V129.01H156.526V115.955H117.35V181.242H157.546V168.186H131.434Z" fill="#FFFFF2"/>
<path d="M211.444 115.955L195.399 162.12L178.897 115.955H163.318L188.779 181.242H202.116L226.838 115.955H211.444Z" fill="#FFFFF2"/>
<path d="M529.966 162.209V109.978H515.882V175.264H555.049V162.209H529.966Z" fill="black"/>
<path d="M562.563 175.287H576.647V110H562.563V175.287Z" fill="black"/>
<path d="M627.971 109.978V149.804L599.337 109.978H586.659V175.264H600.462V134.506L630.029 175.264H641.871V109.978H627.971Z" fill="black"/>
<path d="M706.157 175.264L681.541 141.311L703.74 109.978H687.326L665.874 140.194V109.978H651.79V175.264H665.874V143.456L688.908 175.264H706.157Z" fill="black"/>
<path d="M733.604 176.574C747.125 176.574 758.317 169.761 758.317 155.677C758.317 141.038 745.824 137.961 735.933 135.438C728.935 133.759 723.344 132.361 723.344 127.789C723.344 123.499 727.915 121.539 732.487 121.539C737.797 121.539 742.466 124.158 742.466 129.847H756.356C756.356 116.782 747.872 108.764 732.856 108.764C718.403 108.764 709.163 115.85 709.163 128.352C709.163 142.436 721.102 145.329 730.992 147.747C738.079 149.338 744.048 150.736 744.048 155.861C744.048 160.714 738.826 163.51 733.507 163.51C727.731 163.51 722.5 160.433 722.5 154.182H708.231C708.231 168.178 718.587 176.574 733.604 176.574Z" fill="black"/>
<mask id="mask9_64_105" style="mask-type:luminance" maskUnits="userSpaceOnUse" x="225" y="1" width="276" height="283">
<path d="M247.676 1.17755L500.229 22.717L477.988 283.489L225.435 261.949L247.676 1.17755Z" fill="white"/>
</mask>
<g mask="url(#mask9_64_105)">
<mask id="mask10_64_105" style="mask-type:luminance" maskUnits="userSpaceOnUse" x="196" y="-26" width="334" height="337">
<path d="M285.968 -25.6995L529.952 63.7405L440.955 310.177L196.971 220.737L285.968 -25.6995Z" fill="white"/>
</mask>
<g mask="url(#mask10_64_105)">
<mask id="mask11_64_105" style="mask-type:luminance" maskUnits="userSpaceOnUse" x="222" y="-2" width="282" height="285">
<path d="M256.367 56.2998L227.515 136.151C219.675 157.896 220.679 181.877 230.364 202.836C240.027 223.794 257.569 240.02 279.097 247.898L358.131 276.892C379.682 284.773 403.442 283.698 424.219 273.91C444.996 264.122 461.075 246.386 468.937 224.643L497.767 144.79C505.629 123.047 504.603 99.0637 494.94 78.1062C485.255 57.1468 467.736 40.9231 446.207 33.0447L367.149 4.07099C345.622 -3.83004 321.862 -2.75551 301.085 7.03266C280.309 16.8208 264.207 34.5549 256.367 56.2998Z" fill="white"/>
</mask>
<g mask="url(#mask11_64_105)">
<mask id="mask12_64_105" style="mask-type:luminance" maskUnits="userSpaceOnUse" x="198" y="-26" width="329" height="332">
<path d="M285.968 -25.6994L526.864 62.6107L438.991 305.928L198.095 217.618L285.968 -25.6994Z" fill="white"/>
</mask>
<g mask="url(#mask12_64_105)">
<mask id="mask13_64_105" style="mask-type:luminance" maskUnits="userSpaceOnUse" x="198" y="-26" width="329" height="332">
<path d="M285.968 -25.6994L526.864 62.6107L438.991 305.928L198.095 217.618L285.968 -25.6994Z" fill="white"/>
</mask>
<g mask="url(#mask13_64_105)">
<path d="M463.415 221.048L416.195 226.574L416.172 226.572C415.101 226.686 414.089 226.372 413.308 225.735C412.524 225.121 411.972 224.185 411.84 223.079C411.787 222.641 411.822 222.234 411.902 221.83L411.909 221.74C412.148 220.529 412.187 219.278 412.045 218.035C411.545 213.569 408.636 209.809 404.352 207.346C400.065 204.906 394.43 203.718 388.385 204.434C382.363 205.129 377.095 207.575 373.487 210.961C369.878 214.347 367.881 218.691 368.381 223.157C368.757 226.427 370.43 229.329 372.989 231.622C375.549 233.915 377.221 236.817 377.597 240.087C378.097 244.553 376.123 248.899 372.492 252.283C368.861 255.667 363.616 258.116 357.592 258.833C351.548 259.526 345.889 258.359 341.605 255.896C337.32 253.433 334.434 249.676 333.934 245.21C333.792 243.966 333.83 242.715 334.069 241.505L334.077 241.414C334.157 241.01 334.193 240.58 334.138 240.165C334.005 239.082 333.475 238.148 332.671 237.509C331.89 236.872 330.878 236.558 329.806 236.672L329.76 236.691L282.561 242.219L282.582 242.243L277.161 194.583L277.163 194.56C277.052 193.479 277.367 192.434 277.999 191.645C278.631 190.855 279.559 190.296 280.633 190.159C281.064 190.128 281.47 190.139 281.87 190.219L281.959 190.227C283.158 190.466 284.395 190.526 285.627 190.38C290.054 189.846 293.781 186.926 296.228 182.597C298.675 178.268 299.84 172.553 299.164 166.453C298.462 160.374 296.045 155.083 292.699 151.423C289.351 147.786 285.05 145.777 280.623 146.312C277.383 146.697 274.506 148.389 272.232 150.954C269.956 153.542 267.079 155.235 263.817 155.618C259.415 156.132 255.112 154.146 251.766 150.486C248.419 146.826 246.002 141.535 245.301 135.456C244.623 129.378 245.787 123.664 248.234 119.335C250.681 115.006 254.41 112.064 258.835 111.552C260.09 111.408 261.304 111.466 262.505 111.682L262.593 111.712C262.993 111.792 263.421 111.806 263.832 111.75C264.926 111.638 265.832 111.077 266.464 110.287C267.096 109.497 267.411 108.452 267.3 107.371L267.281 107.324L261.881 59.6881L261.879 59.7108L309.1 54.1845L309.122 54.1863C310.196 54.0498 311.228 54.3888 312.011 55.0028C312.793 55.6395 313.345 56.5758 313.456 57.6569C313.509 58.0946 313.497 58.504 313.417 58.9076L313.387 58.9962C313.148 60.2071 313.109 61.458 313.252 62.7014C313.752 67.1674 316.661 70.9268 320.945 73.3899C325.229 75.853 330.889 77.0197 336.91 76.3248C342.934 75.6073 348.201 73.1607 351.81 69.7747C355.418 66.3887 357.415 62.0445 356.913 57.6011C356.539 54.3086 354.867 51.4071 352.307 49.1139C349.747 46.8207 348.075 43.919 347.699 40.6492C347.199 36.1832 349.196 31.8389 352.805 28.4529C356.436 25.0688 361.681 22.6204 367.702 21.9255C373.748 21.2098 379.408 22.3765 383.692 24.8396C387.976 27.3027 390.863 31.0603 391.363 35.5264C391.503 36.7924 391.466 38.0205 391.227 39.2314L391.219 39.3219C391.14 39.7256 391.103 40.1556 391.156 40.5934C391.29 41.6764 391.822 42.5883 392.625 43.2269C393.407 43.8636 394.417 44.2005 395.49 44.064L395.512 44.0658L442.733 38.5395L442.713 38.515L448.111 86.1737L448.109 86.1964C448.243 87.2794 447.905 88.3222 447.273 89.1119C446.664 89.9036 445.735 90.4628 444.662 90.5993C444.23 90.6309 443.802 90.6173 443.403 90.5376L443.335 90.5318C442.136 90.2927 440.899 90.2328 439.645 90.3766C435.242 90.8904 431.513 93.8329 429.044 98.1598C426.597 102.488 425.432 108.203 426.133 114.283C426.81 120.383 429.227 125.674 432.575 129.311C435.944 132.973 440.222 134.979 444.649 134.445C447.911 134.062 450.788 132.369 453.042 129.78L453.04 129.802C455.316 127.215 458.193 125.522 461.455 125.139C465.882 124.604 470.16 126.611 473.506 130.271C476.855 133.908 479.294 139.201 479.971 145.301C480.65 151.378 479.485 157.093 477.038 161.422C474.591 165.751 470.862 168.693 466.437 169.205C465.205 169.351 463.968 169.291 462.769 169.052L462.679 169.044C462.302 168.966 461.874 168.953 461.442 168.984C460.369 169.121 459.44 169.68 458.808 170.47C458.199 171.261 457.861 172.304 457.995 173.387L457.993 173.41L463.391 221.069L463.415 221.048Z" fill="#F4B544" stroke="black" stroke-width="10" stroke-linecap="square" stroke-linejoin="round"/>
</g>
</g>
</g>
</g>
</g>
<mask id="mask14_64_105" style="mask-type:luminance" maskUnits="userSpaceOnUse" x="364" y="104" width="37" height="21">
<path d="M366.045 104.666L400.484 107.604L399.001 124.988L364.562 122.051L366.045 104.666Z" fill="white"/>
</mask>
<g mask="url(#mask14_64_105)">
<mask id="mask15_64_105" style="mask-type:luminance" maskUnits="userSpaceOnUse" x="311" y="94" width="93" height="68">
<path d="M311.29 105.309L396.081 94.3449L403.097 150.304L318.307 161.268L311.29 105.309Z" fill="white"/>
</mask>
<g mask="url(#mask15_64_105)">
<mask id="mask16_64_105" style="mask-type:luminance" maskUnits="userSpaceOnUse" x="308" y="66" width="131" height="96">
<path d="M308.397 82.3064L429.084 66.7202L438.992 145.705L318.303 161.313L308.397 82.3064Z" fill="white"/>
</mask>
<g mask="url(#mask16_64_105)">
<path d="M396.204 119.117C395.2 119.237 394.211 118.651 393.867 117.664C392.811 114.678 390.024 112.411 386.919 112.009C385.512 111.821 383.917 111.981 382.18 112.494C379.262 113.34 375.546 115.6 374.768 119.159C374.509 120.345 373.337 121.112 372.162 120.852C370.989 120.569 370.23 119.41 370.491 118.201C371.7 112.764 376.699 109.496 380.961 108.241C383.277 107.572 385.485 107.373 387.495 107.635C392.186 108.24 396.41 111.679 397.99 116.191C398.39 117.32 397.807 118.593 396.666 118.997C396.503 119.052 396.365 119.085 396.204 119.117Z" fill="black"/>
</g>
</g>
</g>
<mask id="mask17_64_105" style="mask-type:luminance" maskUnits="userSpaceOnUse" x="311" y="106" width="38" height="27">
<path d="M313.892 106.055L348.331 108.993L346.354 132.172L311.915 129.235L313.892 106.055Z" fill="white"/>
</mask>
<g mask="url(#mask17_64_105)">
<mask id="mask18_64_105" style="mask-type:luminance" maskUnits="userSpaceOnUse" x="311" y="94" width="93" height="68">
<path d="M311.29 105.309L396.081 94.345L403.097 150.304L318.307 161.268L311.29 105.309Z" fill="white"/>
</mask>
<g mask="url(#mask18_64_105)">
<mask id="mask19_64_105" style="mask-type:luminance" maskUnits="userSpaceOnUse" x="308" y="66" width="131" height="96">
<path d="M308.397 82.3068L429.084 66.7206L438.993 145.705L318.303 161.314L308.397 82.3068Z" fill="white"/>
</mask>
<g mask="url(#mask19_64_105)">
<path d="M316.536 127.212C316.217 127.253 315.903 127.226 315.595 127.132C314.429 126.759 313.812 125.52 314.184 124.344C315.483 120.236 319.287 116.411 324.045 114.377C328.404 112.514 332.903 112.465 336.389 114.221C338.685 115.375 340.561 117.473 341.956 120.442C342.473 121.535 342.021 122.864 340.937 123.388C339.854 123.911 338.538 123.456 338.021 122.364C337.352 120.938 336.18 119.06 334.425 118.181C332.087 117.001 328.917 117.095 325.753 118.444C322.168 119.963 319.26 122.816 318.336 125.701C318.061 126.544 317.335 127.12 316.536 127.212Z" fill="black"/>
</g>
</g>
</g>
<mask id="mask20_64_105" style="mask-type:luminance" maskUnits="userSpaceOnUse" x="344" y="126" width="32" height="32">
<path d="M346.848 126.377L375.547 128.825L373.076 157.8L344.377 155.352L346.848 126.377Z" fill="white"/>
</mask>
<g mask="url(#mask20_64_105)">
<mask id="mask21_64_105" style="mask-type:luminance" maskUnits="userSpaceOnUse" x="311" y="94" width="93" height="68">
<path d="M311.29 105.309L396.081 94.3451L403.097 150.305L318.307 161.268L311.29 105.309Z" fill="white"/>
</mask>
<g mask="url(#mask21_64_105)">
<mask id="mask22_64_105" style="mask-type:luminance" maskUnits="userSpaceOnUse" x="308" y="66" width="131" height="96">
<path d="M308.397 82.3068L429.084 66.7206L438.992 145.705L318.303 161.314L308.397 82.3068Z" fill="white"/>
</mask>
<g mask="url(#mask22_64_105)">
<path d="M348.081 141.577C348.537 144.443 349.272 147.47 350.738 149.875C351.607 151.34 352.746 152.554 354.253 153.413C358.411 155.774 364.077 153.954 367.064 150.173C368.38 148.507 369.247 146.551 369.743 144.45C370.348 141.857 370.383 139.056 369.978 136.399L368.98 131.685C367.862 131.818 366.766 131.952 365.695 132.066C363.687 132.305 361.769 132.552 359.849 132.822C359.073 132.915 358.295 133.031 357.497 133.123C355.439 133.426 353.38 133.729 351.252 134.049C349.97 134.259 348.665 134.467 347.335 134.696C347.479 136.988 347.734 139.29 348.081 141.577Z" fill="black"/>
<path d="M359.741 155.272C357.754 155.535 355.701 155.246 353.827 154.174C352.297 153.314 351.007 152.019 349.997 150.359C348.689 148.218 347.779 145.382 347.232 141.732C346.867 139.398 346.615 137.051 346.45 134.757C346.421 134.299 346.749 133.893 347.185 133.816C348.536 133.59 349.842 133.382 351.122 133.195C353.252 132.852 355.31 132.549 357.389 132.27C358.167 132.154 358.945 132.038 359.721 131.944C361.641 131.675 363.581 131.43 365.589 131.191C366.524 131.088 367.481 130.987 368.462 130.866L368.896 130.812C369.352 130.759 369.755 131.067 369.853 131.509L370.831 136.198C371.299 139.179 371.209 142.09 370.583 144.659C370.046 146.984 369.082 149.023 367.739 150.732C365.868 153.081 362.891 154.879 359.763 155.273L359.741 155.272ZM348.951 141.446C349.47 144.887 350.31 147.49 351.478 149.414C352.371 150.858 353.411 151.904 354.682 152.628C358.236 154.642 363.477 153.31 366.365 149.635C367.556 148.117 368.409 146.32 368.878 144.263C369.441 141.894 369.535 139.211 369.108 136.53L368.31 132.654C367.442 132.762 366.622 132.852 365.801 132.942C363.793 133.181 361.875 133.428 359.955 133.697C359.179 133.791 358.403 133.884 357.626 134C355.569 134.281 353.511 134.584 351.381 134.927C350.373 135.092 349.321 135.253 348.266 135.436C348.414 137.41 348.648 139.436 348.951 141.446Z" fill="black"/>
</g>
</g>
</g>
<mask id="mask23_64_105" style="mask-type:luminance" maskUnits="userSpaceOnUse" x="350" y="138" width="25" height="20">
<path d="M351.599 138.457L374.559 140.415L373.076 157.8L350.117 155.841L351.599 138.457Z" fill="white"/>
</mask>
<g mask="url(#mask23_64_105)">
<mask id="mask24_64_105" style="mask-type:luminance" maskUnits="userSpaceOnUse" x="311" y="94" width="93" height="68">
<path d="M311.29 105.309L396.081 94.3449L403.097 150.304L318.306 161.268L311.29 105.309Z" fill="white"/>
</mask>
<g mask="url(#mask24_64_105)">
<mask id="mask25_64_105" style="mask-type:luminance" maskUnits="userSpaceOnUse" x="308" y="66" width="131" height="96">
<path d="M308.396 82.3064L429.084 66.7202L438.992 145.705L318.303 161.313L308.396 82.3064Z" fill="white"/>
</mask>
<g mask="url(#mask25_64_105)">
<path d="M350.738 149.874C351.607 151.339 352.745 152.554 354.253 153.412C358.411 155.773 364.076 153.953 367.064 150.172C368.38 148.506 369.247 146.551 369.743 144.45C367.555 144.674 365.364 144.943 363.19 145.282C359.529 145.836 355.825 146.637 352.637 148.531C351.97 148.931 351.345 149.379 350.738 149.874Z" fill="#F2464F"/>
</g>
</g>
</g>
<mask id="mask26_64_105" style="mask-type:luminance" maskUnits="userSpaceOnUse" x="395" y="89" width="19" height="14">
<path d="M396.226 89.7294L413.446 91.198L412.457 102.788L395.238 101.319L396.226 89.7294Z" fill="white"/>
</mask>
<g mask="url(#mask26_64_105)">
<mask id="mask27_64_105" style="mask-type:luminance" maskUnits="userSpaceOnUse" x="311" y="94" width="93" height="68">
<path d="M311.29 105.309L396.081 94.3455L403.097 150.305L318.307 161.269L311.29 105.309Z" fill="white"/>
</mask>
<g mask="url(#mask27_64_105)">
<mask id="mask28_64_105" style="mask-type:luminance" maskUnits="userSpaceOnUse" x="308" y="66" width="131" height="96">
<path d="M308.397 82.3068L429.084 66.7206L438.992 145.705L318.303 161.314L308.397 82.3068Z" fill="white"/>
</mask>
<g mask="url(#mask28_64_105)">
<path d="M399.703 98.2111L416.6 69.8283L428.041 76.2991L403.377 100.941L399.703 98.2111Z" fill="#FFE164"/>
</g>
</g>
</g>
<mask id="mask29_64_105" style="mask-type:luminance" maskUnits="userSpaceOnUse" x="394" y="89" width="20" height="20">
<path d="M396.226 89.7294L413.446 91.198L411.963 108.583L394.744 107.114L396.226 89.7294Z" fill="white"/>
</mask>
<g mask="url(#mask29_64_105)">
<mask id="mask30_64_105" style="mask-type:luminance" maskUnits="userSpaceOnUse" x="311" y="94" width="93" height="68">
<path d="M311.29 105.309L396.081 94.3455L403.097 150.305L318.307 161.269L311.29 105.309Z" fill="white"/>
</mask>
<g mask="url(#mask30_64_105)">
<mask id="mask31_64_105" style="mask-type:luminance" maskUnits="userSpaceOnUse" x="308" y="66" width="131" height="96">
<path d="M308.397 82.3068L429.084 66.7206L438.992 145.705L318.303 161.314L308.397 82.3068Z" fill="white"/>
</mask>
<g mask="url(#mask31_64_105)">
<path d="M403.536 102.255C403.217 102.296 402.884 102.222 402.586 102.014L398.934 99.2856C398.38 98.8963 398.219 98.1302 398.585 97.5458L415.483 69.163C415.851 68.556 416.638 68.3267 417.241 68.6745L428.681 75.1453C429.047 75.3589 429.287 75.7214 429.342 76.1365C429.399 76.529 429.25 76.9495 428.954 77.2435L404.29 101.886C404.092 102.097 403.811 102.21 403.536 102.255ZM401.45 97.8584L403.255 99.1981L425.893 76.5948L417.079 71.6249L401.45 97.8584Z" fill="black"/>
</g>
</g>
</g>
</svg>
