<?xml version="1.0" encoding="UTF-8"?>
<svg version="1.1" xmlns="http://www.w3.org/2000/svg" width="384" height="82">
<path d="M0 0 C4.95 0.495 4.95 0.495 10 1 C9.29819309 10.49238836 7.20271293 19.50085807 4.99609375 28.74414062 C3.44272717 35.60050746 2.70128575 41.06606012 4 48 C4.66 47.67 5.32 47.34 6 47 C6.51041329 45.01735416 6.93295832 43.01180376 7.3125 41 C9.14870642 32.58482284 12.14018289 25.49903817 19 20 C21.87577516 19.25167846 24.66342095 19.16543111 27.625 19.125 C28.7696875 19.07472656 28.7696875 19.07472656 29.9375 19.0234375 C33.24437188 18.90740691 35.83946262 18.94648754 39 20 C40 21.8125 40 21.8125 41 24 C41.515625 24.680625 42.03125 25.36125 42.5625 26.0625 C45.70142052 30.29321896 45.55136755 34.96216227 45 40 C42.86389582 48.00208975 39.52232732 55.64039656 33 61 C26.07232022 62.39228644 18.92299138 62.35449831 12 61 C8.19981737 60.87806139 8.19981737 60.87806139 5.3125 61.5 C1.18196482 62.12347701 -2.8322072 62.08335586 -7 62 C-7.99 60.02 -7.99 60.02 -9 58 C-11.98122227 58.69077227 -11.98122227 58.69077227 -13.21875 60.53125 C-16.00659151 62.82999651 -19.04757388 62.5131521 -22.5 62.5 C-23.17675781 62.52835938 -23.85351562 62.55671875 -24.55078125 62.5859375 C-26.53125 62.59375 -26.53125 62.59375 -30 62 C-31.84375 59.46875 -31.84375 59.46875 -33 57 C-33.66 57 -34.32 57 -35 57 C-35.350625 57.825 -35.70125 58.65 -36.0625 59.5 C-38 62 -38 62 -40.01953125 62.47265625 C-44.17266721 62.63106774 -46.4605106 62.33029963 -50.0625 60.125 C-52 58 -52 58 -52 56 C-52.433125 56.433125 -52.86625 56.86625 -53.3125 57.3125 C-53.869375 57.869375 -54.42625 58.42625 -55 59 C-55.37125 59.5259375 -55.7425 60.051875 -56.125 60.59375 C-59.05379289 62.79034466 -62.18438912 62.31506426 -65.6875 62.1875 C-66.7403418 62.16719727 -66.7403418 62.16719727 -67.81445312 62.14648438 C-69.54329829 62.11120182 -71.27174765 62.05739583 -73 62 C-73.33 61.01 -73.66 60.02 -74 59 C-76.16666667 59.83333333 -76.16666667 59.83333333 -77 62 C-82.28 62 -87.56 62 -93 62 C-95.64 56.72 -98.28 51.44 -101 46 C-102.68373405 49.3674681 -103.68218415 52.15015766 -104.625 55.75 C-105.07875 57.4825 -105.5325 59.215 -106 61 C-109.63 61 -113.26 61 -117 61 C-114.32688102 47.41267172 -111.57853128 33.8424776 -108.72024536 20.29293823 C-108.40670435 18.80577023 -108.09410277 17.31840386 -107.78244019 15.83084106 C-107.34219684 13.73166303 -106.89823141 11.63330779 -106.453125 9.53515625 C-106.19692383 8.322229 -105.94072266 7.10930176 -105.67675781 5.85961914 C-105 3 -105 3 -104 1 C-100.37 1 -96.74 1 -93 1 C-93.30035156 2.3509375 -93.60070312 3.701875 -93.91015625 5.09375 C-94.2949454 6.89568942 -94.67902223 8.69778105 -95.0625 10.5 C-95.26166016 11.386875 -95.46082031 12.27375 -95.66601562 13.1875 C-96.85051632 18.83985418 -97.05618751 23.31385846 -96 29 C-91.09459595 27.63738776 -89.47480873 25.35224984 -87 21 C-86.28426473 19.35380887 -85.5974304 17.69271945 -85 16 C-83.5118036 16.53815587 -82.03450128 17.1065073 -80.5625 17.6875 C-79.73878906 18.00074219 -78.91507813 18.31398438 -78.06640625 18.63671875 C-76 20 -76 20 -74.98046875 22.30078125 C-75.00763249 26.05481049 -76.440584 27.58456703 -78.75 30.5 C-80.88867482 33.23873466 -82.9029193 35.83172679 -84.640625 38.84375 C-85.31351563 39.91109375 -85.31351563 39.91109375 -86 41 C-86.66 41 -87.32 41 -88 41 C-88.16681109 43.91652174 -88.16681109 43.91652174 -88 47 C-87.34 47.66 -86.68 48.32 -86 49 C-83.39719432 48.67958603 -83.39719432 48.67958603 -81 48 C-80.56300781 46.53240234 -80.56300781 46.53240234 -80.1171875 45.03515625 C-77.72569309 37.28283571 -75.27869226 30.33173062 -70 24 C-69.43023437 23.27683594 -68.86046875 22.55367187 -68.2734375 21.80859375 C-65.1017019 19.28537453 -62.69913042 19.39514442 -58.6875 19.25 C-57.41261719 19.19328125 -56.13773438 19.1365625 -54.82421875 19.078125 C-52.93123047 19.03945313 -52.93123047 19.03945313 -51 19 C-49.08574219 18.95166016 -49.08574219 18.95166016 -47.1328125 18.90234375 C-44 19 -44 19 -42.1875 20.3125 C-38.39245658 25.70545644 -38.99831501 28.65905835 -40 35 C-40.49425835 37.32635884 -41.03530975 39.6366066 -41.58984375 41.94921875 C-42.13103153 44.65515764 -42.14094721 47.25152949 -42 50 C-38.33392713 45.69634924 -36.38819901 40.50089972 -34.13671875 35.375 C-31.95086052 30.56100872 -29.57871353 26.90091282 -26 23 C-25.566875 22.39414062 -25.13375 21.78828125 -24.6875 21.1640625 C-21.79694563 19.17011528 -18.40108361 19.4597245 -15 19.375 C-9.42111551 19.23083234 -9.42111551 19.23083234 -4 18 C-3.21168235 16.18666364 -3.21168235 16.18666364 -2.83203125 13.96484375 C-2.66123047 13.15595703 -2.49042969 12.34707031 -2.31445312 11.51367188 C-2.14880859 10.66353516 -1.98316406 9.81339844 -1.8125 8.9375 C-1.63525391 8.08349609 -1.45800781 7.22949219 -1.27539062 6.34960938 C-0.8383941 4.23549105 -0.41766794 2.11802166 0 0 Z M-99 26 C-99 27.65 -99 29.3 -99 31 C-98.67 31 -98.34 31 -98 31 C-98 29.35 -98 27.7 -98 26 C-98.33 26 -98.66 26 -99 26 Z M-57 29 C-53 30 -53 30 -53 30 Z M-14 29 C-14 29.33 -14 29.66 -14 30 C-12.35 30 -10.7 30 -9 30 C-9 29.67 -9 29.34 -9 29 C-10.65 29 -12.3 29 -14 29 Z M-51 30 C-50 32 -50 32 -50 32 Z M-100 31 C-99 33 -99 33 -99 33 Z M-65.0625 33.8125 C-67.53377581 37.8781473 -68.12307516 40.52321289 -68.0625 45.1875 C-68.05347656 46.08855469 -68.04445312 46.98960938 -68.03515625 47.91796875 C-68.02355469 48.60503906 -68.01195312 49.29210937 -68 50 C-64.71605907 51.64197046 -61.41564592 50.96425789 -58 50 C-53.85504234 46.41517175 -52.12409178 41.26798946 -51 36 C-51.17570831 33.08015529 -51.17570831 33.08015529 -52 31 C-59.29406934 30.04894024 -59.29406934 30.04894024 -65.0625 33.8125 Z M-22.1875 33.25 C-25.39566851 37.89399217 -23.85613696 43.76145898 -23 49 C-20.2767342 49.60819603 -18.28067408 50.04210111 -15.5 49.625 C-11.51486284 47.03466085 -9.56832434 43.43772492 -8 39 C-7.88861437 36.06038788 -8.31510231 33.89764407 -9 31 C-14.23366797 30.45122705 -17.77601478 30.13601043 -22.1875 33.25 Z M31 30 C28.6372026 30.92824183 26.30252483 31.93097061 24 33 C23.01 33 22.02 33 21 33 C18.55891428 38.45654456 18.9284326 43.25250215 20 49 C21.04703565 50.25676839 21.04703565 50.25676839 23.375 50.25 C26.05177629 50.24302195 26.05177629 50.24302195 27.8125 48.5 C28.204375 48.005 28.59625 47.51 29 47 C29.66 47.33 30.32 47.66 31 48 C33.6461404 42.81797506 35.21774125 37.86187207 34 32 C33.01 31.34 32.02 30.68 31 30 Z M-8 32 C-7 35 -7 35 -7 35 Z M18 39 C18 42.3 18 45.6 18 49 C18.33 49 18.66 49 19 49 C19 45.7 19 42.4 19 39 C18.67 39 18.34 39 18 39 Z M-25 40 C-25 43.3 -25 46.6 -25 50 C-24.67 50 -24.34 50 -24 50 C-24 46.7 -24 43.4 -24 40 C-24.33 40 -24.66 40 -25 40 Z M-90 42 C-89 44 -89 44 -89 44 Z M1 44 C1 46.64 1 49.28 1 52 C1.33 52 1.66 52 2 52 C2 49.36 2 46.72 2 44 C1.67 44 1.34 44 1 44 Z " fill="#000000" transform="translate(308,10)"/>
<path d="M0 0 C2.39474312 2.46126376 3.2442758 4.0632372 4.25 7.3125 C4.78625 8.17875 5.3225 9.045 5.875 9.9375 C8.34969359 16.0117479 8.19456721 22.51141863 5.8125 28.625 C5.53921875 29.25019531 5.2659375 29.87539063 4.984375 30.51953125 C3.94725716 33.05164342 3.58781331 35.6099935 3.25 38.3125 C2.26 38.3125 1.27 38.3125 0.25 38.3125 C-0.471875 38.786875 -1.19375 39.26125 -1.9375 39.75 C-5.62389314 41.79799619 -8.56463747 41.95780826 -12.75 42.3125 C-12.75 42.9725 -12.75 43.6325 -12.75 44.3125 C-17.37 44.3125 -21.99 44.3125 -26.75 44.3125 C-27.08 44.9725 -27.41 45.6325 -27.75 46.3125 C-28.07742187 46.91578125 -28.40484375 47.5190625 -28.7421875 48.140625 C-29.81260798 50.44742262 -30.36294933 52.57539675 -30.875 55.0625 C-31.16375 56.465 -31.4525 57.8675 -31.75 59.3125 C-35.38 59.3125 -39.01 59.3125 -42.75 59.3125 C-41.37250632 52.31076946 -39.97100448 45.31429015 -38.5546875 38.3203125 C-37.99042449 35.52265336 -37.43735304 32.72301246 -36.890625 29.921875 C-36.15365759 26.14664963 -35.39951026 22.37518625 -34.63504028 18.60543823 C-34.33684162 17.1192844 -34.04473626 15.63189486 -33.75875854 14.14334106 C-33.35381619 12.04121514 -32.92749104 9.94448924 -32.49609375 7.84765625 C-32.25560303 6.634729 -32.0151123 5.42180176 -31.76733398 4.17211914 C-30.75 1.3125 -30.75 1.3125 -28.88305664 -0.05688477 C-21.09425767 -2.35955934 -7.16600207 -4.36650741 0 0 Z M-18.75 8.3125 C-19.08 9.3025 -19.41 10.2925 -19.75 11.3125 C-20.41 10.6525 -21.07 9.9925 -21.75 9.3125 C-23.72572514 16.63496153 -25.36730978 22.81406373 -23.75 30.3125 C-13.67054536 30.89971025 -13.67054536 30.89971025 -4.875 26.6875 C-3.2583126 23.27449327 -2.63003092 20.09152608 -2.75 16.3125 C-3.68849513 13.32908383 -3.68849513 13.32908383 -5.75 11.3125 C-8.26948778 10.57509783 -8.26948778 10.57509783 -10.75 10.3125 C-11.41 9.6525 -12.07 8.9925 -12.75 8.3125 C-15.83347826 8.14568891 -15.83347826 8.14568891 -18.75 8.3125 Z M-25.75 27.3125 C-25.75 28.9625 -25.75 30.6125 -25.75 32.3125 C-25.42 32.3125 -25.09 32.3125 -24.75 32.3125 C-24.75 30.6625 -24.75 29.0125 -24.75 27.3125 C-25.08 27.3125 -25.41 27.3125 -25.75 27.3125 Z M-23.75 31.3125 C-23.75 31.6425 -23.75 31.9725 -23.75 32.3125 C-20.45 32.3125 -17.15 32.3125 -13.75 32.3125 C-13.75 31.9825 -13.75 31.6525 -13.75 31.3125 C-17.05 31.3125 -20.35 31.3125 -23.75 31.3125 Z " fill="#000000" transform="translate(136.75,11.6875)"/>
<path d="M0 0 C1.02489312 3.07467935 0.98030737 4.43152376 0.5625 7.5625 C0.14014276 10.77214881 0.14014276 10.77214881 0 14 C2.64 14 5.28 14 8 14 C9.05128687 17.23529832 8.91901775 19.39722097 8.125 22.6875 C7.94195312 23.47511719 7.75890625 24.26273438 7.5703125 25.07421875 C7 27 7 27 6 28 C4.48071962 28.07179964 2.95832518 28.08392007 1.4375 28.0625 C0.61121094 28.05347656 -0.21507812 28.04445313 -1.06640625 28.03515625 C-2.02353516 28.01775391 -2.02353516 28.01775391 -3 28 C-3.33 28.66 -3.66 29.32 -4 30 C-4.33 30 -4.66 30 -5 30 C-6.07859862 37.54047904 -6.07859862 37.54047904 -5 45 C-1.46627288 43.03681826 1.24479785 40.95929119 4 38 C7 39.5 7 39.5 10 42 C10.91369071 45.08914477 10.57824347 46.68824194 10 50 C7.5625 51.8125 7.5625 51.8125 5 53 C4.67 53.99 4.34 54.98 4 56 C0.29937463 57.96033128 -3.17259934 58.35203952 -7.3125 58.625 C-8.38113281 58.69976562 -9.44976562 58.77453125 -10.55078125 58.8515625 C-11.35902344 58.90054688 -12.16726563 58.94953125 -13 59 C-13.45375 58.236875 -13.9075 57.47375 -14.375 56.6875 C-15.53824492 54.76367186 -16.7529415 52.87058776 -18 51 C-18.90699358 46.28363337 -19 41.78758746 -19 37 C-19.33 36.67 -19.66 36.34 -20 36 C-20.29423872 33.61636914 -20.51625204 31.26790484 -20.6875 28.875 C-20.79449219 27.57304688 -20.90148437 26.27109375 -21.01171875 24.9296875 C-20.99924227 20.74590924 -20.32931016 17.92171962 -19 14 C-17.02 13.67 -15.04 13.34 -13 13 C-12.01 9.04 -11.02 5.08 -10 1 C-6.7 0.67 -3.4 0.34 0 0 Z M-2 12 C-1 16 -1 16 -1 16 Z M-16 26 C-15 28 -15 28 -15 28 Z M-3 26 C-3 26.33 -3 26.66 -3 27 C-0.03 27 2.94 27 6 27 C6 26.67 6 26.34 6 26 C3.03 26 0.06 26 -3 26 Z M-19 28 C-18 32 -18 32 -18 32 Z M-17 28 C-16 32 -16 32 -16 32 Z M-18 32 C-18 33.65 -18 35.3 -18 37 C-17.67 37 -17.34 37 -17 37 C-17 35.35 -17 33.7 -17 32 C-17.33 32 -17.66 32 -18 32 Z M-8 40 C-8 42.31 -8 44.62 -8 47 C-7.67 47 -7.34 47 -7 47 C-7 44.69 -7 42.38 -7 40 C-7.33 40 -7.66 40 -8 40 Z " fill="#000000" transform="translate(374,14)"/>
<path d="M0 0 C1.9375 2.25 1.9375 2.25 3 5 C3.53625 5.70125 4.0725 6.4025 4.625 7.125 C7.68361345 11.29583652 7.54770635 16.04902284 7 21 C5.88582552 25.08699457 4.48275641 29.03407322 3 33 C2.67 33.99 2.34 34.98 2 36 C0.515 36.495 0.515 36.495 -1 37 C-1.33 37.99 -1.66 38.98 -2 40 C-8.88162349 43.58775033 -18.54506703 43.94476512 -26 42 C-30.22678173 35.6598274 -31.67829276 29.51870279 -31 22 C-28.56019108 11.49235669 -28.56019108 11.49235669 -25.5625 8.625 C-23.88792806 7.07672066 -23.88792806 7.07672066 -23.125 4.9375 C-21.5261545 2.18393274 -20.02832644 1.87484986 -17 1 C-11.51258364 -0.07596399 -5.56553423 -0.90251906 0 0 Z M-6 11 C-13.58661531 12.74031034 -13.58661531 12.74031034 -19.12109375 17.78125 C-20.14497949 20.36599266 -20.26655939 22.35130196 -20.25 25.125 C-20.25515625 25.99382813 -20.2603125 26.86265625 -20.265625 27.7578125 C-20.2106341 30.20203887 -20.2106341 30.20203887 -18 32 C-17.67 31.67 -17.34 31.34 -17 31 C-16.21625 31.04125 -15.4325 31.0825 -14.625 31.125 C-11.94575805 31.26060093 -11.94575805 31.26060093 -10.1875 29.5 C-9.795625 29.005 -9.40375 28.51 -9 28 C-8.34 28.33 -7.68 28.66 -7 29 C-3.73893352 23.83664475 -3.1732301 18.96992292 -4 13 C-4.66 12.34 -5.32 11.68 -6 11 Z " fill="#000000" transform="translate(171,29)"/>
<path d="M0 0 C3.3 0 6.6 0 10 0 C9.3442822 7.15417485 8.04030688 14.02333421 6.49609375 21.03515625 C6.13198143 22.7140519 6.13198143 22.7140519 5.76051331 24.42686462 C4.99042301 27.97301634 4.21406301 31.51776073 3.4375 35.0625 C2.91169339 37.47842513 2.38629849 39.8944399 1.86132812 42.31054688 C0.57897965 48.20807905 -0.70899045 54.10435801 -2 60 C-5.63 60 -9.26 60 -13 60 C-10.32688102 46.41267172 -7.57853128 32.8424776 -4.72024536 19.29293823 C-4.40670435 17.80577023 -4.09410277 16.31840386 -3.78244019 14.83084106 C-3.34219684 12.73166303 -2.89823141 10.63330779 -2.453125 8.53515625 C-2.19692383 7.322229 -1.94072266 6.10930176 -1.67675781 4.85961914 C-1 2 -1 2 0 0 Z " fill="#000000" transform="translate(189,11)"/>
<path d="M0 0 C1.98 0 3.96 0 6 0 C6 0.66 6 1.32 6 2 C6.78375 2.0825 7.5675 2.165 8.375 2.25 C11 3 11 3 12.125 5 C12.41375 5.66 12.7025 6.32 13 7 C13.99 7.33 14.98 7.66 16 8 C16.14050781 8.721875 16.28101562 9.44375 16.42578125 10.1875 C16.7886474 11.96480358 17.17849207 13.73699949 17.60546875 15.5 C19.53283302 23.77861163 19.53283302 23.77861163 17 28 C16.54625 28.928125 16.0925 29.85625 15.625 30.8125 C15.08875 31.534375 14.5525 32.25625 14 33 C12.68 33 11.36 33 10 33 C10 32.34 10 31.68 10 31 C9.38125 30.9175 8.7625 30.835 8.125 30.75 C6 30 6 30 5.0625 28.3125 C4.711875 27.549375 4.36125 26.78625 4 26 C3.175 25.030625 2.35 24.06125 1.5 23.0625 C-2.49581181 18.16763053 -3.38363683 14.42975675 -3.26953125 8.2265625 C-2.88773902 5.07262668 -1.6501345 2.68146857 0 0 Z M10 30 C14 31 14 31 14 31 Z " fill="#FC256F" transform="translate(62,9)"/>
<path d="M0 0 C3.60374463 -0.14500644 7.20674242 -0.23396763 10.8125 -0.3125 C11.83666016 -0.35439453 12.86082031 -0.39628906 13.91601562 -0.43945312 C16.69594263 -0.4850257 19.26142171 -0.48532501 22 0 C24.13671875 2.45703125 24.13671875 2.45703125 25 5 C25.33 5.33 25.66 5.66 26 6 C26.30101373 9.3864045 26.41959481 11.34324291 24.5625 14.25 C24.046875 14.8275 23.53125 15.405 23 16 C22.67 16.66 22.34 17.32 22 18 C18.29847942 19.88034616 15.30515864 20.22422069 11.1875 20.125 C9.72376953 20.09792969 9.72376953 20.09792969 8.23046875 20.0703125 C7.49441406 20.04710938 6.75835937 20.02390625 6 20 C6 19.34 6 18.68 6 18 C4.906875 17.95875 3.81375 17.9175 2.6875 17.875 C-1 17 -1 17 -2.9375 14.25 C-3.95417692 11.14016473 -4.50727522 9.21274303 -4 6 C-2.5625 3.8125 -2.5625 3.8125 -1 2 C-0.67 1.34 -0.34 0.68 0 0 Z " fill="#FC256F" transform="translate(31,0)"/>
<path d="M0 0 C3.01726762 2.91669203 3.30320125 6.09722612 3.5625 10.125 C3.36846884 17.67179085 -0.17721804 23.59299473 -4.90625 29.30078125 C-7.42273783 31.34308014 -8.56311361 31.43746391 -11.75 31.25 C-12.54921875 31.21390625 -13.3484375 31.1778125 -14.171875 31.140625 C-14.77515625 31.09421875 -15.3784375 31.0478125 -16 31 C-18.5587188 26.20240226 -18.67717449 21.2964719 -18 16 C-16.95902331 13.12749356 -15.56431146 10.61479798 -14 8 C-13.68289062 7.31164062 -13.36578125 6.62328125 -13.0390625 5.9140625 C-10.37071146 0.99867901 -5.3376649 -1.06753298 0 0 Z M-6 1 C-6 1.33 -6 1.66 -6 2 C-4.35 2 -2.7 2 -1 2 C-1 1.67 -1 1.34 -1 1 C-2.65 1 -4.3 1 -6 1 Z " fill="#FC246E" transform="translate(22,9)"/>
<path d="M0 0 C3.98893436 -0.48844094 7.51138462 -0.81421504 11.12109375 1.16015625 C13.94765999 3.45784315 15.72286096 5.1046277 16.8125 8.625 C16.874375 9.40875 16.93625 10.1925 17 11 C17.32742187 11.59425781 17.65484375 12.18851563 17.9921875 12.80078125 C19.23447672 15.51166819 19.3003645 17.58930241 19.3125 20.5625 C19.32925781 21.51253906 19.34601562 22.46257812 19.36328125 23.44140625 C19 26 19 26 17.79296875 27.80859375 C14.24799249 30.16418799 10.05953521 29.70990174 6 29 C4.1875 27.0625 4.1875 27.0625 3 24 C2.10422476 22.60412938 1.20838566 21.20829975 0.3125 19.8125 C-2.43413732 14.85697062 -2.76583482 10.5644201 -2 5 C-1 1.875 -1 1.875 0 0 Z " fill="#FC2470" transform="translate(6,42)"/>
<path d="M0 0 C2.97 0 5.94 0 9 0 C11.72361718 5.44723435 12.64477916 9.63073238 10.875 15.5 C8.67945113 21.40179651 4.82261052 28.08869474 -1 31 C-2.99960012 31.039992 -5.00047242 31.04346799 -7 31 C-10.10342059 25.95694153 -10.88277067 21.77724359 -10 16 C-8.12747789 10.47303958 -4.81247977 6.32767974 -1 2 C-0.67 1.34 -0.34 0.68 0 0 Z M-6 29 C-6 29.33 -6 29.66 -6 30 C-4.35 30 -2.7 30 -1 30 C-1 29.67 -1 29.34 -1 29 C-2.65 29 -4.3 29 -6 29 Z " fill="#FC2670" transform="translate(69,42)"/>
<path d="M0 0 C2.36455193 2.66965541 2.92514362 4.48669909 3.4375 8 C2.88751352 11.77133589 1.71408063 13.3613105 -1 16 C-5.25578915 17.40512461 -9.62370274 17.29743563 -14.0625 17.375 C-15.28549805 17.43107422 -15.28549805 17.43107422 -16.53320312 17.48828125 C-18.79727929 17.521768 -20.79107754 17.50268442 -23 17 C-24.99609375 14.5390625 -24.99609375 14.5390625 -26 12 C-26.33 11.67 -26.66 11.34 -27 11 C-26.20849421 2.61003861 -26.20849421 2.61003861 -24 0 C-16.65725042 -1.8356874 -7.27511874 -1.93013354 0 0 Z " fill="#FC256E" transform="translate(54,65)"/>
<path d="M0 0 C0.33 0 0.66 0 1 0 C1.24915939 1.76813112 1.47366632 3.53974982 1.6875 5.3125 C1.81511719 6.29863281 1.94273437 7.28476562 2.07421875 8.30078125 C2 11 2 11 -1 14 C-0.67 9.38 -0.34 4.76 0 0 Z " fill="#000000" transform="translate(145,25)"/>
<path d="M0 0 C0.66 0 1.32 0 2 0 C1.67 2.97 1.34 5.94 1 9 C0.67 9 0.34 9 0 9 C0 6.03 0 3.06 0 0 Z " fill="#000000" transform="translate(179,41)"/>
<path d="M0 0 C0.33 0 0.66 0 1 0 C0.67 3.3 0.34 6.6 0 10 C-0.66 9.67 -1.32 9.34 -2 9 C-1.34 6.03 -0.68 3.06 0 0 Z " fill="#000000" transform="translate(178,50)"/>
<path d="M0 0 C3.3 0 6.6 0 10 0 C10 0.33 10 0.66 10 1 C6.7 1 3.4 1 0 1 C0 0.67 0 0.34 0 0 Z " fill="#000000" transform="translate(192,72)"/>
<path d="M0 0 C3.3 0 6.6 0 10 0 C10 0.33 10 0.66 10 1 C6.7 1 3.4 1 0 1 C0 0.67 0 0.34 0 0 Z " fill="#000000" transform="translate(177,72)"/>
<path d="M0 0 C3.3 0 6.6 0 10 0 C10 0.33 10 0.66 10 1 C6.7 1 3.4 1 0 1 C0 0.67 0 0.34 0 0 Z " fill="#000000" transform="translate(95,72)"/>
<path d="M0 0 C3.3 0 6.6 0 10 0 C10 0.33 10 0.66 10 1 C6.7 1 3.4 1 0 1 C0 0.67 0 0.34 0 0 Z " fill="#DF286E" transform="translate(37,62)"/>
<path d="M0 0 C2 2 2 2 2.125 4.625 C2.08375 5.40875 2.0425 6.1925 2 7 C0 5 0 5 -0.125 2.375 C-0.08375 1.59125 -0.0425 0.8075 0 0 Z " fill="#000000" transform="translate(190,58)"/>
<path d="M0 0 C2 2 2 2 2.125 4.625 C2.08375 5.40875 2.0425 6.1925 2 7 C0 5 0 5 -0.125 2.375 C-0.08375 1.59125 -0.0425 0.8075 0 0 Z " fill="#000000" transform="translate(191,53)"/>
<path d="M0 0 C0.99 0.495 0.99 0.495 2 1 C2 2.98 2 4.96 2 7 C0 4 0 4 0 0 Z " fill="#000000" transform="translate(353,50)"/>
<path d="M0 0 C0.33 0 0.66 0 1 0 C1 3.3 1 6.6 1 10 C0.67 10 0.34 10 0 10 C0 6.7 0 3.4 0 0 Z " fill="#000000" transform="translate(241,50)"/>
<path d="M0 0 C0.33 0 0.66 0 1 0 C1 3.3 1 6.6 1 10 C0.67 10 0.34 10 0 10 C0 6.7 0 3.4 0 0 Z " fill="#DC3775" transform="translate(2,47)"/>
<path d="M0 0 C2 2 2 2 2.125 4.625 C2.08375 5.40875 2.0425 6.1925 2 7 C0 5 0 5 -0.125 2.375 C-0.08375 1.59125 -0.0425 0.8075 0 0 Z " fill="#000000" transform="translate(194,39)"/>
<path d="M0 0 C0.33 0 0.66 0 1 0 C1 3.3 1 6.6 1 10 C0.67 10 0.34 10 0 10 C0 6.7 0 3.4 0 0 Z " fill="#D4336F" transform="translate(2,25)"/>
<path d="M0 0 C2 2 2 2 2.125 4.625 C2.08375 5.40875 2.0425 6.1925 2 7 C0 5 0 5 -0.125 2.375 C-0.08375 1.59125 -0.0425 0.8075 0 0 Z " fill="#000000" transform="translate(197,25)"/>
<path d="M0 0 C3.3 0 6.6 0 10 0 C10 0.33 10 0.66 10 1 C6.7 1 3.4 1 0 1 C0 0.67 0 0.34 0 0 Z " fill="#000000" transform="translate(204,9)"/>
<path d="M0 0 C0.33 0 0.66 0 1 0 C1 2.97 1 5.94 1 9 C0.67 9 0.34 9 0 9 C0 6.03 0 3.06 0 0 Z " fill="#F62775" transform="translate(57,58)"/>
<path d="M0 0 C0.33 0 0.66 0 1 0 C1 2.97 1 5.94 1 9 C0.67 9 0.34 9 0 9 C0 6.03 0 3.06 0 0 Z " fill="#000000" transform="translate(138,51)"/>
<path d="M0 0 C0.33 0 0.66 0 1 0 C1 2.97 1 5.94 1 9 C0.67 9 0.34 9 0 9 C0 6.03 0 3.06 0 0 Z " fill="#000000" transform="translate(152,50)"/>
<path d="M0 0 C0.66 0.66 1.32 1.32 2 2 C1.625 4.125 1.625 4.125 1 6 C0 5 0 5 -0.0625 2.4375 C-0.041875 1.633125 -0.02125 0.82875 0 0 Z " fill="#000000" transform="translate(193,44)"/>
<path d="M0 0 C0.33 0 0.66 0 1 0 C1 2.97 1 5.94 1 9 C0.67 9 0.34 9 0 9 C0 6.03 0 3.06 0 0 Z " fill="#000000" transform="translate(340,42)"/>
<path d="M0 0 C0.33 0 0.66 0 1 0 C1 2.97 1 5.94 1 9 C0.67 9 0.34 9 0 9 C0 6.03 0 3.06 0 0 Z " fill="#000000" transform="translate(165,42)"/>
<path d="M0 0 C1.65 0 3.3 0 5 0 C4.67 0.66 4.34 1.32 4 2 C2.68 2 1.36 2 0 2 C0 1.34 0 0.68 0 0 Z " fill="#ED186A" transform="translate(8,40)"/>
<path d="M0 0 C0.66 0.66 1.32 1.32 2 2 C1.625 4.125 1.625 4.125 1 6 C0 5 0 5 -0.0625 2.4375 C-0.041875 1.633125 -0.02125 0.82875 0 0 Z " fill="#000000" transform="translate(196,30)"/>
<path d="M0 0 C0.33 0 0.66 0 1 0 C1 2.97 1 5.94 1 9 C0.67 9 0.34 9 0 9 C0 6.03 0 3.06 0 0 Z " fill="#F52373" transform="translate(57,15)"/>
<path d="M0 0 C0.99 0.495 0.99 0.495 2 1 C2 2.65 2 4.3 2 6 C1.34 5.34 0.68 4.68 0 4 C0 2.68 0 1.36 0 0 Z " fill="#000000" transform="translate(200,12)"/>
<path d="M0 0 C2.97 0 5.94 0 9 0 C9 0.33 9 0.66 9 1 C6.03 1 3.06 1 0 1 C0 0.67 0 0.34 0 0 Z " fill="#000000" transform="translate(309,9)"/>
<path d="M0 0 C2.97 0 5.94 0 9 0 C9 0.33 9 0.66 9 1 C6.03 1 3.06 1 0 1 C0 0.67 0 0.34 0 0 Z " fill="#000000" transform="translate(110,9)"/>
<path d="M0 0 C0.66 0.66 1.32 1.32 2 2 C1.625 4.125 1.625 4.125 1 6 C0.67 4.02 0.34 2.04 0 0 Z " fill="#000000" transform="translate(189,63)"/>
<path d="M0 0 C0.66 0.66 1.32 1.32 2 2 C1.625 4.125 1.625 4.125 1 6 C0.67 4.02 0.34 2.04 0 0 Z " fill="#000000" transform="translate(192,49)"/>
<path d="M0 0 C0.66 0.66 1.32 1.32 2 2 C1.625 4.125 1.625 4.125 1 6 C0.67 4.02 0.34 2.04 0 0 Z " fill="#000000" transform="translate(195,35)"/>
<path d="M0 0 C0.66 0.66 1.32 1.32 2 2 C1.625 4.125 1.625 4.125 1 6 C0.67 4.02 0.34 2.04 0 0 Z " fill="#000000" transform="translate(198,21)"/>
<path d="M0 0 C0.66 0.66 1.32 1.32 2 2 C1.625 4.125 1.625 4.125 1 6 C0.67 4.02 0.34 2.04 0 0 Z " fill="#000000" transform="translate(199,16)"/>
<path d="M0 0 C2.64 0 5.28 0 8 0 C8 0.33 8 0.66 8 1 C5.36 1 2.72 1 0 1 C0 0.67 0 0.34 0 0 Z " fill="#000000" transform="translate(190,9)"/>
<path d="M0 0 C0 0.99 0 1.98 0 3 C-0.99 3 -1.98 3 -3 3 C-2.01 2.01 -1.02 1.02 0 0 Z " fill="#F30E3C" transform="translate(56,77)"/>
<path d="M0 0 C2.31 0 4.62 0 7 0 C7 0.33 7 0.66 7 1 C4.69 1 2.38 1 0 1 C0 0.67 0 0.34 0 0 Z " fill="#000000" transform="translate(219,73)"/>
<path d="M0 0 C0.66 1.32 1.32 2.64 2 4 C1.34 4.66 0.68 5.32 0 6 C0 4.02 0 2.04 0 0 Z " fill="#000000" transform="translate(266,54)"/>
<path d="M0 0 C1.32 1.32 2.64 2.64 4 4 C2.68 3.34 1.36 2.68 0 2 C0 1.34 0 0.68 0 0 Z " fill="#FB0D3A" transform="translate(63,33)"/>
<path d="M0 0 C2.31 0 4.62 0 7 0 C7 0.33 7 0.66 7 1 C4.69 1 2.38 1 0 1 C0 0.67 0 0.34 0 0 Z " fill="#000000" transform="translate(250,27)"/>
<path d="M0 0 C1.98 0 3.96 0 6 0 C6 0.33 6 0.66 6 1 C4.02 1 2.04 1 0 1 C0 0.67 0 0.34 0 0 Z " fill="#000000" transform="translate(364,73)"/>
<path d="M0 0 C1.98 0 3.96 0 6 0 C6 0.33 6 0.66 6 1 C4.02 1 2.04 1 0 1 C0 0.67 0 0.34 0 0 Z " fill="#000000" transform="translate(152,73)"/>
<path d="M0 0 C1.98 0 3.96 0 6 0 C6 0.33 6 0.66 6 1 C4.02 1 2.04 1 0 1 C0 0.67 0 0.34 0 0 Z " fill="#EC3372" transform="translate(16,72)"/>
<path d="M0 0 C0.33 0 0.66 0 1 0 C1 1.98 1 3.96 1 6 C0.67 6 0.34 6 0 6 C0 4.02 0 2.04 0 0 Z " fill="#F12076" transform="translate(58,70)"/>
<path d="M0 0 C0.99 0.495 0.99 0.495 2 1 C1.67 2.32 1.34 3.64 1 5 C0.67 3.35 0.34 1.7 0 0 Z " fill="#000000" transform="translate(175,59)"/>
<path d="M0 0 C0.66 1.32 1.32 2.64 2 4 C1.34 4 0.68 4 0 4 C0 2.68 0 1.36 0 0 Z " fill="#000000" transform="translate(206,56)"/>
<path d="M0 0 C0.33 0 0.66 0 1 0 C1 1.98 1 3.96 1 6 C0.67 6 0.34 6 0 6 C0 4.02 0 2.04 0 0 Z " fill="#000000" transform="translate(313,51)"/>
<path d="M0 0 C1.98 0 3.96 0 6 0 C6 0.33 6 0.66 6 1 C4.02 1 2.04 1 0 1 C0 0.67 0 0.34 0 0 Z " fill="#000000" transform="translate(118,21)"/>
<path d="M0 0 C1.98 0 3.96 0 6 0 C6 0.33 6 0.66 6 1 C4.02 1 2.04 1 0 1 C0 0.67 0 0.34 0 0 Z " fill="#000000" transform="translate(124,9)"/>
<path d="M0 0 C0.33 0 0.66 0 1 0 C1 1.98 1 3.96 1 6 C0.67 6 0.34 6 0 6 C0 4.02 0 2.04 0 0 Z " fill="#EE2F75" transform="translate(58,6)"/>
<path d="M0 0 C1.65 0 3.3 0 5 0 C5 0.33 5 0.66 5 1 C3.35 1 1.7 1 0 1 C0 0.67 0 0.34 0 0 Z " fill="#000000" transform="translate(328,73)"/>
<path d="M0 0 C1.65 0 3.3 0 5 0 C5 0.33 5 0.66 5 1 C3.35 1 1.7 1 0 1 C0 0.67 0 0.34 0 0 Z " fill="#000000" transform="translate(283,73)"/>
<path d="M0 0 C1.65 0 3.3 0 5 0 C5 0.33 5 0.66 5 1 C3.35 1 1.7 1 0 1 C0 0.67 0 0.34 0 0 Z " fill="#000000" transform="translate(240,73)"/>
<path d="M0 0 C0.33 0 0.66 0 1 0 C1 1.65 1 3.3 1 5 C0.67 5 0.34 5 0 5 C0 3.35 0 1.7 0 0 Z " fill="#F11C71" transform="translate(25,71)"/>
<path d="M0 0 C0.33 0 0.66 0 1 0 C1 1.65 1 3.3 1 5 C0.67 5 0.34 5 0 5 C0 3.35 0 1.7 0 0 Z " fill="#000000" transform="translate(204,64)"/>
<path d="M0 0 C0.33 0 0.66 0 1 0 C1 1.65 1 3.3 1 5 C0.67 5 0.34 5 0 5 C0 3.35 0 1.7 0 0 Z " fill="#000000" transform="translate(93,64)"/>
<path d="M0 0 C0.33 0 0.66 0 1 0 C1 1.65 1 3.3 1 5 C0.67 5 0.34 5 0 5 C0 3.35 0 1.7 0 0 Z " fill="#F9094B" transform="translate(26,57)"/>
<path d="M0 0 C0.33 0 0.66 0 1 0 C1 1.65 1 3.3 1 5 C0.67 5 0.34 5 0 5 C0 3.35 0 1.7 0 0 Z " fill="#000000" transform="translate(96,50)"/>
<path d="M0 0 C0.33 0 0.66 0 1 0 C1 1.65 1 3.3 1 5 C0.67 5 0.34 5 0 5 C0 3.35 0 1.7 0 0 Z " fill="#000000" transform="translate(368,49)"/>
<path d="M0 0 C0.33 0 0.66 0 1 0 C1 1.65 1 3.3 1 5 C0.67 5 0.34 5 0 5 C0 3.35 0 1.7 0 0 Z " fill="#000000" transform="translate(311,49)"/>
<path d="M0 0 C0.33 0 0.66 0 1 0 C1 1.65 1 3.3 1 5 C0.67 5 0.34 5 0 5 C0 3.35 0 1.7 0 0 Z " fill="#000000" transform="translate(267,49)"/>
<path d="M0 0 C0.33 0 0.66 0 1 0 C1 1.65 1 3.3 1 5 C0.67 5 0.34 5 0 5 C0 3.35 0 1.7 0 0 Z " fill="#000000" transform="translate(97,45)"/>
<path d="M0 0 C0.33 0 0.66 0 1 0 C1 1.65 1 3.3 1 5 C0.67 5 0.34 5 0 5 C0 3.35 0 1.7 0 0 Z " fill="#000000" transform="translate(181,36)"/>
<path d="M0 0 C0.33 0 0.66 0 1 0 C1 1.65 1 3.3 1 5 C0.67 5 0.34 5 0 5 C0 3.35 0 1.7 0 0 Z " fill="#000000" transform="translate(99,36)"/>
<path d="M0 0 C0.33 0 0.66 0 1 0 C1 1.65 1 3.3 1 5 C0.67 5 0.34 5 0 5 C0 3.35 0 1.7 0 0 Z " fill="#000000" transform="translate(314,35)"/>
<path d="M0 0 C0.33 0 0.66 0 1 0 C1 1.65 1 3.3 1 5 C0.67 5 0.34 5 0 5 C0 3.35 0 1.7 0 0 Z " fill="#000000" transform="translate(270,35)"/>
<path d="M0 0 C0.33 0 0.66 0 1 0 C1 1.65 1 3.3 1 5 C0.67 5 0.34 5 0 5 C0 3.35 0 1.7 0 0 Z " fill="#000000" transform="translate(113,34)"/>
<path d="M0 0 C0.33 0 0.66 0 1 0 C1 1.65 1 3.3 1 5 C0.67 5 0.34 5 0 5 C0 3.35 0 1.7 0 0 Z " fill="#000000" transform="translate(100,31)"/>
<path d="M0 0 C0.33 0 0.66 0 1 0 C1 1.65 1 3.3 1 5 C0.67 5 0.34 5 0 5 C0 3.35 0 1.7 0 0 Z " fill="#000000" transform="translate(183,27)"/>
<path d="M0 0 C1.65 0 3.3 0 5 0 C5 0.33 5 0.66 5 1 C3.35 1 1.7 1 0 1 C0 0.67 0 0.34 0 0 Z " fill="#000000" transform="translate(335,27)"/>
<path d="M0 0 C0.33 0 0.66 0 1 0 C1 1.65 1 3.3 1 5 C0.67 5 0.34 5 0 5 C0 3.35 0 1.7 0 0 Z " fill="#000000" transform="translate(115,25)"/>
<path d="M0 0 C0.33 0 0.66 0 1 0 C1 1.65 1 3.3 1 5 C0.67 5 0.34 5 0 5 C0 3.35 0 1.7 0 0 Z " fill="#000000" transform="translate(213,22)"/>
<path d="M0 0 C0.33 0 0.66 0 1 0 C1 1.65 1 3.3 1 5 C0.67 5 0.34 5 0 5 C0 3.35 0 1.7 0 0 Z " fill="#000000" transform="translate(184,22)"/>
<path d="M0 0 C0.33 0 0.66 0 1 0 C1 1.65 1 3.3 1 5 C0.67 5 0.34 5 0 5 C0 3.35 0 1.7 0 0 Z " fill="#000000" transform="translate(374,21)"/>
<path d="M0 0 C0.33 0 0.66 0 1 0 C1 1.65 1 3.3 1 5 C0.67 5 0.34 5 0 5 C0 3.35 0 1.7 0 0 Z " fill="#000000" transform="translate(317,21)"/>
<path d="M0 0 C0.33 0 0.66 0 1 0 C1 1.65 1 3.3 1 5 C0.67 5 0.34 5 0 5 C0 3.35 0 1.7 0 0 Z " fill="#000000" transform="translate(361,18)"/>
<path d="M0 0 C0.33 0 0.66 0 1 0 C1 1.65 1 3.3 1 5 C0.67 5 0.34 5 0 5 C0 3.35 0 1.7 0 0 Z " fill="#000000" transform="translate(304,18)"/>
<path d="M0 0 C0.33 0 0.66 0 1 0 C1 1.65 1 3.3 1 5 C0.67 5 0.34 5 0 5 C0 3.35 0 1.7 0 0 Z " fill="#000000" transform="translate(103,17)"/>
<path d="M0 0 C0.33 0 0.66 0 1 0 C1 1.65 1 3.3 1 5 C0.67 5 0.34 5 0 5 C0 3.35 0 1.7 0 0 Z " fill="#F0206F" transform="translate(25,6)"/>
<path d="M0 0 C4 1 4 1 4 1 Z " fill="#000000" transform="translate(305,73)"/>
<path d="M0 0 C4 1 4 1 4 1 Z " fill="#000000" transform="translate(261,73)"/>
<path d="M0 0 C4 1 4 1 4 1 Z " fill="#000000" transform="translate(333,72)"/>
<path d="M0 0 C0.66 0.66 1.32 1.32 2 2 C1.01 2.495 1.01 2.495 0 3 C0 2.01 0 1.02 0 0 Z " fill="#000000" transform="translate(188,68)"/>
<path d="M0 0 C1 4 1 4 1 4 Z " fill="#000000" transform="translate(106,67)"/>
<path d="M0 0 C1 4 1 4 1 4 Z " fill="#000000" transform="translate(175,65)"/>
<path d="M0 0 C1 4 1 4 1 4 Z " fill="#000000" transform="translate(107,63)"/>
<path d="M0 0 C1 4 1 4 1 4 Z " fill="#000000" transform="translate(354,61)"/>
<path d="M0 0 C1 4 1 4 1 4 Z " fill="#000000" transform="translate(205,60)"/>
<path d="M0 0 C1 4 1 4 1 4 Z " fill="#010200" transform="translate(94,60)"/>
<path d="M0 0 C1 4 1 4 1 4 Z " fill="#000000" transform="translate(108,58)"/>
<path d="M0 0 C1 4 1 4 1 4 Z " fill="#020000" transform="translate(95,55)"/>
<path d="M0 0 C1 4 1 4 1 4 Z " fill="#E5226C" transform="translate(81,53)"/>
<path d="M0 0 C4 1 4 1 4 1 Z " fill="#000000" transform="translate(124,54)"/>
<path d="M0 0 C1 4 1 4 1 4 Z " fill="#000000" transform="translate(228,48)"/>
<path d="M0 0 C1 4 1 4 1 4 Z " fill="#CD124C" transform="translate(81,46)"/>
<path d="M0 0 C1 4 1 4 1 4 Z " fill="#000000" transform="translate(254,46)"/>
<path d="M0 0 C1 4 1 4 1 4 Z " fill="#000000" transform="translate(369,45)"/>
<path d="M0 0 C1 4 1 4 1 4 Z " fill="#000000" transform="translate(312,45)"/>
<path d="M0 0 C1 4 1 4 1 4 Z " fill="#000000" transform="translate(268,45)"/>
<path d="M0 0 C1 4 1 4 1 4 Z " fill="#000000" transform="translate(255,42)"/>
<path d="M0 0 C1 4 1 4 1 4 Z " fill="#000000" transform="translate(269,41)"/>
<path d="M0 0 C1 4 1 4 1 4 Z " fill="#000000" transform="translate(98,41)"/>
<path d="M0 0 C1 4 1 4 1 4 Z " fill="#000000" transform="translate(313,40)"/>
<path d="M0 0 C1 4 1 4 1 4 Z " fill="#000000" transform="translate(383,32)"/>
<path d="M0 0 C1 4 1 4 1 4 Z " fill="#000000" transform="translate(211,32)"/>
<path d="M0 0 C1 4 1 4 1 4 Z " fill="#000000" transform="translate(182,32)"/>
<path d="M0 0 C1 4 1 4 1 4 Z " fill="#000000" transform="translate(352,31)"/>
<path d="M0 0 C1 4 1 4 1 4 Z " fill="#000000" transform="translate(315,31)"/>
<path d="M0 0 C1 4 1 4 1 4 Z " fill="#000000" transform="translate(114,30)"/>
<path d="M0 0 C1 4 1 4 1 4 Z " fill="#000000" transform="translate(132,29)"/>
<path d="M0 0 C4 1 4 1 4 1 Z " fill="#000000" transform="translate(340,28)"/>
<path d="M0 0 C4 1 4 1 4 1 Z " fill="#000000" transform="translate(331,28)"/>
<path d="M0 0 C4 1 4 1 4 1 Z " fill="#000000" transform="translate(289,28)"/>
<path d="M0 0 C4 1 4 1 4 1 Z " fill="#000000" transform="translate(257,28)"/>
<path d="M0 0 C4 1 4 1 4 1 Z " fill="#000000" transform="translate(246,28)"/>
<path d="M0 0 C1 4 1 4 1 4 Z " fill="#000000" transform="translate(212,27)"/>
<path d="M0 0 C4 1 4 1 4 1 Z " fill="#000000" transform="translate(165,28)"/>
<path d="M0 0 C4 1 4 1 4 1 Z " fill="#000000" transform="translate(156,28)"/>
<path d="M0 0 C1 4 1 4 1 4 Z " fill="#000000" transform="translate(101,27)"/>
<path d="M0 0 C1 4 1 4 1 4 Z " fill="#000000" transform="translate(316,26)"/>
<path d="M0 0 C4 1 4 1 4 1 Z " fill="#000000" transform="translate(293,27)"/>
<path d="M0 0 C4 1 4 1 4 1 Z " fill="#000000" transform="translate(161,27)"/>
<path d="M0 0 C1 4 1 4 1 4 Z " fill="#EF3A97" transform="translate(81,25)"/>
<path d="M0 0 C1 4 1 4 1 4 Z " fill="#000000" transform="translate(360,23)"/>
<path d="M0 0 C1 4 1 4 1 4 Z " fill="#000000" transform="translate(303,23)"/>
<path d="M0 0 C1 4 1 4 1 4 Z " fill="#000000" transform="translate(102,22)"/>
<path d="M0 0 C1 4 1 4 1 4 Z " fill="#F5114B" transform="translate(26,21)"/>
<path d="M0 0 C1 4 1 4 1 4 Z " fill="#000000" transform="translate(214,18)"/>
<path d="M0 0 C1 4 1 4 1 4 Z " fill="#000000" transform="translate(185,18)"/>
<path d="M0 0 C1 4 1 4 1 4 Z " fill="#000000" transform="translate(375,17)"/>
<path d="M0 0 C1 4 1 4 1 4 Z " fill="#000000" transform="translate(318,17)"/>
<path d="M0 0 C1 4 1 4 1 4 Z " fill="#000000" transform="translate(305,14)"/>
<path d="M0 0 C1 4 1 4 1 4 Z " fill="#F41458" transform="translate(26,14)"/>
<path d="M0 0 C1 4 1 4 1 4 Z " fill="#000000" transform="translate(215,13)"/>
<path d="M0 0 C1 4 1 4 1 4 Z " fill="#000000" transform="translate(186,13)"/>
<path d="M0 0 C1 4 1 4 1 4 Z " fill="#000001" transform="translate(104,13)"/>
<path d="M0 0 C1 4 1 4 1 4 Z " fill="#000000" transform="translate(319,12)"/>
<path d="M0 0 C4 1 4 1 4 1 Z " fill="#000000" transform="translate(119,8)"/>
<path d="M0 0 C3 1 3 1 3 1 Z " fill="#000000" transform="translate(370,72)"/>
<path d="M0 0 C3 1 3 1 3 1 Z " fill="#000000" transform="translate(324,72)"/>
<path d="M0 0 C3 1 3 1 3 1 Z " fill="#000000" transform="translate(288,72)"/>
<path d="M0 0 C3 1 3 1 3 1 Z " fill="#000000" transform="translate(280,72)"/>
<path d="M0 0 C3 1 3 1 3 1 Z " fill="#000000" transform="translate(245,72)"/>
<path d="M0 0 C3 1 3 1 3 1 Z " fill="#000000" transform="translate(237,72)"/>
<path d="M0 0 C3 1 3 1 3 1 Z " fill="#000000" transform="translate(159,72)"/>
<path d="M0 0 C3 1 3 1 3 1 Z " fill="#000000" transform="translate(149,72)"/>
<path d="" fill="#F02265" transform="translate(0,0)"/>
<path d="M0 0 C3 1 3 1 3 1 Z " fill="#ED2767" transform="translate(47,63)"/>
<path d="M0 0 C3 1 3 1 3 1 Z " fill="#DF2550" transform="translate(34,63)"/>
<path d="" fill="#000000" transform="translate(0,0)"/>
<path d="" fill="#000000" transform="translate(0,0)"/>
<path d="" fill="#E82383" transform="translate(0,0)"/>
<path d="" fill="#D73A61" transform="translate(0,0)"/>
<path d="" fill="#000000" transform="translate(0,0)"/>
<path d="" fill="#000000" transform="translate(0,0)"/>
<path d="" fill="#000000" transform="translate(0,0)"/>
<path d="" fill="#000000" transform="translate(0,0)"/>
<path d="" fill="#EF071F" transform="translate(0,0)"/>
<path d="" fill="#000000" transform="translate(0,0)"/>
<path d="" fill="#000000" transform="translate(0,0)"/>
<path d="" fill="#000000" transform="translate(0,0)"/>
<path d="" fill="#000000" transform="translate(0,0)"/>
<path d="" fill="#000000" transform="translate(0,0)"/>
<path d="" fill="#000000" transform="translate(0,0)"/>
<path d="" fill="#000000" transform="translate(0,0)"/>
<path d="" fill="#000000" transform="translate(0,0)"/>
<path d="" fill="#000000" transform="translate(0,0)"/>
<path d="" fill="#DA2864" transform="translate(0,0)"/>
<path d="M0 0 C0.66 0 1.32 0 2 0 C1.67 0.66 1.34 1.32 1 2 C0.67 1.34 0.34 0.68 0 0 Z " fill="#000000" transform="translate(173,32)"/>
<path d="" fill="#F1041F" transform="translate(0,0)"/>
<path d="M0 0 C3 1 3 1 3 1 Z " fill="#000000" transform="translate(298,28)"/>
<path d="" fill="#000000" transform="translate(0,0)"/>
<path d="" fill="#D22D6F" transform="translate(0,0)"/>
<path d="" fill="#000000" transform="translate(0,0)"/>
<path d="" fill="#DC1B68" transform="translate(0,0)"/>
<path d="M0 0 C3 1 3 1 3 1 Z " fill="#F32A72" transform="translate(34,18)"/>
<path d="" fill="#000000" transform="translate(0,0)"/>
<path d="M0 0 C3 1 3 1 3 1 Z " fill="#000000" transform="translate(107,10)"/>
<path d="M0 0 C2 1 2 1 2 1 Z " fill="#000000" transform="translate(310,72)"/>
<path d="M0 0 C2 1 2 1 2 1 Z " fill="#000000" transform="translate(303,72)"/>
<path d="M0 0 C2 1 2 1 2 1 Z " fill="#000000" transform="translate(266,72)"/>
<path d="M0 0 C2 1 2 1 2 1 Z " fill="#000000" transform="translate(259,72)"/>
<path d="M0 0 C2 1 2 1 2 1 Z " fill="#000000" transform="translate(227,72)"/>
<path d="M0 0 C2 1 2 1 2 1 Z " fill="#000000" transform="translate(217,72)"/>
<path d="M0 0 C2 1 2 1 2 1 Z " fill="#000000" transform="translate(337,71)"/>
<path d="M0 0 C2 1 2 1 2 1 Z " fill="#000000" transform="translate(162,71)"/>
<path d="M0 0 C2 1 2 1 2 1 Z " fill="#000000" transform="translate(147,71)"/>
<path d="M0 0 C2 1 2 1 2 1 Z " fill="#DA1859" transform="translate(14,71)"/>
<path d="" fill="#000000" transform="translate(0,0)"/>
<path d="" fill="#FC0660" transform="translate(0,0)"/>
<path d="" fill="#000000" transform="translate(0,0)"/>
<path d="M0 0 C2 1 2 1 2 1 Z " fill="#000000" transform="translate(232,69)"/>
<path d="" fill="#F8097E" transform="translate(0,0)"/>
<path d="M0 0 C2 1 2 1 2 1 Z " fill="#000000" transform="translate(273,67)"/>
<path d="" fill="#000000" transform="translate(0,0)"/>
<path d="" fill="#000000" transform="translate(0,0)"/>
<path d="" fill="#000000" transform="translate(0,0)"/>
<path d="" fill="#E50B57" transform="translate(0,0)"/>
<path d="" fill="#000000" transform="translate(0,0)"/>
<path d="" fill="#000000" transform="translate(0,0)"/>
<path d="" fill="#000000" transform="translate(0,0)"/>
<path d="" fill="#E9155E" transform="translate(0,0)"/>
<path d="M0 0 C2 1 2 1 2 1 Z " fill="#E53470" transform="translate(50,64)"/>
<path d="M0 0 C2 1 2 1 2 1 Z " fill="#E33C71" transform="translate(32,64)"/>
<path d="" fill="#D31728" transform="translate(0,0)"/>
<path d="" fill="#000000" transform="translate(0,0)"/>
<path d="" fill="#FF0766" transform="translate(0,0)"/>
<path d="" fill="#D31650" transform="translate(0,0)"/>
<path d="" fill="#000000" transform="translate(0,0)"/>
<path d="" fill="#E6185F" transform="translate(0,0)"/>
<path d="" fill="#000000" transform="translate(0,0)"/>
<path d="" fill="#000000" transform="translate(0,0)"/>
<path d="" fill="#F81A73" transform="translate(0,0)"/>
<path d="" fill="#000000" transform="translate(0,0)"/>
<path d="" fill="#000000" transform="translate(0,0)"/>
<path d="" fill="#000000" transform="translate(0,0)"/>
<path d="" fill="#EA3072" transform="translate(0,0)"/>
<path d="" fill="#000000" transform="translate(0,0)"/>
<path d="" fill="#000000" transform="translate(0,0)"/>
<path d="" fill="#000000" transform="translate(0,0)"/>
<path d="" fill="#000000" transform="translate(0,0)"/>
<path d="" fill="#FA2F96" transform="translate(0,0)"/>
<path d="" fill="#F30B63" transform="translate(0,0)"/>
<path d="" fill="#000000" transform="translate(0,0)"/>
<path d="" fill="#000000" transform="translate(0,0)"/>
<path d="" fill="#000000" transform="translate(0,0)"/>
<path d="M0 0 C2 1 2 1 2 1 Z " fill="#000000" transform="translate(128,53)"/>
<path d="" fill="#000000" transform="translate(0,0)"/>
<path d="" fill="#DF145C" transform="translate(0,0)"/>
<path d="" fill="#F31B6C" transform="translate(0,0)"/>
<path d="" fill="#000000" transform="translate(0,0)"/>
<path d="" fill="#000000" transform="translate(0,0)"/>
<path d="" fill="#000000" transform="translate(0,0)"/>
<path d="" fill="#000000" transform="translate(0,0)"/>
<path d="" fill="#000000" transform="translate(0,0)"/>
<path d="" fill="#000000" transform="translate(0,0)"/>
<path d="" fill="#000000" transform="translate(0,0)"/>
<path d="" fill="#000000" transform="translate(0,0)"/>
<path d="" fill="#000000" transform="translate(0,0)"/>
<path d="" fill="#FF11A4" transform="translate(0,0)"/>
<path d="" fill="#000000" transform="translate(0,0)"/>
<path d="" fill="#000000" transform="translate(0,0)"/>
<path d="" fill="#000000" transform="translate(0,0)"/>
<path d="" fill="#000000" transform="translate(0,0)"/>
<path d="" fill="#000000" transform="translate(0,0)"/>
<path d="" fill="#000000" transform="translate(0,0)"/>
<path d="" fill="#000000" transform="translate(0,0)"/>
<path d="" fill="#000000" transform="translate(0,0)"/>
<path d="" fill="#000000" transform="translate(0,0)"/>
<path d="" fill="#000000" transform="translate(0,0)"/>
<path d="" fill="#000000" transform="translate(0,0)"/>
<path d="" fill="#000000" transform="translate(0,0)"/>
<path d="" fill="#000000" transform="translate(0,0)"/>
<path d="" fill="#000000" transform="translate(0,0)"/>
<path d="" fill="#000000" transform="translate(0,0)"/>
<path d="" fill="#FF1A8D" transform="translate(0,0)"/>
<path d="" fill="#000000" transform="translate(0,0)"/>
<path d="" fill="#000000" transform="translate(0,0)"/>
<path d="" fill="#DE2462" transform="translate(0,0)"/>
<path d="" fill="#000000" transform="translate(0,0)"/>
<path d="" fill="#000000" transform="translate(0,0)"/>
<path d="" fill="#DD0E54" transform="translate(0,0)"/>
<path d="" fill="#E41A5C" transform="translate(0,0)"/>
<path d="M0 0 C2 1 2 1 2 1 Z " fill="#000000" transform="translate(329,29)"/>
<path d="M0 0 C2 1 2 1 2 1 Z " fill="#000000" transform="translate(287,29)"/>
<path d="M0 0 C2 1 2 1 2 1 Z " fill="#000000" transform="translate(244,29)"/>
<path d="M0 0 C2 1 2 1 2 1 Z " fill="#000000" transform="translate(154,29)"/>
<path d="" fill="#F4106A" transform="translate(0,0)"/>
<path d="" fill="#F20344" transform="translate(0,0)"/>
<path d="" fill="#E40E4B" transform="translate(0,0)"/>
<path d="" fill="#FF2685" transform="translate(0,0)"/>
<path d="" fill="#EB1973" transform="translate(0,0)"/>
<path d="" fill="#000000" transform="translate(0,0)"/>
<path d="" fill="#D41955" transform="translate(0,0)"/>
<path d="" fill="#FE0BAA" transform="translate(0,0)"/>
<path d="" fill="#D2181D" transform="translate(0,0)"/>
<path d="" fill="#000000" transform="translate(0,0)"/>
<path d="M0 0 C2 1 2 1 2 1 Z " fill="#D72065" transform="translate(32,17)"/>
<path d="" fill="#010001" transform="translate(0,0)"/>
<path d="" fill="#FA0874" transform="translate(0,0)"/>
<path d="" fill="#010001" transform="translate(0,0)"/>
<path d="" fill="#EC0174" transform="translate(0,0)"/>
<path d="M0 0 C2 1 2 1 2 1 Z " fill="#D9365B" transform="translate(68,10)"/>
<path d="" fill="#E42F6C" transform="translate(0,0)"/>
<path d="" fill="#E72E6C" transform="translate(0,0)"/>
<path d="" fill="#F6246B" transform="translate(0,0)"/>
<path d="" fill="#E8144E" transform="translate(0,0)"/>
<path d="" fill="#FA216A" transform="translate(0,0)"/>
<path d="" fill="#000000" transform="translate(0,0)"/>
<path d="" fill="#EE2D71" transform="translate(0,0)"/>
<path d="" fill="#000000" transform="translate(0,0)"/>
<path d="" fill="#000000" transform="translate(0,0)"/>
<path d="" fill="#FF1167" transform="translate(0,0)"/>
<path d="" fill="#FF197A" transform="translate(0,0)"/>
<path d="" fill="#000000" transform="translate(0,0)"/>
<path d="" fill="#000000" transform="translate(0,0)"/>
<path d="" fill="#000000" transform="translate(0,0)"/>
<path d="" fill="#000000" transform="translate(0,0)"/>
<path d="" fill="#000000" transform="translate(0,0)"/>
<path d="" fill="#000000" transform="translate(0,0)"/>
<path d="" fill="#000100" transform="translate(0,0)"/>
<path d="" fill="#F6066C" transform="translate(0,0)"/>
<path d="" fill="#FF1083" transform="translate(0,0)"/>
<path d="" fill="#F80C75" transform="translate(0,0)"/>
<path d="" fill="#000000" transform="translate(0,0)"/>
<path d="" fill="#000000" transform="translate(0,0)"/>
<path d="" fill="#000000" transform="translate(0,0)"/>
<path d="" fill="#000000" transform="translate(0,0)"/>
<path d="" fill="#000000" transform="translate(0,0)"/>
<path d="" fill="#000000" transform="translate(0,0)"/>
<path d="" fill="#000000" transform="translate(0,0)"/>
<path d="" fill="#E52666" transform="translate(0,0)"/>
<path d="" fill="#FC047C" transform="translate(0,0)"/>
<path d="" fill="#FB155E" transform="translate(0,0)"/>
<path d="" fill="#F00C60" transform="translate(0,0)"/>
<path d="" fill="#000000" transform="translate(0,0)"/>
<path d="" fill="#000000" transform="translate(0,0)"/>
<path d="" fill="#000000" transform="translate(0,0)"/>
<path d="" fill="#000000" transform="translate(0,0)"/>
<path d="" fill="#ED2266" transform="translate(0,0)"/>
<path d="" fill="#FC0060" transform="translate(0,0)"/>
<path d="" fill="#EE0C62" transform="translate(0,0)"/>
<path d="" fill="#D8195C" transform="translate(0,0)"/>
<path d="" fill="#000000" transform="translate(0,0)"/>
<path d="" fill="#000000" transform="translate(0,0)"/>
<path d="" fill="#000000" transform="translate(0,0)"/>
<path d="" fill="#E61B5F" transform="translate(0,0)"/>
<path d="" fill="#D8195C" transform="translate(0,0)"/>
<path d="" fill="#000000" transform="translate(0,0)"/>
<path d="" fill="#000000" transform="translate(0,0)"/>
<path d="" fill="#000000" transform="translate(0,0)"/>
<path d="" fill="#000000" transform="translate(0,0)"/>
<path d="" fill="#DF2061" transform="translate(0,0)"/>
<path d="" fill="#EC0E60" transform="translate(0,0)"/>
<path d="" fill="#000000" transform="translate(0,0)"/>
<path d="" fill="#FE085B" transform="translate(0,0)"/>
<path d="" fill="#000000" transform="translate(0,0)"/>
<path d="" fill="#000000" transform="translate(0,0)"/>
<path d="" fill="#000000" transform="translate(0,0)"/>
<path d="" fill="#000000" transform="translate(0,0)"/>
<path d="" fill="#000000" transform="translate(0,0)"/>
<path d="" fill="#000000" transform="translate(0,0)"/>
<path d="" fill="#000000" transform="translate(0,0)"/>
<path d="" fill="#000000" transform="translate(0,0)"/>
<path d="" fill="#000000" transform="translate(0,0)"/>
<path d="" fill="#D71252" transform="translate(0,0)"/>
<path d="" fill="#E0135D" transform="translate(0,0)"/>
<path d="" fill="#E20B56" transform="translate(0,0)"/>
<path d="" fill="#000000" transform="translate(0,0)"/>
<path d="" fill="#DC0351" transform="translate(0,0)"/>
<path d="" fill="#000000" transform="translate(0,0)"/>
<path d="" fill="#EE1560" transform="translate(0,0)"/>
<path d="" fill="#000000" transform="translate(0,0)"/>
<path d="" fill="#D50049" transform="translate(0,0)"/>
<path d="" fill="#000000" transform="translate(0,0)"/>
<path d="" fill="#F00454" transform="translate(0,0)"/>
<path d="" fill="#FE4785" transform="translate(0,0)"/>
<path d="" fill="#000000" transform="translate(0,0)"/>
<path d="" fill="#000000" transform="translate(0,0)"/>
<path d="" fill="#000000" transform="translate(0,0)"/>
<path d="" fill="#FF217B" transform="translate(0,0)"/>
<path d="" fill="#D82461" transform="translate(0,0)"/>
<path d="" fill="#FD1F6A" transform="translate(0,0)"/>
<path d="" fill="#000000" transform="translate(0,0)"/>
<path d="" fill="#000000" transform="translate(0,0)"/>
<path d="" fill="#000000" transform="translate(0,0)"/>
<path d="" fill="#FF077E" transform="translate(0,0)"/>
<path d="" fill="#000000" transform="translate(0,0)"/>
<path d="" fill="#000000" transform="translate(0,0)"/>
<path d="" fill="#000000" transform="translate(0,0)"/>
<path d="" fill="#000000" transform="translate(0,0)"/>
<path d="" fill="#000000" transform="translate(0,0)"/>
<path d="" fill="#000000" transform="translate(0,0)"/>
<path d="" fill="#000000" transform="translate(0,0)"/>
<path d="" fill="#000000" transform="translate(0,0)"/>
<path d="" fill="#000000" transform="translate(0,0)"/>
<path d="" fill="#000000" transform="translate(0,0)"/>
<path d="" fill="#000000" transform="translate(0,0)"/>
<path d="" fill="#000000" transform="translate(0,0)"/>
<path d="" fill="#EA0C59" transform="translate(0,0)"/>
<path d="" fill="#FA0722" transform="translate(0,0)"/>
<path d="" fill="#000000" transform="translate(0,0)"/>
<path d="" fill="#000000" transform="translate(0,0)"/>
<path d="" fill="#000000" transform="translate(0,0)"/>
<path d="" fill="#E6125C" transform="translate(0,0)"/>
<path d="" fill="#CE1C46" transform="translate(0,0)"/>
<path d="" fill="#E8144E" transform="translate(0,0)"/>
<path d="" fill="#000000" transform="translate(0,0)"/>
<path d="" fill="#000000" transform="translate(0,0)"/>
<path d="" fill="#000000" transform="translate(0,0)"/>
<path d="" fill="#FF1765" transform="translate(0,0)"/>
<path d="" fill="#000000" transform="translate(0,0)"/>
<path d="" fill="#000000" transform="translate(0,0)"/>
<path d="" fill="#000000" transform="translate(0,0)"/>
<path d="" fill="#000000" transform="translate(0,0)"/>
<path d="" fill="#000000" transform="translate(0,0)"/>
<path d="" fill="#000000" transform="translate(0,0)"/>
<path d="" fill="#F11A72" transform="translate(0,0)"/>
<path d="" fill="#000000" transform="translate(0,0)"/>
<path d="" fill="#000000" transform="translate(0,0)"/>
<path d="" fill="#000000" transform="translate(0,0)"/>
<path d="" fill="#000000" transform="translate(0,0)"/>
<path d="" fill="#000000" transform="translate(0,0)"/>
<path d="" fill="#FF0D79" transform="translate(0,0)"/>
<path d="" fill="#000000" transform="translate(0,0)"/>
<path d="" fill="#000000" transform="translate(0,0)"/>
<path d="" fill="#000000" transform="translate(0,0)"/>
<path d="" fill="#000000" transform="translate(0,0)"/>
<path d="" fill="#000000" transform="translate(0,0)"/>
<path d="" fill="#000000" transform="translate(0,0)"/>
<path d="" fill="#000000" transform="translate(0,0)"/>
<path d="" fill="#E10E5C" transform="translate(0,0)"/>
<path d="" fill="#000000" transform="translate(0,0)"/>
<path d="" fill="#000000" transform="translate(0,0)"/>
<path d="" fill="#EE1C65" transform="translate(0,0)"/>
<path d="" fill="#CF1954" transform="translate(0,0)"/>
<path d="" fill="#000000" transform="translate(0,0)"/>
<path d="" fill="#000000" transform="translate(0,0)"/>
<path d="" fill="#F20356" transform="translate(0,0)"/>
<path d="" fill="#FA1B7F" transform="translate(0,0)"/>
<path d="" fill="#FF1868" transform="translate(0,0)"/>
<path d="" fill="#000000" transform="translate(0,0)"/>
<path d="" fill="#020002" transform="translate(0,0)"/>
<path d="" fill="#E2165B" transform="translate(0,0)"/>
<path d="" fill="#D72966" transform="translate(0,0)"/>
<path d="" fill="#E11E5F" transform="translate(0,0)"/>
<path d="" fill="#F81468" transform="translate(0,0)"/>
<path d="" fill="#FF0D63" transform="translate(0,0)"/>
<path d="" fill="#000000" transform="translate(0,0)"/>
<path d="" fill="#E11E5F" transform="translate(0,0)"/>
<path d="" fill="#FF0063" transform="translate(0,0)"/>
<path d="" fill="#F60C6D" transform="translate(0,0)"/>
<path d="" fill="#FE0277" transform="translate(0,0)"/>
<path d="" fill="#000000" transform="translate(0,0)"/>
<path d="" fill="#020002" transform="translate(0,0)"/>
<path d="" fill="#000000" transform="translate(0,0)"/>
<path d="" fill="#F30464" transform="translate(0,0)"/>
<path d="" fill="#FF016A" transform="translate(0,0)"/>
<path d="" fill="#FF0E88" transform="translate(0,0)"/>
<path d="" fill="#F2085B" transform="translate(0,0)"/>
<path d="" fill="#F8005E" transform="translate(0,0)"/>
<path d="" fill="#D2185B" transform="translate(0,0)"/>
<path d="" fill="#EE2166" transform="translate(0,0)"/>
<path d="" fill="#DB195F" transform="translate(0,0)"/>
<path d="" fill="#D80D52" transform="translate(0,0)"/>
<path d="" fill="#E1165F" transform="translate(0,0)"/>
<path d="" fill="#FF4F91" transform="translate(0,0)"/>
<path d="" fill="#E2155F" transform="translate(0,0)"/>
<path d="" fill="#D71D5E" transform="translate(0,0)"/>
</svg>
