<svg xmlns="http://www.w3.org/2000/svg" width="131" height="105" viewBox="0 0 131 105" fill="none">
  <path d="M99.3835 89.8696C95.8362 85.7366 92.6195 81.3459 89.7687 76.7316C86.9228 72.1269 84.4276 67.3327 81.9224 62.5433C81.707 62.13 81.4915 61.7215 81.2761 61.3082C83.4806 58.9695 85.6301 56.5869 87.6843 54.1314C90.7557 50.4555 93.5665 46.5754 95.8362 42.3792C96.2621 41.5915 95.5556 40.6385 94.6387 40.867C87.524 42.6466 80.3792 44.3241 73.2094 45.8946L65.9945 32.1099L56.9758 14.873C56.5099 13.9832 54.9266 14.3819 55.0017 15.3932C55.8685 27.0093 54.7362 38.5282 53.0727 50.0033C50.5275 50.4847 47.9822 50.9515 45.4369 51.4085C40.7923 52.2351 36.1427 53.0131 31.4831 53.7522C30.5912 53.8932 30.4459 55.2595 31.2276 55.6339C37.8112 58.775 44.2745 62.1494 50.6026 65.7476C50.0214 69.3797 49.4553 73.007 48.9492 76.6392C48.1626 82.3087 47.5213 87.9927 47.2006 93.706C47.1505 94.5958 48.3981 95.0626 49.0093 94.4353L67.1068 75.8515C72.037 79.0947 76.872 82.474 81.5917 85.9992C83.7362 87.6037 85.8055 89.325 87.995 90.8664C90.0092 92.2813 92.2588 93.2829 94.784 92.8307C95.3001 92.7384 95.731 92.0479 95.5256 91.5665C93.0805 85.8727 89.949 80.5096 86.1161 75.5792C85.9357 75.3458 85.6652 75.2145 85.3796 75.1659C83.0798 72.0589 80.6498 69.0442 78.0945 66.1268L78.0093 66.015C77.9442 65.9275 77.874 65.8545 77.7989 65.7913C77.6686 65.6454 77.5384 65.4947 77.4081 65.3488C78.1903 64.5469 78.9686 63.7413 79.7429 62.9323C82.178 67.5904 84.598 72.2582 87.3186 76.7656C90.415 81.9002 93.9573 86.7626 97.8804 91.3331C98.7572 92.3494 100.25 90.8907 99.3785 89.8793L99.3835 89.8696ZM65.8341 60.5643C65.7239 60.822 65.6187 61.0846 65.5085 61.3423C64.8772 61.1137 64.2509 60.8852 63.6196 60.6567C63.2137 60.5011 62.8079 60.3455 62.402 60.185C62.7077 60.01 62.9883 59.8155 63.2388 59.6113C64.3611 59.7328 65.4884 59.8301 66.6158 59.903C66.2851 59.976 65.9845 60.1899 65.8291 60.5643H65.8341ZM76.416 73.5321C74.9831 72.5791 73.5251 71.6601 72.042 70.7898C72.1372 70.6925 72.2374 70.5953 72.3326 70.498C73.1292 70.9891 73.9109 71.4948 74.6875 72.0102C75.2586 72.5256 75.8348 73.0313 76.416 73.537V73.5321ZM61.395 48.3696C61.3749 48.1362 61.3549 47.8979 61.3298 47.6645C61.4902 47.7618 61.6705 47.825 61.8509 47.8493C61.901 47.9757 61.9561 48.1119 62.0112 48.248C61.8058 48.2918 61.6004 48.3307 61.395 48.3744V48.3696ZM60.423 50.7375C60.423 50.7084 60.428 50.684 60.433 50.6549C60.939 50.5528 61.4401 50.4555 61.9461 50.3534C61.5803 50.4555 61.2146 50.5625 60.8488 50.6695C60.7085 50.6938 60.5682 50.7181 60.428 50.7375H60.423ZM61.3048 52.9985C61.1344 52.9985 60.9591 52.9985 60.7887 53.0082L61.5954 52.7894C61.9311 52.7505 62.2618 52.7165 62.5974 52.6776C62.1666 52.7894 61.7357 52.8964 61.3048 52.9985ZM66.8062 64.921C66.6709 64.8529 66.5356 64.7897 66.4003 64.7216C66.4955 64.5125 66.5907 64.3034 66.6809 64.0944C66.731 64.1965 66.8011 64.2986 66.8963 64.3958C66.9414 64.4445 66.9915 64.4931 67.0366 64.5417C66.9615 64.6681 66.8863 64.7945 66.8062 64.921ZM64.7118 63.2678L64.4864 63.8075C63.9402 63.5546 63.3941 63.3018 62.843 63.0538C62.0263 62.5968 61.2146 62.1348 60.4029 61.6681C61.2296 61.9695 62.0563 62.2661 62.878 62.5676C63.4843 62.801 64.0956 63.0344 64.7068 63.2629L64.7118 63.2678ZM54.626 76.0362C54.7061 76.1189 54.8013 76.187 54.9065 76.2356C54.7262 76.4739 54.5508 76.7121 54.3754 76.9552C54.4406 76.6927 54.5057 76.4301 54.5809 76.1675C54.5909 76.1286 54.6059 76.0849 54.626 76.0411V76.0362ZM59.4058 71.947C59.3307 71.947 59.2505 71.9519 59.1704 71.9713C59.1353 71.8887 59.0952 71.8012 59.0601 71.7185C59.1704 71.7963 59.2856 71.8741 59.4008 71.947H59.4058ZM68.8103 68.9616C68.7802 68.9324 68.7502 68.9032 68.7251 68.874C69.2612 69.0977 69.8023 69.3214 70.3385 69.545C70.2833 69.5985 70.2332 69.6569 70.1781 69.7104C69.7272 69.4575 69.2713 69.2095 68.8153 68.9616H68.8103ZM68.2191 62.3196C67.9886 62.2369 67.7531 62.1494 67.5226 62.0668C67.6479 61.7458 67.7681 61.4298 67.8884 61.1089C68.0537 60.6518 67.8984 60.2969 67.6078 60.0878C67.7581 60.0878 67.9134 60.0586 68.0838 59.9808C68.4496 59.9954 68.8103 60.01 69.1761 60.0197C68.8955 60.8026 68.5748 61.5708 68.2241 62.3245L68.2191 62.3196ZM69.2462 56.5966C69.126 56.6842 69.0107 56.7717 68.8905 56.8543C68.2541 56.655 67.6178 56.4605 66.9765 56.2806C67.3823 56.1542 67.7932 56.0277 68.199 55.8965C68.5397 56.1396 68.8905 56.373 69.2512 56.5966H69.2462ZM55.5178 68.5872C55.5178 68.7379 55.5529 68.8983 55.623 69.0539C55.7733 69.3943 55.9186 69.7347 56.0689 70.075C55.7182 69.7833 55.3625 69.4964 55.0118 69.2047C55.0017 68.9567 54.9917 68.7087 54.9717 68.4559C54.9667 68.3781 54.9466 68.3003 54.9266 68.2273C55.127 68.344 55.3224 68.4656 55.5228 68.5823L55.5178 68.5872ZM70.2483 64.3521C70.4236 63.9874 70.4036 63.5157 70.128 63.1754C70.604 62.1543 71.0199 61.1089 71.3756 60.0392H71.6161C71.2103 61.6486 71.07 63.3212 71.2153 64.989C71.2153 65.0328 71.2253 65.0765 71.2353 65.1203C70.9096 64.8626 70.579 64.6098 70.2483 64.3521ZM67.5126 45.2382C67.197 44.1734 66.8462 43.1231 66.4504 42.0874C66.9414 42.6515 67.4525 43.2009 67.9836 43.7309C68.7852 44.6499 69.5869 45.5737 70.3886 46.4927C69.8074 46.6191 69.2211 46.7407 68.6399 46.8622C68.2692 46.3177 67.8984 45.7731 67.5126 45.2334V45.2382ZM73.7305 66.0587C73.5401 66.2581 73.3447 66.4526 73.1543 66.6519L72.3626 66.015C72.5931 66.0053 72.8236 65.9129 73.029 65.7184C73.0892 65.66 73.1493 65.6017 73.2044 65.5433C73.3146 65.6503 73.4449 65.7281 73.5902 65.7767C73.6353 65.8691 73.6854 65.9664 73.7305 66.0587ZM68.8153 53.5091C68.7752 53.4799 68.7351 53.4507 68.6951 53.4264C69.0809 53.2319 69.4616 53.0326 69.8474 52.8381C69.8925 52.9207 69.9426 53.0082 69.9877 53.0909C69.5969 53.2319 69.2061 53.3729 68.8153 53.5091ZM71.9718 52.3372C71.8867 52.1816 71.8015 52.0309 71.7163 51.8753C72.3075 51.5739 72.9038 51.2675 73.495 50.9661C73.6002 51.1703 73.7104 51.3745 73.8157 51.5787C73.2042 51.8402 72.5895 52.0947 71.9718 52.3421V52.3372ZM63.0835 31.8133C63.0384 31.473 62.9933 31.1326 62.9432 30.7922C63.359 31.5897 63.7799 32.392 64.1958 33.1894C63.835 32.7226 63.4592 32.2655 63.0835 31.8085V31.8133ZM60.7536 27.622C60.7336 27.4518 60.7136 27.2768 60.6985 27.1066C60.5532 25.8181 58.4839 25.7646 58.5791 27.1066C58.6493 28.1617 58.6994 29.2168 58.7194 30.2671C58.6192 30.34 58.534 30.4276 58.4639 30.5297C58.3186 30.5637 58.1833 30.6318 58.0731 30.7388L58.043 30.4081C57.9929 29.9073 57.6773 29.5961 57.3015 29.4746C57.4368 26.3675 57.4718 23.2556 57.3716 20.1486C58.6393 22.5749 59.9069 24.9963 61.1745 27.4226C61.0192 27.4615 60.8739 27.5345 60.7536 27.6317V27.622ZM53.2231 64.3812C53.198 64.5174 53.173 64.6487 53.1429 64.7848L52.9174 64.6535C52.9375 64.5125 52.9625 64.3764 52.9826 64.2354C53.0627 64.284 53.1429 64.3326 53.218 64.3812H53.2231ZM60.2275 75.4674C60.7486 74.9957 61.2697 74.5241 61.7908 74.0573C61.1592 74.9658 60.4733 75.8377 59.7365 76.6684C59.9219 76.2794 60.0822 75.8758 60.2275 75.4722V75.4674ZM92.7999 43.4392C92.0734 44.6548 91.3068 45.8412 90.5002 46.9984C90.7357 46.2642 89.914 45.6661 89.2175 45.7925C88.8868 45.6856 88.486 45.7293 88.1303 46.0016C87.6643 46.3663 87.2084 46.7358 86.7524 47.1151C86.4768 47.2707 86.2013 47.4214 85.9307 47.577C85.7403 47.3047 85.4247 47.1054 85.099 47.0567C84.8585 46.3177 83.7211 45.953 83.175 46.8088C82.9095 47.2269 82.6389 47.6402 82.3633 48.0535C82.2431 47.9368 82.0978 47.8493 81.9324 47.8104C81.8222 46.9498 80.4143 46.799 79.9584 47.5333L78.9663 49.1281C77.9041 49.6824 76.8269 50.2173 75.7396 50.7181L75.3639 50.0033L79.3621 47.9514C79.9584 47.6451 79.9934 46.9984 79.7078 46.5413C80.289 46.4101 80.8753 46.2788 81.4565 46.1426C85.2443 45.2723 89.0221 44.3679 92.7949 43.4343L92.7999 43.4392ZM55.4928 48.0243C55.7082 48.1702 55.9838 48.248 56.2543 48.2383L56.104 49.4101C55.8284 49.4636 55.5529 49.5171 55.2723 49.5706C55.3475 49.0552 55.4176 48.5398 55.4928 48.0243ZM46.6895 61.1672C42.8917 59.1007 39.0487 57.1218 35.1607 55.2206C36.6388 54.9823 38.1168 54.7344 39.5949 54.4815C39.5798 54.5496 39.5648 54.6177 39.5598 54.6857C39.3544 55.1914 39.5097 55.7992 40.2061 55.9597C40.0859 56.3487 40.1961 56.7863 40.6921 57.0634C41.0228 57.2482 41.3535 57.4281 41.6842 57.608C41.7944 57.8414 41.9898 58.0456 42.2854 58.1623C42.7915 58.3665 43.2975 58.5562 43.8136 58.7312C45.0862 59.3828 46.3689 60.01 47.6666 60.6129C48.7688 61.4395 49.8962 62.2369 51.0486 63.0003C51.0185 63.1802 50.9884 63.3601 50.9634 63.5401C49.5455 62.7378 48.1225 61.9452 46.6946 61.1672H46.6895ZM52.727 66.9486C52.6819 67.1868 52.6368 67.4251 52.5918 67.6584C52.5366 67.9453 52.6068 68.2079 52.7471 68.4267C52.5216 68.8692 52.3062 69.3214 52.1057 69.7736C52.2561 68.8011 52.4114 67.8286 52.5667 66.8513C52.6218 66.8805 52.6769 66.9145 52.732 66.9437L52.727 66.9486ZM58.7896 81.38C55.6982 84.5551 52.6018 87.7302 49.5104 90.9101C49.6206 89.4174 49.7509 87.9246 49.9012 86.4368C50.1617 86.3784 50.4022 86.2326 50.5575 85.9846C50.6026 85.9165 50.6377 85.8484 50.6828 85.7804C50.9985 85.9019 51.3792 85.9019 51.6498 85.7317C52.4314 85.2504 53.178 84.7106 53.8794 84.132C53.9746 84.0785 54.0698 84.0202 54.16 83.9618C54.3053 83.923 54.4456 83.8403 54.5809 83.7041C58.5541 81.2438 61.8709 77.9082 64.301 74.0087C64.6467 74.2275 64.9874 74.4511 65.3331 74.6748C63.1486 76.9115 60.9691 79.1433 58.7896 81.38ZM82.664 84.2001C78.881 81.3764 75.0286 78.6413 71.1101 75.9974C70.8545 75.8223 70.594 75.657 70.3385 75.4819C70.9146 75.4625 71.4257 75.02 71.4558 74.5095C71.6311 74.6116 71.8115 74.7137 71.9869 74.8158C77.5203 79.6956 83.6068 83.9499 90.1294 87.4968C90.5453 87.7204 90.9611 87.6475 91.2668 87.4238C91.858 88.5519 92.4141 89.6945 92.9402 90.8518C91.1615 90.6427 89.5282 89.432 88.1653 88.3914C86.3315 86.9911 84.5128 85.5713 82.664 84.1904V84.2001ZM75.9751 63.7345L75.7196 63.4574C75.8649 63.049 75.9952 62.6357 76.1054 62.2175C76.2307 62.0522 76.3559 61.882 76.4762 61.7118C77.1926 61.386 77.8841 61.0311 78.5655 60.647C78.6106 60.7345 78.6557 60.822 78.7008 60.9047C78.5905 61.0165 78.4853 61.1332 78.3751 61.245C77.5784 62.0765 76.7718 62.9031 75.9701 63.7297L75.9751 63.7345Z" fill="#EF4444"/>
  <path d="M40.0207 10.784C38.1779 9.49203 36.2154 8.36887 34.1586 7.42898L26.0569 2.01234C24.9295 1.25868 23.8673 3.04316 24.9846 3.78709C26.1521 4.56993 27.3195 5.3479 28.4869 6.13074C28.3516 6.07239 28.2163 6.01404 28.0861 5.95569C27.084 5.51322 25.7963 6.76284 26.8034 7.56999C28.7875 9.16969 30.7766 10.7694 32.7607 12.3642C33.8029 13.2054 35.311 11.7565 34.2588 10.9104C34.2187 10.8764 34.1787 10.8472 34.1386 10.8132C34.5695 10.9785 35.0154 11.1244 35.4613 11.2459C36.7039 11.7273 37.9464 12.2038 39.199 12.6608C40.4065 13.1033 40.9176 11.4112 40.0157 10.7791L40.0207 10.784ZM21.6578 22.6627C14.8787 20.9025 8.0947 19.1375 1.31568 17.3773C-0.00204927 17.0321 -0.56822 19.0208 0.749506 19.3611C3.97618 20.1975 7.20286 21.0386 10.4295 21.875C10.4145 22.3077 10.645 22.7307 11.1861 22.828L18.3108 24.136C18.5664 24.2332 18.8169 24.3353 19.0674 24.4423C19.3981 24.5833 19.7137 24.5638 19.9793 24.4423L21.0916 24.6465C22.4143 24.8896 22.9905 23.0079 21.6578 22.6627ZM22.0385 72.3946C21.783 72.2244 21.4523 72.1661 21.0916 72.3022C21.2569 71.9084 21.4072 71.5048 21.5425 71.0964C21.9534 69.8273 19.9041 69.2876 19.4983 70.5469C19.1275 71.6896 18.6115 72.7641 17.9701 73.7512C16.6475 74.3682 15.3687 75.0699 14.1422 75.8517C13.9167 75.9684 13.6863 76.0851 13.4608 76.2018C13.2604 76.3039 13.1251 76.4401 13.0399 76.5859C12.7193 76.8096 12.4036 77.0381 12.088 77.2715C12.0178 77.325 11.9427 77.3785 11.8725 77.432C11.2162 77.9279 11.5368 78.6719 12.118 78.9928C11.627 79.7464 12.5539 80.9426 13.581 80.4272C16.8538 78.7838 19.8384 76.6488 22.4243 74.1013C22.9705 73.5616 22.6749 72.628 22.0335 72.3849L22.0385 72.3946ZM26.5579 94.5279C26.3525 94.6495 26.147 94.7662 25.9416 94.8877C26.1621 94.6544 26.3825 94.4258 26.608 94.1924C27.3946 93.3756 26.3625 91.8926 25.3253 92.5781C24.4335 93.1665 23.5316 93.7451 22.6248 94.3189C22.9855 93.8375 23.3412 93.3464 23.687 92.8504C24.4485 91.7467 22.6097 90.7159 21.8582 91.8099C20.32 94.0466 18.5563 96.1033 16.5923 97.9996C15.7455 98.8214 16.8328 100.217 17.8749 99.6139C18.3659 99.3319 18.852 99.0402 19.338 98.7533L19.3179 98.7728C18.5163 99.6091 19.5384 101.009 20.6006 100.387L23.4114 98.7533C22.1488 100.285 20.7559 101.714 19.2277 103.032C18.2056 103.912 19.7087 105.366 20.7258 104.486C23.5923 102.016 26.048 99.1312 28.0059 95.9332C28.547 95.0531 27.4648 93.9931 26.5529 94.5231L26.5579 94.5279ZM120.928 91.1778C120.582 90.8763 120.237 90.5846 119.886 90.288C119.936 89.899 119.801 89.476 119.435 89.2183C118.799 88.7709 117.731 88.0902 116.594 87.5991C115.542 86.7774 114.475 85.9702 113.388 85.1874C113.257 85.095 113.127 85.0367 113.007 85.0124C112.651 84.6671 112.305 84.3219 111.96 83.9621C111.023 82.9945 109.525 84.4532 110.461 85.4159C111.168 86.1453 111.894 86.8503 112.646 87.531C112.606 87.5651 112.561 87.604 112.526 87.6429C111.494 88.7126 112.436 89.9184 113.132 90.8569C113.332 91.1243 113.533 91.3966 113.733 91.664C112.646 91.4744 111.834 93.006 112.962 93.536C114.119 94.0757 115.276 94.6203 116.429 95.16C117.286 95.5588 118.558 94.6641 117.882 93.75L116.013 91.2313C115.702 90.8131 115.392 90.3901 115.081 89.9719C114.976 89.8309 114.795 89.4906 114.61 89.2231C114.625 89.228 114.635 89.2329 114.65 89.2377C116.233 90.5214 117.907 91.7078 119.655 92.7872C120.663 93.4096 121.84 91.9606 120.938 91.1729L120.928 91.1778ZM130.483 72.9343C125.933 70.6101 121.214 68.6166 116.359 66.9634C115.136 66.5452 114.65 68.2033 115.542 68.8451C116.098 69.2438 116.669 69.6279 117.245 69.9975C116.955 70.226 116.795 70.5712 116.965 70.9845C118.042 73.5713 119.916 75.6864 122.466 77.0041C123.669 77.6265 124.741 75.8517 123.538 75.2293C122.085 74.4805 120.848 73.4206 119.936 72.1223C120.778 72.3022 121.615 72.5113 122.441 72.7496C123.894 73.3719 125.392 73.9068 126.92 74.3444C127.211 74.4271 127.482 74.3736 127.702 74.2374C128.353 74.4416 129.005 74.6361 129.661 74.8209C130.799 75.137 131.56 73.4935 130.478 72.9392L130.483 72.9343ZM112.866 23.1489C113.107 22.5946 112.907 21.8263 112.205 21.7291C108.016 21.1505 103.828 21.3304 99.7192 22.3272C98.6921 22.5751 98.8023 23.8345 99.5238 24.2283C98.5268 24.4326 97.5297 24.6416 96.5326 24.8459C95.6959 25.016 95.4354 26.3726 96.2771 26.7276C98.5567 27.6799 101.021 28.1443 103.502 28.089C106.107 28.8378 108.963 28.6531 111.514 27.5688C112.34 27.2187 112.145 26.3191 111.559 25.9058C112.045 25.6287 112.521 25.3272 112.977 25.0014C113.588 24.5687 113.708 23.3969 112.856 23.1538L112.866 23.1489ZM103.893 26.0323C103.627 25.9496 103.372 25.8475 103.116 25.7405C105 25.1716 106.969 24.8799 108.943 24.8653C107.341 25.5325 105.633 25.9273 103.893 26.0323ZM102.239 2.94591C101.663 3.15499 101.087 3.36893 100.511 3.57801C100.751 2.77573 99.6691 2.14849 98.9075 2.47912C98.0548 2.85077 97.2189 3.25796 96.4024 3.69957C96.9234 3.1015 97.4345 2.49371 97.9255 1.87133C98.2762 1.42886 97.9907 0.714099 97.5447 0.461258C96.4224 -0.175708 95.0646 -0.170846 94.0024 0.587678C93.0555 1.26354 93.7369 2.70765 94.6537 2.5472C92.9853 4.43864 91.1565 6.19395 89.1975 7.80338C88.4058 8.45493 89.2476 9.8796 90.2296 9.52464L91.1916 9.17456C91.5273 9.28639 91.9131 9.25235 92.2488 8.9752C92.3891 8.85851 92.5344 8.74667 92.6747 8.63484C93.0104 8.51328 93.346 8.39172 93.6817 8.2653C93.5865 8.35282 93.4964 8.44034 93.4012 8.523C92.5243 9.30584 93.6717 10.784 94.6838 10.1373C97.4746 8.36741 100.265 6.59752 103.056 4.82277C104.003 4.21984 103.422 2.5083 102.239 2.94105V2.94591Z" fill="#858594"/>
  <path d="M102.645 41.0617C103.186 40.4733 102.886 39.1897 101.894 39.3064C93.0153 40.3274 84.0969 41.2464 75.2035 42.287C73.1643 37.9692 71.12 33.6466 69.0758 29.3337C66.3101 23.4989 63.5344 17.669 60.7536 11.8439C60.3828 11.0611 58.9749 11.2458 58.8146 12.0919C56.7202 23.178 54.6309 34.2641 52.5366 45.3502C50.0414 45.7489 47.5463 46.172 45.0611 46.6242C39.8203 47.5821 34.6095 48.7004 29.4589 50.0375C28.552 50.2709 28.4468 51.4573 29.2033 51.9193C35.822 55.955 42.4207 60.0296 48.9893 64.1432L46.6895 76.3233L43.2574 94.5036C43.062 95.5344 44.1994 96.1811 45.0311 95.5052C52.7614 89.2074 60.31 82.7023 67.6679 75.9975C72.563 79.1435 77.4381 82.3088 82.3032 85.4985C87.2234 88.7271 92.1235 91.9752 97.0136 95.2475C98.1409 96.0012 99.2031 94.2167 98.0858 93.4727C97.9305 93.3658 97.7702 93.2637 97.6148 93.1567C98.176 92.9622 98.637 92.3301 98.3163 91.6445C93.5164 81.3023 88.6914 70.9699 83.8464 60.6423C86.1411 58.3716 88.4108 56.0863 90.6605 53.7815C94.7289 49.6096 98.7221 45.3697 102.645 41.0714V41.0617ZM57.4267 30.8119C58.3737 25.7842 59.3256 20.7517 60.2726 15.724C64.5314 24.6562 68.7752 33.598 73.0039 42.5447C66.9013 43.274 60.8137 44.0666 54.7462 45.0002L57.4217 30.8119H57.4267ZM73.9659 44.5723C76.421 49.775 78.8711 54.9825 81.3161 60.1901C76.7717 64.6683 72.1422 69.0638 67.4324 73.3816C62.08 69.9455 56.7088 66.5369 51.3191 63.1561L54.3403 47.1542C60.8588 46.1574 67.4074 45.3405 73.9609 44.5771L73.9659 44.5723ZM45.3167 59.3975C41.0178 56.7232 36.7038 54.0684 32.3799 51.4233C38.9034 49.8187 45.497 48.5545 52.1308 47.4994C51.2239 52.318 50.312 57.1365 49.4051 61.9551C48.0423 61.1042 46.6845 60.2484 45.3167 59.4024V59.3975ZM56.9457 82.7562C53.2932 85.9313 49.5955 89.0577 45.8528 92.1356C47.5363 83.2035 49.2248 74.2763 50.9082 65.3442C55.9036 68.4804 60.8839 71.6457 65.8491 74.8257C62.9081 77.5 59.9419 80.1402 56.9407 82.7513L56.9457 82.7562ZM88.3106 75.1174C90.9811 80.8355 93.6416 86.5536 96.2971 92.2766C87.3345 86.2919 78.3188 80.3824 69.2512 74.5485C73.6553 70.5031 77.9943 66.3895 82.2581 62.2031C84.2773 66.5062 86.2964 70.8094 88.3056 75.1174H88.3106ZM76.1705 44.3194C79.3571 43.9499 82.5387 43.5901 85.7202 43.2254C90.2346 42.7051 94.7439 42.1897 99.2582 41.6695C93.9372 47.4362 88.486 53.0911 82.9094 58.6293C80.6698 53.8593 78.4251 49.0894 76.1755 44.3194H76.1705ZM39.5297 14.1681C32.5703 10.1907 25.3053 6.74818 17.8048 3.83565C16.5371 3.34455 15.986 5.33325 17.2386 5.81948C24.5687 8.66394 31.6584 12.0578 38.4575 15.9429C39.6349 16.6187 40.7021 14.8391 39.5297 14.1632V14.1681ZM21.297 23.2607C15.966 22.4535 10.6349 21.6415 5.3039 20.8344C3.97114 20.6301 3.39495 22.614 4.73773 22.8182C10.0688 23.6253 15.3998 24.4373 20.7308 25.2445C22.0636 25.4487 22.6398 23.4649 21.297 23.2607ZM24.7642 72.0347C20.4198 75.5421 15.8126 78.7309 10.9806 81.5746C9.81824 82.2602 10.8804 84.0398 12.0529 83.3494C17.0382 80.4077 21.783 77.111 26.2623 73.4886C27.3144 72.6377 25.8063 71.1887 24.7642 72.0347ZM23.261 94.8342C21.1216 97.28 18.7868 99.5507 16.2616 101.627C15.2194 102.483 16.7275 103.936 17.7597 103.081C20.2799 101.005 22.6197 98.7387 24.7591 96.288C25.636 95.2815 24.1429 93.8228 23.261 94.8342ZM120.237 91.9217C117.902 90.1421 115.572 88.3624 113.237 86.5877C112.175 85.7805 110.667 87.2246 111.739 88.0415C114.074 89.8211 116.404 91.6007 118.739 93.3755C119.801 94.1826 121.309 92.7385 120.237 91.9217ZM127.261 73.722C122.602 72.4043 117.947 71.0866 113.287 69.764C111.975 69.3945 111.413 71.3783 112.721 71.7478C117.381 73.0655 122.035 74.3832 126.695 75.7058C128.008 76.0753 128.569 74.0915 127.261 73.722ZM114.194 19.8084L92.2237 23.8198C90.8859 24.063 91.4521 26.0468 92.7899 25.8037L114.76 21.7922C116.098 21.5491 115.532 19.5653 114.194 19.8084ZM100.741 1.69622C97.8854 4.50179 94.789 7.04479 91.4571 9.29605C90.3448 10.0497 91.402 11.8342 92.5293 11.0708C96.0065 8.71743 99.2582 6.07718 102.239 3.15006C103.201 2.20676 101.703 0.752927 100.741 1.69622Z" fill="#3B3B43"/>
</svg>