<svg xmlns="http://www.w3.org/2000/svg" width="71" height="71" viewBox="0 0 71 71" fill="none">
  <path d="M54.6707 34.5819C55.5635 35.1961 56.3519 33.7967 55.516 33.1761C54.0944 32.1187 52.638 31.115 51.1436 30.1588C50.1969 29.5066 49.2534 28.8544 48.3068 28.2022C48.9083 28.503 49.5131 28.8006 50.1146 29.1014C50.9315 29.5066 51.8465 28.4871 51.1309 27.8223C49.3009 26.1252 47.3379 24.5897 45.3053 23.1427C45.8277 23.3644 46.3501 23.586 46.8757 23.8076C47.8572 24.2224 48.6171 23.0129 47.721 22.4019L41.3603 18.0548L42.4653 18.5266C43.4278 18.9381 44.2731 17.6432 43.3106 17.1208C41.1957 15.9683 39.1662 14.6861 37.2317 13.2771C38.0422 13.5621 38.8496 13.8439 39.6601 14.1288C40.5561 14.4423 41.1324 13.0777 40.306 12.6408C39.6316 12.283 38.9604 11.922 38.2924 11.5548L38.666 11.6593C39.6221 11.9189 40.0654 10.6809 39.3118 10.1712C38.8245 9.84042 38.3304 9.51952 37.8301 9.20868C37.8934 8.9459 37.8428 8.66095 37.6243 8.46465C36.6618 7.59713 35.6582 6.77711 34.6197 5.99825C34.5943 5.69747 34.4202 5.40618 34.0498 5.27954C33.73 5.16873 33.4071 5.05791 33.0873 4.95026C32.2578 4.66531 31.8367 5.62148 32.2166 6.20721C32.0583 6.14389 31.9031 6.08057 31.7448 6.01408C30.8773 5.65947 30.2346 7.12222 31.099 7.50215C31.2414 7.56547 31.3839 7.63196 31.5264 7.69528C30.6462 7.43883 30.1808 8.7401 30.9407 9.20235C31.4821 9.53163 32.0266 9.85774 32.5712 10.1807C32.1279 10.4276 31.9158 11.1084 32.3559 11.4883C33.1316 12.1627 33.9231 12.8181 34.7337 13.4513C34.6387 13.4101 34.5405 13.369 34.4455 13.3278C33.464 12.9099 32.7042 14.1225 33.6002 14.7335C35.769 16.2153 37.9378 17.697 40.1065 19.1819L37.8111 18.2099C37.7298 18.1759 37.6448 18.1515 37.5578 18.1371C36.6745 17.4722 35.7785 16.8232 34.8698 16.19C34.1036 15.6581 33.1063 16.896 33.8535 17.4691C34.2144 17.7477 34.5753 18.0231 34.9394 18.3018C34.6292 18.6374 34.5817 19.2421 35.0724 19.5999C36.0286 20.2932 36.9753 20.9993 37.9124 21.718C37.9029 21.7243 37.8966 21.7307 37.8871 21.737C37.8586 21.7275 37.8301 21.7148 37.8016 21.7053C37.0417 21.4299 36.5067 22.3797 36.8929 22.9528C36.1362 22.7216 35.4334 23.7 36.0603 24.3079C36.646 24.8746 37.2317 25.4445 37.8174 26.0112C37.0417 25.8118 36.38 26.7046 36.9879 27.3568C37.5262 27.9362 38.0391 28.5346 38.5267 29.152C37.7889 28.7721 37.0639 28.37 36.3515 27.9394C36.0793 27.7748 35.7975 27.7906 35.5727 27.9141C35.2086 27.7748 34.8381 27.6576 34.455 27.5595C33.673 27.3632 33.0081 28.3542 33.6413 28.9209C34.2619 29.4781 34.8856 30.0322 35.5125 30.5831C32.9448 29.0919 30.3169 27.7019 27.5846 26.502C26.7962 26.1537 25.7704 27.1479 26.5683 27.7811L28.6389 29.4243C25.8622 27.9014 23.0032 26.5305 20.0081 25.4097C19.2007 25.1089 18.6308 26.2329 19.1944 26.7711C19.4857 27.0497 19.7801 27.3188 20.0841 27.5848C19.9131 27.4961 19.7421 27.4043 19.5711 27.3125C18.6086 26.8123 17.8519 28.123 18.7258 28.7183C21.0022 30.2697 23.2565 31.8495 25.4918 33.4516C24.2253 32.7677 22.9399 32.1123 21.6386 31.4854C20.8439 31.1023 19.8371 32.1472 20.6223 32.7646C22.0819 33.9139 23.5383 35.0632 24.9979 36.2093C24.6084 36.0067 24.219 35.8072 23.8264 35.6109C23.0285 35.2151 22.047 36.2599 22.8101 36.89L33.8313 45.9609C33.3596 46.0179 32.9511 46.5055 33.0968 46.9931C33.483 48.2753 34.4265 49.165 35.408 50.0484C36.6587 51.1787 37.9093 52.3058 39.163 53.4329C39.5113 53.7464 39.8564 54.0598 40.2047 54.3733C39.5588 53.9838 38.9129 53.5944 38.267 53.2018C37.4438 52.7047 36.608 53.8192 37.2507 54.4809L45.5143 62.9344C44.5581 62.4658 43.7096 63.8684 44.6721 64.3433C46.1285 65.0621 47.5849 65.7808 49.0445 66.4995C49.8803 66.9111 50.732 65.9106 50.0608 65.2204L42.9497 57.9478C44.2067 58.7077 45.4636 59.4644 46.7205 60.2242C47.5216 60.7086 48.4366 59.5784 47.7369 58.9451C45.4351 56.8713 43.1365 54.7944 40.8348 52.7206L38.9826 51.0488L43.9787 54.2941C44.7607 54.8007 45.7232 53.6166 44.995 53.015C40.6764 49.4595 36.3579 45.9071 32.0393 42.3515C34.55 44.0327 37.0006 45.8026 39.4448 47.5756C40.2015 48.1234 41.1989 46.8791 40.4611 46.2965C36.7441 43.3679 33.024 40.4392 29.3069 37.5106C33.1918 39.844 36.9499 42.3769 40.6574 44.9667C41.4236 45.5018 42.4051 44.2765 41.6738 43.6876C40.0084 42.3484 38.3304 41.0249 36.6397 39.7142C36.8011 39.8218 36.9626 39.9326 37.1272 40.0403C38.0264 40.6418 38.8243 39.2456 37.9726 38.6345L28.8669 32.1028C27.5592 31.1625 26.22 30.2443 24.906 29.2945C30.4214 32.011 35.541 35.4716 40.61 38.8973C41.3825 39.4197 42.364 38.2039 41.6263 37.6182C39.1219 35.6299 36.6175 33.6447 34.1099 31.6564C37.8301 33.7904 41.4141 36.1523 44.9824 38.5174C45.7581 39.0335 46.7332 37.8303 45.9987 37.2383C44.6246 36.1365 43.2632 35.022 41.9112 33.8917C43.7381 35.2056 45.5681 36.5164 47.3949 37.8303C48.1611 38.3812 49.1078 37.1686 48.4113 36.5512C48.0408 36.2219 47.6672 35.8958 47.2968 35.5666C48.8133 36.4974 50.3299 37.4251 51.8465 38.3559C52.6412 38.8435 53.5815 37.6942 52.8628 37.0768C52.4006 36.6779 51.9351 36.2789 51.4729 35.88C52.3562 36.4689 53.2364 37.0578 54.1198 37.6467C54.8954 38.1628 55.8769 36.9502 55.1361 36.3676C52.6855 34.4426 50.2381 32.5176 47.7875 30.5926C46.9232 29.9151 46.043 29.2438 45.185 28.5505C46.939 29.4876 48.655 30.4913 50.3267 31.5614C51.7832 32.5651 53.2396 33.5719 54.6992 34.5787L54.6707 34.5819ZM41.0975 29.8612C40.9329 29.6206 40.7651 29.3863 40.5941 29.152C40.9202 29.3103 41.2463 29.4686 41.5725 29.6238C41.6136 29.6459 41.6579 29.6586 41.6991 29.6713C42.4526 30.3203 43.2062 30.9662 43.9597 31.6153C43.0067 31.0295 42.0505 30.4438 41.0975 29.8612ZM43.0669 23.7665C42.6616 23.4245 42.2532 23.0858 41.8447 22.7533C42.5793 23.2409 43.3043 23.738 44.023 24.2445L43.0669 23.7696V23.7665Z" fill="#DB3F29"/>
  <path d="M58.2738 34.3663C49.9204 24.1119 41.2473 14.1221 32.2673 4.41177C31.5518 3.63607 30.3835 4.76637 31.0674 5.54523C30.5861 5.09248 29.5096 5.5389 29.6616 6.38742C30.8552 13.1661 32.6504 19.8307 35.0313 26.3054C35.3923 27.2838 37.0101 26.8627 36.646 25.8717C34.2681 19.405 32.4711 12.7393 31.2763 5.95366C31.2542 5.82069 31.2067 5.71304 31.1402 5.62755C39.7647 14.9549 48.0979 24.5356 56.1303 34.3505C49.8297 35.4017 43.469 36.0697 37.0798 36.3578C36.3136 36.3927 36.092 37.2348 36.4212 37.6939C36.4276 37.7921 36.4497 37.8934 36.4972 37.9979C40.4212 46.6257 44.7466 55.0652 49.4593 63.2888C49.9849 64.2038 51.4318 63.3838 50.9062 62.4656C46.333 54.4802 42.1241 46.2916 38.2924 37.9251C44.5075 37.5989 50.7004 36.9119 56.8332 35.8766C57.0168 35.8449 57.1561 35.7721 57.2543 35.674C57.9318 36.1584 58.8848 35.1167 58.2738 34.3663Z" fill="#212B50"/>
  <path d="M49.5891 63.862L22.7943 34.3031C20.559 31.8399 18.3269 29.3735 16.0916 26.9103C17.0067 27.1224 18.0483 27.0876 18.881 27.1572L24.8016 27.6511L36.6429 28.639C37.7162 28.7276 37.7099 27.1002 36.6429 27.0116C33.024 26.7108 29.4051 26.4069 25.7863 26.1061L20.5242 25.666C19.5934 25.5868 18.6594 25.5109 17.7285 25.4317C17.0921 25.3779 16.2025 25.4507 15.7465 24.941C15.1513 24.2761 14.2205 24.9853 14.3598 25.6977C13.8722 25.8876 13.5398 26.5525 13.9988 27.0591L40.7936 56.6179C43.3297 59.4167 45.8658 62.2124 48.4018 65.0113C49.1174 65.7996 50.2952 64.644 49.5859 63.8588L49.5891 63.862Z" fill="#212B50"/>
</svg>