<svg xmlns="http://www.w3.org/2000/svg" width="99" height="82" viewBox="0 0 99 82" fill="none">
  <path d="M69.2563 81.229C68.959 81.229 68.7831 81.1811 68.6678 81.1152C68.4555 80.9954 68.2856 80.7678 68.225 80.5343C68.049 79.8395 67.9398 79.4142 72.417 77.9708C66.2836 79.4442 64.0996 79.7017 63.4566 79.3304C63.2139 79.1866 63.044 78.965 62.9773 78.7075C62.7164 77.6773 63.8691 77.288 65.774 76.6411C66.5324 76.3835 67.4788 76.0841 68.6314 75.7367C62.3221 77.3838 60.5749 77.6174 59.9682 77.27C59.7316 77.1322 59.5618 76.9166 59.5011 76.6591C59.2342 75.6109 60.4172 75.1437 62.5284 74.401C63.6264 74.0177 65.0764 73.5505 66.9206 72.9935C50.7105 77.4497 45.2444 78.6715 44.116 78.0247C43.8612 77.8809 43.6853 77.6533 43.6186 77.3778C43.388 76.4554 43.8127 75.7786 52.3667 73.281C50.5831 73.5805 49.7277 73.5865 49.394 73.3888C49.1574 73.2511 48.9876 73.0354 48.9208 72.7779C48.66 71.7357 49.6913 71.2146 53.1554 70.0647C55.4061 69.316 58.6518 68.3577 63.0804 67.1178C65.8104 66.3572 68.8438 65.5306 72.0712 64.6681C72.0288 64.6502 71.9924 64.6322 71.956 64.6142C71.683 64.4585 71.4949 64.2189 71.4221 63.9314C71.1673 62.9192 72.1319 62.4041 75.1531 61.3679C77.1066 60.6971 79.9276 59.8406 83.7738 58.7506C84.7142 58.481 85.697 58.2055 86.7162 57.924C61.2422 64.8059 55.4668 66.1236 54.4172 65.5127C54.1806 65.3749 54.0108 65.1593 53.9501 64.9017C53.7802 64.2369 53.6832 63.8416 57.5052 62.5958C36.8603 68.1241 29.465 69.7832 28.2517 69.0824C28.003 68.9386 27.827 68.711 27.7603 68.4475C27.4994 67.4173 28.1122 66.6507 39.5418 63.4762C39.3416 63.4463 39.1899 63.4044 39.0807 63.3385C38.8198 63.1887 38.6378 62.9552 38.565 62.6736C38.3588 61.8471 38.8138 61.3021 41.7258 60.2719C40.8036 60.3617 40.2576 60.3258 40.0089 60.182C39.7602 60.0383 39.5903 59.8167 39.5236 59.5531C39.2688 58.5349 40.2455 58.1276 43.115 57.2232C44.9714 56.6363 47.6711 55.8696 51.3657 54.8754C52.1968 54.6538 53.0644 54.4202 53.9622 54.1866C53.9016 54.1626 53.8409 54.1387 53.7924 54.1087C53.5012 53.941 53.2949 53.6835 53.216 53.378C53.125 53.0306 53.0522 52.7371 53.5436 52.3598C49.2606 53.2702 46.8278 53.5217 46.1059 53.1085C45.8268 52.9467 45.6327 52.7012 45.5599 52.4137C45.4082 51.8028 45.6873 51.3775 46.6276 50.9043C44.3466 51.2817 42.9694 51.3236 42.4477 51.0241C42.1686 50.8624 41.9684 50.6109 41.8956 50.3174C41.8228 50.0359 41.8714 49.7424 42.0352 49.4788C42.2172 49.1794 42.751 48.826 43.655 48.4127C42.3021 48.5924 41.5316 48.5685 41.204 48.3888C40.9553 48.245 40.7794 48.0174 40.7126 47.7479C40.47 46.7956 40.9553 46.0529 49.024 43.6691C48.8973 43.6411 48.7749 43.5968 48.66 43.5373C48.3688 43.3696 48.1686 43.112 48.0897 42.8126C47.9684 42.3214 48.0715 41.9321 48.7692 41.4829C39.9118 43.6032 35.8836 44.2201 34.9857 43.699C34.7248 43.5493 34.5428 43.3157 34.4761 43.0402C34.3487 42.5311 34.4276 42.0878 35.8714 41.3991C30.7572 42.5011 27.8877 42.8365 27.093 42.3813C26.8139 42.2196 26.6198 41.974 26.547 41.6806C26.4802 41.411 26.5227 41.1295 26.6744 40.878C26.7896 40.6923 27.0444 40.4887 27.4752 40.2551C11.805 43.9925 10.9314 43.4894 10.3247 43.142C10.0638 42.9923 9.88183 42.7527 9.80903 42.4772C9.73623 42.1957 9.78476 41.8962 9.94856 41.6326C10.8464 40.1712 20.0314 37.458 39.4872 32.5826C39.3719 32.4568 39.287 32.307 39.2445 32.1393C39.0322 31.3068 38.9048 30.7857 46.5306 28.5457C46.3061 28.5157 46.1302 28.4618 46.0028 28.3899C45.7237 28.2342 45.5356 27.9886 45.4628 27.6952C45.1959 26.635 46.3607 26.1379 49.2909 25.1796C51.305 24.5207 54.2231 23.6642 58.221 22.5622C65.6406 20.5198 75.4443 17.9982 85.8183 15.3269C100.384 11.5775 117.693 7.12132 125.652 4.59377C115.12 6.67211 88.9669 13.8715 67.1451 19.8849C22.9191 32.0615 7.8859 35.9367 5.99916 34.8466C5.7383 34.6968 5.55023 34.4573 5.48349 34.1817C5.41069 33.9062 5.45923 33.6127 5.61696 33.3552C5.70796 33.2055 5.89603 33.0378 6.18723 32.8581C3.1903 33.3911 1.58869 33.463 1.04876 33.1516C0.787895 33.0018 0.599829 32.7622 0.533095 32.4867C0.460295 32.2112 0.508828 31.9177 0.666562 31.6602C1.24896 30.7019 5.7201 29.1446 14.7291 26.6769C14.45 26.659 14.2498 26.6051 14.1164 26.5332C13.9933 26.4658 13.8857 26.3741 13.8001 26.2639C13.7145 26.1536 13.6528 26.0271 13.6189 25.8923C13.5461 25.6048 13.5946 25.2994 13.7645 25.0298C14.45 23.9158 19.7887 22.0651 30.1688 19.232C29.9462 19.0867 29.7904 18.8609 29.7348 18.6033C29.6792 18.3456 29.7283 18.0767 29.8715 17.8545C29.9928 17.6508 30.3204 17.4172 30.8786 17.1417C27.736 17.7407 26.1344 17.8485 25.6248 17.555C25.5016 17.4864 25.3939 17.3936 25.3084 17.2823C25.2228 17.1711 25.1612 17.0437 25.1274 16.9081C24.8726 15.8899 25.734 15.3688 29.738 14.105C32.2254 13.3204 35.8411 12.3082 40.7854 11.0025C41.2101 10.8887 41.6408 10.7749 42.0776 10.6611C42.017 10.6431 41.9684 10.6192 41.9199 10.5892C41.6651 10.4395 41.4831 10.2119 41.4164 9.93638C41.3496 9.66087 41.3921 9.37337 41.5498 9.12181C41.6712 8.92416 41.9442 8.70255 42.3931 8.45698C21.9666 13.8834 14.3833 15.5305 13.1275 14.7998C12.8727 14.6501 12.6907 14.4225 12.624 14.153C12.4905 13.6199 12.5754 13.1527 14.1406 12.416C8.7231 13.6439 6.20543 13.9433 5.50776 13.542C5.25296 13.3923 5.07096 13.1647 5.00423 12.8892C4.9375 12.6137 4.97996 12.3262 5.13769 12.0746C6.01129 10.6551 16.4945 7.67835 38.8623 2.15606C38.7288 2.02429 38.6318 1.85658 38.5832 1.6769C38.4134 1.00608 38.2981 0.556872 42.7086 -0.856643C41.7136 -0.760812 41.113 -0.802738 40.8279 -0.964454C40.5731 -1.11419 40.3972 -1.34179 40.3304 -1.61132C40.1788 -2.21625 40.2819 -2.7014 42.4962 -3.58185C21.9666 1.84461 16.7432 2.9287 15.7847 2.37168C15.5481 2.23392 15.3843 2.0183 15.3176 1.76075C15.0688 0.778479 14.9354 0.239429 27.2871 -3.12665C26.8382 -3.11467 26.553 -3.16259 26.3892 -3.25842C26.1526 -3.39618 25.9828 -3.6118 25.916 -3.86935C25.5763 -5.21099 26.6926 -6.1154 49.7095 -12.1588C49.5275 -12.3085 49.4062 -12.5062 49.3516 -12.7218C49.1756 -13.4106 49.0786 -13.8059 53.034 -15.1056C49.1938 -14.1952 47.7803 -14.0874 47.2404 -14.3928C46.9916 -14.5366 46.8218 -14.7582 46.755 -15.0217C46.5002 -16.034 47.6226 -16.4233 49.479 -17.0642C50.8136 -17.5253 52.7428 -18.1303 55.3758 -18.9149C60.2655 -20.3643 66.7022 -22.1732 73.5212 -24.0838C79.782 -25.8387 86.8375 -27.8152 92.3521 -29.4444C85.0478 -27.5757 74.874 -24.6828 65.9803 -22.1492C38.7652 -14.4048 30.0414 -12.1348 28.464 -13.0332C28.3344 -13.1052 28.2209 -13.2022 28.1302 -13.3185C28.0395 -13.4348 27.9735 -13.568 27.9362 -13.71C27.8695 -13.9856 27.912 -14.2731 28.0697 -14.5246C28.5793 -15.3572 31.8735 -16.579 39.4993 -18.6753C39.2627 -18.8131 39.0989 -19.0347 39.0322 -19.2922C38.8866 -19.8672 38.7956 -20.2266 41.2526 -21.119C35.1556 -19.6276 33.1354 -19.3821 32.5166 -19.7355C32.2739 -19.8732 32.1101 -20.0948 32.0434 -20.3524C31.7218 -21.6341 31.6248 -21.9995 60.3201 -29.7498C60.2958 -29.7618 60.2716 -29.7738 60.2534 -29.7858C59.9925 -29.9355 59.8044 -30.1691 59.7377 -30.4446C59.4829 -31.4509 60.5628 -31.8941 62.492 -32.5889C63.1775 -32.8344 64.0086 -33.1159 65.0096 -33.4334C61.8853 -32.7146 60.6962 -32.6547 60.1866 -32.9422C59.9379 -33.086 59.762 -33.3136 59.6952 -33.5771C59.4526 -34.5414 59.853 -34.763 65.0885 -36.5778C68.0187 -37.5961 71.9924 -38.9077 75.8326 -40.1715C75.9539 -40.2134 76.0752 -40.2494 76.1905 -40.2913C74.0065 -39.6744 71.7861 -39.0455 69.687 -38.4466C50.844 -33.08 46.5427 -32.0558 45.4507 -32.6787C45.3277 -32.7461 45.22 -32.8378 45.1344 -32.948C45.0489 -33.0583 44.9872 -33.1848 44.9532 -33.3196C44.6681 -34.4576 44.6378 -34.5774 61.5698 -39.6744C45.9664 -35.5477 45.0503 -35.4758 44.4436 -35.8292C44.2313 -35.9489 44.0614 -36.1765 44.0008 -36.4101C43.8248 -37.0929 43.8127 -37.1468 47.392 -39.333C45.5478 -38.8538 45.4568 -38.9077 45.1352 -39.0934C44.9229 -39.2132 44.7652 -39.4228 44.7045 -39.6564C44.5832 -40.1356 44.8804 -40.6267 45.3658 -40.7465C45.4689 -40.7705 45.572 -40.7765 45.6691 -40.7705C46.1544 -40.8543 47.932 -41.3395 49.1332 -41.6689C51.5194 -42.3197 52.852 -42.5653 53.1311 -42.4056C53.3434 -42.2858 53.5012 -42.0762 53.5618 -41.8426C53.6872 -41.3514 52.2555 -40.1935 49.2666 -38.3687C53.7135 -39.4528 60.8236 -41.3455 66.9388 -42.9746C86.886 -48.2932 87.796 -48.407 88.433 -48.0357C88.6454 -47.9159 88.8092 -47.6943 88.8698 -47.4607C89.1428 -46.3826 89.1974 -46.161 74.3766 -41.6629C87.9052 -45.4842 90.884 -46.1191 91.7879 -45.604C92.0366 -45.4662 92.2065 -45.2446 92.2732 -44.9811C92.5159 -44.0287 92.1216 -43.8071 86.977 -42.0223C84.1014 -41.028 80.1884 -39.7343 76.4028 -38.4825C75.4382 -38.1651 74.4372 -37.8356 73.4302 -37.5002C77.1612 -38.5304 81.2501 -39.6924 84.9932 -40.7585C105.377 -46.5623 110.024 -47.6763 111.165 -47.0235C111.42 -46.8797 111.596 -46.6521 111.662 -46.3826C111.917 -45.3824 111.687 -45.047 104.073 -42.771C105.304 -42.9566 106.002 -42.9267 106.36 -42.723C106.621 -42.5733 106.803 -42.3397 106.876 -42.0642C107.106 -41.1538 107.203 -40.7585 97.3086 -37.9315C104.637 -39.7642 107.058 -40.1116 107.719 -39.7283C107.962 -39.5905 108.131 -39.3689 108.192 -39.1114C108.338 -38.5364 108.435 -38.1531 105.978 -37.2427C126.368 -42.6871 133.654 -44.3222 134.831 -43.6394C135.08 -43.4957 135.249 -43.2741 135.316 -43.0045C135.389 -42.729 135.34 -42.4355 135.183 -42.178C134.309 -40.7465 125.907 -38.2848 103.248 -32.6667C103.327 -32.5589 103.387 -32.4331 103.418 -32.3014C103.606 -31.5647 103.709 -31.1574 98.7888 -29.5462C109.533 -32.4152 113.962 -33.2597 115.035 -32.6487C115.302 -32.493 115.49 -32.2534 115.563 -31.9719C115.751 -31.2292 115.854 -30.816 110.661 -29.1928H110.673C111.232 -29.1928 111.62 -29.121 111.869 -28.9772C112.154 -28.8155 112.354 -28.5579 112.433 -28.2585C112.584 -27.6595 112.688 -27.2403 110.03 -26.27C120.829 -28.9952 125.209 -29.7918 126.089 -29.2887C126.338 -29.1449 126.507 -28.9233 126.574 -28.6598C126.72 -28.0848 126.55 -27.6535 125.44 -27.0965C129.504 -27.929 131.549 -28.1147 132.131 -27.7733C132.386 -27.6236 132.562 -27.396 132.629 -27.1265C132.75 -26.6473 132.702 -26.228 131.585 -25.6291C138.101 -27.2103 140.825 -27.6296 141.474 -27.2522C141.717 -27.1145 141.886 -26.8929 141.947 -26.6353C142.038 -26.2819 142.111 -25.9885 141.547 -25.5872C152.752 -28.4022 157.599 -29.2527 158.612 -28.6658C158.873 -28.516 159.055 -28.2824 159.128 -28.0069C159.201 -27.7194 159.152 -27.4199 158.988 -27.1504C157.884 -25.3536 144.21 -21.5443 116.34 -14.6983C116.364 -14.6504 116.382 -14.5965 116.394 -14.5426C116.51 -14.0934 116.467 -13.7041 115.43 -13.141C132.865 -17.6751 140 -19.1006 141.31 -18.3399C141.577 -18.1842 141.765 -17.9446 141.838 -17.6631C141.905 -17.3936 141.862 -17.1061 141.71 -16.8545C141.237 -16.0819 138.441 -14.9978 131.822 -13.141C132.095 -12.9793 132.283 -12.7338 132.356 -12.4463C132.471 -11.9851 132.344 -11.6018 131.822 -11.2005C150.252 -15.986 157.684 -17.5194 158.922 -16.8066C159.176 -16.6569 159.358 -16.4233 159.425 -16.1538C159.492 -15.8782 159.449 -15.5907 159.292 -15.3332C159.152 -15.1056 158.812 -14.848 158.236 -14.5486C161.239 -15.1236 162.762 -15.2314 163.223 -14.9678C163.466 -14.8241 163.642 -14.6025 163.702 -14.3389C163.775 -14.0634 163.726 -13.764 163.563 -13.5064C162.543 -11.8473 150.022 -8.37942 122.958 -1.7371C123.171 -1.58736 123.322 -1.37773 123.383 -1.13216C123.456 -0.856643 123.407 -0.56316 123.25 -0.305613C123.001 0.101671 122.073 0.616766 120.416 1.25764C131.039 -1.3957 135.456 -2.18631 136.317 -1.69517C136.566 -1.55142 136.736 -1.32981 136.803 -1.06627C136.875 -0.784769 136.827 -0.491288 136.663 -0.227752C136.287 0.389164 134.4 1.23368 130.845 2.37767C130.918 2.40163 130.979 2.42559 131.027 2.45553C131.3 2.61126 131.482 2.85084 131.555 3.13833C131.694 3.70134 131.603 4.17451 129.777 4.9771C133.393 4.24639 135.492 4.07269 136.202 4.47398C136.493 4.64169 136.693 4.89924 136.772 5.19871C136.894 5.67188 136.985 6.04322 135.65 6.6841C139.187 5.95937 140.982 5.81563 141.559 6.14505C141.82 6.29478 142.002 6.52837 142.068 6.80388C142.141 7.08539 142.093 7.37887 141.929 7.63642C141.759 7.91194 141.274 8.24136 140.461 8.61869C161.47 3.1563 169.417 1.45529 170.576 2.12611C170.824 2.26986 170.994 2.49147 171.061 2.75501C171.134 3.0425 171.085 3.35395 170.915 3.62348C169.969 5.17475 160.353 8.09761 141.104 13.021C141.195 13.1348 141.262 13.2665 141.298 13.4103C141.468 14.0751 141.274 14.6381 138.35 15.7462C162.586 9.31947 171.935 7.2531 173.336 8.05569C173.597 8.20543 173.773 8.43901 173.846 8.71453C174.107 9.74472 173.397 10.2898 168.21 11.9069C165.104 12.8712 160.602 14.129 154.444 15.7462C150.01 16.9081 144.944 18.2018 139.52 19.5615C139.751 19.7052 139.915 19.9208 139.975 20.1784C140.121 20.7593 139.866 21.1786 139.011 21.6338C154.863 17.537 161.391 16.2493 162.592 16.9441C162.853 17.0938 163.035 17.3334 163.108 17.6089C163.174 17.8664 163.132 18.136 162.986 18.3636C162.295 19.4956 154.839 21.6039 130.257 27.6712C130.317 27.6892 130.372 27.7131 130.42 27.7431C130.675 27.8928 130.857 28.1204 130.924 28.3959C131.07 28.9709 131.173 29.3782 128.855 30.2766C134.977 28.7673 137.573 28.3959 138.289 28.8092C138.544 28.9529 138.72 29.1805 138.786 29.4501C139.047 30.4922 139.156 30.9235 124.208 34.9184C124.311 34.9424 124.396 34.9783 124.469 35.0203C124.736 35.17 124.924 35.4156 124.997 35.6971C125.136 36.2541 124.93 36.6794 124.069 37.1585C151.678 29.8094 161.997 27.4316 163.435 28.2642C163.69 28.4139 163.866 28.6415 163.933 28.911C164.188 29.9232 163.532 30.4144 158.448 31.9716C155.439 32.894 151.077 34.0919 145.12 35.6492C141.632 36.5596 137.804 37.5358 133.702 38.566C133.897 38.7098 134.036 38.9074 134.091 39.141C134.315 40.0394 133.909 40.7103 125.81 43.0522C126.629 42.9803 127.12 43.0222 127.363 43.16C127.612 43.3037 127.781 43.5253 127.848 43.7889C127.982 44.3099 128.073 44.6753 126.338 45.406C138.21 42.3514 142.9 41.459 143.834 41.998C144.083 42.1418 144.259 42.3634 144.325 42.6329C144.58 43.6451 143.561 44.0943 141.001 44.9568C139.296 45.5318 136.821 46.2745 133.429 47.2268C132.24 47.5622 130.972 47.9156 129.644 48.281C130.572 48.1731 131.118 48.2151 131.409 48.3768C131.664 48.5205 131.84 48.7481 131.907 49.0177C132.168 50.0479 131.154 50.4731 128.206 51.4314C126.277 52.0603 123.48 52.8749 119.658 53.935C119.179 54.0668 118.687 54.2045 118.184 54.3423C135.438 49.8023 139.866 48.9158 140.752 49.4249C140.989 49.5627 141.152 49.7783 141.213 50.0299C141.522 51.2457 141.65 51.7608 117.826 58.0079C118.093 58.0318 118.293 58.0797 118.427 58.1576C118.687 58.3073 118.863 58.5349 118.936 58.8104C119.191 59.8287 118.069 60.2779 116.055 60.9786C115.666 61.1164 115.223 61.2601 114.738 61.4219C118.057 60.7091 119.713 60.5654 120.277 60.8888C120.538 61.0385 120.714 61.2661 120.787 61.5416C121.047 62.5598 119.925 62.9971 117.765 63.7398C116.249 64.2609 114.065 64.9317 111.086 65.7942C110.831 65.866 110.57 65.9439 110.303 66.0218C139.472 58.0917 146.218 56.5045 147.377 57.1693C147.619 57.3071 147.783 57.5287 147.85 57.7862C148.111 58.8224 148.214 59.2237 133.193 63.3385C134.285 63.1828 134.77 63.2187 135.013 63.3624C135.225 63.4822 135.407 63.7218 135.468 63.9554C135.729 64.9976 135.747 65.0515 123.213 69.1902C130.105 67.3634 130.263 67.4532 130.706 67.7108C130.918 67.8306 131.082 68.0522 131.142 68.2858C131.264 68.7649 130.966 69.2561 130.481 69.3759C130.335 69.4118 130.19 69.4118 130.056 69.3759C128.928 69.4957 122.88 71.1308 117.99 72.4545C104.771 76.0302 104.625 75.9463 104.073 75.6289C103.861 75.5091 103.697 75.2875 103.636 75.0539C103.399 74.1195 103.697 73.8859 109.272 71.9513C112.33 70.8912 116.406 69.5436 120.344 68.2439C120.635 68.148 120.932 68.0522 121.229 67.9504C114.702 69.6214 106.718 71.7537 99.5836 73.6643C76.5484 79.8155 70.9186 81.2111 69.2502 81.2111L69.2563 81.229ZM102.016 58.6727C99.171 59.4154 96.2226 60.188 93.2318 60.9667C83.0519 63.62 71.4888 66.6327 62.9409 69.0225C72.1986 66.6926 84.9326 63.2666 96.1074 60.2599C98.17 59.7029 100.136 59.1758 102.016 58.6727ZM129.383 68.747C129.401 68.8308 129.432 68.9027 129.474 68.9686C129.438 68.9027 129.407 68.8308 129.383 68.747ZM101.852 63.3265C98.3338 64.2669 94.4936 65.321 90.6292 66.3931C94.2934 65.3989 98.1943 64.3387 101.852 63.3265ZM67.4666 58.0618C56.213 60.9008 45.2202 63.7278 37.9341 65.8002C45.384 64.0093 56.4617 61.0505 67.4666 58.0618ZM100.9 55.9595C93.2682 57.9899 85.6909 60.0383 80.3522 61.6195C86.0246 60.2 93.9173 57.9599 100.9 55.9595ZM79.3755 52.0064C65.6952 55.4144 53.0826 58.6547 46.0028 60.775C53.5254 59.086 66.684 55.5102 79.3755 52.0064ZM129.353 46.52C120.429 48.7781 108.544 52.0004 97.8303 54.9113C101.677 53.8871 105.674 52.833 109.618 51.7908C116.321 50.0239 123.432 48.1492 129.347 46.52H129.353ZM106.955 49.2393C103.727 50.0838 100.251 51.0122 96.6655 51.9765C100.142 51.0601 103.642 50.1317 106.955 49.2393ZM83.5372 45.4539C74.4008 47.8198 65.7498 50.1137 60.3504 51.7189C66.0288 50.4312 74.9893 47.9156 83.5372 45.4539ZM92.4916 40.2131C91.4785 40.4707 90.435 40.7402 89.3673 41.0097C76.0449 44.4058 60.314 48.4067 52.306 50.8205C60.9146 48.9997 78.0226 44.262 92.4916 40.2131ZM93.9476 36.5775C74.2431 41.423 53.9926 46.544 46.482 49.1674C54.3687 47.7419 74.4918 42.0639 89.9072 37.7155C91.2965 37.3262 92.6433 36.9429 93.9476 36.5775ZM121.812 42.3454C117.644 43.3936 112.597 44.7352 107.179 46.2086C112.669 44.8011 117.699 43.4774 121.812 42.3454ZM89.9436 34.8645C74.686 38.6798 57.6022 42.9743 48.5932 45.6755C57.4324 43.6691 73.6971 39.2908 89.9436 34.8645ZM99.7049 29.4201C80.3583 34.1997 60.6295 39.165 52.9491 41.6985C61.406 40.2131 82.9852 34.1338 99.7049 29.4201ZM96.1923 27.1561C93.2682 27.8928 90.156 28.6714 86.8375 29.498C69.5293 33.8164 50.4739 38.578 41.38 41.3212C51.845 39.135 74.8498 32.9539 96.1923 27.1561ZM87.7354 22.6939C84.247 23.5385 80.5767 24.4189 76.7244 25.3473C52.9916 31.0612 24.363 37.9491 14.7109 41.2074C25.5824 39.3027 58.2028 30.624 87.7414 22.688L87.7354 22.6939ZM114.532 38.5061C111.935 39.1889 108.963 40.0095 105.838 40.89C109.054 40.0335 112.002 39.2249 114.532 38.5061ZM77.2461 28.6954C57.942 33.3911 39.6206 37.9491 31.8978 40.4108C40.0817 38.8895 59.0704 33.7325 77.2461 28.6954ZM154.529 31.2769C146.297 33.1516 132.926 36.6554 119.003 40.3868C133.053 36.9189 146.418 33.5588 154.529 31.2769ZM52.7974 21.9632C35.2526 26.2098 18.8544 30.2886 11.3257 32.6724C19.1335 31.0852 35.6106 26.665 52.7974 21.9632ZM70.1056 14.6441C67.3938 15.3089 64.5668 16.0037 61.6305 16.7224C40.6702 21.8494 15.5117 28.0066 5.98096 31.1032C16.6522 29.0847 45.2808 21.3703 70.1056 14.6441ZM70.2148 24.0895C63.0804 25.9103 56.3161 27.6652 51.0684 29.1147C56.2918 27.8269 63.0016 26.048 70.2148 24.0895ZM152.618 20.1305C146.479 21.55 137.846 23.778 128.376 26.2936C137.755 23.9817 146.467 21.7955 152.618 20.1305ZM73.8245 20.2802C66.593 22.1609 59.7741 23.9637 54.8116 25.3772C59.8287 24.1554 66.6537 22.2927 73.8245 20.2802ZM134.333 15.2371C126.356 17.004 111.286 21.1187 96.162 25.3113C111.074 21.5739 126.429 17.6628 134.333 15.2371ZM66.957 11.7991C46.5245 16.7644 27.2325 21.6218 19.1578 24.3291C27.9605 22.4843 48.3991 16.8842 66.866 11.8231C66.8964 11.8171 66.9267 11.8051 66.957 11.7991ZM166.669 10.5293C157.369 12.5059 138.568 17.5131 119.197 22.7598C138.119 18.1 157.393 13.3025 166.669 10.5293ZM165.577 4.34821C154.499 6.60624 124.354 14.704 97.1205 22.0291C124.063 15.5066 154.869 8.00178 165.577 4.34821ZM135.935 8.45099C128.097 10.1161 112.245 14.4165 97.2722 18.5313C113.385 14.6022 128.594 10.7749 135.935 8.45099ZM68.7042 8.67859C57.9602 11.3259 48.0715 13.8116 41.1494 15.7102C48.0836 14.0631 57.8995 11.5296 68.7042 8.67859ZM130.378 6.67811C123.565 8.1036 111.007 11.5775 99.1043 14.9556C111.474 11.829 123.79 8.66062 130.378 6.67811ZM65.2523 6.69008C53.5618 9.57701 42.1626 12.44 34.8098 14.4884C42.017 12.8233 53.0765 9.94236 65.2523 6.69008ZM117.359 0.479006C108.289 2.37168 88.1176 7.87002 70.3665 12.7335C89.0458 8.15152 108.75 3.23416 117.359 0.479006ZM63.7296 0.850355C47.6226 4.87528 29.4226 9.44524 20.1891 12.2124C29.2042 10.2119 46.4032 5.57605 63.7296 0.850355ZM129.698 0.892281C121.405 2.73105 105.553 6.92966 88.9548 11.4098C105.559 7.38486 121.569 3.38989 129.698 0.892281ZM45.93 2.28184C31.5398 5.79167 18.9818 8.97208 12.0962 11.0504C19.4429 9.42728 32.5712 5.92343 45.93 2.28184ZM67.2118 3.07245C60.5628 4.75549 54.5689 6.33072 50.2009 7.5945C54.666 6.49843 60.6902 4.87528 67.2118 3.07245ZM156.726 -12.4283C147.213 -10.3619 127.478 -5.15109 107.598 0.161565C128.036 -4.77376 147.577 -9.60127 156.726 -12.4283ZM127.272 -11.1825C119.197 -9.65518 99.9294 -4.25267 84.6232 0.059745C101.895 -4.20476 119.858 -8.72681 127.272 -11.1825ZM153.322 -14.5606C143.342 -12.5361 119.87 -6.23519 98.3581 -0.407433C120.077 -5.69014 143.64 -11.488 153.322 -14.5606ZM73.1996 -7.16954C65.1431 -5.12115 57.5355 -3.1566 51.6326 -1.55142C57.4809 -2.98291 65.0218 -4.97141 73.1996 -7.16954ZM107.531 -12.2965C99.9476 -10.5536 87.7293 -7.28933 75.2623 -3.8933C87.7536 -7.0258 100.032 -10.1463 107.531 -12.2965ZM77.0641 -11.0387C66.9874 -8.53515 56.7408 -5.94769 49.9097 -4.03106C56.6437 -5.6003 66.6234 -8.22968 77.0641 -11.0387ZM135.814 -16.1717C127.047 -14.4468 107.634 -9.27185 88.4452 -4.04304C89.6585 -4.34251 90.9022 -4.64798 92.1762 -4.95344C108.216 -8.87654 127.308 -13.5423 135.814 -16.1657V-16.1717ZM63.8388 -13.9436C54.666 -11.6018 45.3476 -9.19398 38.4316 -7.2534C45.293 -8.97237 54.4779 -11.4221 63.8388 -13.9436ZM154.123 -26.6293C144.701 -24.8265 119.67 -17.9865 98.5947 -12.2187C122.334 -17.9386 145.581 -23.6945 154.123 -26.6293ZM124.966 -25.1559C115.478 -23.0955 97.078 -18.2201 79.3088 -13.4465C81.2076 -13.9197 83.2036 -14.4108 85.2905 -14.9259C99.4744 -18.4357 116.176 -22.5685 124.973 -25.1559H124.966ZM52.9794 -20.3224C46.0088 -18.5675 39.839 -16.9444 35.5681 -15.6866C40.0453 -16.7527 46.3607 -18.4717 52.9794 -20.3224ZM116.546 -25.9944C108.083 -23.982 94.8091 -20.4422 82.063 -17.0043C95.252 -20.3104 108.338 -23.6466 116.546 -25.9944ZM100.845 -28.2046C97.4542 -27.3121 93.6989 -26.2879 89.9072 -25.2338C93.6868 -26.246 97.4542 -27.2642 100.845 -28.2046ZM127.278 -40.8004C120.222 -39.1653 108.708 -36.1107 97.1872 -32.9901C109.078 -35.907 120.453 -38.782 127.278 -40.8004ZM46.3971 -40.2075C46.4214 -40.1595 46.4335 -40.1116 46.4517 -40.0637C46.4409 -40.1141 46.4225 -40.1625 46.3971 -40.2075Z" fill="#DB3F29"/>
</svg>